<svg width="195" height="52" viewBox="0 0 195 52" fill="none" xmlns="http://www.w3.org/2000/svg">
<g filter="url(#filter0_d_594_1105)">
<path d="M59.4645 32.168C58.3605 32.168 57.3685 31.976 56.4885 31.592C55.6245 31.192 54.9445 30.648 54.4485 29.96C53.9525 29.256 53.6965 28.448 53.6805 27.536H56.0085C56.0885 28.32 56.4085 28.984 56.9685 29.528C57.5445 30.056 58.3765 30.32 59.4645 30.32C60.5045 30.32 61.3205 30.064 61.9125 29.552C62.5205 29.024 62.8245 28.352 62.8245 27.536C62.8245 26.896 62.6485 26.376 62.2965 25.976C61.9445 25.576 61.5045 25.272 60.9765 25.064C60.4485 24.856 59.7365 24.632 58.8405 24.392C57.7365 24.104 56.8485 23.816 56.1765 23.528C55.5205 23.24 54.9525 22.792 54.4725 22.184C54.0085 21.56 53.7765 20.728 53.7765 19.688C53.7765 18.776 54.0085 17.968 54.4725 17.264C54.9365 16.56 55.5845 16.016 56.4165 15.632C57.2645 15.248 58.2325 15.056 59.3205 15.056C60.8885 15.056 62.1685 15.448 63.1605 16.232C64.1685 17.016 64.7365 18.056 64.8645 19.352H62.4645C62.3845 18.712 62.0485 18.152 61.4565 17.672C60.8645 17.176 60.0805 16.928 59.1045 16.928C58.1925 16.928 57.4485 17.168 56.8725 17.648C56.2965 18.112 56.0085 18.768 56.0085 19.616C56.0085 20.224 56.1765 20.72 56.5125 21.104C56.8645 21.488 57.2885 21.784 57.7845 21.992C58.2965 22.184 59.0085 22.408 59.9205 22.664C61.0245 22.968 61.9125 23.272 62.5845 23.576C63.2565 23.864 63.8325 24.32 64.3125 24.944C64.7925 25.552 65.0325 26.384 65.0325 27.44C65.0325 28.256 64.8165 29.024 64.3845 29.744C63.9525 30.464 63.3125 31.048 62.4645 31.496C61.6165 31.944 60.6165 32.168 59.4645 32.168ZM69.3744 16.712C68.9584 16.712 68.6064 16.568 68.3184 16.28C68.0304 15.992 67.8864 15.64 67.8864 15.224C67.8864 14.808 68.0304 14.456 68.3184 14.168C68.6064 13.88 68.9584 13.736 69.3744 13.736C69.7744 13.736 70.1104 13.88 70.3824 14.168C70.6704 14.456 70.8144 14.808 70.8144 15.224C70.8144 15.64 70.6704 15.992 70.3824 16.28C70.1104 16.568 69.7744 16.712 69.3744 16.712ZM70.4304 18.848V32H68.2464V18.848H70.4304ZM79.5767 18.632C80.7127 18.632 81.7047 18.88 82.5527 19.376C83.4167 19.872 84.0567 20.496 84.4727 21.248V18.848H86.6807V32.288C86.6807 33.488 86.4247 34.552 85.9127 35.48C85.4007 36.424 84.6647 37.16 83.7047 37.688C82.7607 38.216 81.6567 38.48 80.3927 38.48C78.6647 38.48 77.2247 38.072 76.0727 37.256C74.9207 36.44 74.2407 35.328 74.0327 33.92H76.1927C76.4327 34.72 76.9287 35.36 77.6807 35.84C78.4327 36.336 79.3367 36.584 80.3927 36.584C81.5927 36.584 82.5687 36.208 83.3207 35.456C84.0887 34.704 84.4727 33.648 84.4727 32.288V29.528C84.0407 30.296 83.4007 30.936 82.5527 31.448C81.7047 31.96 80.7127 32.216 79.5767 32.216C78.4087 32.216 77.3447 31.928 76.3847 31.352C75.4407 30.776 74.6967 29.968 74.1527 28.928C73.6087 27.888 73.3367 26.704 73.3367 25.376C73.3367 24.032 73.6087 22.856 74.1527 21.848C74.6967 20.824 75.4407 20.032 76.3847 19.472C77.3447 18.912 78.4087 18.632 79.5767 18.632ZM84.4727 25.4C84.4727 24.408 84.2727 23.544 83.8727 22.808C83.4727 22.072 82.9287 21.512 82.2407 21.128C81.5687 20.728 80.8247 20.528 80.0087 20.528C79.1927 20.528 78.4487 20.72 77.7767 21.104C77.1047 21.488 76.5687 22.048 76.1687 22.784C75.7687 23.52 75.5687 24.384 75.5687 25.376C75.5687 26.384 75.7687 27.264 76.1687 28.016C76.5687 28.752 77.1047 29.32 77.7767 29.72C78.4487 30.104 79.1927 30.296 80.0087 30.296C80.8247 30.296 81.5687 30.104 82.2407 29.72C82.9287 29.32 83.4727 28.752 83.8727 28.016C84.2727 27.264 84.4727 26.392 84.4727 25.4ZM96.7794 18.608C98.3794 18.608 99.6754 19.096 100.667 20.072C101.659 21.032 102.155 22.424 102.155 24.248V32H99.9954V24.56C99.9954 23.248 99.6674 22.248 99.0114 21.56C98.3554 20.856 97.4594 20.504 96.3234 20.504C95.1714 20.504 94.2514 20.864 93.5634 21.584C92.8914 22.304 92.5554 23.352 92.5554 24.728V32H90.3714V18.848H92.5554V20.72C92.9874 20.048 93.5714 19.528 94.3074 19.16C95.0594 18.792 95.8834 18.608 96.7794 18.608ZM114.257 15.272V25.856C114.257 27.344 114.617 28.448 115.337 29.168C116.073 29.888 117.089 30.248 118.385 30.248C119.665 30.248 120.665 29.888 121.385 29.168C122.121 28.448 122.489 27.344 122.489 25.856V15.272H124.673V25.832C124.673 27.224 124.393 28.4 123.833 29.36C123.273 30.304 122.513 31.008 121.553 31.472C120.609 31.936 119.545 32.168 118.361 32.168C117.177 32.168 116.105 31.936 115.145 31.472C114.201 31.008 113.449 30.304 112.889 29.36C112.345 28.4 112.073 27.224 112.073 25.832V15.272H114.257ZM130.501 21.272C130.933 20.52 131.573 19.896 132.421 19.4C133.285 18.888 134.285 18.632 135.421 18.632C136.589 18.632 137.645 18.912 138.589 19.472C139.549 20.032 140.301 20.824 140.845 21.848C141.389 22.856 141.661 24.032 141.661 25.376C141.661 26.704 141.389 27.888 140.845 28.928C140.301 29.968 139.549 30.776 138.589 31.352C137.645 31.928 136.589 32.216 135.421 32.216C134.301 32.216 133.309 31.968 132.445 31.472C131.597 30.96 130.949 30.328 130.501 29.576V38.24H128.317V18.848H130.501V21.272ZM139.429 25.376C139.429 24.384 139.229 23.52 138.829 22.784C138.429 22.048 137.885 21.488 137.197 21.104C136.525 20.72 135.781 20.528 134.965 20.528C134.165 20.528 133.421 20.728 132.733 21.128C132.061 21.512 131.517 22.08 131.101 22.832C130.701 23.568 130.501 24.424 130.501 25.4C130.501 26.392 130.701 27.264 131.101 28.016C131.517 28.752 132.061 29.32 132.733 29.72C133.421 30.104 134.165 30.296 134.965 30.296C135.781 30.296 136.525 30.104 137.197 29.72C137.885 29.32 138.429 28.752 138.829 28.016C139.229 27.264 139.429 26.384 139.429 25.376Z" fill="black"/>
<path d="M52.3125 34.4H72.925V35.6H52.3125V34.4ZM87.575 34.4H127.12V35.6H87.575V34.4ZM131.7 34.4H142.693V35.6H131.7V34.4Z" fill="black"/>
</g>
<rect x="36" y="1" width="124" height="50" rx="7" stroke="#FFE071" stroke-width="2"/>
<defs>
<filter id="filter0_d_594_1105" x="48.3125" y="13.7363" width="98.3802" height="32.7441" filterUnits="userSpaceOnUse" color-interpolation-filters="sRGB">
<feFlood flood-opacity="0" result="BackgroundImageFix"/>
<feColorMatrix in="SourceAlpha" type="matrix" values="0 0 0 0 0 0 0 0 0 0 0 0 0 0 0 0 0 0 127 0" result="hardAlpha"/>
<feOffset dy="4"/>
<feGaussianBlur stdDeviation="2"/>
<feComposite in2="hardAlpha" operator="out"/>
<feColorMatrix type="matrix" values="0 0 0 0 0 0 0 0 0 0 0 0 0 0 0 0 0 0 0.25 0"/>
<feBlend mode="normal" in2="BackgroundImageFix" result="effect1_dropShadow_594_1105"/>
<feBlend mode="normal" in="SourceGraphic" in2="effect1_dropShadow_594_1105" result="shape"/>
</filter>
</defs>
</svg>
