<svg width="126" height="52" viewBox="0 0 126 52" fill="none" xmlns="http://www.w3.org/2000/svg">
<g clip-path="url(#clip0_511_1231)">
<rect width="126" height="52" rx="10" fill="black"/>
<path d="M29.272 21.272V33.632C29.272 35.008 28.848 36.112 28 36.944C27.152 37.76 26.032 38.168 24.64 38.168C23.232 38.168 22.104 37.752 21.256 36.92C20.408 36.072 19.984 34.92 19.984 33.464H22.168C22.184 34.28 22.392 34.944 22.792 35.456C23.208 35.968 23.824 36.224 24.64 36.224C25.456 36.224 26.064 35.984 26.464 35.504C26.864 35.008 27.064 34.384 27.064 33.632V21.272H29.272ZM39.3106 38.216C38.0786 38.216 36.9586 37.936 35.9506 37.376C34.9586 36.816 34.1746 36.024 33.5986 35C33.0386 33.96 32.7586 32.76 32.7586 31.4C32.7586 30.056 33.0466 28.872 33.6226 27.848C34.2146 26.808 35.0146 26.016 36.0226 25.472C37.0306 24.912 38.1586 24.632 39.4066 24.632C40.6546 24.632 41.7826 24.912 42.7906 25.472C43.7986 26.016 44.5906 26.8 45.1666 27.824C45.7586 28.848 46.0546 30.04 46.0546 31.4C46.0546 32.76 45.7506 33.96 45.1426 35C44.5506 36.024 43.7426 36.816 42.7186 37.376C41.6946 37.936 40.5586 38.216 39.3106 38.216ZM39.3106 36.296C40.0946 36.296 40.8306 36.112 41.5186 35.744C42.2066 35.376 42.7586 34.824 43.1746 34.088C43.6066 33.352 43.8226 32.456 43.8226 31.4C43.8226 30.344 43.6146 29.448 43.1986 28.712C42.7826 27.976 42.2386 27.432 41.5666 27.08C40.8946 26.712 40.1666 26.528 39.3826 26.528C38.5826 26.528 37.8466 26.712 37.1746 27.08C36.5186 27.432 35.9906 27.976 35.5906 28.712C35.1906 29.448 34.9906 30.344 34.9906 31.4C34.9906 32.472 35.1826 33.376 35.5666 34.112C35.9666 34.848 36.4946 35.4 37.1506 35.768C37.8066 36.12 38.5266 36.296 39.3106 36.296ZM50.0541 22.712C49.6381 22.712 49.2861 22.568 48.9981 22.28C48.7101 21.992 48.5661 21.64 48.5661 21.224C48.5661 20.808 48.7101 20.456 48.9981 20.168C49.2861 19.88 49.6381 19.736 50.0541 19.736C50.4541 19.736 50.7901 19.88 51.0621 20.168C51.3501 20.456 51.4941 20.808 51.4941 21.224C51.4941 21.64 51.3501 21.992 51.0621 22.28C50.7901 22.568 50.4541 22.712 50.0541 22.712ZM51.1101 24.848V38H48.9261V24.848H51.1101ZM61.2404 24.608C62.8404 24.608 64.1364 25.096 65.1284 26.072C66.1204 27.032 66.6164 28.424 66.6164 30.248V38H64.4564V30.56C64.4564 29.248 64.1284 28.248 63.4724 27.56C62.8164 26.856 61.9204 26.504 60.7844 26.504C59.6324 26.504 58.7124 26.864 58.0244 27.584C57.3524 28.304 57.0164 29.352 57.0164 30.728V38H54.8324V24.848H57.0164V26.72C57.4484 26.048 58.0324 25.528 58.7684 25.16C59.5204 24.792 60.3444 24.608 61.2404 24.608ZM78.7184 21.272V31.856C78.7184 33.344 79.0784 34.448 79.7984 35.168C80.5344 35.888 81.5504 36.248 82.8464 36.248C84.1264 36.248 85.1264 35.888 85.8464 35.168C86.5824 34.448 86.9504 33.344 86.9504 31.856V21.272H89.1344V31.832C89.1344 33.224 88.8544 34.4 88.2944 35.36C87.7344 36.304 86.9744 37.008 86.0144 37.472C85.0704 37.936 84.0064 38.168 82.8224 38.168C81.6384 38.168 80.5664 37.936 79.6064 37.472C78.6624 37.008 77.9104 36.304 77.3504 35.36C76.8064 34.4 76.5344 33.224 76.5344 31.832V21.272H78.7184ZM97.4337 38.216C96.4257 38.216 95.5217 38.048 94.7217 37.712C93.9217 37.36 93.2897 36.88 92.8257 36.272C92.3617 35.648 92.1057 34.936 92.0577 34.136H94.3137C94.3777 34.792 94.6817 35.328 95.2257 35.744C95.7857 36.16 96.5137 36.368 97.4097 36.368C98.2417 36.368 98.8977 36.184 99.3777 35.816C99.8577 35.448 100.098 34.984 100.098 34.424C100.098 33.848 99.8417 33.424 99.3297 33.152C98.8177 32.864 98.0257 32.584 96.9537 32.312C95.9777 32.056 95.1777 31.8 94.5537 31.544C93.9457 31.272 93.4177 30.88 92.9697 30.368C92.5377 29.84 92.3217 29.152 92.3217 28.304C92.3217 27.632 92.5217 27.016 92.9217 26.456C93.3217 25.896 93.8897 25.456 94.6257 25.136C95.3617 24.8 96.2017 24.632 97.1457 24.632C98.6017 24.632 99.7777 25 100.674 25.736C101.57 26.472 102.05 27.48 102.114 28.76H99.9297C99.8817 28.072 99.6017 27.52 99.0897 27.104C98.5937 26.688 97.9217 26.48 97.0737 26.48C96.2897 26.48 95.6657 26.648 95.2017 26.984C94.7377 27.32 94.5057 27.76 94.5057 28.304C94.5057 28.736 94.6417 29.096 94.9137 29.384C95.2017 29.656 95.5537 29.88 95.9697 30.056C96.4017 30.216 96.9937 30.4 97.7457 30.608C98.6897 30.864 99.4577 31.12 100.05 31.376C100.642 31.616 101.146 31.984 101.562 32.48C101.994 32.976 102.218 33.624 102.234 34.424C102.234 35.144 102.034 35.792 101.634 36.368C101.234 36.944 100.666 37.4 99.9297 37.736C99.2097 38.056 98.3777 38.216 97.4337 38.216Z" fill="white"/>
<path d="M19 40.4H103.469V41.6H19V40.4Z" fill="white"/>
</g>
<rect x="1" y="1" width="124" height="50" rx="7" stroke="#FFE071" stroke-width="2"/>
<defs>
<clipPath id="clip0_511_1231">
<rect width="126" height="52" rx="8" fill="white"/>
</clipPath>
</defs>
</svg>
