<svg width="85" height="34" viewBox="0 0 85 34" fill="none" xmlns="http://www.w3.org/2000/svg">
<g clip-path="url(#clip0_511_1239)">
<rect width="85" height="34" rx="10" fill="black"/>
<path d="M27.748 14.5H25.954C25.8933 13.5553 25.2433 13.083 24.004 13.083C23.51 13.083 23.1157 13.1827 22.821 13.382C22.535 13.5813 22.392 13.85 22.392 14.188C22.392 14.5173 22.5133 14.7643 22.756 14.929C22.9987 15.0937 23.4667 15.241 24.16 15.371L25.616 15.644C26.474 15.8087 27.098 16.0903 27.488 16.489C27.878 16.8877 28.073 17.451 28.073 18.179C28.073 19.1757 27.6917 19.934 26.929 20.454C26.2703 20.9133 25.382 21.143 24.264 21.143C22.99 21.143 22.0193 20.8483 21.352 20.259C20.7713 19.7477 20.455 19.037 20.403 18.127H22.262C22.3313 19.115 23.029 19.609 24.355 19.609C24.9443 19.609 25.4037 19.505 25.733 19.297C26.071 19.0803 26.24 18.7857 26.24 18.413C26.24 18.049 26.1057 17.7673 25.837 17.568C25.577 17.3687 25.1263 17.2083 24.485 17.087L23.185 16.84C22.2403 16.6667 21.5643 16.3937 21.157 16.021C20.7583 15.6397 20.559 15.0937 20.559 14.383C20.559 13.421 20.91 12.693 21.612 12.199C22.2187 11.7657 23.042 11.549 24.082 11.549C25.3387 11.549 26.2833 11.835 26.916 12.407C27.462 12.9097 27.7393 13.6073 27.748 14.5ZM35.4216 21H33.6406V20.025C33.1552 20.7703 32.4662 21.143 31.5736 21.143C30.7849 21.143 30.1869 20.909 29.7796 20.441C29.4329 20.0337 29.2596 19.4747 29.2596 18.764V14.11H31.0536V18.387C31.0536 19.2103 31.4349 19.622 32.1976 19.622C32.6309 19.622 32.9776 19.5007 33.2376 19.258C33.5062 19.0153 33.6406 18.686 33.6406 18.27V14.11H35.4216V21ZM37.1195 11.692H38.9135V14.89C39.3381 14.2747 39.9665 13.967 40.7985 13.967C41.7258 13.967 42.4581 14.3397 42.9955 15.085C43.4721 15.7437 43.7105 16.567 43.7105 17.555C43.7105 18.6817 43.4028 19.583 42.7875 20.259C42.2501 20.8483 41.5871 21.143 40.7985 21.143C39.9578 21.143 39.3295 20.8397 38.9135 20.233V21H37.1195V11.692ZM40.4085 15.462C39.9491 15.462 39.5808 15.6527 39.3035 16.034C39.0348 16.4067 38.9005 16.918 38.9005 17.568C38.9005 18.2093 39.0348 18.7163 39.3035 19.089C39.5721 19.4617 39.9405 19.648 40.4085 19.648C40.8678 19.648 41.2318 19.4617 41.5005 19.089C41.7778 18.7077 41.9165 18.2007 41.9165 17.568C41.9165 16.9267 41.7778 16.4153 41.5005 16.034C41.2318 15.6527 40.8678 15.462 40.4085 15.462ZM44.9652 14.11H46.7462V14.942C47.2748 14.292 47.9032 13.967 48.6312 13.967C49.5238 13.967 50.1478 14.305 50.5032 14.981C51.0232 14.305 51.6948 13.967 52.5182 13.967C53.2115 13.967 53.7488 14.1577 54.1302 14.539C54.5202 14.9117 54.7152 15.4317 54.7152 16.099V21H52.9342V16.385C52.9342 15.787 52.6092 15.488 51.9592 15.488C51.5778 15.488 51.2788 15.6093 51.0622 15.852C50.8455 16.086 50.7372 16.4153 50.7372 16.84V21H48.9432V16.385C48.9432 15.787 48.6225 15.488 47.9812 15.488C47.5998 15.488 47.3008 15.6093 47.0842 15.852C46.8675 16.086 46.7592 16.4153 46.7592 16.84V21H44.9652V14.11ZM58.1856 14.11V21H56.3916V14.11H58.1856ZM57.2756 11.744C57.5096 11.744 57.7046 11.8263 57.8606 11.991C58.0252 12.1557 58.1076 12.355 58.1076 12.589C58.1076 12.823 58.0252 13.0223 57.8606 13.187C57.7046 13.343 57.5096 13.421 57.2756 13.421C57.0416 13.421 56.8422 13.343 56.6776 13.187C56.5129 13.0223 56.4306 12.823 56.4306 12.589C56.4306 12.355 56.5129 12.1557 56.6776 11.991C56.8422 11.8263 57.0416 11.744 57.2756 11.744ZM63.1833 14.11V15.293H61.9743V19.128C61.9743 19.3793 62.0176 19.5527 62.1043 19.648C62.1996 19.7433 62.3686 19.791 62.6113 19.791C62.8106 19.791 63.0663 19.713 63.3783 19.557C63.4043 19.5397 63.4259 19.5267 63.4433 19.518L63.6513 20.74C63.1053 21.0087 62.5333 21.143 61.9353 21.143C60.7653 21.143 60.1803 20.6057 60.1803 19.531V15.293H59.2963V14.11H60.1803V12.966L61.9743 11.939V14.11H63.1833Z" fill="white"/>
</g>
<rect x="1" y="1" width="83" height="32" rx="7" stroke="#FFE071" stroke-width="2"/>
<defs>
<clipPath id="clip0_511_1239">
<rect width="85" height="34" rx="8" fill="white"/>
</clipPath>
</defs>
</svg>
