<svg width="195" height="40" viewBox="0 0 195 40" fill="none" xmlns="http://www.w3.org/2000/svg">
<g filter="url(#filter0_d_511_1155)">
<mask id="path-1-inside-1_511_1155" fill="white">
<path d="M66.1883 24.224H72.0443V26H64.0043V9.272H66.1883V24.224ZM81.9476 26.168C80.3956 26.168 78.9796 25.808 77.6996 25.088C76.4196 24.352 75.4036 23.336 74.6516 22.04C73.9156 20.728 73.5476 19.256 73.5476 17.624C73.5476 15.992 73.9156 14.528 74.6516 13.232C75.4036 11.92 76.4196 10.904 77.6996 10.184C78.9796 9.448 80.3956 9.08 81.9476 9.08C83.5156 9.08 84.9396 9.448 86.2196 10.184C87.4996 10.904 88.5076 11.912 89.2436 13.208C89.9796 14.504 90.3476 15.976 90.3476 17.624C90.3476 19.272 89.9796 20.744 89.2436 22.04C88.5076 23.336 87.4996 24.352 86.2196 25.088C84.9396 25.808 83.5156 26.168 81.9476 26.168ZM81.9476 24.272C83.1156 24.272 84.1636 24 85.0916 23.456C86.0356 22.912 86.7716 22.136 87.2996 21.128C87.8436 20.12 88.1156 18.952 88.1156 17.624C88.1156 16.28 87.8436 15.112 87.2996 14.12C86.7716 13.112 86.0436 12.336 85.1156 11.792C84.1876 11.248 83.1316 10.976 81.9476 10.976C80.7636 10.976 79.7076 11.248 78.7796 11.792C77.8516 12.336 77.1156 13.112 76.5716 14.12C76.0436 15.112 75.7796 16.28 75.7796 17.624C75.7796 18.952 76.0436 20.12 76.5716 21.128C77.1156 22.136 77.8516 22.912 78.7796 23.456C79.7236 24 80.7796 24.272 81.9476 24.272ZM105.903 14.12C105.439 13.144 104.767 12.392 103.887 11.864C103.007 11.32 101.983 11.048 100.815 11.048C99.6468 11.048 98.5908 11.32 97.6468 11.864C96.7188 12.392 95.9828 13.16 95.4388 14.168C94.9108 15.16 94.6468 16.312 94.6468 17.624C94.6468 18.936 94.9108 20.088 95.4388 21.08C95.9828 22.072 96.7188 22.84 97.6468 23.384C98.5908 23.912 99.6468 24.176 100.815 24.176C102.447 24.176 103.791 23.688 104.847 22.712C105.903 21.736 106.519 20.416 106.695 18.752H100.023V16.976H109.023V18.656C108.895 20.032 108.463 21.296 107.727 22.448C106.991 23.584 106.023 24.488 104.823 25.16C103.623 25.816 102.287 26.144 100.815 26.144C99.2628 26.144 97.8468 25.784 96.5668 25.064C95.2868 24.328 94.2708 23.312 93.5188 22.016C92.7828 20.72 92.4148 19.256 92.4148 17.624C92.4148 15.992 92.7828 14.528 93.5188 13.232C94.2708 11.92 95.2868 10.904 96.5668 10.184C97.8468 9.448 99.2628 9.08 100.815 9.08C102.591 9.08 104.159 9.52 105.519 10.4C106.895 11.28 107.895 12.52 108.519 14.12H105.903ZM114.095 9.272V26H111.911V9.272H114.095ZM130.969 26H128.785L120.001 12.68V26H117.817V9.248H120.001L128.785 22.544V9.248H130.969V26Z"/>
<path d="M62.1562 28.4H132.841V29.6H62.1562V28.4Z"/>
</mask>
<path d="M66.1883 24.224H72.0443V26H64.0043V9.272H66.1883V24.224ZM81.9476 26.168C80.3956 26.168 78.9796 25.808 77.6996 25.088C76.4196 24.352 75.4036 23.336 74.6516 22.04C73.9156 20.728 73.5476 19.256 73.5476 17.624C73.5476 15.992 73.9156 14.528 74.6516 13.232C75.4036 11.92 76.4196 10.904 77.6996 10.184C78.9796 9.448 80.3956 9.08 81.9476 9.08C83.5156 9.08 84.9396 9.448 86.2196 10.184C87.4996 10.904 88.5076 11.912 89.2436 13.208C89.9796 14.504 90.3476 15.976 90.3476 17.624C90.3476 19.272 89.9796 20.744 89.2436 22.04C88.5076 23.336 87.4996 24.352 86.2196 25.088C84.9396 25.808 83.5156 26.168 81.9476 26.168ZM81.9476 24.272C83.1156 24.272 84.1636 24 85.0916 23.456C86.0356 22.912 86.7716 22.136 87.2996 21.128C87.8436 20.12 88.1156 18.952 88.1156 17.624C88.1156 16.28 87.8436 15.112 87.2996 14.12C86.7716 13.112 86.0436 12.336 85.1156 11.792C84.1876 11.248 83.1316 10.976 81.9476 10.976C80.7636 10.976 79.7076 11.248 78.7796 11.792C77.8516 12.336 77.1156 13.112 76.5716 14.12C76.0436 15.112 75.7796 16.28 75.7796 17.624C75.7796 18.952 76.0436 20.12 76.5716 21.128C77.1156 22.136 77.8516 22.912 78.7796 23.456C79.7236 24 80.7796 24.272 81.9476 24.272ZM105.903 14.12C105.439 13.144 104.767 12.392 103.887 11.864C103.007 11.32 101.983 11.048 100.815 11.048C99.6468 11.048 98.5908 11.32 97.6468 11.864C96.7188 12.392 95.9828 13.16 95.4388 14.168C94.9108 15.16 94.6468 16.312 94.6468 17.624C94.6468 18.936 94.9108 20.088 95.4388 21.08C95.9828 22.072 96.7188 22.84 97.6468 23.384C98.5908 23.912 99.6468 24.176 100.815 24.176C102.447 24.176 103.791 23.688 104.847 22.712C105.903 21.736 106.519 20.416 106.695 18.752H100.023V16.976H109.023V18.656C108.895 20.032 108.463 21.296 107.727 22.448C106.991 23.584 106.023 24.488 104.823 25.16C103.623 25.816 102.287 26.144 100.815 26.144C99.2628 26.144 97.8468 25.784 96.5668 25.064C95.2868 24.328 94.2708 23.312 93.5188 22.016C92.7828 20.72 92.4148 19.256 92.4148 17.624C92.4148 15.992 92.7828 14.528 93.5188 13.232C94.2708 11.92 95.2868 10.904 96.5668 10.184C97.8468 9.448 99.2628 9.08 100.815 9.08C102.591 9.08 104.159 9.52 105.519 10.4C106.895 11.28 107.895 12.52 108.519 14.12H105.903ZM114.095 9.272V26H111.911V9.272H114.095ZM130.969 26H128.785L120.001 12.68V26H117.817V9.248H120.001L128.785 22.544V9.248H130.969V26Z" fill="white"/>
<path d="M62.1562 28.4H132.841V29.6H62.1562V28.4Z" fill="white"/>
<path d="M66.1882 24.224H65.1882V25.224H66.1882V24.224ZM72.0443 24.224H73.0443V23.224H72.0443V24.224ZM72.0443 26V27H73.0443V26H72.0443ZM64.0042 26H63.0042V27H64.0042V26ZM64.0042 9.272V8.272H63.0042V9.272H64.0042ZM66.1882 9.272H67.1882V8.272H66.1882V9.272ZM66.1882 24.224V25.224H72.0443V24.224V23.224H66.1882V24.224ZM72.0443 24.224H71.0443V26H72.0443H73.0443V24.224H72.0443ZM72.0443 26V25H64.0042V26V27H72.0443V26ZM64.0042 26H65.0042V9.272H64.0042H63.0042V26H64.0042ZM64.0042 9.272V10.272H66.1882V9.272V8.272H64.0042V9.272ZM66.1882 9.272H65.1882V24.224H66.1882H67.1882V9.272H66.1882ZM77.6996 25.088L77.2011 25.9549L77.2094 25.9596L77.6996 25.088ZM74.6516 22.04L73.7795 22.5293L73.783 22.5356L73.7867 22.5419L74.6516 22.04ZM74.6516 13.232L73.784 12.7347L73.7821 12.7382L74.6516 13.232ZM77.6996 10.184L78.1899 11.0556L78.1981 11.0509L77.6996 10.184ZM86.2196 10.184L85.7211 11.0509L85.7294 11.0556L86.2196 10.184ZM89.2436 13.208L90.1132 12.7142V12.7142L89.2436 13.208ZM86.2196 25.088L86.7099 25.9596L86.7181 25.9549L86.2196 25.088ZM85.0916 23.456L84.5923 22.5895L84.5859 22.5933L85.0916 23.456ZM87.2996 21.128L86.4195 20.653L86.4138 20.664L87.2996 21.128ZM87.2996 14.12L86.4138 14.584L86.4182 14.5925L86.4228 14.6008L87.2996 14.12ZM85.1156 11.792L84.6099 12.6547L85.1156 11.792ZM78.7796 11.792L79.2853 12.6547V12.6547L78.7796 11.792ZM76.5716 14.12L75.6916 13.6451L75.6889 13.6502L76.5716 14.12ZM76.5716 21.128L75.6857 21.592L75.6916 21.6029L76.5716 21.128ZM78.7796 23.456L78.2739 24.3187L78.2803 24.3224L78.7796 23.456ZM81.9476 26.168V25.168C80.5573 25.168 79.3116 24.8474 78.1899 24.2164L77.6996 25.088L77.2094 25.9596C78.6476 26.7686 80.234 27.168 81.9476 27.168V26.168ZM77.6996 25.088L78.1981 24.2211C77.0725 23.5739 76.1819 22.6848 75.5166 21.5381L74.6516 22.04L73.7867 22.5419C74.6254 23.9872 75.7668 25.1301 77.2012 25.9549L77.6996 25.088ZM74.6516 22.04L75.5238 21.5507C74.8786 20.4007 74.5476 19.0996 74.5476 17.624H73.5476H72.5476C72.5476 19.4124 72.9526 21.0553 73.7795 22.5293L74.6516 22.04ZM73.5476 17.624H74.5476C74.5476 16.1482 74.8787 14.8572 75.5212 13.7258L74.6516 13.232L73.7821 12.7382C72.9526 14.1988 72.5476 15.8358 72.5476 17.624H73.5476ZM74.6516 13.232L75.5192 13.7293C76.1843 12.5689 77.072 11.6844 78.1899 11.0556L77.6996 10.184L77.2094 9.31242C75.7673 10.1236 74.6229 11.2711 73.784 12.7347L74.6516 13.232ZM77.6996 10.184L78.1981 11.0509C79.3186 10.4066 80.5613 10.08 81.9476 10.08V9.08V8.08C80.23 8.08 78.6407 8.48937 77.2012 9.31709L77.6996 10.184ZM81.9476 9.08V10.08C83.3519 10.08 84.6023 10.4075 85.7212 11.0509L86.2196 10.184L86.7181 9.31709C85.277 8.48845 83.6793 8.08 81.9476 8.08V9.08ZM86.2196 10.184L85.7294 11.0556C86.8485 11.6851 87.7264 12.5614 88.3741 13.7018L89.2436 13.208L90.1132 12.7142C89.2888 11.2626 88.1508 10.1229 86.7099 9.31242L86.2196 10.184ZM89.2436 13.208L88.3741 13.7018C89.0158 14.8318 89.3476 16.1304 89.3476 17.624H90.3476H91.3476C91.3476 15.8216 90.9435 14.1762 90.1132 12.7142L89.2436 13.208ZM90.3476 17.624H89.3476C89.3476 19.1176 89.0158 20.4162 88.3741 21.5462L89.2436 22.04L90.1132 22.5338C90.9435 21.0718 91.3476 19.4264 91.3476 17.624H90.3476ZM89.2436 22.04L88.3741 21.5462C87.7254 22.6885 86.8448 23.575 85.7212 24.2211L86.2196 25.088L86.7181 25.9549C88.1544 25.129 89.2899 23.9835 90.1132 22.5338L89.2436 22.04ZM86.2196 25.088L85.7294 24.2164C84.6092 24.8465 83.3559 25.168 81.9476 25.168V26.168V27.168C83.6754 27.168 85.2701 26.7695 86.7099 25.9596L86.2196 25.088ZM81.9476 24.272V25.272C83.2777 25.272 84.5029 24.9602 85.5973 24.3187L85.0916 23.456L84.5859 22.5933C83.8243 23.0398 82.9536 23.272 81.9476 23.272V24.272ZM85.0916 23.456L85.5909 24.3224C86.7068 23.6794 87.5735 22.7603 88.1855 21.592L87.2996 21.128L86.4138 20.664C85.9697 21.5117 85.3644 22.1446 84.5923 22.5896L85.0916 23.456ZM87.2996 21.128L88.1796 21.6029C88.8141 20.4273 89.1156 19.0912 89.1156 17.624H88.1156H87.1156C87.1156 18.8128 86.8731 19.8127 86.4196 20.6531L87.2996 21.128ZM88.1156 17.624H89.1156C89.1156 16.1435 88.8152 14.804 88.1764 13.6392L87.2996 14.12L86.4228 14.6008C86.8721 15.42 87.1156 16.4165 87.1156 17.624H88.1156ZM87.2996 14.12L88.1855 13.656C87.5758 12.4922 86.7204 11.5736 85.6213 10.9293L85.1156 11.792L84.6099 12.6547C85.3669 13.0984 85.9674 13.7318 86.4138 14.584L87.2996 14.12ZM85.1156 11.792L85.6213 10.9293C84.5248 10.2865 83.291 9.976 81.9476 9.976V10.976V11.976C82.9723 11.976 83.8504 12.2095 84.6099 12.6547L85.1156 11.792ZM81.9476 10.976V9.976C80.6042 9.976 79.3704 10.2865 78.2739 10.9293L78.7796 11.792L79.2853 12.6547C80.0448 12.2095 80.923 11.976 81.9476 11.976V10.976ZM78.7796 11.792L78.2739 10.9293C77.1777 11.5719 76.3167 12.4869 75.6916 13.6451L76.5716 14.12L77.4516 14.5949C77.9146 13.7371 78.5256 13.1001 79.2853 12.6547L78.7796 11.792ZM76.5716 14.12L75.6889 13.6502C75.0702 14.8126 74.7796 16.1481 74.7796 17.624H75.7796H76.7796C76.7796 16.4119 77.0171 15.4114 77.4544 14.5898L76.5716 14.12ZM75.7796 17.624H74.7796C74.7796 19.0866 75.0712 20.4187 75.6858 21.592L76.5716 21.128L77.4575 20.664C77.0161 19.8213 76.7796 18.8174 76.7796 17.624H75.7796ZM76.5716 21.128L75.6916 21.6029C76.3167 22.7611 77.1777 23.6761 78.2739 24.3187L78.7796 23.456L79.2853 22.5933C78.5256 22.1479 77.9146 21.5109 77.4516 20.6531L76.5716 21.128ZM78.7796 23.456L78.2803 24.3224C79.3871 24.9602 80.6174 25.272 81.9476 25.272V24.272V23.272C80.9418 23.272 80.0601 23.0398 79.2789 22.5896L78.7796 23.456ZM105.903 14.12L105 14.5494L105.271 15.12H105.903V14.12ZM103.887 11.864L103.361 12.7147L103.372 12.7215L103.887 11.864ZM97.6468 11.864L98.1413 12.7332L98.1461 12.7304L97.6468 11.864ZM95.4388 14.168L94.5588 13.6931L94.5561 13.6981L95.4388 14.168ZM95.4388 21.08L94.556 21.5499L94.562 21.5608L95.4388 21.08ZM97.6468 23.384L97.1411 24.2467L97.1498 24.2518L97.1587 24.2568L97.6468 23.384ZM104.847 22.712L105.526 23.4464L104.847 22.712ZM106.695 18.752L107.689 18.8572L107.806 17.752H106.695V18.752ZM100.023 18.752H99.0228V19.752H100.023V18.752ZM100.023 16.976V15.976H99.0228V16.976H100.023ZM109.023 16.976H110.023V15.976H109.023V16.976ZM109.023 18.656L110.019 18.7486L110.023 18.7024V18.656H109.023ZM107.727 22.448L108.566 22.9918L108.57 22.9864L107.727 22.448ZM104.823 25.16L105.303 26.0375L105.311 26.0325L104.823 25.16ZM96.5668 25.064L96.0683 25.9309L96.0766 25.9356L96.5668 25.064ZM93.5188 22.016L92.6492 22.5098L92.6539 22.5179L93.5188 22.016ZM93.5188 13.232L92.6512 12.7347L92.6493 12.7382L93.5188 13.232ZM96.5668 10.184L97.0571 11.0556L97.0653 11.0509L96.5668 10.184ZM105.519 10.4L104.976 11.2396L104.98 11.2424L105.519 10.4ZM108.519 14.12V15.12H109.982L109.45 13.7567L108.519 14.12ZM105.903 14.12L106.806 13.6906C106.262 12.5467 105.459 11.6414 104.401 11.0065L103.887 11.864L103.372 12.7215C104.074 13.1426 104.616 13.7413 105 14.5494L105.903 14.12ZM103.887 11.864L104.413 11.0134C103.355 10.3596 102.144 10.048 100.815 10.048V11.048V12.048C101.822 12.048 102.659 12.2804 103.361 12.7146L103.887 11.864ZM100.815 11.048V10.048C99.4846 10.048 98.2543 10.3598 97.1475 10.9976L97.6468 11.864L98.1461 12.7304C98.9273 12.2802 99.809 12.048 100.815 12.048V11.048ZM97.6468 11.864L97.1523 10.9948C96.0495 11.6223 95.1851 12.5326 94.5588 13.6931L95.4388 14.168L96.3188 14.6429C96.7806 13.7874 97.3882 13.1617 98.1413 12.7332L97.6468 11.864ZM95.4388 14.168L94.5561 13.6981C93.9391 14.8573 93.6468 16.1757 93.6468 17.624H94.6468H95.6468C95.6468 16.4483 95.8825 15.4627 96.3216 14.6378L95.4388 14.168ZM94.6468 17.624H93.6468C93.6468 19.0723 93.9391 20.3907 94.5561 21.5498L95.4388 21.08L96.3216 20.6102C95.8825 19.7853 95.6468 18.7997 95.6468 17.624H94.6468ZM95.4388 21.08L94.562 21.5608C95.1882 22.7028 96.049 23.6065 97.1411 24.2467L97.6468 23.384L98.1525 22.5213C97.3887 22.0735 96.7774 21.4412 96.3156 20.5992L95.4388 21.08ZM97.6468 23.384L97.1587 24.2568C98.2636 24.8748 99.49 25.176 100.815 25.176V24.176V23.176C99.8037 23.176 98.918 22.9492 98.135 22.5112L97.6468 23.384ZM100.815 24.176V25.176C102.662 25.176 104.26 24.6164 105.526 23.4464L104.847 22.712L104.168 21.9776C103.322 22.7596 102.232 23.176 100.815 23.176V24.176ZM104.847 22.712L105.526 23.4464C106.788 22.2794 107.492 20.7204 107.689 18.8572L106.695 18.752L105.7 18.6468C105.545 20.1116 105.017 21.1926 104.168 21.9776L104.847 22.712ZM106.695 18.752V17.752H100.023V18.752V19.752H106.695V18.752ZM100.023 18.752H101.023V16.976H100.023H99.0228V18.752H100.023ZM100.023 16.976V17.976H109.023V16.976V15.976H100.023V16.976ZM109.023 16.976H108.023V18.656H109.023H110.023V16.976H109.023ZM109.023 18.656L108.027 18.5634C107.914 19.7825 107.533 20.8934 106.884 21.9096L107.727 22.448L108.57 22.9864C109.392 21.6986 109.876 20.2815 110.019 18.7486L109.023 18.656ZM107.727 22.448L106.888 21.9043C106.241 22.9015 105.395 23.6936 104.334 24.2875L104.823 25.16L105.311 26.0325C106.651 25.2824 107.74 24.2665 108.566 22.9917L107.727 22.448ZM104.823 25.16L104.343 24.2826C103.301 24.8521 102.132 25.144 100.815 25.144V26.144V27.144C102.441 27.144 103.944 26.7799 105.302 26.0374L104.823 25.16ZM100.815 26.144V25.144C99.4244 25.144 98.1788 24.8234 97.0571 24.1924L96.5668 25.064L96.0766 25.9356C97.5148 26.7446 99.1012 27.144 100.815 27.144V26.144ZM96.5668 25.064L97.0653 24.1971C95.9397 23.5499 95.0491 22.6608 94.3838 21.5141L93.5188 22.016L92.6539 22.5179C93.4925 23.9632 94.6339 25.1061 96.0683 25.9309L96.5668 25.064ZM93.5188 22.016L94.3884 21.5222C93.7458 20.3908 93.4148 19.0998 93.4148 17.624H92.4148H91.4148C91.4148 19.4122 91.8198 21.0492 92.6493 22.5098L93.5188 22.016ZM92.4148 17.624H93.4148C93.4148 16.1482 93.7458 14.8572 94.3884 13.7258L93.5188 13.232L92.6493 12.7382C91.8198 14.1988 91.4148 15.8358 91.4148 17.624H92.4148ZM93.5188 13.232L94.3864 13.7293C95.0515 12.5689 95.9391 11.6844 97.0571 11.0556L96.5668 10.184L96.0766 9.31242C94.6345 10.1236 93.4901 11.2711 92.6512 12.7347L93.5188 13.232ZM96.5668 10.184L97.0653 11.0509C98.1858 10.4066 99.4285 10.08 100.815 10.08V9.08V8.08C99.0972 8.08 97.5079 8.48937 96.0683 9.31709L96.5668 10.184ZM100.815 9.08V10.08C102.417 10.08 103.793 10.4743 104.976 11.2396L105.519 10.4L106.062 9.56043C104.525 8.56569 102.764 8.08 100.815 8.08V9.08ZM105.519 10.4L104.98 11.2424C106.168 12.0023 107.036 13.0698 107.587 14.4833L108.519 14.12L109.45 13.7567C108.754 11.9702 107.621 10.5577 106.058 9.55755L105.519 10.4ZM108.519 14.12V13.12H105.903V14.12V15.12H108.519V14.12ZM114.094 9.272H115.094V8.272H114.094V9.272ZM114.094 26V27H115.094V26H114.094ZM111.91 26H110.91V27H111.91V26ZM111.91 9.272V8.272H110.91V9.272H111.91ZM114.094 9.272H113.094V26H114.094H115.094V9.272H114.094ZM114.094 26V25H111.91V26V27H114.094V26ZM111.91 26H112.91V9.272H111.91H110.91V26H111.91ZM111.91 9.272V10.272H114.094V9.272V8.272H111.91V9.272ZM130.969 26V27H131.969V26H130.969ZM128.785 26L127.95 26.5505L128.246 27H128.785V26ZM120.001 12.68L120.836 12.1295L119.001 9.34717V12.68H120.001ZM120.001 26V27H121.001V26H120.001ZM117.817 26H116.817V27H117.817V26ZM117.817 9.248V8.248H116.817V9.248H117.817ZM120.001 9.248L120.835 8.69678L120.539 8.248H120.001V9.248ZM128.785 22.544L127.95 23.0952L129.785 25.8718V22.544H128.785ZM128.785 9.248V8.248H127.785V9.248H128.785ZM130.969 9.248H131.969V8.248H130.969V9.248ZM130.969 26V25H128.785V26V27H130.969V26ZM128.785 26L129.62 25.4495L120.836 12.1295L120.001 12.68L119.166 13.2305L127.95 26.5505L128.785 26ZM120.001 12.68H119.001V26H120.001H121.001V12.68H120.001ZM120.001 26V25H117.817V26V27H120.001V26ZM117.817 26H118.817V9.248H117.817H116.817V26H117.817ZM117.817 9.248V10.248H120.001V9.248V8.248H117.817V9.248ZM120.001 9.248L119.166 9.79922L127.95 23.0952L128.785 22.544L129.619 21.9928L120.835 8.69678L120.001 9.248ZM128.785 22.544H129.785V9.248H128.785H127.785V22.544H128.785ZM128.785 9.248V10.248H130.969V9.248V8.248H128.785V9.248ZM130.969 9.248H129.969V26H130.969H131.969V9.248H130.969Z" fill="white" mask="url(#path-1-inside-1_511_1155)"/>
<path d="M62.1562 28.4V27.4H61.1562V28.4H62.1562ZM132.841 28.4H133.841V27.4H132.841V28.4ZM132.841 29.6V30.6H133.841V29.6H132.841ZM62.1562 29.6H61.1562V30.6H62.1562V29.6ZM62.1562 28.4V29.4H132.841V28.4V27.4H62.1562V28.4ZM132.841 28.4H131.841V29.6H132.841H133.841V28.4H132.841ZM132.841 29.6V28.6H62.1562V29.6V30.6H132.841V29.6ZM62.1562 29.6H63.1562V28.4H62.1562H61.1562V29.6H62.1562Z" fill="white" mask="url(#path-1-inside-1_511_1155)"/>
</g>
<defs>
<filter id="filter0_d_511_1155" x="58.1562" y="9.08008" width="78.6845" height="28.5195" filterUnits="userSpaceOnUse" color-interpolation-filters="sRGB">
<feFlood flood-opacity="0" result="BackgroundImageFix"/>
<feColorMatrix in="SourceAlpha" type="matrix" values="0 0 0 0 0 0 0 0 0 0 0 0 0 0 0 0 0 0 127 0" result="hardAlpha"/>
<feOffset dy="4"/>
<feGaussianBlur stdDeviation="2"/>
<feComposite in2="hardAlpha" operator="out"/>
<feColorMatrix type="matrix" values="0 0 0 0 0 0 0 0 0 0 0 0 0 0 0 0 0 0 0.25 0"/>
<feBlend mode="normal" in2="BackgroundImageFix" result="effect1_dropShadow_511_1155"/>
<feBlend mode="normal" in="SourceGraphic" in2="effect1_dropShadow_511_1155" result="shape"/>
</filter>
</defs>
</svg>
