<svg width="143" height="56" viewBox="0 0 143 56" fill="none" xmlns="http://www.w3.org/2000/svg">
<rect y="0.363281" width="143" height="55.6364" rx="3" fill="#C5C5F7" fill-opacity="0.85"/>
<path d="M26.2 44.72C24.216 44.72 22.44 44.288 20.872 43.424C20.104 43.008 19.48 42.56 19 42.08C18.488 42.784 17.928 43.328 17.32 43.712C17.032 43.904 16.712 44.08 16.36 44.24H15.16V36.08H17.08C17.496 37.424 18.104 38.672 18.904 39.824C20.6 42.288 22.712 43.52 25.24 43.52C26.584 43.52 27.592 43.2 28.264 42.56C28.968 41.888 29.32 40.928 29.32 39.68C29.32 38.624 28.84 37.744 27.88 37.04C26.952 36.304 25.48 35.408 23.464 34.352C21.736 33.488 20.328 32.72 19.24 32.048C18.184 31.344 17.272 30.48 16.504 29.456C15.768 28.4 15.4 27.168 15.4 25.76C15.4 23.84 16.216 22.288 17.848 21.104C19.512 19.888 22.056 19.28 25.48 19.28C27.176 19.28 28.744 19.728 30.184 20.624C30.888 21.04 31.496 21.472 32.008 21.92C32.424 21.344 32.984 20.8 33.688 20.288C34.232 19.968 34.552 19.792 34.648 19.76H35.848V27.92H33.928C33.448 26.544 32.856 25.312 32.152 24.224C30.552 21.728 28.648 20.48 26.44 20.48C25.576 20.48 24.84 20.8 24.232 21.44C23.624 22.08 23.32 22.88 23.32 23.84C23.32 25.056 23.832 26.08 24.856 26.912C25.88 27.712 27.432 28.64 29.512 29.696C31.208 30.56 32.552 31.328 33.544 32C34.568 32.64 35.432 33.44 36.136 34.4C36.872 35.36 37.24 36.48 37.24 37.76C37.24 42.4 33.56 44.72 26.2 44.72ZM53.3219 44.72C51.2099 44.72 49.3699 44.336 47.8019 43.568C46.2659 42.8 45.0819 41.744 44.2499 40.4C43.4179 39.056 43.0019 37.536 43.0019 35.84V21.2H39.6419V20H43.0019V17.6C43.0019 14.72 44.4419 13.28 47.3219 13.28H50.6819V20H57.4019V21.2H50.6819V35.84C50.6819 38.784 50.9859 40.8 51.5939 41.888C52.2019 42.976 53.0979 43.52 54.2819 43.52C55.4339 43.52 56.4419 42.96 57.3059 41.84C58.1699 40.72 58.6019 39.2 58.6019 37.28H59.8019C59.8019 39.648 59.2099 41.488 58.0259 42.8C56.8419 44.08 55.2739 44.72 53.3219 44.72ZM71.3425 44.72C68.4945 44.72 66.3025 44.112 64.7665 42.896C63.2305 41.68 62.4625 40.128 62.4625 38.24C62.4625 36.992 62.7345 35.76 63.2785 34.544C63.5025 33.968 63.7905 33.44 64.1425 32.96C65.4545 32.64 66.8785 32.352 68.4145 32.096C71.8705 31.52 74.9265 31.168 77.5825 31.04V29.6C77.5825 26.048 77.1505 23.6 76.2865 22.256C75.4225 20.912 74.0945 20.24 72.3025 20.24C71.6305 20.24 71.0545 20.32 70.5745 20.48L69.9025 20.72V27.92L69.2785 28.064C68.7665 28.128 68.3345 28.16 67.9825 28.16C66.8945 28.16 66.0145 27.84 65.3425 27.2C64.7025 26.528 64.3825 25.648 64.3825 24.56C64.3825 23.088 65.1185 21.84 66.5905 20.816C68.0945 19.792 70.3185 19.28 73.2625 19.28C75.7585 19.28 77.9025 19.728 79.6945 20.624C81.5185 21.488 82.8945 22.704 83.8225 24.272C84.7825 25.808 85.2625 27.584 85.2625 29.6V42.56L88.1425 43.28V44H83.8225C81.9025 44 80.4145 43.408 79.3585 42.224C78.9105 41.744 78.5585 41.136 78.3025 40.4C77.8545 41.2 77.3265 41.92 76.7185 42.56C75.2785 44 73.4865 44.72 71.3425 44.72ZM73.2625 43.04C74.4465 43.04 75.5185 42.4 76.4785 41.12C76.8305 40.64 77.1985 40 77.5825 39.2V32.24C76.1105 32.24 74.7025 32.32 73.3585 32.48C72.3665 32.608 71.6945 32.688 71.3425 32.72C71.1825 33.072 71.0225 33.552 70.8625 34.16C70.5425 35.376 70.3825 36.576 70.3825 37.76C70.3825 39.552 70.6545 40.88 71.1985 41.744C71.7425 42.608 72.4305 43.04 73.2625 43.04ZM91.045 43.28L93.925 42.56V21.44L91.045 20.72V20H95.365C97.253 20 98.741 20.608 99.829 21.824C100.245 22.304 100.597 22.896 100.885 23.6C101.365 22.896 101.957 22.256 102.661 21.68C104.261 20.4 106.053 19.76 108.037 19.76C109.733 19.76 110.997 20.16 111.829 20.96C112.693 21.728 113.125 22.848 113.125 24.32C113.125 25.408 112.789 26.288 112.117 26.96C111.477 27.6 110.613 27.92 109.525 27.92C109.077 27.92 108.629 27.888 108.181 27.824L107.605 27.68V20.96C105.973 20.96 104.485 21.6 103.141 22.88C102.501 23.52 101.989 24.16 101.605 24.8V42.56L104.485 43.28V44H91.045V43.28ZM128.228 44.72C126.116 44.72 124.276 44.336 122.708 43.568C121.172 42.8 119.988 41.744 119.156 40.4C118.324 39.056 117.908 37.536 117.908 35.84V21.2H114.548V20H117.908V17.6C117.908 14.72 119.348 13.28 122.228 13.28H125.588V20H132.308V21.2H125.588V35.84C125.588 38.784 125.892 40.8 126.5 41.888C127.108 42.976 128.004 43.52 129.188 43.52C130.34 43.52 131.348 42.96 132.212 41.84C133.076 40.72 133.508 39.2 133.508 37.28H134.708C134.708 39.648 134.116 41.488 132.932 42.8C131.748 44.08 130.18 44.72 128.228 44.72Z" fill="#303030"/>
</svg>
