<svg width="492" height="173" viewBox="0 0 492 173" fill="none" xmlns="http://www.w3.org/2000/svg">
<ellipse cx="5.5" cy="10" rx="4.5" ry="4" fill="#3A3939"/>
<rect x="237" y="50" width="255" height="47" fill="#FFE071"/>
<path d="M21.552 3.544V13.032H27.04V15H19.2V3.544H21.552Z" fill="white"/>
<path d="M30.4976 6.52V15H28.2896V6.52H30.4976ZM29.3776 3.608C29.6656 3.608 29.9056 3.70933 30.0976 3.912C30.3003 4.11467 30.4016 4.36 30.4016 4.648C30.4016 4.936 30.3003 5.18133 30.0976 5.384C29.9056 5.576 29.6656 5.672 29.3776 5.672C29.0896 5.672 28.8443 5.576 28.6416 5.384C28.439 5.18133 28.3376 4.936 28.3376 4.648C28.3376 4.36 28.439 4.11467 28.6416 3.912C28.8443 3.70933 29.0896 3.608 29.3776 3.608ZM37.1126 15H34.7926L31.8326 6.52H34.1686L35.9926 12.728L37.7206 6.52H40.0246L37.1126 15ZM48.6961 11.336H43.0001C43.0321 12.0187 43.1388 12.504 43.3201 12.792C43.6295 13.2613 44.1148 13.496 44.7761 13.496C45.5975 13.496 46.1468 13.1547 46.4241 12.472H48.6001C48.3548 13.304 47.8748 13.9653 47.1601 14.456C46.4561 14.936 45.6295 15.176 44.6801 15.176C43.3895 15.176 42.3975 14.744 41.7041 13.88C41.0961 13.1227 40.7921 12.1253 40.7921 10.888C40.7921 9.384 41.1868 8.22133 41.9761 7.4C42.6695 6.696 43.5815 6.344 44.7121 6.344C45.5761 6.344 46.3335 6.55733 46.9841 6.984C47.6348 7.41067 48.0988 8.008 48.3761 8.776C48.6001 9.37333 48.7121 10.0933 48.7121 10.936C48.7121 11.0427 48.7068 11.176 48.6961 11.336ZM46.4081 9.88C46.3015 8.64267 45.7308 8.024 44.6961 8.024C43.7255 8.024 43.1708 8.64267 43.0321 9.88H46.4081ZM57.8416 3.544V15H55.6336V14.056C55.1216 14.8027 54.3483 15.176 53.3136 15.176C52.1936 15.176 51.2923 14.7067 50.6096 13.768C50.023 12.968 49.7296 11.9707 49.7296 10.776C49.7296 9.35733 50.103 8.23733 50.8496 7.416C51.5003 6.70133 52.3163 6.344 53.2976 6.344C54.3323 6.344 55.111 6.73867 55.6336 7.528V3.544H57.8416ZM53.7936 8.152C53.239 8.152 52.791 8.392 52.4496 8.872C52.1083 9.352 51.9376 9.98133 51.9376 10.76C51.9376 11.528 52.103 12.152 52.4336 12.632C52.775 13.1013 53.2283 13.336 53.7936 13.336C54.359 13.336 54.807 13.1013 55.1376 12.632C55.479 12.1627 55.6496 11.5387 55.6496 10.76C55.6496 9.97067 55.479 9.34133 55.1376 8.872C54.7963 8.392 54.3483 8.152 53.7936 8.152ZM70.2274 11.336H64.5314C64.5634 12.0187 64.67 12.504 64.8514 12.792C65.1607 13.2613 65.646 13.496 66.3074 13.496C67.1287 13.496 67.678 13.1547 67.9554 12.472H70.1314C69.886 13.304 69.406 13.9653 68.6914 14.456C67.9874 14.936 67.1607 15.176 66.2114 15.176C64.9207 15.176 63.9287 14.744 63.2354 13.88C62.6274 13.1227 62.3234 12.1253 62.3234 10.888C62.3234 9.384 62.718 8.22133 63.5074 7.4C64.2007 6.696 65.1127 6.344 66.2434 6.344C67.1074 6.344 67.8647 6.55733 68.5154 6.984C69.166 7.41067 69.63 8.008 69.9074 8.776C70.1314 9.37333 70.2434 10.0933 70.2434 10.936C70.2434 11.0427 70.238 11.176 70.2274 11.336ZM67.9394 9.88C67.8327 8.64267 67.262 8.024 66.2274 8.024C65.2567 8.024 64.702 8.64267 64.5634 9.88H67.9394ZM76.3329 10.728L79.1809 15H76.5409L75.1009 12.36L73.6609 15H71.0209L73.8529 10.728L71.0849 6.52H73.7249L75.1009 9.08L76.4769 6.52H79.1169L76.3329 10.728ZM82.684 6.52V7.736C83.196 6.808 83.98 6.344 85.036 6.344C85.5373 6.344 86.028 6.46667 86.508 6.712C86.9987 6.95733 87.388 7.27733 87.676 7.672C88.284 8.51467 88.588 9.56533 88.588 10.824C88.588 12.1787 88.2093 13.272 87.452 14.104C86.8013 14.8187 85.996 15.176 85.036 15.176C83.9907 15.176 83.2067 14.776 82.684 13.976V18.424H80.476V6.52H82.684ZM84.524 8.184C83.9693 8.184 83.5213 8.424 83.18 8.904C82.8387 9.37333 82.668 9.99733 82.668 10.776C82.668 11.544 82.8387 12.1627 83.18 12.632C83.5213 13.1013 83.9693 13.336 84.524 13.336C85.0787 13.336 85.5267 13.1013 85.868 12.632C86.2093 12.1627 86.38 11.544 86.38 10.776C86.38 9.99733 86.2093 9.37333 85.868 8.904C85.5267 8.424 85.0787 8.184 84.524 8.184ZM97.5243 11.336H91.8283C91.8603 12.0187 91.9669 12.504 92.1483 12.792C92.4576 13.2613 92.9429 13.496 93.6043 13.496C94.4256 13.496 94.9749 13.1547 95.2523 12.472H97.4283C97.1829 13.304 96.7029 13.9653 95.9883 14.456C95.2843 14.936 94.4576 15.176 93.5083 15.176C92.2176 15.176 91.2256 14.744 90.5323 13.88C89.9243 13.1227 89.6203 12.1253 89.6203 10.888C89.6203 9.384 90.0149 8.22133 90.8043 7.4C91.4976 6.696 92.4096 6.344 93.5403 6.344C94.4043 6.344 95.1616 6.55733 95.8123 6.984C96.4629 7.41067 96.9269 8.008 97.2043 8.776C97.4283 9.37333 97.5403 10.0933 97.5403 10.936C97.5403 11.0427 97.5349 11.176 97.5243 11.336ZM95.2363 9.88C95.1296 8.64267 94.5589 8.024 93.5243 8.024C92.5536 8.024 91.9989 8.64267 91.8603 9.88H95.2363ZM99.0858 6.52H101.294V8.136C101.571 6.94133 102.36 6.344 103.662 6.344C103.864 6.344 104.008 6.344 104.094 6.344L104.11 8.52C103.843 8.46667 103.566 8.44 103.278 8.44C102.552 8.44 102.051 8.57333 101.774 8.84C101.454 9.13867 101.294 9.67733 101.294 10.456V15H99.0858V6.52ZM107.435 6.52V15H105.227V6.52H107.435ZM106.315 3.608C106.603 3.608 106.843 3.70933 107.035 3.912C107.238 4.11467 107.339 4.36 107.339 4.648C107.339 4.936 107.238 5.18133 107.035 5.384C106.843 5.576 106.603 5.672 106.315 5.672C106.027 5.672 105.782 5.576 105.579 5.384C105.376 5.18133 105.275 4.936 105.275 4.648C105.275 4.36 105.376 4.11467 105.579 3.912C105.782 3.70933 106.027 3.608 106.315 3.608ZM116.946 11.336H111.25C111.282 12.0187 111.389 12.504 111.57 12.792C111.879 13.2613 112.365 13.496 113.026 13.496C113.847 13.496 114.397 13.1547 114.674 12.472H116.85C116.605 13.304 116.125 13.9653 115.41 14.456C114.706 14.936 113.879 15.176 112.93 15.176C111.639 15.176 110.647 14.744 109.954 13.88C109.346 13.1227 109.042 12.1253 109.042 10.888C109.042 9.384 109.437 8.22133 110.226 7.4C110.919 6.696 111.831 6.344 112.962 6.344C113.826 6.344 114.583 6.55733 115.234 6.984C115.885 7.41067 116.349 8.008 116.626 8.776C116.85 9.37333 116.962 10.0933 116.962 10.936C116.962 11.0427 116.957 11.176 116.946 11.336ZM114.658 9.88C114.551 8.64267 113.981 8.024 112.946 8.024C111.975 8.024 111.421 8.64267 111.282 9.88H114.658ZM118.508 6.52H120.716V7.72C121.313 6.80267 122.156 6.344 123.244 6.344C124.214 6.344 124.95 6.632 125.452 7.208C125.878 7.72 126.092 8.41333 126.092 9.288V15H123.9V9.736C123.9 8.72267 123.425 8.216 122.476 8.216C121.942 8.216 121.516 8.37067 121.196 8.68C120.876 8.97867 120.716 9.37867 120.716 9.88V15H118.508V6.52ZM135.285 9.624H133.189C133.061 9.06933 132.874 8.68 132.629 8.456C132.394 8.232 132.058 8.12 131.621 8.12C130.96 8.12 130.501 8.35467 130.245 8.824C129.968 9.368 129.829 10.0347 129.829 10.824C129.829 11.624 129.984 12.2587 130.293 12.728C130.613 13.1867 131.05 13.416 131.605 13.416C132.042 13.416 132.378 13.304 132.613 13.08C132.858 12.8453 133.05 12.4613 133.189 11.928H135.285C135.178 12.9947 134.752 13.8213 134.005 14.408C133.354 14.9307 132.549 15.192 131.589 15.192C130.245 15.192 129.226 14.76 128.533 13.896C127.925 13.1493 127.621 12.1413 127.621 10.872C127.621 9.336 128.021 8.17333 128.821 7.384C129.514 6.69067 130.453 6.344 131.637 6.344C132.768 6.344 133.664 6.66933 134.325 7.32C134.89 7.896 135.21 8.664 135.285 9.624ZM144.196 11.336H138.5C138.532 12.0187 138.639 12.504 138.82 12.792C139.129 13.2613 139.615 13.496 140.276 13.496C141.097 13.496 141.647 13.1547 141.924 12.472H144.1C143.855 13.304 143.375 13.9653 142.66 14.456C141.956 14.936 141.129 15.176 140.18 15.176C138.889 15.176 137.897 14.744 137.204 13.88C136.596 13.1227 136.292 12.1253 136.292 10.888C136.292 9.384 136.687 8.22133 137.476 7.4C138.169 6.696 139.081 6.344 140.212 6.344C141.076 6.344 141.833 6.55733 142.484 6.984C143.135 7.41067 143.599 8.008 143.876 8.776C144.1 9.37333 144.212 10.0933 144.212 10.936C144.212 11.0427 144.207 11.176 144.196 11.336ZM141.908 9.88C141.801 8.64267 141.231 8.024 140.196 8.024C139.225 8.024 138.671 8.64267 138.532 9.88H141.908ZM157.895 11.64C158.002 11.3627 158.119 11.1067 158.247 10.872C158.375 10.6267 158.519 10.3973 158.679 10.184H150.103V8.872H158.679C158.53 8.65867 158.391 8.43467 158.263 8.2C158.135 7.95467 158.018 7.69333 157.911 7.416H159.127C159.788 8.19467 160.514 8.78667 161.303 9.192V9.88C160.514 10.264 159.788 10.8507 159.127 11.64H157.895ZM167.841 15V3.544H172.945C174.107 3.544 175.009 3.82667 175.649 4.392C176.342 4.98933 176.689 5.71467 176.689 6.568C176.689 7.05867 176.566 7.48533 176.321 7.848C176.086 8.2 175.686 8.55733 175.121 8.92C176.379 9.66667 177.009 10.5947 177.009 11.704C177.009 12.7067 176.63 13.528 175.873 14.168C175.211 14.7227 174.251 15 172.993 15H167.841ZM170.193 5.512V8.104H172.769C173.867 8.104 174.417 7.672 174.417 6.808C174.417 5.944 173.867 5.512 172.769 5.512H170.193ZM170.193 10.072V13.032H173.009C174.171 13.032 174.753 12.5413 174.753 11.56C174.753 10.568 174.171 10.072 173.009 10.072H170.193ZM186.165 11.336H180.469C180.501 12.0187 180.608 12.504 180.789 12.792C181.098 13.2613 181.584 13.496 182.245 13.496C183.066 13.496 183.616 13.1547 183.893 12.472H186.069C185.824 13.304 185.344 13.9653 184.629 14.456C183.925 14.936 183.098 15.176 182.149 15.176C180.858 15.176 179.866 14.744 179.173 13.88C178.565 13.1227 178.261 12.1253 178.261 10.888C178.261 9.384 178.656 8.22133 179.445 7.4C180.138 6.696 181.05 6.344 182.181 6.344C183.045 6.344 183.802 6.55733 184.453 6.984C185.104 7.41067 185.568 8.008 185.845 8.776C186.069 9.37333 186.181 10.0933 186.181 10.936C186.181 11.0427 186.176 11.176 186.165 11.336ZM183.877 9.88C183.77 8.64267 183.2 8.024 182.165 8.024C181.194 8.024 180.64 8.64267 180.501 9.88H183.877ZM191.742 6.52V7.976H190.254V12.696C190.254 13.0053 190.308 13.2187 190.414 13.336C190.532 13.4533 190.74 13.512 191.038 13.512C191.284 13.512 191.598 13.416 191.982 13.224C192.014 13.2027 192.041 13.1867 192.062 13.176L192.318 14.68C191.646 15.0107 190.942 15.176 190.206 15.176C188.766 15.176 188.046 14.5147 188.046 13.192V7.976H186.958V6.52H188.046V5.112L190.254 3.848V6.52H191.742ZM197.758 6.52V7.976H196.27V12.696C196.27 13.0053 196.323 13.2187 196.43 13.336C196.547 13.4533 196.755 13.512 197.054 13.512C197.299 13.512 197.614 13.416 197.998 13.224C198.03 13.2027 198.057 13.1867 198.078 13.176L198.334 14.68C197.662 15.0107 196.958 15.176 196.222 15.176C194.782 15.176 194.062 14.5147 194.062 13.192V7.976H192.974V6.52H194.062V5.112L196.27 3.848V6.52H197.758ZM207.134 11.336H201.438C201.47 12.0187 201.576 12.504 201.758 12.792C202.067 13.2613 202.552 13.496 203.214 13.496C204.035 13.496 204.584 13.1547 204.862 12.472H207.038C206.792 13.304 206.312 13.9653 205.598 14.456C204.894 14.936 204.067 15.176 203.118 15.176C201.827 15.176 200.835 14.744 200.142 13.88C199.534 13.1227 199.23 12.1253 199.23 10.888C199.23 9.384 199.624 8.22133 200.414 7.4C201.107 6.696 202.019 6.344 203.15 6.344C204.014 6.344 204.771 6.55733 205.422 6.984C206.072 7.41067 206.536 8.008 206.814 8.776C207.038 9.37333 207.15 10.0933 207.15 10.936C207.15 11.0427 207.144 11.176 207.134 11.336ZM204.846 9.88C204.739 8.64267 204.168 8.024 203.134 8.024C202.163 8.024 201.608 8.64267 201.47 9.88H204.846ZM208.695 6.52H210.903V8.136C211.18 6.94133 211.97 6.344 213.271 6.344C213.474 6.344 213.618 6.344 213.703 6.344L213.719 8.52C213.452 8.46667 213.175 8.44 212.887 8.44C212.162 8.44 211.66 8.57333 211.383 8.84C211.063 9.13867 210.903 9.67733 210.903 10.456V15H208.695V6.52ZM219.934 6.52V7.736C220.446 6.808 221.23 6.344 222.286 6.344C222.787 6.344 223.278 6.46667 223.758 6.712C224.249 6.95733 224.638 7.27733 224.926 7.672C225.534 8.51467 225.838 9.56533 225.838 10.824C225.838 12.1787 225.459 13.272 224.702 14.104C224.051 14.8187 223.246 15.176 222.286 15.176C221.241 15.176 220.457 14.776 219.934 13.976V18.424H217.726V6.52H219.934ZM221.774 8.184C221.219 8.184 220.771 8.424 220.43 8.904C220.089 9.37333 219.918 9.99733 219.918 10.776C219.918 11.544 220.089 12.1627 220.43 12.632C220.771 13.1013 221.219 13.336 221.774 13.336C222.329 13.336 222.777 13.1013 223.118 12.632C223.459 12.1627 223.63 11.544 223.63 10.776C223.63 9.99733 223.459 9.37333 223.118 8.904C222.777 8.424 222.329 8.184 221.774 8.184ZM231.142 6.344C232.54 6.344 233.612 6.792 234.358 7.688C235.009 8.456 235.334 9.48 235.334 10.76C235.334 12.232 234.913 13.3627 234.07 14.152C233.334 14.8347 232.358 15.176 231.142 15.176C229.745 15.176 228.673 14.7333 227.926 13.848C227.276 13.0693 226.95 12.04 226.95 10.76C226.95 9.29867 227.372 8.17333 228.214 7.384C228.95 6.69067 229.926 6.344 231.142 6.344ZM231.142 8.12C230.545 8.12 230.065 8.36533 229.702 8.856C229.34 9.336 229.158 9.97067 229.158 10.76C229.158 11.6133 229.361 12.2853 229.766 12.776C230.129 13.192 230.588 13.4 231.142 13.4C231.74 13.4 232.22 13.16 232.582 12.68C232.956 12.1893 233.142 11.5493 233.142 10.76C233.142 9.91733 232.934 9.25067 232.518 8.76C232.156 8.33333 231.697 8.12 231.142 8.12ZM239.201 3.544V15H236.993V3.544H239.201ZM243.576 6.52V15H241.368V6.52H243.576ZM242.456 3.608C242.744 3.608 242.984 3.70933 243.176 3.912C243.378 4.11467 243.48 4.36 243.48 4.648C243.48 4.936 243.378 5.18133 243.176 5.384C242.984 5.576 242.744 5.672 242.456 5.672C242.168 5.672 241.922 5.576 241.72 5.384C241.517 5.18133 241.416 4.936 241.416 4.648C241.416 4.36 241.517 4.11467 241.72 3.912C241.922 3.70933 242.168 3.608 242.456 3.608ZM252.879 9.624H250.783C250.655 9.06933 250.468 8.68 250.223 8.456C249.988 8.232 249.652 8.12 249.215 8.12C248.553 8.12 248.095 8.35467 247.839 8.824C247.561 9.368 247.423 10.0347 247.423 10.824C247.423 11.624 247.577 12.2587 247.887 12.728C248.207 13.1867 248.644 13.416 249.199 13.416C249.636 13.416 249.972 13.304 250.207 13.08C250.452 12.8453 250.644 12.4613 250.783 11.928H252.879C252.772 12.9947 252.345 13.8213 251.599 14.408C250.948 14.9307 250.143 15.192 249.183 15.192C247.839 15.192 246.82 14.76 246.127 13.896C245.519 13.1493 245.215 12.1413 245.215 10.872C245.215 9.336 245.615 8.17333 246.415 7.384C247.108 6.69067 248.047 6.344 249.231 6.344C250.361 6.344 251.257 6.66933 251.919 7.32C252.484 7.896 252.804 8.664 252.879 9.624ZM259.614 6.52H261.87L258.382 16.536C258.137 17.2507 257.811 17.7413 257.406 18.008C257.001 18.2853 256.398 18.424 255.598 18.424C254.862 18.424 254.35 18.328 254.062 18.136L254.398 16.648C254.782 16.744 255.102 16.792 255.358 16.792C255.731 16.792 256.051 16.664 256.318 16.408C256.585 16.1627 256.718 15.8693 256.718 15.528V15.352L253.566 6.52H255.982L257.87 12.696L259.614 6.52Z" fill="white"/>
<path d="M7.456 130.56H3.04L1.824 134H0.272L4.352 122.544H6.24L10.256 134H8.64L7.456 130.56ZM7.04 129.328L5.28 124.128L3.408 129.328H7.04ZM14.2699 137.424V125.776H15.4859V127.04C16.0939 126.08 16.9685 125.6 18.1099 125.6C19.2725 125.6 20.1685 126.048 20.7979 126.944C21.3525 127.723 21.6299 128.747 21.6299 130.016C21.6299 131.371 21.2672 132.427 20.5419 133.184C19.9125 133.845 19.0965 134.176 18.0939 134.176C17.0805 134.176 16.2432 133.808 15.5819 133.072V137.424H14.2699ZM17.8859 126.816C17.1925 126.816 16.6325 127.099 16.2059 127.664C15.7899 128.229 15.5819 128.987 15.5819 129.936C15.5819 130.917 15.8219 131.685 16.3019 132.24C16.7072 132.709 17.2352 132.944 17.8859 132.944C18.6112 132.944 19.1872 132.672 19.6139 132.128C20.0512 131.573 20.2699 130.843 20.2699 129.936C20.2699 128.933 20.0245 128.144 19.5339 127.568C19.0965 127.067 18.5472 126.816 17.8859 126.816ZM23.2443 125.776H24.4603V127.28C24.9403 126.149 25.6976 125.584 26.7323 125.584C26.8603 125.584 27.0149 125.6 27.1963 125.632V126.976C26.3429 126.987 25.7563 127.109 25.4363 127.344C24.8496 127.771 24.5563 128.565 24.5563 129.728V134H23.2443V125.776ZM29.7266 125.776V134H28.4306V125.776H29.7266ZM29.1026 122.56C29.3266 122.56 29.5133 122.64 29.6626 122.8C29.8226 122.949 29.9026 123.131 29.9026 123.344C29.9026 123.568 29.8226 123.76 29.6626 123.92C29.5133 124.069 29.3266 124.144 29.1026 124.144C28.8893 124.144 28.7026 124.069 28.5426 123.92C28.3933 123.76 28.3186 123.568 28.3186 123.344C28.3186 123.131 28.3933 122.949 28.5426 122.8C28.7026 122.64 28.8893 122.56 29.1026 122.56ZM35.355 134H33.931L31.035 125.776H32.523L34.699 132.432L37.035 125.776H38.507L35.355 134ZM47.1344 132.896V133.952C46.7717 134.08 46.489 134.144 46.2864 134.144C45.433 134.144 44.969 133.755 44.8944 132.976C44.3077 133.776 43.3744 134.176 42.0944 134.176C41.209 134.176 40.521 133.931 40.0304 133.44C39.6037 133.013 39.3904 132.464 39.3904 131.792C39.3904 131.024 39.6624 130.432 40.2064 130.016C40.5157 129.781 41.161 129.552 42.1424 129.328L44.8304 128.72L44.8464 128.032C44.8464 127.211 44.2277 126.8 42.9904 126.8C41.8064 126.8 41.1717 127.28 41.0864 128.24H39.7584C39.7904 127.515 39.9717 126.96 40.3024 126.576C40.8677 125.925 41.785 125.6 43.0544 125.6C45.113 125.6 46.1424 126.347 46.1424 127.84V132.432C46.1424 132.837 46.3184 133.04 46.6704 133.04C46.713 133.04 46.825 133.008 47.0064 132.944C47.0704 132.923 47.113 132.907 47.1344 132.896ZM44.8464 129.792L42.7344 130.336C41.977 130.528 41.4544 130.725 41.1664 130.928C40.889 131.131 40.7504 131.413 40.7504 131.776C40.7504 132.619 41.2944 133.04 42.3824 133.04C43.1504 133.04 43.801 132.789 44.3344 132.288C44.6757 131.979 44.8464 131.627 44.8464 131.232V129.792ZM54.8608 128.528H53.5488C53.3888 127.376 52.7381 126.8 51.5968 126.8C50.8821 126.8 50.3221 127.083 49.9168 127.648C49.5114 128.213 49.3088 128.997 49.3088 130C49.3088 130.992 49.5488 131.749 50.0288 132.272C50.4341 132.731 50.9781 132.96 51.6608 132.96C52.7594 132.96 53.4154 132.363 53.6288 131.168H54.9568C54.8714 132.192 54.5034 132.965 53.8528 133.488C53.2874 133.947 52.5461 134.176 51.6288 134.176C50.4234 134.176 49.4848 133.749 48.8128 132.896C48.2368 132.16 47.9488 131.195 47.9488 130C47.9488 128.571 48.3274 127.451 49.0848 126.64C49.7354 125.947 50.5781 125.6 51.6128 125.6C52.8074 125.6 53.7034 126 54.3008 126.8C54.6101 127.216 54.7968 127.792 54.8608 128.528ZM61.4401 125.776H62.8481L59.1841 135.728C58.7575 136.859 58.0481 137.424 57.0561 137.424C56.5868 137.424 56.1761 137.317 55.8241 137.104L56.0801 135.968C56.3468 136.075 56.6081 136.128 56.8641 136.128C57.3761 136.128 57.7335 135.861 57.9361 135.328L58.4321 134.016L55.6481 125.776H57.0561L59.1521 132.176L61.4401 125.776ZM67.7315 129.792V130.944H63.7795V129.792H67.7315ZM72.3761 125.776V126.832H71.0161V134H69.7201V126.832H68.6161V125.776H69.7201V124.368C69.7201 123.781 69.8855 123.323 70.2161 122.992C70.5575 122.661 71.0321 122.496 71.6401 122.496C71.8748 122.496 72.1201 122.523 72.3761 122.576V123.664H72.2321C72.1148 123.653 72.0135 123.648 71.9281 123.648C71.3201 123.648 71.0161 123.925 71.0161 124.48V125.776H72.3761ZM75.0391 125.776V134H73.7431V125.776H75.0391ZM74.4151 122.56C74.6391 122.56 74.8258 122.64 74.9751 122.8C75.1351 122.949 75.2151 123.131 75.2151 123.344C75.2151 123.568 75.1351 123.76 74.9751 123.92C74.8258 124.069 74.6391 124.144 74.4151 124.144C74.2018 124.144 74.0151 124.069 73.8551 123.92C73.7058 123.76 73.6311 123.568 73.6311 123.344C73.6311 123.131 73.7058 122.949 73.8551 122.8C74.0151 122.64 74.2018 122.56 74.4151 122.56ZM77.2755 125.776H78.4915V127.28C78.9715 126.149 79.7288 125.584 80.7635 125.584C80.8915 125.584 81.0462 125.6 81.2275 125.632V126.976C80.3742 126.987 79.7875 127.109 79.4675 127.344C78.8808 127.771 78.5875 128.565 78.5875 129.728V134H77.2755V125.776ZM88.3659 128.032H86.9259C86.8832 127.211 86.3339 126.8 85.2779 126.8C84.7339 126.8 84.3019 126.907 83.9819 127.12C83.6725 127.323 83.5179 127.6 83.5179 127.952C83.5179 128.485 84.0245 128.869 85.0379 129.104L86.3019 129.392C87.1232 129.584 87.7152 129.856 88.0779 130.208C88.4405 130.56 88.6219 131.04 88.6219 131.648C88.6219 132.427 88.3179 133.045 87.7099 133.504C87.1019 133.952 86.2805 134.176 85.2459 134.176C84.1152 134.176 83.2565 133.909 82.6699 133.376C82.1792 132.939 81.9179 132.357 81.8859 131.632H83.3739C83.4592 132.005 83.5765 132.277 83.7259 132.448C84.0139 132.789 84.5525 132.96 85.3419 132.96C85.9285 132.96 86.3925 132.853 86.7339 132.64C87.0859 132.416 87.2619 132.123 87.2619 131.76C87.2619 131.216 86.8405 130.843 85.9979 130.64L84.7659 130.352C83.8272 130.128 83.1712 129.861 82.7979 129.552C82.3712 129.2 82.1579 128.693 82.1579 128.032C82.1579 127.285 82.4405 126.693 83.0059 126.256C83.5819 125.819 84.3499 125.6 85.3099 125.6C86.3125 125.6 87.0912 125.851 87.6459 126.352C88.1259 126.789 88.3659 127.349 88.3659 128.032ZM93.6013 125.776V126.832H91.9213V132.304C91.9213 132.496 91.9853 132.661 92.1133 132.8C92.2519 132.928 92.4279 132.992 92.6413 132.992C92.8439 132.992 93.1533 132.944 93.5693 132.848L93.7133 134C93.0519 134.117 92.5506 134.176 92.2093 134.176C91.1533 134.176 90.6253 133.744 90.6253 132.88V126.832H89.5053V125.776H90.6253V124.096L91.9213 123.504V125.776H93.6013ZM105.673 134H104.185L102.505 127.536L100.921 134H99.4488L97.0648 125.776H98.5048L100.201 132.176L101.769 125.776H103.369L104.985 132.176L106.617 125.776H108.089L105.673 134ZM116.713 132.896V133.952C116.35 134.08 116.067 134.144 115.865 134.144C115.011 134.144 114.547 133.755 114.473 132.976C113.886 133.776 112.953 134.176 111.673 134.176C110.787 134.176 110.099 133.931 109.609 133.44C109.182 133.013 108.969 132.464 108.969 131.792C108.969 131.024 109.241 130.432 109.785 130.016C110.094 129.781 110.739 129.552 111.721 129.328L114.409 128.72L114.425 128.032C114.425 127.211 113.806 126.8 112.569 126.8C111.385 126.8 110.75 127.28 110.664 128.24H109.337C109.369 127.515 109.55 126.96 109.881 126.576C110.446 125.925 111.363 125.6 112.633 125.6C114.691 125.6 115.721 126.347 115.721 127.84V132.432C115.721 132.837 115.897 133.04 116.249 133.04C116.291 133.04 116.403 133.008 116.585 132.944C116.649 132.923 116.691 132.907 116.713 132.896ZM114.425 129.792L112.312 130.336C111.555 130.528 111.033 130.725 110.745 130.928C110.467 131.131 110.329 131.413 110.329 131.776C110.329 132.619 110.873 133.04 111.961 133.04C112.729 133.04 113.379 132.789 113.913 132.288C114.254 131.979 114.425 131.627 114.425 131.232V129.792ZM123.159 125.776H124.567L120.903 135.728C120.476 136.859 119.767 137.424 118.775 137.424C118.306 137.424 117.895 137.317 117.543 137.104L117.799 135.968C118.066 136.075 118.327 136.128 118.583 136.128C119.095 136.128 119.452 135.861 119.655 135.328L120.151 134.016L117.367 125.776H118.775L120.871 132.176L123.159 125.776ZM131.892 125.776V126.832H130.532V134H129.236V126.832H128.132V125.776H129.236V124.368C129.236 123.781 129.401 123.323 129.732 122.992C130.073 122.661 130.548 122.496 131.156 122.496C131.39 122.496 131.636 122.523 131.892 122.576V123.664H131.748C131.63 123.653 131.529 123.648 131.444 123.648C130.836 123.648 130.532 123.925 130.532 124.48V125.776H131.892ZM136.539 125.6C137.776 125.6 138.72 126.032 139.371 126.896C139.947 127.643 140.235 128.656 140.235 129.936C140.235 131.365 139.861 132.453 139.115 133.2C138.475 133.851 137.611 134.176 136.523 134.176C135.264 134.176 134.304 133.755 133.643 132.912C133.067 132.176 132.779 131.184 132.779 129.936C132.779 128.485 133.157 127.371 133.915 126.592C134.565 125.931 135.44 125.6 136.539 125.6ZM136.539 126.8C135.792 126.8 135.205 127.083 134.779 127.648C134.352 128.203 134.139 128.965 134.139 129.936C134.139 130.949 134.379 131.723 134.859 132.256C135.275 132.725 135.829 132.96 136.523 132.96C137.259 132.96 137.829 132.693 138.235 132.16C138.651 131.627 138.859 130.885 138.859 129.936C138.859 128.891 138.624 128.091 138.155 127.536C137.749 127.045 137.211 126.8 136.539 126.8ZM142.041 125.776H143.257V127.28C143.737 126.149 144.494 125.584 145.529 125.584C145.657 125.584 145.812 125.6 145.993 125.632V126.976C145.14 126.987 144.553 127.109 144.233 127.344C143.646 127.771 143.353 128.565 143.353 129.728V134H142.041V125.776ZM149.973 137.424V125.776H151.189V127.04C151.797 126.08 152.672 125.6 153.813 125.6C154.976 125.6 155.872 126.048 156.501 126.944C157.056 127.723 157.333 128.747 157.333 130.016C157.333 131.371 156.97 132.427 156.245 133.184C155.616 133.845 154.8 134.176 153.797 134.176C152.784 134.176 151.946 133.808 151.285 133.072V137.424H149.973ZM153.589 126.816C152.896 126.816 152.336 127.099 151.909 127.664C151.493 128.229 151.285 128.987 151.285 129.936C151.285 130.917 151.525 131.685 152.005 132.24C152.41 132.709 152.938 132.944 153.589 132.944C154.314 132.944 154.89 132.672 155.317 132.128C155.754 131.573 155.973 130.843 155.973 129.936C155.973 128.933 155.728 128.144 155.237 127.568C154.8 127.067 154.25 126.816 153.589 126.816ZM165.907 130.272H159.843C159.854 130.976 160.003 131.536 160.291 131.952C160.75 132.624 161.411 132.96 162.275 132.96C163.342 132.96 164.062 132.453 164.435 131.44H165.747C165.577 132.304 165.182 132.976 164.563 133.456C163.945 133.936 163.166 134.176 162.227 134.176C160.979 134.176 160.025 133.749 159.363 132.896C158.777 132.149 158.483 131.163 158.483 129.936C158.483 128.517 158.867 127.413 159.635 126.624C160.307 125.941 161.177 125.6 162.243 125.6C163.022 125.6 163.705 125.787 164.291 126.16C164.889 126.533 165.315 127.045 165.571 127.696C165.795 128.251 165.907 129.093 165.907 130.224V130.272ZM164.499 129.2C164.499 128.485 164.286 127.909 163.859 127.472C163.443 127.024 162.905 126.8 162.243 126.8C161.571 126.8 161.022 127.019 160.595 127.456C160.179 127.883 159.945 128.464 159.891 129.2H164.499ZM170.914 125.6C172.151 125.6 173.095 126.032 173.746 126.896C174.322 127.643 174.61 128.656 174.61 129.936C174.61 131.365 174.236 132.453 173.49 133.2C172.85 133.851 171.986 134.176 170.898 134.176C169.639 134.176 168.679 133.755 168.018 132.912C167.442 132.176 167.154 131.184 167.154 129.936C167.154 128.485 167.532 127.371 168.29 126.592C168.94 125.931 169.815 125.6 170.914 125.6ZM170.914 126.8C170.167 126.8 169.58 127.083 169.154 127.648C168.727 128.203 168.514 128.965 168.514 129.936C168.514 130.949 168.754 131.723 169.234 132.256C169.65 132.725 170.204 132.96 170.898 132.96C171.634 132.96 172.204 132.693 172.61 132.16C173.026 131.627 173.234 130.885 173.234 129.936C173.234 128.891 172.999 128.091 172.53 127.536C172.124 127.045 171.586 126.8 170.914 126.8ZM176.176 137.424V125.776H177.392V127.04C178 126.08 178.875 125.6 180.016 125.6C181.179 125.6 182.075 126.048 182.704 126.944C183.259 127.723 183.536 128.747 183.536 130.016C183.536 131.371 183.173 132.427 182.448 133.184C181.819 133.845 181.003 134.176 180 134.176C178.987 134.176 178.149 133.808 177.488 133.072V137.424H176.176ZM179.792 126.816C179.099 126.816 178.539 127.099 178.112 127.664C177.696 128.229 177.488 128.987 177.488 129.936C177.488 130.917 177.728 131.685 178.208 132.24C178.613 132.709 179.141 132.944 179.792 132.944C180.517 132.944 181.093 132.672 181.52 132.128C181.957 131.573 182.176 130.843 182.176 129.936C182.176 128.933 181.931 128.144 181.44 127.568C181.003 127.067 180.453 126.816 179.792 126.816ZM186.447 122.544V134H185.135V122.544H186.447ZM195.595 130.272H189.531C189.542 130.976 189.691 131.536 189.979 131.952C190.438 132.624 191.099 132.96 191.963 132.96C193.03 132.96 193.75 132.453 194.123 131.44H195.435C195.264 132.304 194.87 132.976 194.251 133.456C193.632 133.936 192.854 134.176 191.915 134.176C190.667 134.176 189.712 133.749 189.051 132.896C188.464 132.149 188.171 131.163 188.171 129.936C188.171 128.517 188.555 127.413 189.323 126.624C189.995 125.941 190.864 125.6 191.931 125.6C192.71 125.6 193.392 125.787 193.979 126.16C194.576 126.533 195.003 127.045 195.259 127.696C195.483 128.251 195.595 129.093 195.595 130.224V130.272ZM194.187 129.2C194.187 128.485 193.974 127.909 193.547 127.472C193.131 127.024 192.592 126.8 191.931 126.8C191.259 126.8 190.71 127.019 190.283 127.456C189.867 127.883 189.632 128.464 189.579 129.2H194.187ZM207.923 134H206.435L204.755 127.536L203.171 134H201.699L199.315 125.776H200.755L202.451 132.176L204.019 125.776H205.619L207.235 132.176L208.867 125.776H210.339L207.923 134ZM212.899 125.776V134H211.603V125.776H212.899ZM212.275 122.56C212.499 122.56 212.685 122.64 212.835 122.8C212.995 122.949 213.075 123.131 213.075 123.344C213.075 123.568 212.995 123.76 212.835 123.92C212.685 124.069 212.499 124.144 212.275 124.144C212.061 124.144 211.875 124.069 211.715 123.92C211.565 123.76 211.491 123.568 211.491 123.344C211.491 123.131 211.565 122.949 211.715 122.8C211.875 122.64 212.061 122.56 212.275 122.56ZM218.367 125.776V126.832H216.687V132.304C216.687 132.496 216.751 132.661 216.879 132.8C217.018 132.928 217.194 132.992 217.407 132.992C217.61 132.992 217.919 132.944 218.335 132.848L218.479 134C217.818 134.117 217.316 134.176 216.975 134.176C215.919 134.176 215.391 133.744 215.391 132.88V126.832H214.271V125.776H215.391V124.096L216.687 123.504V125.776H218.367ZM219.901 122.544H221.197V126.928C221.592 126.437 221.986 126.096 222.381 125.904C222.776 125.701 223.266 125.6 223.853 125.6C224.653 125.6 225.282 125.803 225.741 126.208C226.2 126.603 226.429 127.147 226.429 127.84V134H225.133V128.368C225.133 127.792 224.957 127.371 224.605 127.104C224.274 126.859 223.885 126.736 223.437 126.736C222.765 126.736 222.221 126.987 221.805 127.488C221.4 127.989 221.197 128.656 221.197 129.488V134H219.901V122.544ZM232.853 122.544V134H231.541V122.544H232.853ZM236.289 125.776V134H234.993V125.776H236.289ZM235.665 122.56C235.889 122.56 236.076 122.64 236.225 122.8C236.385 122.949 236.465 123.131 236.465 123.344C236.465 123.568 236.385 123.76 236.225 123.92C236.076 124.069 235.889 124.144 235.665 124.144C235.452 124.144 235.265 124.069 235.105 123.92C234.956 123.76 234.881 123.568 234.881 123.344C234.881 123.131 234.956 122.949 235.105 122.8C235.265 122.64 235.452 122.56 235.665 122.56ZM241.918 134H240.494L237.598 125.776H239.086L241.262 132.432L243.598 125.776H245.07L241.918 134ZM253.345 130.272H247.281C247.292 130.976 247.441 131.536 247.729 131.952C248.188 132.624 248.849 132.96 249.713 132.96C250.78 132.96 251.5 132.453 251.873 131.44H253.185C253.014 132.304 252.62 132.976 252.001 133.456C251.382 133.936 250.604 134.176 249.665 134.176C248.417 134.176 247.462 133.749 246.801 132.896C246.214 132.149 245.921 131.163 245.921 129.936C245.921 128.517 246.305 127.413 247.073 126.624C247.745 125.941 248.614 125.6 249.681 125.6C250.46 125.6 251.142 125.787 251.729 126.16C252.326 126.533 252.753 127.045 253.009 127.696C253.233 128.251 253.345 129.093 253.345 130.224V130.272ZM251.937 129.2C251.937 128.485 251.724 127.909 251.297 127.472C250.881 127.024 250.342 126.8 249.681 126.8C249.009 126.8 248.46 127.019 248.033 127.456C247.617 127.883 247.382 128.464 247.329 129.2H251.937ZM261.823 122.544V134H260.511V132.864C259.989 133.749 259.178 134.192 258.079 134.192C256.874 134.192 255.946 133.755 255.295 132.88C254.73 132.112 254.447 131.099 254.447 129.84C254.447 128.464 254.815 127.387 255.551 126.608C256.181 125.936 256.997 125.6 257.999 125.6C259.109 125.6 259.946 126.016 260.511 126.848V122.544H261.823ZM258.223 126.816C257.498 126.816 256.911 127.104 256.463 127.68C256.026 128.245 255.807 128.997 255.807 129.936C255.807 130.907 256.063 131.669 256.575 132.224C257.013 132.715 257.567 132.96 258.239 132.96C258.933 132.96 259.482 132.688 259.887 132.144C260.303 131.6 260.511 130.864 260.511 129.936C260.511 128.923 260.277 128.133 259.807 127.568C259.391 127.067 258.863 126.816 258.223 126.816ZM273.751 130.272H267.687C267.698 130.976 267.847 131.536 268.135 131.952C268.594 132.624 269.255 132.96 270.119 132.96C271.186 132.96 271.906 132.453 272.279 131.44H273.591C273.42 132.304 273.026 132.976 272.407 133.456C271.788 133.936 271.01 134.176 270.071 134.176C268.823 134.176 267.868 133.749 267.207 132.896C266.62 132.149 266.327 131.163 266.327 129.936C266.327 128.517 266.711 127.413 267.479 126.624C268.151 125.941 269.02 125.6 270.087 125.6C270.866 125.6 271.548 125.787 272.135 126.16C272.732 126.533 273.159 127.045 273.415 127.696C273.639 128.251 273.751 129.093 273.751 130.224V130.272ZM272.343 129.2C272.343 128.485 272.13 127.909 271.703 127.472C271.287 127.024 270.748 126.8 270.087 126.8C269.415 126.8 268.866 127.019 268.439 127.456C268.023 127.883 267.788 128.464 267.735 129.2H272.343ZM279.03 129.744L281.878 134H280.358L278.294 130.832L276.198 134H274.71L277.622 129.808L274.854 125.776H276.358L278.342 128.752L280.326 125.776H281.798L279.03 129.744ZM283.145 137.424V125.776H284.361V127.04C284.969 126.08 285.844 125.6 286.985 125.6C288.148 125.6 289.044 126.048 289.673 126.944C290.228 127.723 290.505 128.747 290.505 130.016C290.505 131.371 290.142 132.427 289.417 133.184C288.788 133.845 287.972 134.176 286.969 134.176C285.956 134.176 285.118 133.808 284.457 133.072V137.424H283.145ZM286.761 126.816C286.068 126.816 285.508 127.099 285.081 127.664C284.665 128.229 284.457 128.987 284.457 129.936C284.457 130.917 284.697 131.685 285.177 132.24C285.582 132.709 286.11 132.944 286.761 132.944C287.486 132.944 288.062 132.672 288.489 132.128C288.926 131.573 289.145 130.843 289.145 129.936C289.145 128.933 288.9 128.144 288.409 127.568C287.972 127.067 287.422 126.816 286.761 126.816ZM299.079 130.272H293.015C293.026 130.976 293.175 131.536 293.463 131.952C293.922 132.624 294.583 132.96 295.447 132.96C296.514 132.96 297.234 132.453 297.607 131.44H298.919C298.749 132.304 298.354 132.976 297.735 133.456C297.117 133.936 296.338 134.176 295.399 134.176C294.151 134.176 293.197 133.749 292.535 132.896C291.949 132.149 291.655 131.163 291.655 129.936C291.655 128.517 292.039 127.413 292.807 126.624C293.479 125.941 294.349 125.6 295.415 125.6C296.194 125.6 296.877 125.787 297.463 126.16C298.061 126.533 298.487 127.045 298.743 127.696C298.967 128.251 299.079 129.093 299.079 130.224V130.272ZM297.671 129.2C297.671 128.485 297.458 127.909 297.031 127.472C296.615 127.024 296.077 126.8 295.415 126.8C294.743 126.8 294.194 127.019 293.767 127.456C293.351 127.883 293.117 128.464 293.063 129.2H297.671ZM300.854 125.776H302.07V127.28C302.55 126.149 303.307 125.584 304.342 125.584C304.47 125.584 304.624 125.6 304.806 125.632V126.976C303.952 126.987 303.366 127.109 303.046 127.344C302.459 127.771 302.166 128.565 302.166 129.728V134H300.854V125.776ZM307.336 125.776V134H306.04V125.776H307.336ZM306.712 122.56C306.936 122.56 307.123 122.64 307.272 122.8C307.432 122.949 307.512 123.131 307.512 123.344C307.512 123.568 307.432 123.76 307.272 123.92C307.123 124.069 306.936 124.144 306.712 124.144C306.499 124.144 306.312 124.069 306.152 123.92C306.003 123.76 305.928 123.568 305.928 123.344C305.928 123.131 306.003 122.949 306.152 122.8C306.312 122.64 306.499 122.56 306.712 122.56ZM316.532 130.272H310.468C310.479 130.976 310.628 131.536 310.916 131.952C311.375 132.624 312.036 132.96 312.9 132.96C313.967 132.96 314.687 132.453 315.06 131.44H316.372C316.202 132.304 315.807 132.976 315.188 133.456C314.57 133.936 313.791 134.176 312.852 134.176C311.604 134.176 310.65 133.749 309.988 132.896C309.402 132.149 309.108 131.163 309.108 129.936C309.108 128.517 309.492 127.413 310.26 126.624C310.932 125.941 311.802 125.6 312.868 125.6C313.647 125.6 314.33 125.787 314.916 126.16C315.514 126.533 315.94 127.045 316.196 127.696C316.42 128.251 316.532 129.093 316.532 130.224V130.272ZM315.124 129.2C315.124 128.485 314.911 127.909 314.484 127.472C314.068 127.024 313.53 126.8 312.868 126.8C312.196 126.8 311.647 127.019 311.22 127.456C310.804 127.883 310.57 128.464 310.516 129.2H315.124ZM318.323 125.776H319.539V127.168C320.2 126.123 321.107 125.6 322.259 125.6C323.059 125.6 323.693 125.803 324.163 126.208C324.632 126.603 324.867 127.136 324.867 127.808V134H323.571V128.336C323.571 127.845 323.416 127.456 323.107 127.168C322.808 126.88 322.397 126.736 321.875 126.736C321.192 126.736 320.648 126.987 320.243 127.488C319.837 127.989 319.635 128.656 319.635 129.488V134H318.323V125.776ZM333.345 128.528H332.033C331.873 127.376 331.222 126.8 330.081 126.8C329.366 126.8 328.806 127.083 328.401 127.648C327.996 128.213 327.793 128.997 327.793 130C327.793 130.992 328.033 131.749 328.513 132.272C328.918 132.731 329.462 132.96 330.145 132.96C331.244 132.96 331.9 132.363 332.113 131.168H333.441C333.356 132.192 332.988 132.965 332.337 133.488C331.772 133.947 331.03 134.176 330.113 134.176C328.908 134.176 327.969 133.749 327.297 132.896C326.721 132.16 326.433 131.195 326.433 130C326.433 128.571 326.812 127.451 327.569 126.64C328.22 125.947 329.062 125.6 330.097 125.6C331.292 125.6 332.188 126 332.785 126.8C333.094 127.216 333.281 127.792 333.345 128.528ZM341.861 130.272H335.797C335.807 130.976 335.957 131.536 336.245 131.952C336.703 132.624 337.365 132.96 338.229 132.96C339.295 132.96 340.015 132.453 340.389 131.44H341.701C341.53 132.304 341.135 132.976 340.517 133.456C339.898 133.936 339.119 134.176 338.181 134.176C336.933 134.176 335.978 133.749 335.317 132.896C334.73 132.149 334.437 131.163 334.437 129.936C334.437 128.517 334.821 127.413 335.589 126.624C336.261 125.941 337.13 125.6 338.197 125.6C338.975 125.6 339.658 125.787 340.245 126.16C340.842 126.533 341.269 127.045 341.525 127.696C341.749 128.251 341.861 129.093 341.861 130.224V130.272ZM340.453 129.2C340.453 128.485 340.239 127.909 339.813 127.472C339.397 127.024 338.858 126.8 338.197 126.8C337.525 126.8 336.975 127.019 336.549 127.456C336.133 127.883 335.898 128.464 335.845 129.2H340.453ZM349.804 125.776V126.832H348.124V132.304C348.124 132.496 348.188 132.661 348.316 132.8C348.455 132.928 348.631 132.992 348.844 132.992C349.047 132.992 349.356 132.944 349.772 132.848L349.916 134C349.255 134.117 348.754 134.176 348.412 134.176C347.356 134.176 346.828 133.744 346.828 132.88V126.832H345.708V125.776H346.828V124.096L348.124 123.504V125.776H349.804ZM354.554 125.6C355.792 125.6 356.736 126.032 357.386 126.896C357.962 127.643 358.25 128.656 358.25 129.936C358.25 131.365 357.877 132.453 357.13 133.2C356.49 133.851 355.626 134.176 354.538 134.176C353.28 134.176 352.32 133.755 351.658 132.912C351.082 132.176 350.794 131.184 350.794 129.936C350.794 128.485 351.173 127.371 351.93 126.592C352.581 125.931 353.456 125.6 354.554 125.6ZM354.554 126.8C353.808 126.8 353.221 127.083 352.794 127.648C352.368 128.203 352.154 128.965 352.154 129.936C352.154 130.949 352.394 131.723 352.874 132.256C353.29 132.725 353.845 132.96 354.538 132.96C355.274 132.96 355.845 132.693 356.25 132.16C356.666 131.627 356.874 130.885 356.874 129.936C356.874 128.891 356.64 128.091 356.17 127.536C355.765 127.045 355.226 126.8 354.554 126.8ZM368.85 128.032H367.41C367.368 127.211 366.818 126.8 365.762 126.8C365.218 126.8 364.786 126.907 364.466 127.12C364.157 127.323 364.002 127.6 364.002 127.952C364.002 128.485 364.509 128.869 365.522 129.104L366.786 129.392C367.608 129.584 368.2 129.856 368.562 130.208C368.925 130.56 369.106 131.04 369.106 131.648C369.106 132.427 368.802 133.045 368.194 133.504C367.586 133.952 366.765 134.176 365.73 134.176C364.6 134.176 363.741 133.909 363.154 133.376C362.664 132.939 362.402 132.357 362.37 131.632H363.858C363.944 132.005 364.061 132.277 364.21 132.448C364.498 132.789 365.037 132.96 365.826 132.96C366.413 132.96 366.877 132.853 367.218 132.64C367.57 132.416 367.746 132.123 367.746 131.76C367.746 131.216 367.325 130.843 366.482 130.64L365.25 130.352C364.312 130.128 363.656 129.861 363.282 129.552C362.856 129.2 362.642 128.693 362.642 128.032C362.642 127.285 362.925 126.693 363.49 126.256C364.066 125.819 364.834 125.6 365.794 125.6C366.797 125.6 367.576 125.851 368.13 126.352C368.61 126.789 368.85 127.349 368.85 128.032ZM370.87 122.544H372.166V126.928C372.56 126.437 372.955 126.096 373.35 125.904C373.744 125.701 374.235 125.6 374.822 125.6C375.622 125.6 376.251 125.803 376.71 126.208C377.168 126.603 377.398 127.147 377.398 127.84V134H376.102V128.368C376.102 127.792 375.926 127.371 375.574 127.104C375.243 126.859 374.854 126.736 374.406 126.736C373.734 126.736 373.19 126.987 372.774 127.488C372.368 127.989 372.166 128.656 372.166 129.488V134H370.87V122.544ZM386.9 132.896V133.952C386.537 134.08 386.255 134.144 386.052 134.144C385.199 134.144 384.735 133.755 384.66 132.976C384.073 133.776 383.14 134.176 381.86 134.176C380.975 134.176 380.287 133.931 379.796 133.44C379.369 133.013 379.156 132.464 379.156 131.792C379.156 131.024 379.428 130.432 379.972 130.016C380.281 129.781 380.927 129.552 381.908 129.328L384.596 128.72L384.612 128.032C384.612 127.211 383.993 126.8 382.756 126.8C381.572 126.8 380.937 127.28 380.852 128.24H379.524C379.556 127.515 379.737 126.96 380.068 126.576C380.633 125.925 381.551 125.6 382.82 125.6C384.879 125.6 385.908 126.347 385.908 127.84V132.432C385.908 132.837 386.084 133.04 386.436 133.04C386.479 133.04 386.591 133.008 386.772 132.944C386.836 132.923 386.879 132.907 386.9 132.896ZM384.612 129.792L382.5 130.336C381.743 130.528 381.22 130.725 380.932 130.928C380.655 131.131 380.516 131.413 380.516 131.776C380.516 132.619 381.06 133.04 382.148 133.04C382.916 133.04 383.567 132.789 384.1 132.288C384.441 131.979 384.612 131.627 384.612 131.232V129.792ZM388.322 125.776H389.538V127.28C390.018 126.149 390.776 125.584 391.81 125.584C391.938 125.584 392.093 125.6 392.274 125.632V126.976C391.421 126.987 390.834 127.109 390.514 127.344C389.928 127.771 389.634 128.565 389.634 129.728V134H388.322V125.776ZM400.517 130.272H394.453C394.463 130.976 394.613 131.536 394.901 131.952C395.359 132.624 396.021 132.96 396.885 132.96C397.951 132.96 398.671 132.453 399.045 131.44H400.357C400.186 132.304 399.791 132.976 399.173 133.456C398.554 133.936 397.775 134.176 396.837 134.176C395.589 134.176 394.634 133.749 393.973 132.896C393.386 132.149 393.093 131.163 393.093 129.936C393.093 128.517 393.477 127.413 394.245 126.624C394.917 125.941 395.786 125.6 396.853 125.6C397.631 125.6 398.314 125.787 398.901 126.16C399.498 126.533 399.925 127.045 400.181 127.696C400.405 128.251 400.517 129.093 400.517 130.224V130.272ZM399.109 129.2C399.109 128.485 398.895 127.909 398.469 127.472C398.053 127.024 397.514 126.8 396.853 126.8C396.181 126.8 395.631 127.019 395.205 127.456C394.789 127.883 394.554 128.464 394.501 129.2H399.109ZM413.773 134H411.501L410.221 128.016L408.877 134H406.621L404.221 125.52H406.509L407.853 131.456L409.133 125.52H411.341L412.605 131.456L413.901 125.52H416.173L413.773 134ZM417.351 122.544H419.559V126.72C420.157 125.803 420.983 125.344 422.039 125.344C422.786 125.344 423.415 125.563 423.927 126C424.514 126.48 424.807 127.243 424.807 128.288V134H422.599V128.736C422.599 127.723 422.151 127.216 421.255 127.216C420.754 127.216 420.343 127.371 420.023 127.68C419.714 127.989 419.559 128.389 419.559 128.88V134H417.351V122.544ZM432.02 125.52H434.276L430.788 135.536C430.543 136.251 430.217 136.741 429.812 137.008C429.407 137.285 428.804 137.424 428.004 137.424C427.268 137.424 426.756 137.328 426.468 137.136L426.804 135.648C427.188 135.744 427.508 135.792 427.764 135.792C428.137 135.792 428.457 135.664 428.724 135.408C428.991 135.163 429.124 134.869 429.124 134.528V134.352L425.972 125.52H428.388L430.276 131.696L432.02 125.52ZM439.836 125.776V134H438.54V125.776H439.836ZM439.212 122.56C439.436 122.56 439.623 122.64 439.772 122.8C439.932 122.949 440.012 123.131 440.012 123.344C440.012 123.568 439.932 123.76 439.772 123.92C439.623 124.069 439.436 124.144 439.212 124.144C438.999 124.144 438.812 124.069 438.652 123.92C438.503 123.76 438.428 123.568 438.428 123.344C438.428 123.131 438.503 122.949 438.652 122.8C438.812 122.64 438.999 122.56 439.212 122.56ZM447.928 128.032H446.488C446.446 127.211 445.896 126.8 444.84 126.8C444.296 126.8 443.864 126.907 443.544 127.12C443.235 127.323 443.08 127.6 443.08 127.952C443.08 128.485 443.587 128.869 444.6 129.104L445.864 129.392C446.686 129.584 447.278 129.856 447.64 130.208C448.003 130.56 448.184 131.04 448.184 131.648C448.184 132.427 447.88 133.045 447.272 133.504C446.664 133.952 445.843 134.176 444.808 134.176C443.678 134.176 442.819 133.909 442.232 133.376C441.742 132.939 441.48 132.357 441.448 131.632H442.936C443.022 132.005 443.139 132.277 443.288 132.448C443.576 132.789 444.115 132.96 444.904 132.96C445.491 132.96 445.955 132.853 446.296 132.64C446.648 132.416 446.824 132.123 446.824 131.76C446.824 131.216 446.403 130.843 445.56 130.64L444.328 130.352C443.39 130.128 442.734 129.861 442.36 129.552C441.934 129.2 441.72 128.693 441.72 128.032C441.72 127.285 442.003 126.693 442.568 126.256C443.144 125.819 443.912 125.6 444.872 125.6C445.875 125.6 446.654 125.851 447.208 126.352C447.688 126.789 447.928 127.349 447.928 128.032ZM455.788 128.032H454.348C454.305 127.211 453.756 126.8 452.7 126.8C452.156 126.8 451.724 126.907 451.404 127.12C451.094 127.323 450.94 127.6 450.94 127.952C450.94 128.485 451.446 128.869 452.46 129.104L453.724 129.392C454.545 129.584 455.137 129.856 455.5 130.208C455.862 130.56 456.044 131.04 456.044 131.648C456.044 132.427 455.74 133.045 455.132 133.504C454.524 133.952 453.702 134.176 452.668 134.176C451.537 134.176 450.678 133.909 450.092 133.376C449.601 132.939 449.34 132.357 449.308 131.632H450.796C450.881 132.005 450.998 132.277 451.148 132.448C451.436 132.789 451.974 132.96 452.764 132.96C453.35 132.96 453.814 132.853 454.156 132.64C454.508 132.416 454.684 132.123 454.684 131.76C454.684 131.216 454.262 130.843 453.42 130.64L452.188 130.352C451.249 130.128 450.593 129.861 450.22 129.552C449.793 129.2 449.58 128.693 449.58 128.032C449.58 127.285 449.862 126.693 450.428 126.256C451.004 125.819 451.772 125.6 452.732 125.6C453.734 125.6 454.513 125.851 455.068 126.352C455.548 126.789 455.788 127.349 455.788 128.032ZM464.271 134H462.975V132.704C462.388 133.685 461.514 134.176 460.351 134.176C459.551 134.176 458.911 133.979 458.431 133.584C457.962 133.179 457.727 132.64 457.727 131.968V125.776H459.023V131.44C459.023 131.92 459.178 132.304 459.487 132.592C459.796 132.88 460.212 133.024 460.735 133.024C461.418 133.024 461.962 132.779 462.367 132.288C462.772 131.787 462.975 131.115 462.975 130.272V125.776H464.271V134ZM473.486 130.272H467.422C467.432 130.976 467.582 131.536 467.87 131.952C468.328 132.624 468.99 132.96 469.854 132.96C470.92 132.96 471.64 132.453 472.014 131.44H473.326C473.155 132.304 472.76 132.976 472.142 133.456C471.523 133.936 470.744 134.176 469.806 134.176C468.558 134.176 467.603 133.749 466.942 132.896C466.355 132.149 466.062 131.163 466.062 129.936C466.062 128.517 466.446 127.413 467.214 126.624C467.886 125.941 468.755 125.6 469.822 125.6C470.6 125.6 471.283 125.787 471.87 126.16C472.467 126.533 472.894 127.045 473.15 127.696C473.374 128.251 473.486 129.093 473.486 130.224V130.272ZM472.078 129.2C472.078 128.485 471.864 127.909 471.438 127.472C471.022 127.024 470.483 126.8 469.822 126.8C469.15 126.8 468.6 127.019 468.174 127.456C467.758 127.883 467.523 128.464 467.47 129.2H472.078ZM481.116 128.032H479.676C479.633 127.211 479.084 126.8 478.028 126.8C477.484 126.8 477.052 126.907 476.732 127.12C476.423 127.323 476.268 127.6 476.268 127.952C476.268 128.485 476.775 128.869 477.788 129.104L479.052 129.392C479.873 129.584 480.465 129.856 480.828 130.208C481.191 130.56 481.372 131.04 481.372 131.648C481.372 132.427 481.068 133.045 480.46 133.504C479.852 133.952 479.031 134.176 477.996 134.176C476.865 134.176 476.007 133.909 475.42 133.376C474.929 132.939 474.668 132.357 474.636 131.632H476.124C476.209 132.005 476.327 132.277 476.476 132.448C476.764 132.789 477.303 132.96 478.092 132.96C478.679 132.96 479.143 132.853 479.484 132.64C479.836 132.416 480.012 132.123 480.012 131.76C480.012 131.216 479.591 130.843 478.748 130.64L477.516 130.352C476.577 130.128 475.921 129.861 475.548 129.552C475.121 129.2 474.908 128.693 474.908 128.032C474.908 127.285 475.191 126.693 475.756 126.256C476.332 125.819 477.1 125.6 478.06 125.6C479.063 125.6 479.841 125.851 480.396 126.352C480.876 126.789 481.116 127.349 481.116 128.032ZM1.104 140.544H2.4V144.928C2.79467 144.437 3.18933 144.096 3.584 143.904C3.97867 143.701 4.46933 143.6 5.056 143.6C5.856 143.6 6.48533 143.803 6.944 144.208C7.40267 144.603 7.632 145.147 7.632 145.84V152H6.336V146.368C6.336 145.792 6.16 145.371 5.808 145.104C5.47733 144.859 5.088 144.736 4.64 144.736C3.968 144.736 3.424 144.987 3.008 145.488C2.60267 145.989 2.4 146.656 2.4 147.488V152H1.104V140.544ZM17.1344 150.896V151.952C16.7717 152.08 16.489 152.144 16.2864 152.144C15.433 152.144 14.969 151.755 14.8944 150.976C14.3077 151.776 13.3744 152.176 12.0944 152.176C11.209 152.176 10.521 151.931 10.0304 151.44C9.60371 151.013 9.39038 150.464 9.39038 149.792C9.39038 149.024 9.66238 148.432 10.2064 148.016C10.5157 147.781 11.161 147.552 12.1424 147.328L14.8304 146.72L14.8464 146.032C14.8464 145.211 14.2277 144.8 12.9904 144.8C11.8064 144.8 11.1717 145.28 11.0864 146.24H9.75838C9.79038 145.515 9.97171 144.96 10.3024 144.576C10.8677 143.925 11.785 143.6 13.0544 143.6C15.113 143.6 16.1424 144.347 16.1424 145.84V150.432C16.1424 150.837 16.3184 151.04 16.6704 151.04C16.713 151.04 16.825 151.008 17.0064 150.944C17.0704 150.923 17.113 150.907 17.1344 150.896ZM14.8464 147.792L12.7344 148.336C11.977 148.528 11.4544 148.725 11.1664 148.928C10.889 149.131 10.7504 149.413 10.7504 149.776C10.7504 150.619 11.2944 151.04 12.3824 151.04C13.1504 151.04 13.801 150.789 14.3344 150.288C14.6757 149.979 14.8464 149.627 14.8464 149.232V147.792ZM18.3168 155.424V143.776H19.5328V145.04C20.1408 144.08 21.0154 143.6 22.1568 143.6C23.3194 143.6 24.2154 144.048 24.8448 144.944C25.3994 145.723 25.6768 146.747 25.6768 148.016C25.6768 149.371 25.3141 150.427 24.5888 151.184C23.9594 151.845 23.1434 152.176 22.1408 152.176C21.1274 152.176 20.2901 151.808 19.6288 151.072V155.424H18.3168ZM21.9328 144.816C21.2394 144.816 20.6794 145.099 20.2528 145.664C19.8368 146.229 19.6288 146.987 19.6288 147.936C19.6288 148.917 19.8688 149.685 20.3488 150.24C20.7541 150.709 21.2821 150.944 21.9328 150.944C22.6581 150.944 23.2341 150.672 23.6608 150.128C24.0981 149.573 24.3168 148.843 24.3168 147.936C24.3168 146.933 24.0714 146.144 23.5808 145.568C23.1434 145.067 22.5941 144.816 21.9328 144.816ZM27.0511 155.424V143.776H28.2671V145.04C28.8751 144.08 29.7498 143.6 30.8911 143.6C32.0538 143.6 32.9498 144.048 33.5791 144.944C34.1338 145.723 34.4111 146.747 34.4111 148.016C34.4111 149.371 34.0485 150.427 33.3231 151.184C32.6938 151.845 31.8778 152.176 30.8751 152.176C29.8618 152.176 29.0245 151.808 28.3631 151.072V155.424H27.0511ZM30.6671 144.816C29.9738 144.816 29.4138 145.099 28.9871 145.664C28.5711 146.229 28.3631 146.987 28.3631 147.936C28.3631 148.917 28.6031 149.685 29.0831 150.24C29.4885 150.709 30.0165 150.944 30.6671 150.944C31.3925 150.944 31.9685 150.672 32.3951 150.128C32.8325 149.573 33.0511 148.843 33.0511 147.936C33.0511 146.933 32.8058 146.144 32.3151 145.568C31.8778 145.067 31.3285 144.816 30.6671 144.816ZM42.9855 148.272H36.9215C36.9322 148.976 37.0815 149.536 37.3695 149.952C37.8282 150.624 38.4895 150.96 39.3535 150.96C40.4202 150.96 41.1402 150.453 41.5135 149.44H42.8255C42.6548 150.304 42.2602 150.976 41.6415 151.456C41.0228 151.936 40.2442 152.176 39.3055 152.176C38.0575 152.176 37.1028 151.749 36.4415 150.896C35.8548 150.149 35.5615 149.163 35.5615 147.936C35.5615 146.517 35.9455 145.413 36.7135 144.624C37.3855 143.941 38.2548 143.6 39.3215 143.6C40.1002 143.6 40.7828 143.787 41.3695 144.16C41.9668 144.533 42.3935 145.045 42.6495 145.696C42.8735 146.251 42.9855 147.093 42.9855 148.224V148.272ZM41.5775 147.2C41.5775 146.485 41.3642 145.909 40.9375 145.472C40.5215 145.024 39.9828 144.8 39.3215 144.8C38.6495 144.8 38.1002 145.019 37.6735 145.456C37.2575 145.883 37.0228 146.464 36.9695 147.2H41.5775ZM44.7759 143.776H45.9919V145.168C46.6532 144.123 47.5599 143.6 48.7119 143.6C49.5119 143.6 50.1465 143.803 50.6159 144.208C51.0852 144.603 51.3199 145.136 51.3199 145.808V152H50.0239V146.336C50.0239 145.845 49.8692 145.456 49.5599 145.168C49.2612 144.88 48.8505 144.736 48.3279 144.736C47.6452 144.736 47.1012 144.987 46.6959 145.488C46.2905 145.989 46.0879 146.656 46.0879 147.488V152H44.7759V143.776ZM63.7438 150.896V151.952C63.3811 152.08 63.0984 152.144 62.8958 152.144C62.0424 152.144 61.5784 151.755 61.5038 150.976C60.9171 151.776 59.9838 152.176 58.7038 152.176C57.8184 152.176 57.1304 151.931 56.6398 151.44C56.2131 151.013 55.9998 150.464 55.9998 149.792C55.9998 149.024 56.2718 148.432 56.8158 148.016C57.1251 147.781 57.7704 147.552 58.7518 147.328L61.4398 146.72L61.4558 146.032C61.4558 145.211 60.8371 144.8 59.5998 144.8C58.4158 144.8 57.7811 145.28 57.6957 146.24H56.3678C56.3998 145.515 56.5811 144.96 56.9118 144.576C57.4771 143.925 58.3944 143.6 59.6638 143.6C61.7224 143.6 62.7518 144.347 62.7518 145.84V150.432C62.7518 150.837 62.9278 151.04 63.2798 151.04C63.3224 151.04 63.4344 151.008 63.6158 150.944C63.6798 150.923 63.7224 150.907 63.7438 150.896ZM61.4558 147.792L59.3438 148.336C58.5864 148.528 58.0638 148.725 57.7758 148.928C57.4984 149.131 57.3598 149.413 57.3598 149.776C57.3598 150.619 57.9038 151.04 58.9918 151.04C59.7598 151.04 60.4104 150.789 60.9438 150.288C61.2851 149.979 61.4558 149.627 61.4558 149.232V147.792ZM65.1821 143.776H66.3981V145.168C67.0595 144.123 67.9661 143.6 69.1181 143.6C69.9181 143.6 70.5528 143.803 71.0221 144.208C71.4915 144.603 71.7261 145.136 71.7261 145.808V152H70.4301V146.336C70.4301 145.845 70.2755 145.456 69.9661 145.168C69.6675 144.88 69.2568 144.736 68.7341 144.736C68.0515 144.736 67.5075 144.987 67.1021 145.488C66.6968 145.989 66.4941 146.656 66.4941 147.488V152H65.1821V143.776ZM80.6045 140.544V152H79.2925V150.864C78.7698 151.749 77.9592 152.192 76.8605 152.192C75.6552 152.192 74.7272 151.755 74.0765 150.88C73.5112 150.112 73.2285 149.099 73.2285 147.84C73.2285 146.464 73.5965 145.387 74.3325 144.608C74.9618 143.936 75.7778 143.6 76.7805 143.6C77.8898 143.6 78.7272 144.016 79.2925 144.848V140.544H80.6045ZM77.0045 144.816C76.2792 144.816 75.6925 145.104 75.2445 145.68C74.8072 146.245 74.5885 146.997 74.5885 147.936C74.5885 148.907 74.8445 149.669 75.3565 150.224C75.7938 150.715 76.3485 150.96 77.0205 150.96C77.7138 150.96 78.2632 150.688 78.6685 150.144C79.0845 149.6 79.2925 148.864 79.2925 147.936C79.2925 146.923 79.0578 146.133 78.5885 145.568C78.1725 145.067 77.6445 144.816 77.0045 144.816ZM85.4764 140.544H87.6844V144.72C88.2817 143.803 89.1084 143.344 90.1644 143.344C90.911 143.344 91.5404 143.563 92.0524 144C92.639 144.48 92.9324 145.243 92.9324 146.288V152H90.7244V146.736C90.7244 145.723 90.2764 145.216 89.3804 145.216C88.879 145.216 88.4684 145.371 88.1484 145.68C87.839 145.989 87.6844 146.389 87.6844 146.88V152H85.4764V140.544ZM98.6891 143.344C100.086 143.344 101.158 143.792 101.905 144.688C102.556 145.456 102.881 146.48 102.881 147.76C102.881 149.232 102.46 150.363 101.617 151.152C100.881 151.835 99.9051 152.176 98.6891 152.176C97.2918 152.176 96.2198 151.733 95.4731 150.848C94.8225 150.069 94.4971 149.04 94.4971 147.76C94.4971 146.299 94.9185 145.173 95.7611 144.384C96.4971 143.691 97.4731 143.344 98.6891 143.344ZM98.6891 145.12C98.0918 145.12 97.6118 145.365 97.2491 145.856C96.8865 146.336 96.7051 146.971 96.7051 147.76C96.7051 148.613 96.9078 149.285 97.3131 149.776C97.6758 150.192 98.1345 150.4 98.6891 150.4C99.2865 150.4 99.7665 150.16 100.129 149.68C100.502 149.189 100.689 148.549 100.689 147.76C100.689 146.917 100.481 146.251 100.065 145.76C99.7025 145.333 99.2438 145.12 98.6891 145.12ZM113.148 152H110.876L109.596 146.016L108.252 152H105.996L103.596 143.52H105.884L107.228 149.456L108.508 143.52H110.716L111.98 149.456L113.276 143.52H115.548L113.148 152ZM122.992 143.776V144.832H121.312V150.304C121.312 150.496 121.376 150.661 121.504 150.8C121.643 150.928 121.819 150.992 122.032 150.992C122.235 150.992 122.544 150.944 122.96 150.848L123.104 152C122.443 152.117 121.941 152.176 121.6 152.176C120.544 152.176 120.016 151.744 120.016 150.88V144.832H118.896V143.776H120.016V142.096L121.312 141.504V143.776H122.992ZM127.742 143.6C128.979 143.6 129.923 144.032 130.574 144.896C131.15 145.643 131.438 146.656 131.438 147.936C131.438 149.365 131.065 150.453 130.318 151.2C129.678 151.851 128.814 152.176 127.726 152.176C126.467 152.176 125.507 151.755 124.846 150.912C124.27 150.176 123.982 149.184 123.982 147.936C123.982 146.485 124.361 145.371 125.118 144.592C125.769 143.931 126.643 143.6 127.742 143.6ZM127.742 144.8C126.995 144.8 126.409 145.083 125.982 145.648C125.555 146.203 125.342 146.965 125.342 147.936C125.342 148.949 125.582 149.723 126.062 150.256C126.478 150.725 127.033 150.96 127.726 150.96C128.462 150.96 129.033 150.693 129.438 150.16C129.854 149.627 130.062 148.885 130.062 147.936C130.062 146.891 129.827 146.091 129.358 145.536C128.953 145.045 128.414 144.8 127.742 144.8ZM139.142 143.776V144.832H137.782V152H136.486V144.832H135.382V143.776H136.486V142.368C136.486 141.781 136.651 141.323 136.982 140.992C137.323 140.661 137.798 140.496 138.406 140.496C138.64 140.496 138.886 140.523 139.142 140.576V141.664H138.998C138.88 141.653 138.779 141.648 138.694 141.648C138.086 141.648 137.782 141.925 137.782 142.48V143.776H139.142ZM141.805 143.776V152H140.509V143.776H141.805ZM141.181 140.56C141.405 140.56 141.591 140.64 141.741 140.8C141.901 140.949 141.981 141.131 141.981 141.344C141.981 141.568 141.901 141.76 141.741 141.92C141.591 142.069 141.405 142.144 141.181 142.144C140.967 142.144 140.781 142.069 140.621 141.92C140.471 141.76 140.397 141.568 140.397 141.344C140.397 141.131 140.471 140.949 140.621 140.8C140.781 140.64 140.967 140.56 141.181 140.56ZM147.545 147.744L150.393 152H148.873L146.809 148.832L144.713 152H143.225L146.137 147.808L143.369 143.776H144.873L146.857 146.752L148.841 143.776H150.313L147.545 147.744ZM158.07 143.776V144.832H156.39V150.304C156.39 150.496 156.454 150.661 156.582 150.8C156.721 150.928 156.897 150.992 157.11 150.992C157.313 150.992 157.622 150.944 158.038 150.848L158.182 152C157.521 152.117 157.019 152.176 156.678 152.176C155.622 152.176 155.094 151.744 155.094 150.88V144.832H153.974V143.776H155.094V142.096L156.39 141.504V143.776H158.07ZM159.604 140.544H160.9V144.928C161.295 144.437 161.689 144.096 162.084 143.904C162.479 143.701 162.969 143.6 163.556 143.6C164.356 143.6 164.985 143.803 165.444 144.208C165.903 144.603 166.132 145.147 166.132 145.84V152H164.836V146.368C164.836 145.792 164.66 145.371 164.308 145.104C163.977 144.859 163.588 144.736 163.14 144.736C162.468 144.736 161.924 144.987 161.508 145.488C161.103 145.989 160.9 146.656 160.9 147.488V152H159.604V140.544ZM175.282 148.272H169.218C169.229 148.976 169.378 149.536 169.666 149.952C170.125 150.624 170.786 150.96 171.65 150.96C172.717 150.96 173.437 150.453 173.81 149.44H175.122C174.952 150.304 174.557 150.976 173.938 151.456C173.32 151.936 172.541 152.176 171.602 152.176C170.354 152.176 169.4 151.749 168.738 150.896C168.152 150.149 167.858 149.163 167.858 147.936C167.858 146.517 168.242 145.413 169.01 144.624C169.682 143.941 170.552 143.6 171.618 143.6C172.397 143.6 173.08 143.787 173.666 144.16C174.264 144.533 174.69 145.045 174.946 145.696C175.17 146.251 175.282 147.093 175.282 148.224V148.272ZM173.874 147.2C173.874 146.485 173.661 145.909 173.234 145.472C172.818 145.024 172.28 144.8 171.618 144.8C170.946 144.8 170.397 145.019 169.97 145.456C169.554 145.883 169.32 146.464 169.266 147.2H173.874ZM177.073 143.776H178.289V144.96C178.929 144.053 179.771 143.6 180.817 143.6C181.83 143.6 182.566 144.005 183.025 144.816C183.419 144.357 183.798 144.043 184.161 143.872C184.534 143.691 184.993 143.6 185.537 143.6C187.137 143.6 187.937 144.352 187.937 145.856V152H186.625V146.368C186.625 145.28 186.113 144.736 185.089 144.736C184.555 144.736 184.102 144.944 183.729 145.36C183.355 145.776 183.169 146.272 183.169 146.848V152H181.857V146.368C181.857 145.28 181.35 144.736 180.337 144.736C179.793 144.736 179.329 144.944 178.945 145.36C178.571 145.765 178.385 146.261 178.385 146.848V152H177.073V143.776ZM190.663 150.512C190.887 150.512 191.073 150.587 191.223 150.736C191.372 150.885 191.447 151.072 191.447 151.296C191.447 151.509 191.372 151.696 191.223 151.856C191.073 152.005 190.887 152.08 190.663 152.08C190.449 152.08 190.263 152.005 190.103 151.856C189.953 151.696 189.879 151.509 189.879 151.296C189.879 151.072 189.953 150.885 190.103 150.736C190.263 150.587 190.449 150.512 190.663 150.512ZM198.244 140.544V152H196.756V140.544H198.244ZM200.667 143.776H201.883V145.168C202.544 144.123 203.451 143.6 204.603 143.6C205.403 143.6 206.037 143.803 206.507 144.208C206.976 144.603 207.211 145.136 207.211 145.808V152H205.915V146.336C205.915 145.845 205.76 145.456 205.451 145.168C205.152 144.88 204.741 144.736 204.219 144.736C203.536 144.736 202.992 144.987 202.587 145.488C202.181 145.989 201.979 146.656 201.979 147.488V152H200.667V143.776ZM215.241 146.032H213.801C213.758 145.211 213.209 144.8 212.153 144.8C211.609 144.8 211.177 144.907 210.857 145.12C210.548 145.323 210.393 145.6 210.393 145.952C210.393 146.485 210.9 146.869 211.913 147.104L213.177 147.392C213.998 147.584 214.59 147.856 214.953 148.208C215.316 148.56 215.497 149.04 215.497 149.648C215.497 150.427 215.193 151.045 214.585 151.504C213.977 151.952 213.156 152.176 212.121 152.176C210.99 152.176 210.132 151.909 209.545 151.376C209.054 150.939 208.793 150.357 208.761 149.632H210.249C210.334 150.005 210.452 150.277 210.601 150.448C210.889 150.789 211.428 150.96 212.217 150.96C212.804 150.96 213.268 150.853 213.609 150.64C213.961 150.416 214.137 150.123 214.137 149.76C214.137 149.216 213.716 148.843 212.873 148.64L211.641 148.352C210.702 148.128 210.046 147.861 209.673 147.552C209.246 147.2 209.033 146.693 209.033 146.032C209.033 145.285 209.316 144.693 209.881 144.256C210.457 143.819 211.225 143.6 212.185 143.6C213.188 143.6 213.966 143.851 214.521 144.352C215.001 144.789 215.241 145.349 215.241 146.032ZM218.492 143.776V152H217.196V143.776H218.492ZM217.868 140.56C218.092 140.56 218.279 140.64 218.428 140.8C218.588 140.949 218.668 141.131 218.668 141.344C218.668 141.568 218.588 141.76 218.428 141.92C218.279 142.069 218.092 142.144 217.868 142.144C217.655 142.144 217.468 142.069 217.308 141.92C217.159 141.76 217.084 141.568 217.084 141.344C217.084 141.131 217.159 140.949 217.308 140.8C217.468 140.64 217.655 140.56 217.868 140.56ZM226.105 143.776H227.321V150.656C227.321 152.437 227.033 153.675 226.457 154.368C225.881 155.072 224.937 155.424 223.625 155.424C222.601 155.424 221.801 155.179 221.225 154.688C220.713 154.251 220.425 153.669 220.361 152.944H221.705C221.769 153.371 221.929 153.685 222.185 153.888C222.558 154.176 223.059 154.32 223.689 154.32C224.542 154.32 225.15 154.064 225.513 153.552C225.822 153.115 225.977 152.368 225.977 151.312V150.784C225.294 151.712 224.473 152.176 223.513 152.176C222.574 152.176 221.779 151.824 221.129 151.12C220.435 150.363 220.089 149.328 220.089 148.016C220.089 146.608 220.451 145.488 221.177 144.656C221.817 143.952 222.622 143.6 223.593 143.6C224.638 143.6 225.475 144.069 226.105 145.008V143.776ZM223.737 144.8C223.033 144.8 222.473 145.083 222.057 145.648C221.651 146.203 221.449 146.965 221.449 147.936C221.449 148.949 221.683 149.723 222.153 150.256C222.547 150.725 223.081 150.96 223.753 150.96C224.457 150.96 225.001 150.693 225.385 150.16C225.779 149.627 225.977 148.885 225.977 147.936C225.977 146.891 225.753 146.091 225.305 145.536C224.91 145.045 224.387 144.8 223.737 144.8ZM229.479 140.544H230.775V144.928C231.17 144.437 231.564 144.096 231.959 143.904C232.354 143.701 232.844 143.6 233.431 143.6C234.231 143.6 234.86 143.803 235.319 144.208C235.778 144.603 236.007 145.147 236.007 145.84V152H234.711V146.368C234.711 145.792 234.535 145.371 234.183 145.104C233.852 144.859 233.463 144.736 233.015 144.736C232.343 144.736 231.799 144.987 231.383 145.488C230.978 145.989 230.775 146.656 230.775 147.488V152H229.479V140.544ZM241.429 143.776V144.832H239.749V150.304C239.749 150.496 239.813 150.661 239.941 150.8C240.08 150.928 240.256 150.992 240.469 150.992C240.672 150.992 240.981 150.944 241.397 150.848L241.541 152C240.88 152.117 240.379 152.176 240.037 152.176C238.981 152.176 238.453 151.744 238.453 150.88V144.832H237.333V143.776H238.453V142.096L239.749 141.504V143.776H241.429ZM248.803 146.032H247.363C247.321 145.211 246.771 144.8 245.715 144.8C245.171 144.8 244.739 144.907 244.419 145.12C244.11 145.323 243.955 145.6 243.955 145.952C243.955 146.485 244.462 146.869 245.475 147.104L246.739 147.392C247.561 147.584 248.153 147.856 248.515 148.208C248.878 148.56 249.059 149.04 249.059 149.648C249.059 150.427 248.755 151.045 248.147 151.504C247.539 151.952 246.718 152.176 245.683 152.176C244.553 152.176 243.694 151.909 243.107 151.376C242.617 150.939 242.355 150.357 242.323 149.632H243.811C243.897 150.005 244.014 150.277 244.163 150.448C244.451 150.789 244.99 150.96 245.779 150.96C246.366 150.96 246.83 150.853 247.171 150.64C247.523 150.416 247.699 150.123 247.699 149.76C247.699 149.216 247.278 148.843 246.435 148.64L245.203 148.352C244.265 148.128 243.609 147.861 243.235 147.552C242.809 147.2 242.595 146.693 242.595 146.032C242.595 145.285 242.878 144.693 243.443 144.256C244.019 143.819 244.787 143.6 245.747 143.6C246.75 143.6 247.529 143.851 248.083 144.352C248.563 144.789 248.803 145.349 248.803 146.032ZM260.048 146.528H258.736C258.576 145.376 257.926 144.8 256.784 144.8C256.07 144.8 255.51 145.083 255.104 145.648C254.699 146.213 254.496 146.997 254.496 148C254.496 148.992 254.736 149.749 255.216 150.272C255.622 150.731 256.166 150.96 256.848 150.96C257.947 150.96 258.603 150.363 258.816 149.168H260.144C260.059 150.192 259.691 150.965 259.04 151.488C258.475 151.947 257.734 152.176 256.816 152.176C255.611 152.176 254.672 151.749 254 150.896C253.424 150.16 253.136 149.195 253.136 148C253.136 146.571 253.515 145.451 254.272 144.64C254.923 143.947 255.766 143.6 256.8 143.6C257.995 143.6 258.891 144 259.488 144.8C259.798 145.216 259.984 145.792 260.048 146.528ZM262.9 140.544V152H261.588V140.544H262.9ZM271.568 152H270.272V150.704C269.685 151.685 268.811 152.176 267.648 152.176C266.848 152.176 266.208 151.979 265.728 151.584C265.259 151.179 265.024 150.64 265.024 149.968V143.776H266.32V149.44C266.32 149.92 266.475 150.304 266.784 150.592C267.093 150.88 267.509 151.024 268.032 151.024C268.715 151.024 269.259 150.779 269.664 150.288C270.069 149.787 270.272 149.115 270.272 148.272V143.776H271.568V152ZM279.678 146.032H278.238C278.196 145.211 277.646 144.8 276.59 144.8C276.046 144.8 275.614 144.907 275.294 145.12C274.985 145.323 274.83 145.6 274.83 145.952C274.83 146.485 275.337 146.869 276.35 147.104L277.614 147.392C278.436 147.584 279.028 147.856 279.39 148.208C279.753 148.56 279.934 149.04 279.934 149.648C279.934 150.427 279.63 151.045 279.022 151.504C278.414 151.952 277.593 152.176 276.558 152.176C275.428 152.176 274.569 151.909 273.982 151.376C273.492 150.939 273.23 150.357 273.198 149.632H274.686C274.772 150.005 274.889 150.277 275.038 150.448C275.326 150.789 275.865 150.96 276.654 150.96C277.241 150.96 277.705 150.853 278.046 150.64C278.398 150.416 278.574 150.123 278.574 149.76C278.574 149.216 278.153 148.843 277.31 148.64L276.078 148.352C275.14 148.128 274.484 147.861 274.11 147.552C273.684 147.2 273.47 146.693 273.47 146.032C273.47 145.285 273.753 144.693 274.318 144.256C274.894 143.819 275.662 143.6 276.622 143.6C277.625 143.6 278.404 143.851 278.958 144.352C279.438 144.789 279.678 145.349 279.678 146.032ZM284.914 143.776V144.832H283.234V150.304C283.234 150.496 283.298 150.661 283.426 150.8C283.564 150.928 283.74 150.992 283.954 150.992C284.156 150.992 284.466 150.944 284.882 150.848L285.026 152C284.364 152.117 283.863 152.176 283.522 152.176C282.466 152.176 281.938 151.744 281.938 150.88V144.832H280.818V143.776H281.938V142.096L283.234 141.504V143.776H284.914ZM293.392 148.272H287.328C287.338 148.976 287.488 149.536 287.776 149.952C288.234 150.624 288.896 150.96 289.76 150.96C290.826 150.96 291.546 150.453 291.92 149.44H293.232C293.061 150.304 292.666 150.976 292.048 151.456C291.429 151.936 290.65 152.176 289.712 152.176C288.464 152.176 287.509 151.749 286.848 150.896C286.261 150.149 285.968 149.163 285.968 147.936C285.968 146.517 286.352 145.413 287.12 144.624C287.792 143.941 288.661 143.6 289.728 143.6C290.506 143.6 291.189 143.787 291.776 144.16C292.373 144.533 292.8 145.045 293.056 145.696C293.28 146.251 293.392 147.093 293.392 148.224V148.272ZM291.984 147.2C291.984 146.485 291.77 145.909 291.344 145.472C290.928 145.024 290.389 144.8 289.728 144.8C289.056 144.8 288.506 145.019 288.08 145.456C287.664 145.883 287.429 146.464 287.376 147.2H291.984ZM295.166 143.776H296.382V145.28C296.862 144.149 297.619 143.584 298.654 143.584C298.782 143.584 298.937 143.6 299.118 143.632V144.976C298.265 144.987 297.678 145.109 297.358 145.344C296.771 145.771 296.478 146.565 296.478 147.728V152H295.166V143.776ZM304.586 143.776V152H303.29V143.776H304.586ZM303.962 140.56C304.186 140.56 304.373 140.64 304.522 140.8C304.682 140.949 304.762 141.131 304.762 141.344C304.762 141.568 304.682 141.76 304.522 141.92C304.373 142.069 304.186 142.144 303.962 142.144C303.749 142.144 303.562 142.069 303.402 141.92C303.253 141.76 303.178 141.568 303.178 141.344C303.178 141.131 303.253 140.949 303.402 140.8C303.562 140.64 303.749 140.56 303.962 140.56ZM306.838 143.776H308.054V145.168C308.716 144.123 309.622 143.6 310.774 143.6C311.574 143.6 312.209 143.803 312.678 144.208C313.148 144.603 313.382 145.136 313.382 145.808V152H312.086V146.336C312.086 145.845 311.932 145.456 311.622 145.168C311.324 144.88 310.913 144.736 310.39 144.736C309.708 144.736 309.164 144.987 308.758 145.488C308.353 145.989 308.15 146.656 308.15 147.488V152H306.838V143.776ZM318.494 143.776H319.71V145.28C320.19 144.149 320.948 143.584 321.982 143.584C322.11 143.584 322.265 143.6 322.446 143.632V144.976C321.593 144.987 321.006 145.109 320.686 145.344C320.1 145.771 319.806 146.565 319.806 147.728V152H318.494V143.776ZM330.689 148.272H324.625C324.635 148.976 324.785 149.536 325.073 149.952C325.531 150.624 326.193 150.96 327.057 150.96C328.123 150.96 328.843 150.453 329.217 149.44H330.529C330.358 150.304 329.963 150.976 329.345 151.456C328.726 151.936 327.947 152.176 327.009 152.176C325.761 152.176 324.806 151.749 324.145 150.896C323.558 150.149 323.265 149.163 323.265 147.936C323.265 146.517 323.649 145.413 324.417 144.624C325.089 143.941 325.958 143.6 327.025 143.6C327.803 143.6 328.486 143.787 329.073 144.16C329.67 144.533 330.097 145.045 330.353 145.696C330.577 146.251 330.689 147.093 330.689 148.224V148.272ZM329.281 147.2C329.281 146.485 329.067 145.909 328.641 145.472C328.225 145.024 327.686 144.8 327.025 144.8C326.353 144.8 325.803 145.019 325.377 145.456C324.961 145.883 324.726 146.464 324.673 147.2H329.281ZM339.775 150.896V151.952C339.412 152.08 339.13 152.144 338.927 152.144C338.074 152.144 337.61 151.755 337.535 150.976C336.948 151.776 336.015 152.176 334.735 152.176C333.85 152.176 333.162 151.931 332.671 151.44C332.244 151.013 332.031 150.464 332.031 149.792C332.031 149.024 332.303 148.432 332.847 148.016C333.156 147.781 333.802 147.552 334.783 147.328L337.471 146.72L337.487 146.032C337.487 145.211 336.868 144.8 335.631 144.8C334.447 144.8 333.812 145.28 333.727 146.24H332.399C332.431 145.515 332.612 144.96 332.943 144.576C333.508 143.925 334.426 143.6 335.695 143.6C337.754 143.6 338.783 144.347 338.783 145.84V150.432C338.783 150.837 338.959 151.04 339.311 151.04C339.354 151.04 339.466 151.008 339.647 150.944C339.711 150.923 339.754 150.907 339.775 150.896ZM337.487 147.792L335.375 148.336C334.618 148.528 334.095 148.725 333.807 148.928C333.53 149.131 333.391 149.413 333.391 149.776C333.391 150.619 333.935 151.04 335.023 151.04C335.791 151.04 336.442 150.789 336.975 150.288C337.316 149.979 337.487 149.627 337.487 149.232V147.792ZM342.493 140.544V152H341.181V140.544H342.493ZM350.851 143.776V144.832H349.171V150.304C349.171 150.496 349.235 150.661 349.363 150.8C349.502 150.928 349.678 150.992 349.891 150.992C350.094 150.992 350.403 150.944 350.819 150.848L350.963 152C350.302 152.117 349.801 152.176 349.459 152.176C348.403 152.176 347.875 151.744 347.875 150.88V144.832H346.755V143.776H347.875V142.096L349.171 141.504V143.776H350.851ZM353.617 143.776V152H352.321V143.776H353.617ZM352.993 140.56C353.217 140.56 353.404 140.64 353.553 140.8C353.713 140.949 353.793 141.131 353.793 141.344C353.793 141.568 353.713 141.76 353.553 141.92C353.404 142.069 353.217 142.144 352.993 142.144C352.78 142.144 352.593 142.069 352.433 141.92C352.284 141.76 352.209 141.568 352.209 141.344C352.209 141.131 352.284 140.949 352.433 140.8C352.593 140.64 352.78 140.56 352.993 140.56ZM355.87 143.776H357.086V144.96C357.726 144.053 358.568 143.6 359.614 143.6C360.627 143.6 361.363 144.005 361.822 144.816C362.216 144.357 362.595 144.043 362.958 143.872C363.331 143.691 363.79 143.6 364.334 143.6C365.934 143.6 366.734 144.352 366.734 145.856V152H365.422V146.368C365.422 145.28 364.91 144.736 363.886 144.736C363.352 144.736 362.899 144.944 362.526 145.36C362.152 145.776 361.966 146.272 361.966 146.848V152H360.654V146.368C360.654 145.28 360.147 144.736 359.134 144.736C358.59 144.736 358.126 144.944 357.742 145.36C357.368 145.765 357.182 146.261 357.182 146.848V152H355.87V143.776ZM375.907 148.272H369.843C369.854 148.976 370.003 149.536 370.291 149.952C370.75 150.624 371.411 150.96 372.275 150.96C373.342 150.96 374.062 150.453 374.435 149.44H375.747C375.577 150.304 375.182 150.976 374.563 151.456C373.945 151.936 373.166 152.176 372.227 152.176C370.979 152.176 370.025 151.749 369.363 150.896C368.777 150.149 368.483 149.163 368.483 147.936C368.483 146.517 368.867 145.413 369.635 144.624C370.307 143.941 371.177 143.6 372.243 143.6C373.022 143.6 373.705 143.787 374.291 144.16C374.889 144.533 375.315 145.045 375.571 145.696C375.795 146.251 375.907 147.093 375.907 148.224V148.272ZM374.499 147.2C374.499 146.485 374.286 145.909 373.859 145.472C373.443 145.024 372.905 144.8 372.243 144.8C371.571 144.8 371.022 145.019 370.595 145.456C370.179 145.883 369.945 146.464 369.891 147.2H374.499ZM386.475 146.032H385.035C384.993 145.211 384.443 144.8 383.387 144.8C382.843 144.8 382.411 144.907 382.091 145.12C381.782 145.323 381.627 145.6 381.627 145.952C381.627 146.485 382.134 146.869 383.147 147.104L384.411 147.392C385.233 147.584 385.825 147.856 386.187 148.208C386.55 148.56 386.731 149.04 386.731 149.648C386.731 150.427 386.427 151.045 385.819 151.504C385.211 151.952 384.39 152.176 383.355 152.176C382.225 152.176 381.366 151.909 380.779 151.376C380.289 150.939 380.027 150.357 379.995 149.632H381.483C381.569 150.005 381.686 150.277 381.835 150.448C382.123 150.789 382.662 150.96 383.451 150.96C384.038 150.96 384.502 150.853 384.843 150.64C385.195 150.416 385.371 150.123 385.371 149.76C385.371 149.216 384.95 148.843 384.107 148.64L382.875 148.352C381.937 148.128 381.281 147.861 380.907 147.552C380.481 147.2 380.267 146.693 380.267 146.032C380.267 145.285 380.55 144.693 381.115 144.256C381.691 143.819 382.459 143.6 383.419 143.6C384.422 143.6 385.201 143.851 385.755 144.352C386.235 144.789 386.475 145.349 386.475 146.032ZM391.711 143.6C392.948 143.6 393.892 144.032 394.543 144.896C395.119 145.643 395.407 146.656 395.407 147.936C395.407 149.365 395.033 150.453 394.287 151.2C393.647 151.851 392.783 152.176 391.695 152.176C390.436 152.176 389.476 151.755 388.815 150.912C388.239 150.176 387.951 149.184 387.951 147.936C387.951 146.485 388.329 145.371 389.087 144.592C389.737 143.931 390.612 143.6 391.711 143.6ZM391.711 144.8C390.964 144.8 390.377 145.083 389.951 145.648C389.524 146.203 389.311 146.965 389.311 147.936C389.311 148.949 389.551 149.723 390.031 150.256C390.447 150.725 391.001 150.96 391.695 150.96C392.431 150.96 393.001 150.693 393.407 150.16C393.823 149.627 394.031 148.885 394.031 147.936C394.031 146.891 393.796 146.091 393.327 145.536C392.921 145.045 392.383 144.8 391.711 144.8ZM7.792 158.544V170H6.48V168.864C5.95733 169.749 5.14667 170.192 4.048 170.192C2.84267 170.192 1.91467 169.755 1.264 168.88C0.698667 168.112 0.416 167.099 0.416 165.84C0.416 164.464 0.784 163.387 1.52 162.608C2.14933 161.936 2.96533 161.6 3.968 161.6C5.07733 161.6 5.91467 162.016 6.48 162.848V158.544H7.792ZM4.192 162.816C3.46667 162.816 2.88 163.104 2.432 163.68C1.99467 164.245 1.776 164.997 1.776 165.936C1.776 166.907 2.032 167.669 2.544 168.224C2.98133 168.715 3.536 168.96 4.208 168.96C4.90133 168.96 5.45067 168.688 5.856 168.144C6.272 167.6 6.48 166.864 6.48 165.936C6.48 164.923 6.24533 164.133 5.776 163.568C5.36 163.067 4.832 162.816 4.192 162.816ZM16.7824 166.272H10.7184C10.729 166.976 10.8784 167.536 11.1664 167.952C11.625 168.624 12.2864 168.96 13.1504 168.96C14.217 168.96 14.937 168.453 15.3104 167.44H16.6224C16.4517 168.304 16.057 168.976 15.4384 169.456C14.8197 169.936 14.041 170.176 13.1024 170.176C11.8544 170.176 10.8997 169.749 10.2384 168.896C9.65171 168.149 9.35838 167.163 9.35838 165.936C9.35838 164.517 9.74238 163.413 10.5104 162.624C11.1824 161.941 12.0517 161.6 13.1184 161.6C13.897 161.6 14.5797 161.787 15.1664 162.16C15.7637 162.533 16.1904 163.045 16.4464 163.696C16.6704 164.251 16.7824 165.093 16.7824 166.224V166.272ZM15.3744 165.2C15.3744 164.485 15.161 163.909 14.7344 163.472C14.3184 163.024 13.7797 162.8 13.1184 162.8C12.4464 162.8 11.897 163.019 11.4704 163.456C11.0544 163.883 10.8197 164.464 10.7664 165.2H15.3744ZM24.8608 164.528H23.5488C23.3888 163.376 22.7381 162.8 21.5968 162.8C20.8821 162.8 20.3221 163.083 19.9168 163.648C19.5114 164.213 19.3088 164.997 19.3088 166C19.3088 166.992 19.5488 167.749 20.0288 168.272C20.4341 168.731 20.9781 168.96 21.6608 168.96C22.7594 168.96 23.4154 168.363 23.6288 167.168H24.9568C24.8714 168.192 24.5034 168.965 23.8528 169.488C23.2874 169.947 22.5461 170.176 21.6288 170.176C20.4234 170.176 19.4848 169.749 18.8128 168.896C18.2368 168.16 17.9488 167.195 17.9488 166C17.9488 164.571 18.3274 163.451 19.0848 162.64C19.7354 161.947 20.5781 161.6 21.6128 161.6C22.8074 161.6 23.7034 162 24.3008 162.8C24.6101 163.216 24.7968 163.792 24.8608 164.528ZM27.6641 161.776V170H26.3681V161.776H27.6641ZM27.0401 158.56C27.2641 158.56 27.4508 158.64 27.6001 158.8C27.7601 158.949 27.8401 159.131 27.8401 159.344C27.8401 159.568 27.7601 159.76 27.6001 159.92C27.4508 160.069 27.2641 160.144 27.0401 160.144C26.8268 160.144 26.6401 160.069 26.4801 159.92C26.3308 159.76 26.2561 159.568 26.2561 159.344C26.2561 159.131 26.3308 158.949 26.4801 158.8C26.6401 158.64 26.8268 158.56 27.0401 158.56ZM35.7565 164.032H34.3165C34.2738 163.211 33.7245 162.8 32.6685 162.8C32.1245 162.8 31.6925 162.907 31.3725 163.12C31.0632 163.323 30.9085 163.6 30.9085 163.952C30.9085 164.485 31.4152 164.869 32.4285 165.104L33.6925 165.392C34.5138 165.584 35.1058 165.856 35.4685 166.208C35.8312 166.56 36.0125 167.04 36.0125 167.648C36.0125 168.427 35.7085 169.045 35.1005 169.504C34.4925 169.952 33.6712 170.176 32.6365 170.176C31.5058 170.176 30.6472 169.909 30.0605 169.376C29.5698 168.939 29.3085 168.357 29.2765 167.632H30.7645C30.8498 168.005 30.9672 168.277 31.1165 168.448C31.4045 168.789 31.9432 168.96 32.7325 168.96C33.3192 168.96 33.7832 168.853 34.1245 168.64C34.4765 168.416 34.6525 168.123 34.6525 167.76C34.6525 167.216 34.2312 166.843 33.3885 166.64L32.1565 166.352C31.2178 166.128 30.5618 165.861 30.1885 165.552C29.7618 165.2 29.5485 164.693 29.5485 164.032C29.5485 163.285 29.8312 162.693 30.3965 162.256C30.9725 161.819 31.7405 161.6 32.7005 161.6C33.7032 161.6 34.4818 161.851 35.0365 162.352C35.5165 162.789 35.7565 163.349 35.7565 164.032ZM39.0079 161.776V170H37.7119V161.776H39.0079ZM38.3839 158.56C38.6079 158.56 38.7945 158.64 38.9439 158.8C39.1039 158.949 39.1839 159.131 39.1839 159.344C39.1839 159.568 39.1039 159.76 38.9439 159.92C38.7945 160.069 38.6079 160.144 38.3839 160.144C38.1705 160.144 37.9839 160.069 37.8239 159.92C37.6745 159.76 37.5999 159.568 37.5999 159.344C37.5999 159.131 37.6745 158.949 37.8239 158.8C37.9839 158.64 38.1705 158.56 38.3839 158.56ZM44.4763 161.6C45.7136 161.6 46.6576 162.032 47.3083 162.896C47.8843 163.643 48.1723 164.656 48.1723 165.936C48.1723 167.365 47.7989 168.453 47.0523 169.2C46.4123 169.851 45.5483 170.176 44.4603 170.176C43.2016 170.176 42.2416 169.755 41.5803 168.912C41.0043 168.176 40.7163 167.184 40.7163 165.936C40.7163 164.485 41.0949 163.371 41.8523 162.592C42.5029 161.931 43.3776 161.6 44.4763 161.6ZM44.4763 162.8C43.7296 162.8 43.1429 163.083 42.7163 163.648C42.2896 164.203 42.0763 164.965 42.0763 165.936C42.0763 166.949 42.3163 167.723 42.7963 168.256C43.2123 168.725 43.7669 168.96 44.4603 168.96C45.1963 168.96 45.7669 168.693 46.1723 168.16C46.5883 167.627 46.7963 166.885 46.7963 165.936C46.7963 164.891 46.5616 164.091 46.0923 163.536C45.6869 163.045 45.1483 162.8 44.4763 162.8ZM49.9946 161.776H51.2106V163.168C51.872 162.123 52.7786 161.6 53.9306 161.6C54.7306 161.6 55.3653 161.803 55.8346 162.208C56.304 162.603 56.5386 163.136 56.5386 163.808V170H55.2426V164.336C55.2426 163.845 55.088 163.456 54.7786 163.168C54.48 162.88 54.0693 162.736 53.5466 162.736C52.864 162.736 52.32 162.987 51.9146 163.488C51.5093 163.989 51.3066 164.656 51.3066 165.488V170H49.9946V161.776ZM62.169 165.792V166.944H58.217V165.792H62.169ZM63.8696 161.776H65.0856V162.96C65.7256 162.053 66.5683 161.6 67.6136 161.6C68.627 161.6 69.363 162.005 69.8216 162.816C70.2163 162.357 70.595 162.043 70.9576 161.872C71.331 161.691 71.7896 161.6 72.3336 161.6C73.9336 161.6 74.7336 162.352 74.7336 163.856V170H73.4216V164.368C73.4216 163.28 72.9096 162.736 71.8856 162.736C71.3523 162.736 70.899 162.944 70.5256 163.36C70.1523 163.776 69.9656 164.272 69.9656 164.848V170H68.6536V164.368C68.6536 163.28 68.147 162.736 67.1336 162.736C66.5896 162.736 66.1256 162.944 65.7416 163.36C65.3683 163.765 65.1816 164.261 65.1816 164.848V170H63.8696V161.776ZM84.2594 168.896V169.952C83.8967 170.08 83.614 170.144 83.4114 170.144C82.558 170.144 82.094 169.755 82.0194 168.976C81.4327 169.776 80.4994 170.176 79.2194 170.176C78.334 170.176 77.646 169.931 77.1554 169.44C76.7287 169.013 76.5154 168.464 76.5154 167.792C76.5154 167.024 76.7874 166.432 77.3314 166.016C77.6407 165.781 78.286 165.552 79.2674 165.328L81.9554 164.72L81.9714 164.032C81.9714 163.211 81.3527 162.8 80.1154 162.8C78.9314 162.8 78.2967 163.28 78.2114 164.24H76.8834C76.9154 163.515 77.0967 162.96 77.4274 162.576C77.9927 161.925 78.91 161.6 80.1794 161.6C82.238 161.6 83.2674 162.347 83.2674 163.84V168.432C83.2674 168.837 83.4434 169.04 83.7954 169.04C83.838 169.04 83.95 169.008 84.1314 168.944C84.1954 168.923 84.238 168.907 84.2594 168.896ZM81.9714 165.792L79.8594 166.336C79.102 166.528 78.5794 166.725 78.2914 166.928C78.014 167.131 77.8754 167.413 77.8754 167.776C77.8754 168.619 78.4194 169.04 79.5074 169.04C80.2754 169.04 80.926 168.789 81.4594 168.288C81.8007 167.979 81.9714 167.627 81.9714 167.232V165.792ZM86.8018 158.544V165.264L90.2898 161.776H91.9858L89.1218 164.608L92.4818 170H90.8658L88.0818 165.536L86.8018 166.784V170H85.5058V158.544H86.8018ZM100.501 166.272H94.4371C94.4478 166.976 94.5971 167.536 94.8851 167.952C95.3438 168.624 96.0051 168.96 96.8691 168.96C97.9358 168.96 98.6558 168.453 99.0291 167.44H100.341C100.17 168.304 99.7758 168.976 99.1571 169.456C98.5385 169.936 97.7598 170.176 96.8211 170.176C95.5731 170.176 94.6185 169.749 93.9571 168.896C93.3705 168.149 93.0771 167.163 93.0771 165.936C93.0771 164.517 93.4611 163.413 94.2291 162.624C94.9011 161.941 95.7705 161.6 96.8371 161.6C97.6158 161.6 98.2985 161.787 98.8851 162.16C99.4825 162.533 99.9091 163.045 100.165 163.696C100.389 164.251 100.501 165.093 100.501 166.224V166.272ZM99.0931 165.2C99.0931 164.485 98.8798 163.909 98.4531 163.472C98.0371 163.024 97.4985 162.8 96.8371 162.8C96.1651 162.8 95.6158 163.019 95.1891 163.456C94.7731 163.883 94.5385 164.464 94.4851 165.2H99.0931ZM102.276 161.776H103.492V163.28C103.972 162.149 104.729 161.584 105.764 161.584C105.892 161.584 106.046 161.6 106.228 161.632V162.976C105.374 162.987 104.788 163.109 104.468 163.344C103.881 163.771 103.588 164.565 103.588 165.728V170H102.276V161.776ZM113.366 164.032H111.926C111.883 163.211 111.334 162.8 110.278 162.8C109.734 162.8 109.302 162.907 108.982 163.12C108.673 163.323 108.518 163.6 108.518 163.952C108.518 164.485 109.025 164.869 110.038 165.104L111.302 165.392C112.123 165.584 112.715 165.856 113.078 166.208C113.441 166.56 113.622 167.04 113.622 167.648C113.622 168.427 113.318 169.045 112.71 169.504C112.102 169.952 111.281 170.176 110.246 170.176C109.115 170.176 108.257 169.909 107.67 169.376C107.179 168.939 106.918 168.357 106.886 167.632H108.374C108.459 168.005 108.577 168.277 108.726 168.448C109.014 168.789 109.553 168.96 110.342 168.96C110.929 168.96 111.393 168.853 111.734 168.64C112.086 168.416 112.262 168.123 112.262 167.76C112.262 167.216 111.841 166.843 110.998 166.64L109.766 166.352C108.827 166.128 108.171 165.861 107.798 165.552C107.371 165.2 107.158 164.693 107.158 164.032C107.158 163.285 107.441 162.693 108.006 162.256C108.582 161.819 109.35 161.6 110.31 161.6C111.313 161.6 112.091 161.851 112.646 162.352C113.126 162.789 113.366 163.349 113.366 164.032ZM124.611 164.528H123.299C123.139 163.376 122.488 162.8 121.347 162.8C120.632 162.8 120.072 163.083 119.667 163.648C119.261 164.213 119.059 164.997 119.059 166C119.059 166.992 119.299 167.749 119.779 168.272C120.184 168.731 120.728 168.96 121.411 168.96C122.509 168.96 123.165 168.363 123.379 167.168H124.707C124.621 168.192 124.253 168.965 123.603 169.488C123.037 169.947 122.296 170.176 121.379 170.176C120.173 170.176 119.235 169.749 118.563 168.896C117.987 168.16 117.699 167.195 117.699 166C117.699 164.571 118.077 163.451 118.835 162.64C119.485 161.947 120.328 161.6 121.363 161.6C122.557 161.6 123.453 162 124.051 162.8C124.36 163.216 124.547 163.792 124.611 164.528ZM133.478 168.896V169.952C133.115 170.08 132.833 170.144 132.63 170.144C131.777 170.144 131.313 169.755 131.238 168.976C130.651 169.776 129.718 170.176 128.438 170.176C127.553 170.176 126.865 169.931 126.374 169.44C125.947 169.013 125.734 168.464 125.734 167.792C125.734 167.024 126.006 166.432 126.55 166.016C126.859 165.781 127.505 165.552 128.486 165.328L131.174 164.72L131.19 164.032C131.19 163.211 130.571 162.8 129.334 162.8C128.15 162.8 127.515 163.28 127.43 164.24H126.102C126.134 163.515 126.315 162.96 126.646 162.576C127.211 161.925 128.129 161.6 129.398 161.6C131.457 161.6 132.486 162.347 132.486 163.84V168.432C132.486 168.837 132.662 169.04 133.014 169.04C133.057 169.04 133.169 169.008 133.35 168.944C133.414 168.923 133.457 168.907 133.478 168.896ZM131.19 165.792L129.078 166.336C128.321 166.528 127.798 166.725 127.51 166.928C127.233 167.131 127.094 167.413 127.094 167.776C127.094 168.619 127.638 169.04 128.726 169.04C129.494 169.04 130.145 168.789 130.678 168.288C131.019 167.979 131.19 167.627 131.19 167.232V165.792ZM134.917 161.776H136.133V163.168C136.794 162.123 137.701 161.6 138.853 161.6C139.653 161.6 140.287 161.803 140.757 162.208C141.226 162.603 141.461 163.136 141.461 163.808V170H140.165V164.336C140.165 163.845 140.01 163.456 139.701 163.168C139.402 162.88 138.991 162.736 138.469 162.736C137.786 162.736 137.242 162.987 136.837 163.488C136.431 163.989 136.229 164.656 136.229 165.488V170H134.917V161.776ZM153.884 168.896V169.952C153.522 170.08 153.239 170.144 153.036 170.144C152.183 170.144 151.719 169.755 151.644 168.976C151.058 169.776 150.124 170.176 148.844 170.176C147.959 170.176 147.271 169.931 146.78 169.44C146.354 169.013 146.14 168.464 146.14 167.792C146.14 167.024 146.412 166.432 146.956 166.016C147.266 165.781 147.911 165.552 148.892 165.328L151.58 164.72L151.596 164.032C151.596 163.211 150.978 162.8 149.74 162.8C148.556 162.8 147.922 163.28 147.836 164.24H146.508C146.54 163.515 146.722 162.96 147.052 162.576C147.618 161.925 148.535 161.6 149.804 161.6C151.863 161.6 152.892 162.347 152.892 163.84V168.432C152.892 168.837 153.068 169.04 153.42 169.04C153.463 169.04 153.575 169.008 153.756 168.944C153.82 168.923 153.863 168.907 153.884 168.896ZM151.596 165.792L149.484 166.336C148.727 166.528 148.204 166.725 147.916 166.928C147.639 167.131 147.5 167.413 147.5 167.776C147.5 168.619 148.044 169.04 149.132 169.04C149.9 169.04 150.551 168.789 151.084 168.288C151.426 167.979 151.596 167.627 151.596 167.232V165.792ZM161.611 164.528H160.299C160.139 163.376 159.488 162.8 158.347 162.8C157.632 162.8 157.072 163.083 156.667 163.648C156.261 164.213 156.059 164.997 156.059 166C156.059 166.992 156.299 167.749 156.779 168.272C157.184 168.731 157.728 168.96 158.411 168.96C159.509 168.96 160.165 168.363 160.379 167.168H161.707C161.621 168.192 161.253 168.965 160.603 169.488C160.037 169.947 159.296 170.176 158.379 170.176C157.173 170.176 156.235 169.749 155.563 168.896C154.987 168.16 154.699 167.195 154.699 166C154.699 164.571 155.077 163.451 155.835 162.64C156.485 161.947 157.328 161.6 158.363 161.6C159.557 161.6 160.453 162 161.051 162.8C161.36 163.216 161.547 163.792 161.611 164.528ZM166.398 161.776V162.832H164.718V168.304C164.718 168.496 164.782 168.661 164.91 168.8C165.049 168.928 165.225 168.992 165.438 168.992C165.641 168.992 165.95 168.944 166.366 168.848L166.51 170C165.849 170.117 165.347 170.176 165.006 170.176C163.95 170.176 163.422 169.744 163.422 168.88V162.832H162.302V161.776H163.422V160.096L164.718 159.504V161.776H166.398ZM168.428 168.512C168.652 168.512 168.839 168.587 168.988 168.736C169.137 168.885 169.212 169.072 169.212 169.296C169.212 169.509 169.137 169.696 168.988 169.856C168.839 170.005 168.652 170.08 168.428 170.08C168.215 170.08 168.028 170.005 167.868 169.856C167.719 169.696 167.644 169.509 167.644 169.296C167.644 169.072 167.719 168.885 167.868 168.736C168.028 168.587 168.215 168.512 168.428 168.512Z" fill="white"/>
<path d="M19.732 76.34V88H13.264V76.34L2.792 56.496H10.008L16.432 70.4L22.46 56.496H29.676L19.732 76.34ZM43.2974 64.196C47.1401 64.196 50.0881 65.428 52.1414 67.892C53.9308 70.004 54.8254 72.82 54.8254 76.34C54.8254 80.388 53.6668 83.4973 51.3494 85.668C49.3254 87.5453 46.6414 88.484 43.2974 88.484C39.4548 88.484 36.5068 87.2667 34.4534 84.832C32.6641 82.6907 31.7694 79.86 31.7694 76.34C31.7694 72.3213 32.9281 69.2267 35.2454 67.056C37.2694 65.1493 39.9534 64.196 43.2974 64.196ZM43.2974 69.08C41.6548 69.08 40.3348 69.7547 39.3374 71.104C38.3401 72.424 37.8414 74.1693 37.8414 76.34C37.8414 78.6867 38.3988 80.5347 39.5134 81.884C40.5108 83.028 41.7721 83.6 43.2974 83.6C44.9401 83.6 46.2601 82.94 47.2574 81.62C48.2841 80.2707 48.7974 78.5107 48.7974 76.34C48.7974 74.0227 48.2254 72.1893 47.0814 70.84C46.0841 69.6667 44.8228 69.08 43.2974 69.08ZM79.9343 88H73.9063V84.7C72.2636 87.2227 69.9316 88.484 66.9103 88.484C64.241 88.484 62.217 87.692 60.8383 86.108C59.665 84.7293 59.0783 82.8373 59.0783 80.432V64.68H65.1503V79.156C65.1503 81.9427 66.441 83.336 69.0223 83.336C70.489 83.336 71.6623 82.9253 72.5423 82.104C73.4516 81.2827 73.9063 80.168 73.9063 78.76V64.68H79.9343V88ZM85.6811 64.68H91.7531V69.124C92.5158 65.8387 94.6865 64.196 98.2651 64.196C98.8225 64.196 99.2185 64.196 99.4531 64.196L99.4971 70.18C98.7638 70.0333 98.0011 69.96 97.2091 69.96C95.2145 69.96 93.8358 70.3267 93.0731 71.06C92.1931 71.8813 91.7531 73.3627 91.7531 75.504V88H85.6811V64.68ZM122.88 88H116.5L108.36 64.68H114.784L119.8 81.752L124.552 64.68H130.888L122.88 88ZM144.747 64.196C148.589 64.196 151.537 65.428 153.591 67.892C155.38 70.004 156.275 72.82 156.275 76.34C156.275 80.388 155.116 83.4973 152.799 85.668C150.775 87.5453 148.091 88.484 144.747 88.484C140.904 88.484 137.956 87.2667 135.903 84.832C134.113 82.6907 133.219 79.86 133.219 76.34C133.219 72.3213 134.377 69.2267 136.695 67.056C138.719 65.1493 141.403 64.196 144.747 64.196ZM144.747 69.08C143.104 69.08 141.784 69.7547 140.787 71.104C139.789 72.424 139.291 74.1693 139.291 76.34C139.291 78.6867 139.848 80.5347 140.963 81.884C141.96 83.028 143.221 83.6 144.747 83.6C146.389 83.6 147.709 82.94 148.707 81.62C149.733 80.2707 150.247 78.5107 150.247 76.34C150.247 74.0227 149.675 72.1893 148.531 70.84C147.533 69.6667 146.272 69.08 144.747 69.08ZM166.908 64.68V88H160.836V64.68H166.908ZM163.828 56.672C164.62 56.672 165.28 56.9507 165.808 57.508C166.365 58.0653 166.644 58.74 166.644 59.532C166.644 60.324 166.365 60.9987 165.808 61.556C165.28 62.084 164.62 62.348 163.828 62.348C163.036 62.348 162.361 62.084 161.804 61.556C161.246 60.9987 160.968 60.324 160.968 59.532C160.968 58.74 161.246 58.0653 161.804 57.508C162.361 56.9507 163.036 56.672 163.828 56.672ZM192.491 73.216H186.727C186.375 71.6907 185.861 70.62 185.187 70.004C184.541 69.388 183.617 69.08 182.415 69.08C180.596 69.08 179.335 69.7253 178.631 71.016C177.868 72.512 177.487 74.3453 177.487 76.516C177.487 78.716 177.912 80.4613 178.763 81.752C179.643 83.0133 180.845 83.644 182.371 83.644C183.573 83.644 184.497 83.336 185.143 82.72C185.817 82.0747 186.345 81.0187 186.727 79.552H192.491C192.197 82.4853 191.024 84.7587 188.971 86.372C187.181 87.8093 184.967 88.528 182.327 88.528C178.631 88.528 175.829 87.34 173.923 84.964C172.251 82.9107 171.415 80.1387 171.415 76.648C171.415 72.424 172.515 69.2267 174.715 67.056C176.621 65.1493 179.203 64.196 182.459 64.196C185.568 64.196 188.032 65.0907 189.851 66.88C191.405 68.464 192.285 70.576 192.491 73.216ZM216.996 77.924H201.332C201.42 79.8013 201.714 81.136 202.212 81.928C203.063 83.2187 204.398 83.864 206.216 83.864C208.475 83.864 209.986 82.9253 210.748 81.048H216.732C216.058 83.336 214.738 85.1547 212.772 86.504C210.836 87.824 208.563 88.484 205.952 88.484C202.403 88.484 199.675 87.296 197.768 84.92C196.096 82.8373 195.26 80.0947 195.26 76.692C195.26 72.556 196.346 69.3587 198.516 67.1C200.423 65.164 202.931 64.196 206.04 64.196C208.416 64.196 210.499 64.7827 212.288 65.956C214.078 67.1293 215.354 68.772 216.116 70.884C216.732 72.5267 217.04 74.5067 217.04 76.824C217.04 77.1173 217.026 77.484 216.996 77.924ZM210.704 73.92C210.411 70.5173 208.842 68.816 205.996 68.816C203.327 68.816 201.802 70.5173 201.42 73.92H210.704ZM224.415 82.544C225.207 82.544 225.881 82.8227 226.439 83.38C226.996 83.908 227.275 84.568 227.275 85.36C227.275 86.152 226.996 86.8267 226.439 87.384C225.881 87.9413 225.207 88.22 224.415 88.22C223.652 88.22 222.992 87.9413 222.435 87.384C221.877 86.8267 221.599 86.152 221.599 85.36C221.599 84.568 221.863 83.908 222.391 83.38C222.948 82.8227 223.623 82.544 224.415 82.544ZM485.665 82.544C486.457 82.544 487.131 82.8227 487.689 83.38C488.246 83.908 488.525 84.568 488.525 85.36C488.525 86.152 488.246 86.8267 487.689 87.384C487.131 87.9413 486.457 88.22 485.665 88.22C484.902 88.22 484.242 87.9413 483.685 87.384C483.127 86.8267 482.849 86.152 482.849 85.36C482.849 84.568 483.113 83.908 483.641 83.38C484.198 82.8227 484.873 82.544 485.665 82.544Z" fill="white"/>
<path d="M248.139 75.504V88H241.671V56.496H258.567C261.236 56.496 263.275 57.2147 264.683 58.652C266.267 60.2653 267.059 62.392 267.059 65.032C267.059 68.8453 265.27 71.4413 261.691 72.82C263.715 73.612 264.947 74.5947 265.387 75.768C265.71 76.6187 265.944 79.4493 266.091 84.26C266.12 85.4627 266.575 86.3133 267.455 86.812V88H260.503C259.858 86.7973 259.535 85.0227 259.535 82.676C259.535 82.0893 259.55 81.3707 259.579 80.52C259.579 79.9333 259.579 79.508 259.579 79.244C259.579 76.7507 258.244 75.504 255.575 75.504H248.139ZM248.139 70.092H255.971C257.614 70.092 258.758 69.828 259.403 69.3C260.195 68.6253 260.591 67.5107 260.591 65.956C260.591 64.46 260.195 63.3893 259.403 62.744C258.728 62.1867 257.584 61.908 255.971 61.908H248.139V70.092ZM292.45 77.924H276.786C276.874 79.8013 277.167 81.136 277.666 81.928C278.516 83.2187 279.851 83.864 281.67 83.864C283.928 83.864 285.439 82.9253 286.202 81.048H292.186C291.511 83.336 290.191 85.1547 288.226 86.504C286.29 87.824 284.016 88.484 281.406 88.484C277.856 88.484 275.128 87.296 273.222 84.92C271.55 82.8373 270.714 80.0947 270.714 76.692C270.714 72.556 271.799 69.3587 273.97 67.1C275.876 65.164 278.384 64.196 281.494 64.196C283.87 64.196 285.952 64.7827 287.742 65.956C289.531 67.1293 290.807 68.772 291.57 70.884C292.186 72.5267 292.494 74.5067 292.494 76.824C292.494 77.1173 292.479 77.484 292.45 77.924ZM286.158 73.92C285.864 70.5173 284.295 68.816 281.45 68.816C278.78 68.816 277.255 70.5173 276.874 73.92H286.158ZM316.676 86.46V88H310.076C309.636 87.4427 309.401 86.6507 309.372 85.624C307.758 87.5307 305.412 88.484 302.332 88.484C300.073 88.484 298.254 87.7947 296.876 86.416C295.761 85.3013 295.204 83.7613 295.204 81.796C295.204 78.8627 296.377 76.78 298.724 75.548C299.721 75.02 301.701 74.492 304.664 73.964L309.416 73.084L309.372 71.412C309.342 69.8573 308.169 69.08 305.852 69.08C304.356 69.08 303.3 69.3147 302.684 69.784C302.097 70.224 301.73 71.0453 301.584 72.248H295.776C296.128 66.88 299.442 64.196 305.72 64.196C309.181 64.196 311.674 64.812 313.2 66.044C314.578 67.2173 315.268 68.992 315.268 71.368V84.392C315.268 85.448 315.737 86.1373 316.676 86.46ZM309.416 76.736L304.972 77.748C303.71 78.0413 302.772 78.4667 302.156 79.024C301.569 79.5813 301.276 80.2707 301.276 81.092C301.276 82.764 302.361 83.6 304.532 83.6C307.67 83.6 309.284 81.884 309.372 78.452L309.416 76.736ZM326.923 56.496V88H320.851V56.496H326.923ZM347.033 64.68V88H340.961V64.68H347.033ZM343.953 56.672C344.745 56.672 345.405 56.9507 345.933 57.508C346.49 58.0653 346.769 58.74 346.769 59.532C346.769 60.324 346.49 60.9987 345.933 61.556C345.405 62.084 344.745 62.348 343.953 62.348C343.161 62.348 342.486 62.084 341.929 61.556C341.371 60.9987 341.093 60.324 341.093 59.532C341.093 58.74 341.371 58.0653 341.929 57.508C342.486 56.9507 343.161 56.672 343.953 56.672ZM352.904 64.68H358.932V67.496C360.721 65.296 362.848 64.196 365.312 64.196C368.333 64.196 370.445 65.34 371.648 67.628C373.408 65.34 375.681 64.196 378.468 64.196C380.814 64.196 382.633 64.8413 383.924 66.132C385.244 67.3933 385.904 69.1533 385.904 71.412V88H379.876V72.38C379.876 70.356 378.776 69.344 376.576 69.344C375.285 69.344 374.273 69.7547 373.54 70.576C372.806 71.368 372.44 72.4827 372.44 73.92V88H366.368V72.38C366.368 70.356 365.282 69.344 363.112 69.344C361.821 69.344 360.809 69.7547 360.076 70.576C359.342 71.368 358.976 72.4827 358.976 73.92V88H352.904V64.68ZM397.518 64.68V68.024C398.926 65.472 401.082 64.196 403.986 64.196C405.364 64.196 406.714 64.5333 408.034 65.208C409.383 65.8827 410.454 66.7627 411.246 67.848C412.918 70.1653 413.754 73.0547 413.754 76.516C413.754 80.2413 412.712 83.248 410.63 85.536C408.84 87.5013 406.626 88.484 403.986 88.484C401.111 88.484 398.955 87.384 397.518 85.184V97.416H391.446V64.68H397.518ZM402.578 69.256C401.052 69.256 399.82 69.916 398.882 71.236C397.943 72.5267 397.474 74.2427 397.474 76.384C397.474 78.496 397.943 80.1973 398.882 81.488C399.82 82.7787 401.052 83.424 402.578 83.424C404.103 83.424 405.335 82.7787 406.274 81.488C407.212 80.1973 407.682 78.496 407.682 76.384C407.682 74.2427 407.212 72.5267 406.274 71.236C405.335 69.916 404.103 69.256 402.578 69.256ZM437.976 86.46V88H431.376C430.936 87.4427 430.702 86.6507 430.672 85.624C429.059 87.5307 426.712 88.484 423.632 88.484C421.374 88.484 419.555 87.7947 418.176 86.416C417.062 85.3013 416.504 83.7613 416.504 81.796C416.504 78.8627 417.678 76.78 420.024 75.548C421.022 75.02 423.002 74.492 425.964 73.964L430.716 73.084L430.672 71.412C430.643 69.8573 429.47 69.08 427.152 69.08C425.656 69.08 424.6 69.3147 423.984 69.784C423.398 70.224 423.031 71.0453 422.884 72.248H417.076C417.428 66.88 420.743 64.196 427.02 64.196C430.482 64.196 432.975 64.812 434.5 66.044C435.879 67.2173 436.568 68.992 436.568 71.368V84.392C436.568 85.448 437.038 86.1373 437.976 86.46ZM430.716 76.736L426.272 77.748C425.011 78.0413 424.072 78.4667 423.456 79.024C422.87 79.5813 422.576 80.2707 422.576 81.092C422.576 82.764 423.662 83.6 425.832 83.6C428.971 83.6 430.584 81.884 430.672 78.452L430.716 76.736ZM461.776 73.216H456.012C455.66 71.6907 455.147 70.62 454.472 70.004C453.827 69.388 452.903 69.08 451.7 69.08C449.881 69.08 448.62 69.7253 447.916 71.016C447.153 72.512 446.772 74.3453 446.772 76.516C446.772 78.716 447.197 80.4613 448.048 81.752C448.928 83.0133 450.131 83.644 451.656 83.644C452.859 83.644 453.783 83.336 454.428 82.72C455.103 82.0747 455.631 81.0187 456.012 79.552H461.776C461.483 82.4853 460.309 84.7587 458.256 86.372C456.467 87.8093 454.252 88.528 451.612 88.528C447.916 88.528 445.115 87.34 443.208 84.964C441.536 82.9107 440.7 80.1387 440.7 76.648C440.7 72.424 441.8 69.2267 444 67.056C445.907 65.1493 448.488 64.196 451.744 64.196C454.853 64.196 457.317 65.0907 459.136 66.88C460.691 68.464 461.571 70.576 461.776 73.216ZM477.042 64.68V68.684H472.95V81.664C472.95 82.5147 473.096 83.1013 473.39 83.424C473.712 83.7467 474.284 83.908 475.106 83.908C475.78 83.908 476.646 83.644 477.702 83.116C477.79 83.0573 477.863 83.0133 477.922 82.984L478.626 87.12C476.778 88.0293 474.842 88.484 472.818 88.484C468.858 88.484 466.878 86.6653 466.878 83.028V68.684H463.886V64.68H466.878V60.808L472.95 57.332V64.68H477.042Z" fill="black"/>
</svg>
