<svg width="1026" height="70" viewBox="0 0 1026 70" fill="none" xmlns="http://www.w3.org/2000/svg">
<rect x="1.5" y="1.5" width="1023" height="67" rx="6.5" fill="white"/>
<rect x="1.5" y="1.5" width="1023" height="67" rx="6.5" stroke="#FFE071" stroke-width="3"/>
<path d="M174.903 45.664H185.655V52H166.695V18.304H174.903V45.664ZM193.698 22.432C192.258 22.432 191.074 22.016 190.146 21.184C189.25 20.32 188.802 19.264 188.802 18.016C188.802 16.736 189.25 15.68 190.146 14.848C191.074 13.984 192.258 13.552 193.698 13.552C195.106 13.552 196.258 13.984 197.154 14.848C198.082 15.68 198.546 16.736 198.546 18.016C198.546 19.264 198.082 20.32 197.154 21.184C196.258 22.016 195.106 22.432 193.698 22.432ZM197.778 25.216V52H189.57V25.216H197.778ZM215.774 44.32L221.582 25.216H230.318L220.814 52H210.686L201.182 25.216H209.966L215.774 44.32ZM259.021 38.176C259.021 38.944 258.973 39.744 258.877 40.576H240.301C240.429 42.24 240.957 43.52 241.885 44.416C242.845 45.28 244.013 45.712 245.389 45.712C247.437 45.712 248.861 44.848 249.661 43.12H258.397C257.949 44.88 257.133 46.464 255.949 47.872C254.797 49.28 253.341 50.384 251.581 51.184C249.821 51.984 247.853 52.384 245.677 52.384C243.053 52.384 240.717 51.824 238.669 50.704C236.621 49.584 235.021 47.984 233.869 45.904C232.717 43.824 232.141 41.392 232.141 38.608C232.141 35.824 232.701 33.392 233.821 31.312C234.973 29.232 236.573 27.632 238.621 26.512C240.669 25.392 243.021 24.832 245.677 24.832C248.269 24.832 250.573 25.376 252.589 26.464C254.605 27.552 256.173 29.104 257.293 31.12C258.445 33.136 259.021 35.488 259.021 38.176ZM250.621 36.016C250.621 34.608 250.141 33.488 249.181 32.656C248.221 31.824 247.021 31.408 245.581 31.408C244.205 31.408 243.037 31.808 242.077 32.608C241.149 33.408 240.573 34.544 240.349 36.016H250.621ZM261.719 38.56C261.719 35.808 262.231 33.392 263.255 31.312C264.311 29.232 265.735 27.632 267.527 26.512C269.319 25.392 271.319 24.832 273.527 24.832C275.287 24.832 276.887 25.2 278.327 25.936C279.799 26.672 280.951 27.664 281.783 28.912V16.48H289.991V52H281.783V48.16C281.015 49.44 279.911 50.464 278.471 51.232C277.063 52 275.415 52.384 273.527 52.384C271.319 52.384 269.319 51.824 267.527 50.704C265.735 49.552 264.311 47.936 263.255 45.856C262.231 43.744 261.719 41.312 261.719 38.56ZM281.783 38.608C281.783 36.56 281.207 34.944 280.055 33.76C278.935 32.576 277.559 31.984 275.927 31.984C274.295 31.984 272.903 32.576 271.751 33.76C270.631 34.912 270.071 36.512 270.071 38.56C270.071 40.608 270.631 42.24 271.751 43.456C272.903 44.64 274.295 45.232 275.927 45.232C277.559 45.232 278.935 44.64 280.055 43.456C281.207 42.272 281.783 40.656 281.783 38.608ZM314.309 24.88V31.696H325.301V38.032H314.309V45.424H326.741V52H306.101V18.304H326.741V24.88H314.309ZM347.91 52L342.774 44.56L338.454 52H329.574L338.406 38.32L329.334 25.216H338.55L343.686 32.608L348.006 25.216H356.886L347.91 38.704L357.126 52H347.91ZM368.497 29.008C369.297 27.76 370.401 26.752 371.809 25.984C373.217 25.216 374.865 24.832 376.753 24.832C378.961 24.832 380.961 25.392 382.753 26.512C384.545 27.632 385.953 29.232 386.977 31.312C388.033 33.392 388.561 35.808 388.561 38.56C388.561 41.312 388.033 43.744 386.977 45.856C385.953 47.936 384.545 49.552 382.753 50.704C380.961 51.824 378.961 52.384 376.753 52.384C374.897 52.384 373.249 52 371.809 51.232C370.401 50.464 369.297 49.472 368.497 48.256V64.768H360.289V25.216H368.497V29.008ZM380.209 38.56C380.209 36.512 379.633 34.912 378.481 33.76C377.361 32.576 375.969 31.984 374.305 31.984C372.673 31.984 371.281 32.576 370.129 33.76C369.009 34.944 368.449 36.56 368.449 38.608C368.449 40.656 369.009 42.272 370.129 43.456C371.281 44.64 372.673 45.232 374.305 45.232C375.937 45.232 377.329 44.64 378.481 43.456C379.633 42.24 380.209 40.608 380.209 38.56ZM418.115 38.176C418.115 38.944 418.067 39.744 417.971 40.576H399.395C399.523 42.24 400.051 43.52 400.979 44.416C401.939 45.28 403.107 45.712 404.483 45.712C406.531 45.712 407.955 44.848 408.755 43.12H417.491C417.043 44.88 416.227 46.464 415.043 47.872C413.891 49.28 412.435 50.384 410.675 51.184C408.915 51.984 406.947 52.384 404.771 52.384C402.147 52.384 399.811 51.824 397.763 50.704C395.715 49.584 394.115 47.984 392.963 45.904C391.811 43.824 391.235 41.392 391.235 38.608C391.235 35.824 391.795 33.392 392.915 31.312C394.067 29.232 395.667 27.632 397.715 26.512C399.763 25.392 402.115 24.832 404.771 24.832C407.363 24.832 409.667 25.376 411.683 26.464C413.699 27.552 415.267 29.104 416.387 31.12C417.539 33.136 418.115 35.488 418.115 38.176ZM409.715 36.016C409.715 34.608 409.235 33.488 408.275 32.656C407.315 31.824 406.115 31.408 404.675 31.408C403.299 31.408 402.131 31.808 401.171 32.608C400.243 33.408 399.667 34.544 399.443 36.016H409.715ZM430.653 29.68C431.613 28.208 432.813 27.056 434.253 26.224C435.693 25.36 437.293 24.928 439.053 24.928V33.616H436.797C434.749 33.616 433.213 34.064 432.189 34.96C431.165 35.824 430.653 37.36 430.653 39.568V52H422.445V25.216H430.653V29.68ZM447.104 22.432C445.664 22.432 444.48 22.016 443.552 21.184C442.656 20.32 442.208 19.264 442.208 18.016C442.208 16.736 442.656 15.68 443.552 14.848C444.48 13.984 445.664 13.552 447.104 13.552C448.512 13.552 449.664 13.984 450.56 14.848C451.488 15.68 451.952 16.736 451.952 18.016C451.952 19.264 451.488 20.32 450.56 21.184C449.664 22.016 448.512 22.432 447.104 22.432ZM451.184 25.216V52H442.976V25.216H451.184ZM482.38 38.176C482.38 38.944 482.332 39.744 482.236 40.576H463.66C463.788 42.24 464.316 43.52 465.244 44.416C466.204 45.28 467.372 45.712 468.748 45.712C470.796 45.712 472.22 44.848 473.02 43.12H481.756C481.308 44.88 480.492 46.464 479.308 47.872C478.156 49.28 476.7 50.384 474.94 51.184C473.18 51.984 471.212 52.384 469.036 52.384C466.412 52.384 464.076 51.824 462.028 50.704C459.98 49.584 458.38 47.984 457.228 45.904C456.076 43.824 455.5 41.392 455.5 38.608C455.5 35.824 456.06 33.392 457.18 31.312C458.332 29.232 459.932 27.632 461.98 26.512C464.028 25.392 466.38 24.832 469.036 24.832C471.628 24.832 473.932 25.376 475.948 26.464C477.964 27.552 479.532 29.104 480.652 31.12C481.804 33.136 482.38 35.488 482.38 38.176ZM473.98 36.016C473.98 34.608 473.5 33.488 472.54 32.656C471.58 31.824 470.38 31.408 468.94 31.408C467.564 31.408 466.396 31.808 465.436 32.608C464.508 33.408 463.932 34.544 463.708 36.016H473.98ZM503.03 24.928C506.166 24.928 508.662 25.952 510.518 28C512.406 30.016 513.35 32.8 513.35 36.352V52H505.19V37.456C505.19 35.664 504.726 34.272 503.798 33.28C502.87 32.288 501.622 31.792 500.054 31.792C498.486 31.792 497.238 32.288 496.31 33.28C495.382 34.272 494.918 35.664 494.918 37.456V52H486.71V25.216H494.918V28.768C495.75 27.584 496.87 26.656 498.278 25.984C499.686 25.28 501.27 24.928 503.03 24.928ZM517.422 38.608C517.422 35.824 517.982 33.392 519.102 31.312C520.254 29.232 521.838 27.632 523.854 26.512C525.902 25.392 528.238 24.832 530.862 24.832C534.222 24.832 537.022 25.712 539.262 27.472C541.534 29.232 543.022 31.712 543.726 34.912H534.99C534.254 32.864 532.83 31.84 530.718 31.84C529.214 31.84 528.014 32.432 527.118 33.616C526.222 34.768 525.774 36.432 525.774 38.608C525.774 40.784 526.222 42.464 527.118 43.648C528.014 44.8 529.214 45.376 530.718 45.376C532.83 45.376 534.254 44.352 534.99 42.304H543.726C543.022 45.44 541.534 47.904 539.262 49.696C536.99 51.488 534.19 52.384 530.862 52.384C528.238 52.384 525.902 51.824 523.854 50.704C521.838 49.584 520.254 47.984 519.102 45.904C517.982 43.824 517.422 41.392 517.422 38.608ZM573.365 38.176C573.365 38.944 573.317 39.744 573.221 40.576H554.645C554.773 42.24 555.301 43.52 556.229 44.416C557.189 45.28 558.357 45.712 559.733 45.712C561.781 45.712 563.205 44.848 564.005 43.12H572.741C572.293 44.88 571.477 46.464 570.293 47.872C569.141 49.28 567.685 50.384 565.925 51.184C564.165 51.984 562.197 52.384 560.021 52.384C557.397 52.384 555.061 51.824 553.013 50.704C550.965 49.584 549.365 47.984 548.213 45.904C547.061 43.824 546.485 41.392 546.485 38.608C546.485 35.824 547.045 33.392 548.165 31.312C549.317 29.232 550.917 27.632 552.965 26.512C555.013 25.392 557.365 24.832 560.021 24.832C562.613 24.832 564.917 25.376 566.933 26.464C568.949 27.552 570.517 29.104 571.637 31.12C572.789 33.136 573.365 35.488 573.365 38.176ZM564.965 36.016C564.965 34.608 564.485 33.488 563.525 32.656C562.565 31.824 561.365 31.408 559.925 31.408C558.549 31.408 557.381 31.808 556.421 32.608C555.493 33.408 554.917 34.544 554.693 36.016H564.965ZM613.547 29.152C613.547 31.104 613.099 32.896 612.203 34.528C611.307 36.128 609.931 37.424 608.075 38.416C606.219 39.408 603.915 39.904 601.163 39.904H596.075V52H587.867V18.304H601.163C603.851 18.304 606.123 18.768 607.979 19.696C609.835 20.624 611.227 21.904 612.155 23.536C613.083 25.168 613.547 27.04 613.547 29.152ZM600.539 33.376C602.107 33.376 603.275 33.008 604.043 32.272C604.811 31.536 605.195 30.496 605.195 29.152C605.195 27.808 604.811 26.768 604.043 26.032C603.275 25.296 602.107 24.928 600.539 24.928H596.075V33.376H600.539ZM626.028 29.68C626.988 28.208 628.188 27.056 629.628 26.224C631.068 25.36 632.668 24.928 634.428 24.928V33.616H632.172C630.124 33.616 628.588 34.064 627.564 34.96C626.54 35.824 626.028 37.36 626.028 39.568V52H617.82V25.216H626.028V29.68ZM650.543 52.384C647.919 52.384 645.551 51.824 643.439 50.704C641.359 49.584 639.711 47.984 638.495 45.904C637.311 43.824 636.719 41.392 636.719 38.608C636.719 35.856 637.327 33.44 638.543 31.36C639.759 29.248 641.423 27.632 643.535 26.512C645.647 25.392 648.015 24.832 650.639 24.832C653.263 24.832 655.631 25.392 657.743 26.512C659.855 27.632 661.519 29.248 662.735 31.36C663.951 33.44 664.559 35.856 664.559 38.608C664.559 41.36 663.935 43.792 662.687 45.904C661.471 47.984 659.791 49.584 657.647 50.704C655.535 51.824 653.167 52.384 650.543 52.384ZM650.543 45.28C652.111 45.28 653.439 44.704 654.527 43.552C655.647 42.4 656.207 40.752 656.207 38.608C656.207 36.464 655.663 34.816 654.575 33.664C653.519 32.512 652.207 31.936 650.639 31.936C649.039 31.936 647.711 32.512 646.655 33.664C645.599 34.784 645.071 36.432 645.071 38.608C645.071 40.752 645.583 42.4 646.607 43.552C647.663 44.704 648.975 45.28 650.543 45.28ZM682.354 32.032H677.938V52H669.73V32.032H666.754V25.216H669.73V24.448C669.73 21.152 670.674 18.656 672.562 16.96C674.45 15.232 677.218 14.368 680.866 14.368C681.474 14.368 681.922 14.384 682.21 14.416V21.376C680.642 21.28 679.538 21.504 678.898 22.048C678.258 22.592 677.938 23.568 677.938 24.976V25.216H682.354V32.032ZM690.338 22.432C688.898 22.432 687.714 22.016 686.786 21.184C685.89 20.32 685.442 19.264 685.442 18.016C685.442 16.736 685.89 15.68 686.786 14.848C687.714 13.984 688.898 13.552 690.338 13.552C691.746 13.552 692.898 13.984 693.794 14.848C694.722 15.68 695.186 16.736 695.186 18.016C695.186 19.264 694.722 20.32 693.794 21.184C692.898 22.016 691.746 22.432 690.338 22.432ZM694.418 25.216V52H686.21V25.216H694.418ZM708.575 16.48V52H700.367V16.48H708.575ZM739.771 38.176C739.771 38.944 739.723 39.744 739.627 40.576H721.051C721.179 42.24 721.707 43.52 722.635 44.416C723.595 45.28 724.763 45.712 726.139 45.712C728.187 45.712 729.611 44.848 730.411 43.12H739.147C738.699 44.88 737.883 46.464 736.699 47.872C735.547 49.28 734.091 50.384 732.331 51.184C730.571 51.984 728.603 52.384 726.427 52.384C723.803 52.384 721.467 51.824 719.419 50.704C717.371 49.584 715.771 47.984 714.619 45.904C713.467 43.824 712.891 41.392 712.891 38.608C712.891 35.824 713.451 33.392 714.571 31.312C715.723 29.232 717.323 27.632 719.371 26.512C721.419 25.392 723.771 24.832 726.427 24.832C729.019 24.832 731.323 25.376 733.339 26.464C735.355 27.552 736.923 29.104 738.043 31.12C739.195 33.136 739.771 35.488 739.771 38.176ZM731.371 36.016C731.371 34.608 730.891 33.488 729.931 32.656C728.971 31.824 727.771 31.408 726.331 31.408C724.955 31.408 723.787 31.808 722.827 32.608C721.899 33.408 721.323 34.544 721.099 36.016H731.371ZM774.673 34.72C776.625 35.136 778.193 36.112 779.377 37.648C780.561 39.152 781.153 40.88 781.153 42.832C781.153 45.648 780.161 47.888 778.177 49.552C776.225 51.184 773.489 52 769.969 52H754.273V18.304H769.441C772.865 18.304 775.537 19.088 777.457 20.656C779.409 22.224 780.385 24.352 780.385 27.04C780.385 29.024 779.857 30.672 778.801 31.984C777.777 33.296 776.401 34.208 774.673 34.72ZM762.481 31.936H767.857C769.201 31.936 770.225 31.648 770.929 31.072C771.665 30.464 772.033 29.584 772.033 28.432C772.033 27.28 771.665 26.4 770.929 25.792C770.225 25.184 769.201 24.88 767.857 24.88H762.481V31.936ZM768.529 45.376C769.905 45.376 770.961 45.072 771.697 44.464C772.465 43.824 772.849 42.912 772.849 41.728C772.849 40.544 772.449 39.616 771.649 38.944C770.881 38.272 769.809 37.936 768.433 37.936H762.481V45.376H768.529ZM812.362 25.216V52H804.154V48.352C803.322 49.536 802.186 50.496 800.746 51.232C799.338 51.936 797.77 52.288 796.042 52.288C793.994 52.288 792.186 51.84 790.618 50.944C789.05 50.016 787.834 48.688 786.97 46.96C786.106 45.232 785.674 43.2 785.674 40.864V25.216H793.834V39.76C793.834 41.552 794.298 42.944 795.226 43.936C796.154 44.928 797.402 45.424 798.97 45.424C800.57 45.424 801.834 44.928 802.762 43.936C803.69 42.944 804.154 41.552 804.154 39.76V25.216H812.362ZM822.385 22.432C820.945 22.432 819.761 22.016 818.833 21.184C817.937 20.32 817.489 19.264 817.489 18.016C817.489 16.736 817.937 15.68 818.833 14.848C819.761 13.984 820.945 13.552 822.385 13.552C823.793 13.552 824.945 13.984 825.841 14.848C826.769 15.68 827.233 16.736 827.233 18.016C827.233 19.264 826.769 20.32 825.841 21.184C824.945 22.016 823.793 22.432 822.385 22.432ZM826.465 25.216V52H818.257V25.216H826.465ZM840.622 16.48V52H832.414V16.48H840.622ZM844.938 38.56C844.938 35.808 845.45 33.392 846.474 31.312C847.53 29.232 848.954 27.632 850.746 26.512C852.538 25.392 854.538 24.832 856.746 24.832C858.506 24.832 860.106 25.2 861.546 25.936C863.018 26.672 864.17 27.664 865.002 28.912V16.48H873.21V52H865.002V48.16C864.234 49.44 863.13 50.464 861.69 51.232C860.282 52 858.634 52.384 856.746 52.384C854.538 52.384 852.538 51.824 850.746 50.704C848.954 49.552 847.53 47.936 846.474 45.856C845.45 43.744 844.938 41.312 844.938 38.56ZM865.002 38.608C865.002 36.56 864.426 34.944 863.274 33.76C862.154 32.576 860.778 31.984 859.146 31.984C857.514 31.984 856.122 32.576 854.97 33.76C853.85 34.912 853.29 36.512 853.29 38.56C853.29 40.608 853.85 42.24 854.97 43.456C856.122 44.64 857.514 45.232 859.146 45.232C860.778 45.232 862.154 44.64 863.274 43.456C864.426 42.272 865.002 40.656 865.002 38.608ZM904.396 38.176C904.396 38.944 904.348 39.744 904.252 40.576H885.676C885.804 42.24 886.332 43.52 887.26 44.416C888.22 45.28 889.388 45.712 890.764 45.712C892.812 45.712 894.236 44.848 895.036 43.12H903.772C903.324 44.88 902.508 46.464 901.324 47.872C900.172 49.28 898.716 50.384 896.956 51.184C895.196 51.984 893.228 52.384 891.052 52.384C888.428 52.384 886.092 51.824 884.044 50.704C881.996 49.584 880.396 47.984 879.244 45.904C878.092 43.824 877.516 41.392 877.516 38.608C877.516 35.824 878.076 33.392 879.196 31.312C880.348 29.232 881.948 27.632 883.996 26.512C886.044 25.392 888.396 24.832 891.052 24.832C893.644 24.832 895.948 25.376 897.964 26.464C899.98 27.552 901.548 29.104 902.668 31.12C903.82 33.136 904.396 35.488 904.396 38.176ZM895.996 36.016C895.996 34.608 895.516 33.488 894.556 32.656C893.596 31.824 892.396 31.408 890.956 31.408C889.58 31.408 888.412 31.808 887.452 32.608C886.524 33.408 885.948 34.544 885.724 36.016H895.996ZM916.934 29.68C917.894 28.208 919.094 27.056 920.534 26.224C921.974 25.36 923.574 24.928 925.334 24.928V33.616H923.078C921.03 33.616 919.494 34.064 918.47 34.96C917.446 35.824 916.934 37.36 916.934 39.568V52H908.726V25.216H916.934V29.68Z" fill="#303030"/>
</svg>
