<svg width="346" height="114" viewBox="0 0 346 114" fill="none" xmlns="http://www.w3.org/2000/svg">
<circle cx="2.5" cy="7.5" r="2.5" fill="#3A3939"/>
<path d="M15.664 2.408V9.524H19.78V11H13.9V2.408H15.664ZM22.3732 4.64V11H20.7172V4.64H22.3732ZM21.5332 2.456C21.7492 2.456 21.9292 2.532 22.0732 2.684C22.2252 2.836 22.3012 3.02 22.3012 3.236C22.3012 3.452 22.2252 3.636 22.0732 3.788C21.9292 3.932 21.7492 4.004 21.5332 4.004C21.3172 4.004 21.1332 3.932 20.9812 3.788C20.8292 3.636 20.7532 3.452 20.7532 3.236C20.7532 3.02 20.8292 2.836 20.9812 2.684C21.1332 2.532 21.3172 2.456 21.5332 2.456ZM27.3345 11H25.5945L23.3745 4.64H25.1265L26.4945 9.296L27.7905 4.64H29.5185L27.3345 11ZM36.0221 8.252H31.7501C31.7741 8.764 31.8541 9.128 31.9901 9.344C32.2221 9.696 32.5861 9.872 33.0821 9.872C33.6981 9.872 34.1101 9.616 34.3181 9.104H35.9501C35.7661 9.728 35.4061 10.224 34.8701 10.592C34.3421 10.952 33.7221 11.132 33.0101 11.132C32.0421 11.132 31.2981 10.808 30.7781 10.16C30.3221 9.592 30.0941 8.844 30.0941 7.916C30.0941 6.788 30.3901 5.916 30.9821 5.3C31.5021 4.772 32.1861 4.508 33.0341 4.508C33.6821 4.508 34.2501 4.668 34.7381 4.988C35.2261 5.308 35.5741 5.756 35.7821 6.332C35.9501 6.78 36.0341 7.32 36.0341 7.952C36.0341 8.032 36.0301 8.132 36.0221 8.252ZM34.3061 7.16C34.2261 6.232 33.7981 5.768 33.0221 5.768C32.2941 5.768 31.8781 6.232 31.7741 7.16H34.3061ZM42.8812 2.408V11H41.2252V10.292C40.8412 10.852 40.2612 11.132 39.4852 11.132C38.6452 11.132 37.9692 10.78 37.4572 10.076C37.0172 9.476 36.7972 8.728 36.7972 7.832C36.7972 6.768 37.0772 5.928 37.6372 5.312C38.1252 4.776 38.7372 4.508 39.4732 4.508C40.2492 4.508 40.8332 4.804 41.2252 5.396V2.408H42.8812ZM39.8452 5.864C39.4292 5.864 39.0932 6.044 38.8372 6.404C38.5812 6.764 38.4532 7.236 38.4532 7.82C38.4532 8.396 38.5772 8.864 38.8252 9.224C39.0812 9.576 39.4212 9.752 39.8452 9.752C40.2692 9.752 40.6052 9.576 40.8532 9.224C41.1092 8.872 41.2372 8.404 41.2372 7.82C41.2372 7.228 41.1092 6.756 40.8532 6.404C40.5972 6.044 40.2612 5.864 39.8452 5.864ZM52.1705 8.252H47.8985C47.9225 8.764 48.0025 9.128 48.1385 9.344C48.3705 9.696 48.7345 9.872 49.2305 9.872C49.8465 9.872 50.2585 9.616 50.4665 9.104H52.0985C51.9145 9.728 51.5545 10.224 51.0185 10.592C50.4905 10.952 49.8705 11.132 49.1585 11.132C48.1905 11.132 47.4465 10.808 46.9265 10.16C46.4705 9.592 46.2425 8.844 46.2425 7.916C46.2425 6.788 46.5385 5.916 47.1305 5.3C47.6505 4.772 48.3345 4.508 49.1825 4.508C49.8305 4.508 50.3985 4.668 50.8865 4.988C51.3745 5.308 51.7225 5.756 51.9305 6.332C52.0985 6.78 52.1825 7.32 52.1825 7.952C52.1825 8.032 52.1785 8.132 52.1705 8.252ZM50.4545 7.16C50.3745 6.232 49.9465 5.768 49.1705 5.768C48.4425 5.768 48.0265 6.232 47.9225 7.16H50.4545ZM56.7497 7.796L58.8857 11H56.9057L55.8257 9.02L54.7457 11H52.7657L54.8897 7.796L52.8137 4.64H54.7937L55.8257 6.56L56.8577 4.64H58.8377L56.7497 7.796ZM61.513 4.64V5.552C61.897 4.856 62.485 4.508 63.277 4.508C63.653 4.508 64.021 4.6 64.381 4.784C64.749 4.968 65.041 5.208 65.257 5.504C65.713 6.136 65.941 6.924 65.941 7.868C65.941 8.884 65.657 9.704 65.089 10.328C64.601 10.864 63.997 11.132 63.277 11.132C62.493 11.132 61.905 10.832 61.513 10.232V13.568H59.857V4.64H61.513ZM62.893 5.888C62.477 5.888 62.141 6.068 61.885 6.428C61.629 6.78 61.501 7.248 61.501 7.832C61.501 8.408 61.629 8.872 61.885 9.224C62.141 9.576 62.477 9.752 62.893 9.752C63.309 9.752 63.645 9.576 63.901 9.224C64.157 8.872 64.285 8.408 64.285 7.832C64.285 7.248 64.157 6.78 63.901 6.428C63.645 6.068 63.309 5.888 62.893 5.888ZM72.6432 8.252H68.3712C68.3952 8.764 68.4752 9.128 68.6112 9.344C68.8432 9.696 69.2072 9.872 69.7032 9.872C70.3192 9.872 70.7312 9.616 70.9392 9.104H72.5712C72.3872 9.728 72.0272 10.224 71.4912 10.592C70.9632 10.952 70.3432 11.132 69.6312 11.132C68.6632 11.132 67.9192 10.808 67.3992 10.16C66.9432 9.592 66.7152 8.844 66.7152 7.916C66.7152 6.788 67.0112 5.916 67.6032 5.3C68.1232 4.772 68.8072 4.508 69.6552 4.508C70.3032 4.508 70.8712 4.668 71.3592 4.988C71.8472 5.308 72.1952 5.756 72.4032 6.332C72.5712 6.78 72.6552 7.32 72.6552 7.952C72.6552 8.032 72.6512 8.132 72.6432 8.252ZM70.9272 7.16C70.8472 6.232 70.4192 5.768 69.6432 5.768C68.9152 5.768 68.4992 6.232 68.3952 7.16H70.9272ZM73.8143 4.64H75.4703V5.852C75.6783 4.956 76.2703 4.508 77.2463 4.508C77.3983 4.508 77.5063 4.508 77.5703 4.508L77.5823 6.14C77.3823 6.1 77.1743 6.08 76.9583 6.08C76.4143 6.08 76.0383 6.18 75.8303 6.38C75.5903 6.604 75.4703 7.008 75.4703 7.592V11H73.8143V4.64ZM80.0763 4.64V11H78.4203V4.64H80.0763ZM79.2363 2.456C79.4523 2.456 79.6323 2.532 79.7763 2.684C79.9283 2.836 80.0043 3.02 80.0043 3.236C80.0043 3.452 79.9283 3.636 79.7763 3.788C79.6323 3.932 79.4523 4.004 79.2363 4.004C79.0203 4.004 78.8363 3.932 78.6843 3.788C78.5323 3.636 78.4563 3.452 78.4563 3.236C78.4563 3.02 78.5323 2.836 78.6843 2.684C78.8363 2.532 79.0203 2.456 79.2363 2.456ZM87.2096 8.252H82.9376C82.9616 8.764 83.0416 9.128 83.1776 9.344C83.4096 9.696 83.7736 9.872 84.2696 9.872C84.8856 9.872 85.2976 9.616 85.5056 9.104H87.1376C86.9536 9.728 86.5936 10.224 86.0576 10.592C85.5296 10.952 84.9096 11.132 84.1976 11.132C83.2296 11.132 82.4856 10.808 81.9656 10.16C81.5096 9.592 81.2816 8.844 81.2816 7.916C81.2816 6.788 81.5776 5.916 82.1696 5.3C82.6896 4.772 83.3736 4.508 84.2216 4.508C84.8696 4.508 85.4376 4.668 85.9256 4.988C86.4136 5.308 86.7616 5.756 86.9696 6.332C87.1376 6.78 87.2216 7.32 87.2216 7.952C87.2216 8.032 87.2176 8.132 87.2096 8.252ZM85.4936 7.16C85.4136 6.232 84.9856 5.768 84.2096 5.768C83.4816 5.768 83.0656 6.232 82.9616 7.16H85.4936ZM88.3807 4.64H90.0367V5.54C90.4847 4.852 91.1167 4.508 91.9327 4.508C92.6607 4.508 93.2127 4.724 93.5887 5.156C93.9087 5.54 94.0687 6.06 94.0687 6.716V11H92.4247V7.052C92.4247 6.292 92.0687 5.912 91.3567 5.912C90.9567 5.912 90.6367 6.028 90.3967 6.26C90.1567 6.484 90.0367 6.784 90.0367 7.16V11H88.3807V4.64ZM100.964 6.968H99.3918C99.2958 6.552 99.1558 6.26 98.9718 6.092C98.7958 5.924 98.5438 5.84 98.2158 5.84C97.7198 5.84 97.3758 6.016 97.1838 6.368C96.9758 6.776 96.8718 7.276 96.8718 7.868C96.8718 8.468 96.9878 8.944 97.2198 9.296C97.4598 9.64 97.7878 9.812 98.2038 9.812C98.5318 9.812 98.7838 9.728 98.9598 9.56C99.1438 9.384 99.2878 9.096 99.3918 8.696H100.964C100.884 9.496 100.564 10.116 100.004 10.556C99.5158 10.948 98.9118 11.144 98.1918 11.144C97.1838 11.144 96.4198 10.82 95.8998 10.172C95.4438 9.612 95.2158 8.856 95.2158 7.904C95.2158 6.752 95.5158 5.88 96.1158 5.288C96.6358 4.768 97.3398 4.508 98.2278 4.508C99.0758 4.508 99.7478 4.752 100.244 5.24C100.668 5.672 100.908 6.248 100.964 6.968ZM107.647 8.252H103.375C103.399 8.764 103.479 9.128 103.615 9.344C103.847 9.696 104.211 9.872 104.707 9.872C105.323 9.872 105.735 9.616 105.943 9.104H107.575C107.391 9.728 107.031 10.224 106.495 10.592C105.967 10.952 105.347 11.132 104.635 11.132C103.667 11.132 102.923 10.808 102.403 10.16C101.947 9.592 101.719 8.844 101.719 7.916C101.719 6.788 102.015 5.916 102.607 5.3C103.127 4.772 103.811 4.508 104.659 4.508C105.307 4.508 105.875 4.668 106.363 4.988C106.851 5.308 107.199 5.756 107.407 6.332C107.575 6.78 107.659 7.32 107.659 7.952C107.659 8.032 107.655 8.132 107.647 8.252ZM105.931 7.16C105.851 6.232 105.423 5.768 104.647 5.768C103.919 5.768 103.503 6.232 103.399 7.16H105.931ZM117.921 8.48C118.001 8.272 118.089 8.08 118.185 7.904C118.281 7.72 118.389 7.548 118.509 7.388H112.077V6.404H118.509C118.397 6.244 118.293 6.076 118.197 5.9C118.101 5.716 118.013 5.52 117.933 5.312H118.845C119.341 5.896 119.885 6.34 120.477 6.644V7.16C119.885 7.448 119.341 7.888 118.845 8.48H117.921ZM125.38 11V2.408H129.208C130.08 2.408 130.756 2.62 131.236 3.044C131.756 3.492 132.016 4.036 132.016 4.676C132.016 5.044 131.924 5.364 131.74 5.636C131.564 5.9 131.264 6.168 130.84 6.44C131.784 7 132.256 7.696 132.256 8.528C132.256 9.28 131.972 9.896 131.404 10.376C130.908 10.792 130.188 11 129.244 11H125.38ZM127.144 3.884V5.828H129.076C129.9 5.828 130.312 5.504 130.312 4.856C130.312 4.208 129.9 3.884 129.076 3.884H127.144ZM127.144 7.304V9.524H129.256C130.128 9.524 130.564 9.156 130.564 8.42C130.564 7.676 130.128 7.304 129.256 7.304H127.144ZM139.124 8.252H134.852C134.876 8.764 134.956 9.128 135.092 9.344C135.324 9.696 135.688 9.872 136.184 9.872C136.8 9.872 137.212 9.616 137.42 9.104H139.052C138.868 9.728 138.508 10.224 137.972 10.592C137.444 10.952 136.824 11.132 136.112 11.132C135.144 11.132 134.4 10.808 133.88 10.16C133.424 9.592 133.196 8.844 133.196 7.916C133.196 6.788 133.492 5.916 134.084 5.3C134.604 4.772 135.288 4.508 136.136 4.508C136.784 4.508 137.352 4.668 137.84 4.988C138.328 5.308 138.676 5.756 138.884 6.332C139.052 6.78 139.136 7.32 139.136 7.952C139.136 8.032 139.132 8.132 139.124 8.252ZM137.408 7.16C137.328 6.232 136.9 5.768 136.124 5.768C135.396 5.768 134.98 6.232 134.876 7.16H137.408ZM143.307 4.64V5.732H142.191V9.272C142.191 9.504 142.231 9.664 142.311 9.752C142.399 9.84 142.555 9.884 142.779 9.884C142.963 9.884 143.199 9.812 143.487 9.668C143.511 9.652 143.531 9.64 143.547 9.632L143.739 10.76C143.235 11.008 142.707 11.132 142.155 11.132C141.075 11.132 140.535 10.636 140.535 9.644V5.732H139.719V4.64H140.535V3.584L142.191 2.636V4.64H143.307ZM147.819 4.64V5.732H146.703V9.272C146.703 9.504 146.743 9.664 146.823 9.752C146.911 9.84 147.067 9.884 147.291 9.884C147.475 9.884 147.711 9.812 147.999 9.668C148.023 9.652 148.043 9.64 148.059 9.632L148.251 10.76C147.747 11.008 147.219 11.132 146.667 11.132C145.587 11.132 145.047 10.636 145.047 9.644V5.732H144.231V4.64H145.047V3.584L146.703 2.636V4.64H147.819ZM154.85 8.252H150.578C150.602 8.764 150.682 9.128 150.818 9.344C151.05 9.696 151.414 9.872 151.91 9.872C152.526 9.872 152.938 9.616 153.146 9.104H154.778C154.594 9.728 154.234 10.224 153.698 10.592C153.17 10.952 152.55 11.132 151.838 11.132C150.87 11.132 150.126 10.808 149.606 10.16C149.15 9.592 148.922 8.844 148.922 7.916C148.922 6.788 149.218 5.916 149.81 5.3C150.33 4.772 151.014 4.508 151.862 4.508C152.51 4.508 153.078 4.668 153.566 4.988C154.054 5.308 154.402 5.756 154.61 6.332C154.778 6.78 154.862 7.32 154.862 7.952C154.862 8.032 154.858 8.132 154.85 8.252ZM153.134 7.16C153.054 6.232 152.626 5.768 151.85 5.768C151.122 5.768 150.706 6.232 150.602 7.16H153.134ZM156.021 4.64H157.677V5.852C157.885 4.956 158.477 4.508 159.453 4.508C159.605 4.508 159.713 4.508 159.777 4.508L159.789 6.14C159.589 6.1 159.381 6.08 159.165 6.08C158.621 6.08 158.245 6.18 158.037 6.38C157.797 6.604 157.677 7.008 157.677 7.592V11H156.021V4.64ZM164.451 4.64V5.552C164.835 4.856 165.423 4.508 166.215 4.508C166.591 4.508 166.959 4.6 167.319 4.784C167.687 4.968 167.979 5.208 168.195 5.504C168.651 6.136 168.879 6.924 168.879 7.868C168.879 8.884 168.595 9.704 168.027 10.328C167.539 10.864 166.935 11.132 166.215 11.132C165.431 11.132 164.843 10.832 164.451 10.232V13.568H162.795V4.64H164.451ZM165.831 5.888C165.415 5.888 165.079 6.068 164.823 6.428C164.567 6.78 164.439 7.248 164.439 7.832C164.439 8.408 164.567 8.872 164.823 9.224C165.079 9.576 165.415 9.752 165.831 9.752C166.247 9.752 166.583 9.576 166.839 9.224C167.095 8.872 167.223 8.408 167.223 7.832C167.223 7.248 167.095 6.78 166.839 6.428C166.583 6.068 166.247 5.888 165.831 5.888ZM172.857 4.508C173.905 4.508 174.709 4.844 175.269 5.516C175.757 6.092 176.001 6.86 176.001 7.82C176.001 8.924 175.685 9.772 175.053 10.364C174.501 10.876 173.769 11.132 172.857 11.132C171.809 11.132 171.005 10.8 170.445 10.136C169.957 9.552 169.713 8.78 169.713 7.82C169.713 6.724 170.029 5.88 170.661 5.288C171.213 4.768 171.945 4.508 172.857 4.508ZM172.857 5.84C172.409 5.84 172.049 6.024 171.777 6.392C171.505 6.752 171.369 7.228 171.369 7.82C171.369 8.46 171.521 8.964 171.825 9.332C172.097 9.644 172.441 9.8 172.857 9.8C173.305 9.8 173.665 9.62 173.937 9.26C174.217 8.892 174.357 8.412 174.357 7.82C174.357 7.188 174.201 6.688 173.889 6.32C173.617 6 173.273 5.84 172.857 5.84ZM178.901 2.408V11H177.245V2.408H178.901ZM182.182 4.64V11H180.526V4.64H182.182ZM181.342 2.456C181.558 2.456 181.738 2.532 181.882 2.684C182.034 2.836 182.11 3.02 182.11 3.236C182.11 3.452 182.034 3.636 181.882 3.788C181.738 3.932 181.558 4.004 181.342 4.004C181.126 4.004 180.942 3.932 180.79 3.788C180.638 3.636 180.562 3.452 180.562 3.236C180.562 3.02 180.638 2.836 180.79 2.684C180.942 2.532 181.126 2.456 181.342 2.456ZM189.159 6.968H187.587C187.491 6.552 187.351 6.26 187.167 6.092C186.991 5.924 186.739 5.84 186.411 5.84C185.915 5.84 185.571 6.016 185.379 6.368C185.171 6.776 185.067 7.276 185.067 7.868C185.067 8.468 185.183 8.944 185.415 9.296C185.655 9.64 185.983 9.812 186.399 9.812C186.727 9.812 186.979 9.728 187.155 9.56C187.339 9.384 187.483 9.096 187.587 8.696H189.159C189.079 9.496 188.759 10.116 188.199 10.556C187.711 10.948 187.107 11.144 186.387 11.144C185.379 11.144 184.615 10.82 184.095 10.172C183.639 9.612 183.411 8.856 183.411 7.904C183.411 6.752 183.711 5.88 184.311 5.288C184.831 4.768 185.535 4.508 186.423 4.508C187.271 4.508 187.943 4.752 188.439 5.24C188.863 5.672 189.103 6.248 189.159 6.968ZM194.21 4.64H195.902L193.286 12.152C193.102 12.688 192.858 13.056 192.554 13.256C192.25 13.464 191.798 13.568 191.198 13.568C190.646 13.568 190.262 13.496 190.046 13.352L190.298 12.236C190.586 12.308 190.826 12.344 191.018 12.344C191.298 12.344 191.538 12.248 191.738 12.056C191.938 11.872 192.038 11.652 192.038 11.396V11.264L189.674 4.64H191.486L192.902 9.272L194.21 4.64Z" fill="#3A3939"/>
<path d="M146 20H317V55H146V20Z" fill="#FFE071"/>
<path d="M11.284 38.58V46H7.168V38.58L0.504 25.952H5.096L9.184 34.8L13.02 25.952H17.612L11.284 38.58ZM26.2802 30.852C28.7255 30.852 30.6015 31.636 31.9082 33.204C33.0469 34.548 33.6162 36.34 33.6162 38.58C33.6162 41.156 32.8789 43.1347 31.4042 44.516C30.1162 45.7107 28.4082 46.308 26.2802 46.308C23.8349 46.308 21.9589 45.5333 20.6522 43.984C19.5135 42.6213 18.9442 40.82 18.9442 38.58C18.9442 36.0227 19.6815 34.0533 21.1562 32.672C22.4442 31.4587 24.1522 30.852 26.2802 30.852ZM26.2802 33.96C25.2349 33.96 24.3949 34.3893 23.7602 35.248C23.1255 36.088 22.8082 37.1987 22.8082 38.58C22.8082 40.0733 23.1629 41.2493 23.8722 42.108C24.5069 42.836 25.3095 43.2 26.2802 43.2C27.3255 43.2 28.1655 42.78 28.8002 41.94C29.4535 41.0813 29.7802 39.9613 29.7802 38.58C29.7802 37.1053 29.4162 35.9387 28.6882 35.08C28.0535 34.3333 27.2509 33.96 26.2802 33.96ZM49.5946 46H45.7586V43.9C44.7132 45.5053 43.2292 46.308 41.3066 46.308C39.6079 46.308 38.3199 45.804 37.4426 44.796C36.6959 43.9187 36.3226 42.7147 36.3226 41.184V31.16H40.1866V40.372C40.1866 42.1453 41.0079 43.032 42.6506 43.032C43.5839 43.032 44.3306 42.7707 44.8906 42.248C45.4692 41.7253 45.7586 41.016 45.7586 40.12V31.16H49.5946V46ZM53.2516 31.16H57.1156V33.988C57.601 31.8973 58.9823 30.852 61.2596 30.852C61.6143 30.852 61.8663 30.852 62.0156 30.852L62.0436 34.66C61.577 34.5667 61.0916 34.52 60.5876 34.52C59.3183 34.52 58.441 34.7533 57.9556 35.22C57.3956 35.7427 57.1156 36.6853 57.1156 38.048V46H53.2516V31.16ZM76.9237 46H72.8637L67.6837 31.16H71.7717L74.9637 42.024L77.9877 31.16H82.0197L76.9237 46ZM90.8388 30.852C93.2841 30.852 95.1601 31.636 96.4668 33.204C97.6054 34.548 98.1748 36.34 98.1748 38.58C98.1748 41.156 97.4374 43.1347 95.9628 44.516C94.6748 45.7107 92.9668 46.308 90.8388 46.308C88.3934 46.308 86.5174 45.5333 85.2108 43.984C84.0721 42.6213 83.5028 40.82 83.5028 38.58C83.5028 36.0227 84.2401 34.0533 85.7148 32.672C87.0028 31.4587 88.7108 30.852 90.8388 30.852ZM90.8388 33.96C89.7934 33.96 88.9534 34.3893 88.3188 35.248C87.6841 36.088 87.3668 37.1987 87.3668 38.58C87.3668 40.0733 87.7214 41.2493 88.4308 42.108C89.0654 42.836 89.8681 43.2 90.8388 43.2C91.8841 43.2 92.7241 42.78 93.3588 41.94C94.0121 41.0813 94.3388 39.9613 94.3388 38.58C94.3388 37.1053 93.9748 35.9387 93.2468 35.08C92.6121 34.3333 91.8094 33.96 90.8388 33.96ZM104.941 31.16V46H101.077V31.16H104.941ZM102.981 26.064C103.485 26.064 103.905 26.2413 104.241 26.596C104.596 26.9507 104.773 27.38 104.773 27.884C104.773 28.388 104.596 28.8173 104.241 29.172C103.905 29.508 103.485 29.676 102.981 29.676C102.477 29.676 102.048 29.508 101.693 29.172C101.338 28.8173 101.161 28.388 101.161 27.884C101.161 27.38 101.338 26.9507 101.693 26.596C102.048 26.2413 102.477 26.064 102.981 26.064ZM121.221 36.592H117.553C117.329 35.6213 117.003 34.94 116.573 34.548C116.163 34.156 115.575 33.96 114.809 33.96C113.652 33.96 112.849 34.3707 112.401 35.192C111.916 36.144 111.673 37.3107 111.673 38.692C111.673 40.092 111.944 41.2027 112.485 42.024C113.045 42.8267 113.811 43.228 114.781 43.228C115.547 43.228 116.135 43.032 116.545 42.64C116.975 42.2293 117.311 41.5573 117.553 40.624H121.221C121.035 42.4907 120.288 43.9373 118.981 44.964C117.843 45.8787 116.433 46.336 114.753 46.336C112.401 46.336 110.619 45.58 109.405 44.068C108.341 42.7613 107.809 40.9973 107.809 38.776C107.809 36.088 108.509 34.0533 109.909 32.672C111.123 31.4587 112.765 30.852 114.837 30.852C116.816 30.852 118.384 31.4213 119.541 32.56C120.531 33.568 121.091 34.912 121.221 36.592ZM136.816 39.588H126.848C126.904 40.7827 127.091 41.632 127.408 42.136C127.949 42.9573 128.799 43.368 129.956 43.368C131.393 43.368 132.355 42.7707 132.84 41.576H136.648C136.219 43.032 135.379 44.1893 134.128 45.048C132.896 45.888 131.449 46.308 129.788 46.308C127.529 46.308 125.793 45.552 124.58 44.04C123.516 42.7147 122.984 40.9693 122.984 38.804C122.984 36.172 123.675 34.1373 125.056 32.7C126.269 31.468 127.865 30.852 129.844 30.852C131.356 30.852 132.681 31.2253 133.82 31.972C134.959 32.7187 135.771 33.764 136.256 35.108C136.648 36.1533 136.844 37.4133 136.844 38.888C136.844 39.0747 136.835 39.308 136.816 39.588ZM132.812 37.04C132.625 34.8747 131.627 33.792 129.816 33.792C128.117 33.792 127.147 34.8747 126.904 37.04H132.812ZM141.537 42.528C142.041 42.528 142.47 42.7053 142.825 43.06C143.179 43.396 143.357 43.816 143.357 44.32C143.357 44.824 143.179 45.2533 142.825 45.608C142.47 45.9627 142.041 46.14 141.537 46.14C141.051 46.14 140.631 45.9627 140.277 45.608C139.922 45.2533 139.745 44.824 139.745 44.32C139.745 43.816 139.913 43.396 140.249 43.06C140.603 42.7053 141.033 42.528 141.537 42.528ZM156.634 38.048V46H152.518V25.952H163.27C164.969 25.952 166.266 26.4093 167.162 27.324C168.17 28.3507 168.674 29.704 168.674 31.384C168.674 33.8107 167.535 35.4627 165.258 36.34C166.546 36.844 167.33 37.4693 167.61 38.216C167.815 38.7573 167.965 40.5587 168.058 43.62C168.077 44.3853 168.366 44.9267 168.926 45.244V46H164.502C164.091 45.2347 163.886 44.1053 163.886 42.612C163.886 42.2387 163.895 41.7813 163.914 41.24C163.914 40.8667 163.914 40.596 163.914 40.428C163.914 38.8413 163.065 38.048 161.366 38.048H156.634ZM156.634 34.604H161.618C162.663 34.604 163.391 34.436 163.802 34.1C164.306 33.6707 164.558 32.9613 164.558 31.972C164.558 31.02 164.306 30.3387 163.802 29.928C163.373 29.5733 162.645 29.396 161.618 29.396H156.634V34.604ZM184.832 39.588H174.864C174.92 40.7827 175.106 41.632 175.424 42.136C175.965 42.9573 176.814 43.368 177.972 43.368C179.409 43.368 180.37 42.7707 180.856 41.576H184.664C184.234 43.032 183.394 44.1893 182.144 45.048C180.912 45.888 179.465 46.308 177.804 46.308C175.545 46.308 173.809 45.552 172.596 44.04C171.532 42.7147 171 40.9693 171 38.804C171 36.172 171.69 34.1373 173.072 32.7C174.285 31.468 175.881 30.852 177.86 30.852C179.372 30.852 180.697 31.2253 181.836 31.972C182.974 32.7187 183.786 33.764 184.272 35.108C184.664 36.1533 184.86 37.4133 184.86 38.888C184.86 39.0747 184.85 39.308 184.832 39.588ZM180.828 37.04C180.641 34.8747 179.642 33.792 177.832 33.792C176.133 33.792 175.162 34.8747 174.92 37.04H180.828ZM200.248 45.02V46H196.048C195.768 45.6453 195.619 45.1413 195.6 44.488C194.573 45.7013 193.08 46.308 191.12 46.308C189.683 46.308 188.525 45.8693 187.648 44.992C186.939 44.2827 186.584 43.3027 186.584 42.052C186.584 40.1853 187.331 38.86 188.824 38.076C189.459 37.74 190.719 37.404 192.604 37.068L195.628 36.508L195.6 35.444C195.581 34.4547 194.835 33.96 193.36 33.96C192.408 33.96 191.736 34.1093 191.344 34.408C190.971 34.688 190.737 35.2107 190.644 35.976H186.948C187.172 32.56 189.281 30.852 193.276 30.852C195.479 30.852 197.065 31.244 198.036 32.028C198.913 32.7747 199.352 33.904 199.352 35.416V43.704C199.352 44.376 199.651 44.8147 200.248 45.02ZM195.628 38.832L192.8 39.476C191.997 39.6627 191.4 39.9333 191.008 40.288C190.635 40.6427 190.448 41.0813 190.448 41.604C190.448 42.668 191.139 43.2 192.52 43.2C194.517 43.2 195.544 42.108 195.6 39.924L195.628 38.832ZM206.769 25.952V46H202.905V25.952H206.769ZM219.566 31.16V46H215.702V31.16H219.566ZM217.606 26.064C218.11 26.064 218.53 26.2413 218.866 26.596C219.221 26.9507 219.398 27.38 219.398 27.884C219.398 28.388 219.221 28.8173 218.866 29.172C218.53 29.508 218.11 29.676 217.606 29.676C217.102 29.676 216.673 29.508 216.318 29.172C215.963 28.8173 215.786 28.388 215.786 27.884C215.786 27.38 215.963 26.9507 216.318 26.596C216.673 26.2413 217.102 26.064 217.606 26.064ZM223.302 31.16H227.138V32.952C228.277 31.552 229.63 30.852 231.198 30.852C233.121 30.852 234.465 31.58 235.23 33.036C236.35 31.58 237.797 30.852 239.57 30.852C241.064 30.852 242.221 31.2627 243.042 32.084C243.882 32.8867 244.302 34.0067 244.302 35.444V46H240.466V36.06C240.466 34.772 239.766 34.128 238.366 34.128C237.545 34.128 236.901 34.3893 236.434 34.912C235.968 35.416 235.734 36.1253 235.734 37.04V46H231.87V36.06C231.87 34.772 231.18 34.128 229.798 34.128C228.977 34.128 228.333 34.3893 227.866 34.912C227.4 35.416 227.166 36.1253 227.166 37.04V46H223.302V31.16ZM251.693 31.16V33.288C252.589 31.664 253.961 30.852 255.809 30.852C256.686 30.852 257.545 31.0667 258.385 31.496C259.244 31.9253 259.925 32.4853 260.429 33.176C261.493 34.6507 262.025 36.4893 262.025 38.692C262.025 41.0627 261.362 42.976 260.037 44.432C258.898 45.6827 257.489 46.308 255.809 46.308C253.98 46.308 252.608 45.608 251.693 44.208V51.992H247.829V31.16H251.693ZM254.913 34.072C253.942 34.072 253.158 34.492 252.561 35.332C251.964 36.1533 251.665 37.2453 251.665 38.608C251.665 39.952 251.964 41.0347 252.561 41.856C253.158 42.6773 253.942 43.088 254.913 43.088C255.884 43.088 256.668 42.6773 257.265 41.856C257.862 41.0347 258.161 39.952 258.161 38.608C258.161 37.2453 257.862 36.1533 257.265 35.332C256.668 34.492 255.884 34.072 254.913 34.072ZM277.44 45.02V46H273.24C272.96 45.6453 272.81 45.1413 272.792 44.488C271.765 45.7013 270.272 46.308 268.312 46.308C266.874 46.308 265.717 45.8693 264.84 44.992C264.13 44.2827 263.776 43.3027 263.776 42.052C263.776 40.1853 264.522 38.86 266.016 38.076C266.65 37.74 267.91 37.404 269.796 37.068L272.82 36.508L272.792 35.444C272.773 34.4547 272.026 33.96 270.552 33.96C269.6 33.96 268.928 34.1093 268.536 34.408C268.162 34.688 267.929 35.2107 267.836 35.976H264.14C264.364 32.56 266.473 30.852 270.468 30.852C272.67 30.852 274.257 31.244 275.228 32.028C276.105 32.7747 276.544 33.904 276.544 35.416V43.704C276.544 44.376 276.842 44.8147 277.44 45.02ZM272.82 38.832L269.992 39.476C269.189 39.6627 268.592 39.9333 268.2 40.288C267.826 40.6427 267.64 41.0813 267.64 41.604C267.64 42.668 268.33 43.2 269.712 43.2C271.709 43.2 272.736 42.108 272.792 39.924L272.82 38.832ZM292.585 36.592H288.917C288.693 35.6213 288.366 34.94 287.937 34.548C287.526 34.156 286.938 33.96 286.173 33.96C285.015 33.96 284.213 34.3707 283.765 35.192C283.279 36.144 283.037 37.3107 283.037 38.692C283.037 40.092 283.307 41.2027 283.849 42.024C284.409 42.8267 285.174 43.228 286.145 43.228C286.91 43.228 287.498 43.032 287.909 42.64C288.338 42.2293 288.674 41.5573 288.917 40.624H292.585C292.398 42.4907 291.651 43.9373 290.345 44.964C289.206 45.8787 287.797 46.336 286.117 46.336C283.765 46.336 281.982 45.58 280.769 44.068C279.705 42.7613 279.173 40.9973 279.173 38.776C279.173 36.088 279.873 34.0533 281.273 32.672C282.486 31.4587 284.129 30.852 286.201 30.852C288.179 30.852 289.747 31.4213 290.905 32.56C291.894 33.568 292.454 34.912 292.585 36.592ZM302.299 31.16V33.708H299.695V41.968C299.695 42.5093 299.788 42.8827 299.975 43.088C300.18 43.2933 300.544 43.396 301.067 43.396C301.496 43.396 302.047 43.228 302.719 42.892C302.775 42.8547 302.822 42.8267 302.859 42.808L303.307 45.44C302.131 46.0187 300.899 46.308 299.611 46.308C297.091 46.308 295.831 45.1507 295.831 42.836V33.708H293.927V31.16H295.831V28.696L299.695 26.484V31.16H302.299ZM307.787 42.528C308.291 42.528 308.72 42.7053 309.075 43.06C309.429 43.396 309.607 43.816 309.607 44.32C309.607 44.824 309.429 45.2533 309.075 45.608C308.72 45.9627 308.291 46.14 307.787 46.14C307.301 46.14 306.881 45.9627 306.527 45.608C306.172 45.2533 305.995 44.824 305.995 44.32C305.995 43.816 306.163 43.396 306.499 43.06C306.853 42.7053 307.283 42.528 307.787 42.528Z" fill="black"/>
<path d="M9.99 73.775H5.85L4.71 77H3.255L7.08 66.26H8.85L12.615 77H11.1L9.99 73.775ZM9.6 72.62L7.95 67.745L6.195 72.62H9.6ZM16.378 80.21V69.29H17.518V70.475C18.088 69.575 18.908 69.125 19.978 69.125C21.068 69.125 21.908 69.545 22.498 70.385C23.018 71.115 23.278 72.075 23.278 73.265C23.278 74.535 22.938 75.525 22.258 76.235C21.668 76.855 20.903 77.165 19.963 77.165C19.013 77.165 18.228 76.82 17.608 76.13V80.21H16.378ZM19.768 70.265C19.118 70.265 18.593 70.53 18.193 71.06C17.803 71.59 17.608 72.3 17.608 73.19C17.608 74.11 17.833 74.83 18.283 75.35C18.663 75.79 19.158 76.01 19.768 76.01C20.448 76.01 20.988 75.755 21.388 75.245C21.798 74.725 22.003 74.04 22.003 73.19C22.003 72.25 21.773 71.51 21.313 70.97C20.903 70.5 20.388 70.265 19.768 70.265ZM24.7915 69.29H25.9315V70.7C26.3815 69.64 27.0915 69.11 28.0615 69.11C28.1815 69.11 28.3265 69.125 28.4965 69.155V70.415C27.6965 70.425 27.1465 70.54 26.8465 70.76C26.2965 71.16 26.0215 71.905 26.0215 72.995V77H24.7915V69.29ZM30.8687 69.29V77H29.6537V69.29H30.8687ZM30.2837 66.275C30.4937 66.275 30.6687 66.35 30.8087 66.5C30.9587 66.64 31.0337 66.81 31.0337 67.01C31.0337 67.22 30.9587 67.4 30.8087 67.55C30.6687 67.69 30.4937 67.76 30.2837 67.76C30.0837 67.76 29.9087 67.69 29.7587 67.55C29.6187 67.4 29.5487 67.22 29.5487 67.01C29.5487 66.81 29.6187 66.64 29.7587 66.5C29.9087 66.35 30.0837 66.275 30.2837 66.275ZM36.1453 77H34.8103L32.0953 69.29H33.4903L35.5303 75.53L37.7203 69.29H39.1003L36.1453 77ZM47.1885 75.965V76.955C46.8485 77.075 46.5835 77.135 46.3935 77.135C45.5935 77.135 45.1585 76.77 45.0885 76.04C44.5385 76.79 43.6635 77.165 42.4635 77.165C41.6335 77.165 40.9885 76.935 40.5285 76.475C40.1285 76.075 39.9285 75.56 39.9285 74.93C39.9285 74.21 40.1835 73.655 40.6935 73.265C40.9835 73.045 41.5885 72.83 42.5085 72.62L45.0285 72.05L45.0435 71.405C45.0435 70.635 44.4635 70.25 43.3035 70.25C42.1935 70.25 41.5985 70.7 41.5185 71.6H40.2735C40.3035 70.92 40.4735 70.4 40.7835 70.04C41.3135 69.43 42.1735 69.125 43.3635 69.125C45.2935 69.125 46.2585 69.825 46.2585 71.225V75.53C46.2585 75.91 46.4235 76.1 46.7535 76.1C46.7935 76.1 46.8985 76.07 47.0685 76.01C47.1285 75.99 47.1685 75.975 47.1885 75.965ZM45.0435 73.055L43.0635 73.565C42.3535 73.745 41.8635 73.93 41.5935 74.12C41.3335 74.31 41.2035 74.575 41.2035 74.915C41.2035 75.705 41.7135 76.1 42.7335 76.1C43.4535 76.1 44.0635 75.865 44.5635 75.395C44.8835 75.105 45.0435 74.775 45.0435 74.405V73.055ZM54.432 71.87H53.202C53.052 70.79 52.442 70.25 51.372 70.25C50.702 70.25 50.177 70.515 49.797 71.045C49.417 71.575 49.227 72.31 49.227 73.25C49.227 74.18 49.452 74.89 49.902 75.38C50.282 75.81 50.792 76.025 51.432 76.025C52.462 76.025 53.077 75.465 53.277 74.345H54.522C54.442 75.305 54.097 76.03 53.487 76.52C52.957 76.95 52.262 77.165 51.402 77.165C50.272 77.165 49.392 76.765 48.762 75.965C48.222 75.275 47.952 74.37 47.952 73.25C47.952 71.91 48.307 70.86 49.017 70.1C49.627 69.45 50.417 69.125 51.387 69.125C52.507 69.125 53.347 69.5 53.907 70.25C54.197 70.64 54.372 71.18 54.432 71.87ZM60.6001 69.29H61.9201L58.4851 78.62C58.0851 79.68 57.4201 80.21 56.4901 80.21C56.0501 80.21 55.6651 80.11 55.3351 79.91L55.5751 78.845C55.8251 78.945 56.0701 78.995 56.3101 78.995C56.7901 78.995 57.1251 78.745 57.3151 78.245L57.7801 77.015L55.1701 69.29H56.4901L58.4551 75.29L60.6001 69.29ZM66.4983 73.055V74.135H62.7933V73.055H66.4983ZM70.8526 69.29V70.28H69.5776V77H68.3626V70.28H67.3276V69.29H68.3626V67.97C68.3626 67.42 68.5176 66.99 68.8276 66.68C69.1476 66.37 69.5926 66.215 70.1626 66.215C70.3826 66.215 70.6126 66.24 70.8526 66.29V67.31H70.7176C70.6076 67.3 70.5126 67.295 70.4326 67.295C69.8626 67.295 69.5776 67.555 69.5776 68.075V69.29H70.8526ZM73.3492 69.29V77H72.1342V69.29H73.3492ZM72.7642 66.275C72.9742 66.275 73.1492 66.35 73.2892 66.5C73.4392 66.64 73.5142 66.81 73.5142 67.01C73.5142 67.22 73.4392 67.4 73.2892 67.55C73.1492 67.69 72.9742 67.76 72.7642 67.76C72.5642 67.76 72.3892 67.69 72.2392 67.55C72.0992 67.4 72.0292 67.22 72.0292 67.01C72.0292 66.81 72.0992 66.64 72.2392 66.5C72.3892 66.35 72.5642 66.275 72.7642 66.275ZM75.4458 69.29H76.5858V70.7C77.0358 69.64 77.7458 69.11 78.7158 69.11C78.8358 69.11 78.9808 69.125 79.1508 69.155V70.415C78.3508 70.425 77.8008 70.54 77.5008 70.76C76.9508 71.16 76.6758 71.905 76.6758 72.995V77H75.4458V69.29ZM85.843 71.405H84.493C84.453 70.635 83.938 70.25 82.948 70.25C82.438 70.25 82.033 70.35 81.733 70.55C81.443 70.74 81.298 71 81.298 71.33C81.298 71.83 81.773 72.19 82.723 72.41L83.908 72.68C84.678 72.86 85.233 73.115 85.573 73.445C85.913 73.775 86.083 74.225 86.083 74.795C86.083 75.525 85.798 76.105 85.228 76.535C84.658 76.955 83.888 77.165 82.918 77.165C81.858 77.165 81.053 76.915 80.503 76.415C80.043 76.005 79.798 75.46 79.768 74.78H81.163C81.243 75.13 81.353 75.385 81.493 75.545C81.763 75.865 82.268 76.025 83.008 76.025C83.558 76.025 83.993 75.925 84.313 75.725C84.643 75.515 84.808 75.24 84.808 74.9C84.808 74.39 84.413 74.04 83.623 73.85L82.468 73.58C81.588 73.37 80.973 73.12 80.623 72.83C80.223 72.5 80.023 72.025 80.023 71.405C80.023 70.705 80.288 70.15 80.818 69.74C81.358 69.33 82.078 69.125 82.978 69.125C83.918 69.125 84.648 69.36 85.168 69.83C85.618 70.24 85.843 70.765 85.843 71.405ZM90.7512 69.29V70.28H89.1762V75.41C89.1762 75.59 89.2362 75.745 89.3562 75.875C89.4862 75.995 89.6512 76.055 89.8512 76.055C90.0412 76.055 90.3312 76.01 90.7212 75.92L90.8562 77C90.2362 77.11 89.7662 77.165 89.4462 77.165C88.4562 77.165 87.9612 76.76 87.9612 75.95V70.28H86.9112V69.29H87.9612V67.715L89.1762 67.16V69.29H90.7512ZM102.068 77H100.673L99.0982 70.94L97.6132 77H96.2332L93.9982 69.29H95.3482L96.9382 75.29L98.4082 69.29H99.9082L101.423 75.29L102.953 69.29H104.333L102.068 77ZM112.418 75.965V76.955C112.078 77.075 111.813 77.135 111.623 77.135C110.823 77.135 110.388 76.77 110.318 76.04C109.768 76.79 108.893 77.165 107.693 77.165C106.863 77.165 106.218 76.935 105.758 76.475C105.358 76.075 105.158 75.56 105.158 74.93C105.158 74.21 105.413 73.655 105.923 73.265C106.213 73.045 106.818 72.83 107.738 72.62L110.258 72.05L110.273 71.405C110.273 70.635 109.693 70.25 108.533 70.25C107.423 70.25 106.828 70.7 106.748 71.6H105.503C105.533 70.92 105.703 70.4 106.013 70.04C106.543 69.43 107.403 69.125 108.593 69.125C110.523 69.125 111.488 69.825 111.488 71.225V75.53C111.488 75.91 111.653 76.1 111.983 76.1C112.023 76.1 112.128 76.07 112.298 76.01C112.358 75.99 112.398 75.975 112.418 75.965ZM110.273 73.055L108.293 73.565C107.583 73.745 107.093 73.93 106.823 74.12C106.563 74.31 106.433 74.575 106.433 74.915C106.433 75.705 106.943 76.1 107.963 76.1C108.683 76.1 109.293 75.865 109.793 75.395C110.113 75.105 110.273 74.775 110.273 74.405V73.055ZM118.461 69.29H119.781L116.346 78.62C115.946 79.68 115.281 80.21 114.351 80.21C113.911 80.21 113.526 80.11 113.196 79.91L113.436 78.845C113.686 78.945 113.931 78.995 114.171 78.995C114.651 78.995 114.986 78.745 115.176 78.245L115.641 77.015L113.031 69.29H114.351L116.316 75.29L118.461 69.29ZM126.649 69.29V70.28H125.374V77H124.159V70.28H123.124V69.29H124.159V67.97C124.159 67.42 124.314 66.99 124.624 66.68C124.944 66.37 125.389 66.215 125.959 66.215C126.179 66.215 126.409 66.24 126.649 66.29V67.31H126.514C126.404 67.3 126.309 67.295 126.229 67.295C125.659 67.295 125.374 67.555 125.374 68.075V69.29H126.649ZM131.005 69.125C132.165 69.125 133.05 69.53 133.66 70.34C134.2 71.04 134.47 71.99 134.47 73.19C134.47 74.53 134.12 75.55 133.42 76.25C132.82 76.86 132.01 77.165 130.99 77.165C129.81 77.165 128.91 76.77 128.29 75.98C127.75 75.29 127.48 74.36 127.48 73.19C127.48 71.83 127.835 70.785 128.545 70.055C129.155 69.435 129.975 69.125 131.005 69.125ZM131.005 70.25C130.305 70.25 129.755 70.515 129.355 71.045C128.955 71.565 128.755 72.28 128.755 73.19C128.755 74.14 128.98 74.865 129.43 75.365C129.82 75.805 130.34 76.025 130.99 76.025C131.68 76.025 132.215 75.775 132.595 75.275C132.985 74.775 133.18 74.08 133.18 73.19C133.18 72.21 132.96 71.46 132.52 70.94C132.14 70.48 131.635 70.25 131.005 70.25ZM136.164 69.29H137.304V70.7C137.754 69.64 138.464 69.11 139.434 69.11C139.554 69.11 139.699 69.125 139.869 69.155V70.415C139.069 70.425 138.519 70.54 138.219 70.76C137.669 71.16 137.394 71.905 137.394 72.995V77H136.164V69.29ZM143.6 80.21V69.29H144.74V70.475C145.31 69.575 146.13 69.125 147.2 69.125C148.29 69.125 149.13 69.545 149.72 70.385C150.24 71.115 150.5 72.075 150.5 73.265C150.5 74.535 150.16 75.525 149.48 76.235C148.89 76.855 148.125 77.165 147.185 77.165C146.235 77.165 145.45 76.82 144.83 76.13V80.21H143.6ZM146.99 70.265C146.34 70.265 145.815 70.53 145.415 71.06C145.025 71.59 144.83 72.3 144.83 73.19C144.83 74.11 145.055 74.83 145.505 75.35C145.885 75.79 146.38 76.01 146.99 76.01C147.67 76.01 148.21 75.755 148.61 75.245C149.02 74.725 149.225 74.04 149.225 73.19C149.225 72.25 148.995 71.51 148.535 70.97C148.125 70.5 147.61 70.265 146.99 70.265ZM158.538 73.505H152.853C152.863 74.165 153.003 74.69 153.273 75.08C153.703 75.71 154.323 76.025 155.133 76.025C156.133 76.025 156.808 75.55 157.158 74.6H158.388C158.228 75.41 157.858 76.04 157.278 76.49C156.698 76.94 155.968 77.165 155.088 77.165C153.918 77.165 153.023 76.765 152.403 75.965C151.853 75.265 151.578 74.34 151.578 73.19C151.578 71.86 151.938 70.825 152.658 70.085C153.288 69.445 154.103 69.125 155.103 69.125C155.833 69.125 156.473 69.3 157.023 69.65C157.583 70 157.983 70.48 158.223 71.09C158.433 71.61 158.538 72.4 158.538 73.46V73.505ZM157.218 72.5C157.218 71.83 157.018 71.29 156.618 70.88C156.228 70.46 155.723 70.25 155.103 70.25C154.473 70.25 153.958 70.455 153.558 70.865C153.168 71.265 152.948 71.81 152.898 72.5H157.218ZM163.232 69.125C164.392 69.125 165.277 69.53 165.887 70.34C166.427 71.04 166.697 71.99 166.697 73.19C166.697 74.53 166.347 75.55 165.647 76.25C165.047 76.86 164.237 77.165 163.217 77.165C162.037 77.165 161.137 76.77 160.517 75.98C159.977 75.29 159.707 74.36 159.707 73.19C159.707 71.83 160.062 70.785 160.772 70.055C161.382 69.435 162.202 69.125 163.232 69.125ZM163.232 70.25C162.532 70.25 161.982 70.515 161.582 71.045C161.182 71.565 160.982 72.28 160.982 73.19C160.982 74.14 161.207 74.865 161.657 75.365C162.047 75.805 162.567 76.025 163.217 76.025C163.907 76.025 164.442 75.775 164.822 75.275C165.212 74.775 165.407 74.08 165.407 73.19C165.407 72.21 165.187 71.46 164.747 70.94C164.367 70.48 163.862 70.25 163.232 70.25ZM168.165 80.21V69.29H169.305V70.475C169.875 69.575 170.695 69.125 171.765 69.125C172.855 69.125 173.695 69.545 174.285 70.385C174.805 71.115 175.065 72.075 175.065 73.265C175.065 74.535 174.725 75.525 174.045 76.235C173.455 76.855 172.69 77.165 171.75 77.165C170.8 77.165 170.015 76.82 169.395 76.13V80.21H168.165ZM171.555 70.265C170.905 70.265 170.38 70.53 169.98 71.06C169.59 71.59 169.395 72.3 169.395 73.19C169.395 74.11 169.62 74.83 170.07 75.35C170.45 75.79 170.945 76.01 171.555 76.01C172.235 76.01 172.775 75.755 173.175 75.245C173.585 74.725 173.79 74.04 173.79 73.19C173.79 72.25 173.56 71.51 173.1 70.97C172.69 70.5 172.175 70.265 171.555 70.265ZM177.794 66.26V77H176.564V66.26H177.794ZM186.37 73.505H180.685C180.695 74.165 180.835 74.69 181.105 75.08C181.535 75.71 182.155 76.025 182.965 76.025C183.965 76.025 184.64 75.55 184.99 74.6H186.22C186.06 75.41 185.69 76.04 185.11 76.49C184.53 76.94 183.8 77.165 182.92 77.165C181.75 77.165 180.855 76.765 180.235 75.965C179.685 75.265 179.41 74.34 179.41 73.19C179.41 71.86 179.77 70.825 180.49 70.085C181.12 69.445 181.935 69.125 182.935 69.125C183.665 69.125 184.305 69.3 184.855 69.65C185.415 70 185.815 70.48 186.055 71.09C186.265 71.61 186.37 72.4 186.37 73.46V73.505ZM185.05 72.5C185.05 71.83 184.85 71.29 184.45 70.88C184.06 70.46 183.555 70.25 182.935 70.25C182.305 70.25 181.79 70.455 181.39 70.865C181 71.265 180.78 71.81 180.73 72.5H185.05ZM197.928 77H196.533L194.958 70.94L193.473 77H192.093L189.858 69.29H191.208L192.798 75.29L194.268 69.29H195.768L197.283 75.29L198.813 69.29H200.193L197.928 77ZM202.592 69.29V77H201.377V69.29H202.592ZM202.007 66.275C202.217 66.275 202.392 66.35 202.532 66.5C202.682 66.64 202.757 66.81 202.757 67.01C202.757 67.22 202.682 67.4 202.532 67.55C202.392 67.69 202.217 67.76 202.007 67.76C201.807 67.76 201.632 67.69 201.482 67.55C201.342 67.4 201.272 67.22 201.272 67.01C201.272 66.81 201.342 66.64 201.482 66.5C201.632 66.35 201.807 66.275 202.007 66.275ZM207.719 69.29V70.28H206.144V75.41C206.144 75.59 206.204 75.745 206.324 75.875C206.454 75.995 206.619 76.055 206.819 76.055C207.009 76.055 207.299 76.01 207.689 75.92L207.824 77C207.204 77.11 206.734 77.165 206.414 77.165C205.424 77.165 204.929 76.76 204.929 75.95V70.28H203.879V69.29H204.929V67.715L206.144 67.16V69.29H207.719ZM209.157 66.26H210.372V70.37C210.742 69.91 211.112 69.59 211.482 69.41C211.852 69.22 212.312 69.125 212.862 69.125C213.612 69.125 214.202 69.315 214.632 69.695C215.062 70.065 215.277 70.575 215.277 71.225V77H214.062V71.72C214.062 71.18 213.897 70.785 213.567 70.535C213.257 70.305 212.892 70.19 212.472 70.19C211.842 70.19 211.332 70.425 210.942 70.895C210.562 71.365 210.372 71.99 210.372 72.77V77H209.157V66.26ZM221.299 66.26V77H220.069V66.26H221.299ZM224.521 69.29V77H223.306V69.29H224.521ZM223.936 66.275C224.146 66.275 224.321 66.35 224.461 66.5C224.611 66.64 224.686 66.81 224.686 67.01C224.686 67.22 224.611 67.4 224.461 67.55C224.321 67.69 224.146 67.76 223.936 67.76C223.736 67.76 223.561 67.69 223.411 67.55C223.271 67.4 223.201 67.22 223.201 67.01C223.201 66.81 223.271 66.64 223.411 66.5C223.561 66.35 223.736 66.275 223.936 66.275ZM229.798 77H228.463L225.748 69.29H227.143L229.183 75.53L231.373 69.29H232.753L229.798 77ZM240.511 73.505H234.826C234.836 74.165 234.976 74.69 235.246 75.08C235.676 75.71 236.296 76.025 237.106 76.025C238.106 76.025 238.781 75.55 239.131 74.6H240.361C240.201 75.41 239.831 76.04 239.251 76.49C238.671 76.94 237.941 77.165 237.061 77.165C235.891 77.165 234.996 76.765 234.376 75.965C233.826 75.265 233.551 74.34 233.551 73.19C233.551 71.86 233.911 70.825 234.631 70.085C235.261 69.445 236.076 69.125 237.076 69.125C237.806 69.125 238.446 69.3 238.996 69.65C239.556 70 239.956 70.48 240.196 71.09C240.406 71.61 240.511 72.4 240.511 73.46V73.505ZM239.191 72.5C239.191 71.83 238.991 71.29 238.591 70.88C238.201 70.46 237.696 70.25 237.076 70.25C236.446 70.25 235.931 70.455 235.531 70.865C235.141 71.265 234.921 71.81 234.871 72.5H239.191ZM248.459 66.26V77H247.229V75.935C246.739 76.765 245.979 77.18 244.949 77.18C243.819 77.18 242.949 76.77 242.339 75.95C241.809 75.23 241.544 74.28 241.544 73.1C241.544 71.81 241.889 70.8 242.579 70.07C243.169 69.44 243.934 69.125 244.874 69.125C245.914 69.125 246.699 69.515 247.229 70.295V66.26H248.459ZM245.084 70.265C244.404 70.265 243.854 70.535 243.434 71.075C243.024 71.605 242.819 72.31 242.819 73.19C242.819 74.1 243.059 74.815 243.539 75.335C243.949 75.795 244.469 76.025 245.099 76.025C245.749 76.025 246.264 75.77 246.644 75.26C247.034 74.75 247.229 74.06 247.229 73.19C247.229 72.24 247.009 71.5 246.569 70.97C246.179 70.5 245.684 70.265 245.084 70.265ZM259.642 73.505H253.957C253.967 74.165 254.107 74.69 254.377 75.08C254.807 75.71 255.427 76.025 256.237 76.025C257.237 76.025 257.912 75.55 258.262 74.6H259.492C259.332 75.41 258.962 76.04 258.382 76.49C257.802 76.94 257.072 77.165 256.192 77.165C255.022 77.165 254.127 76.765 253.507 75.965C252.957 75.265 252.682 74.34 252.682 73.19C252.682 71.86 253.042 70.825 253.762 70.085C254.392 69.445 255.207 69.125 256.207 69.125C256.937 69.125 257.577 69.3 258.127 69.65C258.687 70 259.087 70.48 259.327 71.09C259.537 71.61 259.642 72.4 259.642 73.46V73.505ZM258.322 72.5C258.322 71.83 258.122 71.29 257.722 70.88C257.332 70.46 256.827 70.25 256.207 70.25C255.577 70.25 255.062 70.455 254.662 70.865C254.272 71.265 254.052 71.81 254.002 72.5H258.322ZM264.59 73.01L267.26 77H265.835L263.9 74.03L261.935 77H260.54L263.27 73.07L260.675 69.29H262.085L263.945 72.08L265.805 69.29H267.185L264.59 73.01ZM268.448 80.21V69.29H269.588V70.475C270.158 69.575 270.978 69.125 272.048 69.125C273.138 69.125 273.978 69.545 274.568 70.385C275.088 71.115 275.348 72.075 275.348 73.265C275.348 74.535 275.008 75.525 274.328 76.235C273.738 76.855 272.973 77.165 272.033 77.165C271.083 77.165 270.298 76.82 269.678 76.13V80.21H268.448ZM271.838 70.265C271.188 70.265 270.663 70.53 270.263 71.06C269.873 71.59 269.678 72.3 269.678 73.19C269.678 74.11 269.903 74.83 270.353 75.35C270.733 75.79 271.228 76.01 271.838 76.01C272.518 76.01 273.058 75.755 273.458 75.245C273.868 74.725 274.073 74.04 274.073 73.19C274.073 72.25 273.843 71.51 273.383 70.97C272.973 70.5 272.458 70.265 271.838 70.265ZM283.387 73.505H277.702C277.712 74.165 277.852 74.69 278.122 75.08C278.552 75.71 279.172 76.025 279.982 76.025C280.982 76.025 281.657 75.55 282.007 74.6H283.237C283.077 75.41 282.707 76.04 282.127 76.49C281.547 76.94 280.817 77.165 279.937 77.165C278.767 77.165 277.872 76.765 277.252 75.965C276.702 75.265 276.427 74.34 276.427 73.19C276.427 71.86 276.787 70.825 277.507 70.085C278.137 69.445 278.952 69.125 279.952 69.125C280.682 69.125 281.322 69.3 281.872 69.65C282.432 70 282.832 70.48 283.072 71.09C283.282 71.61 283.387 72.4 283.387 73.46V73.505ZM282.067 72.5C282.067 71.83 281.867 71.29 281.467 70.88C281.077 70.46 280.572 70.25 279.952 70.25C279.322 70.25 278.807 70.455 278.407 70.865C278.017 71.265 277.797 71.81 277.747 72.5H282.067ZM285.05 69.29H286.19V70.7C286.64 69.64 287.35 69.11 288.32 69.11C288.44 69.11 288.585 69.125 288.755 69.155V70.415C287.955 70.425 287.405 70.54 287.105 70.76C286.555 71.16 286.28 71.905 286.28 72.995V77H285.05V69.29ZM291.128 69.29V77H289.913V69.29H291.128ZM290.543 66.275C290.753 66.275 290.928 66.35 291.068 66.5C291.218 66.64 291.293 66.81 291.293 67.01C291.293 67.22 291.218 67.4 291.068 67.55C290.928 67.69 290.753 67.76 290.543 67.76C290.343 67.76 290.168 67.69 290.018 67.55C289.878 67.4 289.808 67.22 289.808 67.01C289.808 66.81 289.878 66.64 290.018 66.5C290.168 66.35 290.343 66.275 290.543 66.275ZM299.749 73.505H294.064C294.074 74.165 294.214 74.69 294.484 75.08C294.914 75.71 295.534 76.025 296.344 76.025C297.344 76.025 298.019 75.55 298.369 74.6H299.599C299.439 75.41 299.069 76.04 298.489 76.49C297.909 76.94 297.179 77.165 296.299 77.165C295.129 77.165 294.234 76.765 293.614 75.965C293.064 75.265 292.789 74.34 292.789 73.19C292.789 71.86 293.149 70.825 293.869 70.085C294.499 69.445 295.314 69.125 296.314 69.125C297.044 69.125 297.684 69.3 298.234 69.65C298.794 70 299.194 70.48 299.434 71.09C299.644 71.61 299.749 72.4 299.749 73.46V73.505ZM298.429 72.5C298.429 71.83 298.229 71.29 297.829 70.88C297.439 70.46 296.934 70.25 296.314 70.25C295.684 70.25 295.169 70.455 294.769 70.865C294.379 71.265 294.159 71.81 294.109 72.5H298.429ZM301.428 69.29H302.568V70.595C303.188 69.615 304.038 69.125 305.118 69.125C305.868 69.125 306.463 69.315 306.903 69.695C307.343 70.065 307.563 70.565 307.563 71.195V77H306.348V71.69C306.348 71.23 306.203 70.865 305.913 70.595C305.633 70.325 305.248 70.19 304.758 70.19C304.118 70.19 303.608 70.425 303.228 70.895C302.848 71.365 302.658 71.99 302.658 72.77V77H301.428V69.29ZM315.511 71.87H314.281C314.131 70.79 313.521 70.25 312.451 70.25C311.781 70.25 311.256 70.515 310.876 71.045C310.496 71.575 310.306 72.31 310.306 73.25C310.306 74.18 310.531 74.89 310.981 75.38C311.361 75.81 311.871 76.025 312.511 76.025C313.541 76.025 314.156 75.465 314.356 74.345H315.601C315.521 75.305 315.176 76.03 314.566 76.52C314.036 76.95 313.341 77.165 312.481 77.165C311.351 77.165 310.471 76.765 309.841 75.965C309.301 75.275 309.031 74.37 309.031 73.25C309.031 71.91 309.386 70.86 310.096 70.1C310.706 69.45 311.496 69.125 312.466 69.125C313.586 69.125 314.426 69.5 314.986 70.25C315.276 70.64 315.451 71.18 315.511 71.87ZM323.494 73.505H317.809C317.819 74.165 317.959 74.69 318.229 75.08C318.659 75.71 319.279 76.025 320.089 76.025C321.089 76.025 321.764 75.55 322.114 74.6H323.344C323.184 75.41 322.814 76.04 322.234 76.49C321.654 76.94 320.924 77.165 320.044 77.165C318.874 77.165 317.979 76.765 317.359 75.965C316.809 75.265 316.534 74.34 316.534 73.19C316.534 71.86 316.894 70.825 317.614 70.085C318.244 69.445 319.059 69.125 320.059 69.125C320.789 69.125 321.429 69.3 321.979 69.65C322.539 70 322.939 70.48 323.179 71.09C323.389 71.61 323.494 72.4 323.494 73.46V73.505ZM322.174 72.5C322.174 71.83 321.974 71.29 321.574 70.88C321.184 70.46 320.679 70.25 320.059 70.25C319.429 70.25 318.914 70.455 318.514 70.865C318.124 71.265 317.904 71.81 317.854 72.5H322.174ZM330.942 69.29V70.28H329.367V75.41C329.367 75.59 329.427 75.745 329.547 75.875C329.677 75.995 329.842 76.055 330.042 76.055C330.232 76.055 330.522 76.01 330.912 75.92L331.047 77C330.427 77.11 329.957 77.165 329.637 77.165C328.647 77.165 328.152 76.76 328.152 75.95V70.28H327.102V69.29H328.152V67.715L329.367 67.16V69.29H330.942ZM335.395 69.125C336.555 69.125 337.44 69.53 338.05 70.34C338.59 71.04 338.86 71.99 338.86 73.19C338.86 74.53 338.51 75.55 337.81 76.25C337.21 76.86 336.4 77.165 335.38 77.165C334.2 77.165 333.3 76.77 332.68 75.98C332.14 75.29 331.87 74.36 331.87 73.19C331.87 71.83 332.225 70.785 332.935 70.055C333.545 69.435 334.365 69.125 335.395 69.125ZM335.395 70.25C334.695 70.25 334.145 70.515 333.745 71.045C333.345 71.565 333.145 72.28 333.145 73.19C333.145 74.14 333.37 74.865 333.82 75.365C334.21 75.805 334.73 76.025 335.38 76.025C336.07 76.025 336.605 75.775 336.985 75.275C337.375 74.775 337.57 74.08 337.57 73.19C337.57 72.21 337.35 71.46 336.91 70.94C336.53 70.48 336.025 70.25 335.395 70.25ZM9.51 88.405H8.16C8.12 87.635 7.605 87.25 6.615 87.25C6.105 87.25 5.7 87.35 5.4 87.55C5.11 87.74 4.965 88 4.965 88.33C4.965 88.83 5.44 89.19 6.39 89.41L7.575 89.68C8.345 89.86 8.9 90.115 9.24 90.445C9.58 90.775 9.75 91.225 9.75 91.795C9.75 92.525 9.465 93.105 8.895 93.535C8.325 93.955 7.555 94.165 6.585 94.165C5.525 94.165 4.72 93.915 4.17 93.415C3.71 93.005 3.465 92.46 3.435 91.78H4.83C4.91 92.13 5.02 92.385 5.16 92.545C5.43 92.865 5.935 93.025 6.675 93.025C7.225 93.025 7.66 92.925 7.98 92.725C8.31 92.515 8.475 92.24 8.475 91.9C8.475 91.39 8.08 91.04 7.29 90.85L6.135 90.58C5.255 90.37 4.64 90.12 4.29 89.83C3.89 89.5 3.69 89.025 3.69 88.405C3.69 87.705 3.955 87.15 4.485 86.74C5.025 86.33 5.745 86.125 6.645 86.125C7.585 86.125 8.315 86.36 8.835 86.83C9.285 87.24 9.51 87.765 9.51 88.405ZM11.4032 83.26H12.6182V87.37C12.9882 86.91 13.3582 86.59 13.7282 86.41C14.0982 86.22 14.5582 86.125 15.1082 86.125C15.8582 86.125 16.4482 86.315 16.8782 86.695C17.3082 87.065 17.5232 87.575 17.5232 88.225V94H16.3082V88.72C16.3082 88.18 16.1432 87.785 15.8132 87.535C15.5032 87.305 15.1382 87.19 14.7182 87.19C14.0882 87.19 13.5782 87.425 13.1882 87.895C12.8082 88.365 12.6182 88.99 12.6182 89.77V94H11.4032V83.26ZM26.4316 92.965V93.955C26.0916 94.075 25.8266 94.135 25.6366 94.135C24.8366 94.135 24.4016 93.77 24.3316 93.04C23.7816 93.79 22.9066 94.165 21.7066 94.165C20.8766 94.165 20.2316 93.935 19.7716 93.475C19.3716 93.075 19.1716 92.56 19.1716 91.93C19.1716 91.21 19.4266 90.655 19.9366 90.265C20.2266 90.045 20.8316 89.83 21.7516 89.62L24.2716 89.05L24.2866 88.405C24.2866 87.635 23.7066 87.25 22.5466 87.25C21.4366 87.25 20.8416 87.7 20.7616 88.6H19.5166C19.5466 87.92 19.7166 87.4 20.0266 87.04C20.5566 86.43 21.4166 86.125 22.6066 86.125C24.5366 86.125 25.5016 86.825 25.5016 88.225V92.53C25.5016 92.91 25.6666 93.1 25.9966 93.1C26.0366 93.1 26.1416 93.07 26.3116 93.01C26.3716 92.99 26.4116 92.975 26.4316 92.965ZM24.2866 90.055L22.3066 90.565C21.5966 90.745 21.1066 90.93 20.8366 91.12C20.5766 91.31 20.4466 91.575 20.4466 91.915C20.4466 92.705 20.9566 93.1 21.9766 93.1C22.6966 93.1 23.3066 92.865 23.8066 92.395C24.1266 92.105 24.2866 91.775 24.2866 91.405V90.055ZM27.7651 86.29H28.9051V87.7C29.3551 86.64 30.0651 86.11 31.0351 86.11C31.1551 86.11 31.3001 86.125 31.4701 86.155V87.415C30.6701 87.425 30.1201 87.54 29.8201 87.76C29.2701 88.16 28.9951 88.905 28.9951 89.995V94H27.7651V86.29ZM39.1973 90.505H33.5123C33.5223 91.165 33.6623 91.69 33.9323 92.08C34.3623 92.71 34.9823 93.025 35.7923 93.025C36.7923 93.025 37.4673 92.55 37.8173 91.6H39.0473C38.8873 92.41 38.5173 93.04 37.9373 93.49C37.3573 93.94 36.6273 94.165 35.7473 94.165C34.5773 94.165 33.6823 93.765 33.0623 92.965C32.5123 92.265 32.2373 91.34 32.2373 90.19C32.2373 88.86 32.5973 87.825 33.3173 87.085C33.9473 86.445 34.7623 86.125 35.7623 86.125C36.4923 86.125 37.1323 86.3 37.6823 86.65C38.2423 87 38.6423 87.48 38.8823 88.09C39.0923 88.61 39.1973 89.4 39.1973 90.46V90.505ZM37.8773 89.5C37.8773 88.83 37.6773 88.29 37.2773 87.88C36.8873 87.46 36.3823 87.25 35.7623 87.25C35.1323 87.25 34.6173 87.455 34.2173 87.865C33.8273 88.265 33.6073 88.81 33.5573 89.5H37.8773ZM50.7547 94H49.3597L47.7847 87.94L46.2997 94H44.9197L42.6847 86.29H44.0347L45.6247 92.29L47.0947 86.29H48.5947L50.1097 92.29L51.6397 86.29H53.0197L50.7547 94ZM54.2645 83.26H55.4795V87.37C55.8495 86.91 56.2195 86.59 56.5895 86.41C56.9595 86.22 57.4195 86.125 57.9695 86.125C58.7195 86.125 59.3095 86.315 59.7395 86.695C60.1695 87.065 60.3845 87.575 60.3845 88.225V94H59.1695V88.72C59.1695 88.18 59.0045 87.785 58.6745 87.535C58.3645 87.305 57.9995 87.19 57.5795 87.19C56.9495 87.19 56.4395 87.425 56.0495 87.895C55.6695 88.365 55.4795 88.99 55.4795 89.77V94H54.2645V83.26ZM67.148 86.29H68.468L65.033 95.62C64.633 96.68 63.968 97.21 63.038 97.21C62.598 97.21 62.213 97.11 61.883 96.91L62.123 95.845C62.373 95.945 62.618 95.995 62.858 95.995C63.338 95.995 63.673 95.745 63.863 95.245L64.328 94.015L61.718 86.29H63.038L65.003 92.29L67.148 86.29ZM73.73 86.29V94H72.515V86.29H73.73ZM73.145 83.275C73.355 83.275 73.53 83.35 73.67 83.5C73.82 83.64 73.895 83.81 73.895 84.01C73.895 84.22 73.82 84.4 73.67 84.55C73.53 84.69 73.355 84.76 73.145 84.76C72.945 84.76 72.77 84.69 72.62 84.55C72.48 84.4 72.41 84.22 72.41 84.01C72.41 83.81 72.48 83.64 72.62 83.5C72.77 83.35 72.945 83.275 73.145 83.275ZM81.3166 88.405H79.9666C79.9266 87.635 79.4116 87.25 78.4216 87.25C77.9116 87.25 77.5066 87.35 77.2066 87.55C76.9166 87.74 76.7716 88 76.7716 88.33C76.7716 88.83 77.2466 89.19 78.1966 89.41L79.3816 89.68C80.1516 89.86 80.7066 90.115 81.0466 90.445C81.3866 90.775 81.5566 91.225 81.5566 91.795C81.5566 92.525 81.2716 93.105 80.7016 93.535C80.1316 93.955 79.3616 94.165 78.3916 94.165C77.3316 94.165 76.5266 93.915 75.9766 93.415C75.5166 93.005 75.2716 92.46 75.2416 91.78H76.6366C76.7166 92.13 76.8266 92.385 76.9666 92.545C77.2366 92.865 77.7416 93.025 78.4816 93.025C79.0316 93.025 79.4666 92.925 79.7866 92.725C80.1166 92.515 80.2816 92.24 80.2816 91.9C80.2816 91.39 79.8866 91.04 79.0966 90.85L77.9416 90.58C77.0616 90.37 76.4466 90.12 76.0966 89.83C75.6966 89.5 75.4966 89.025 75.4966 88.405C75.4966 87.705 75.7616 87.15 76.2916 86.74C76.8316 86.33 77.5516 86.125 78.4516 86.125C79.3916 86.125 80.1216 86.36 80.6416 86.83C81.0916 87.24 81.3166 87.765 81.3166 88.405ZM88.6848 88.405H87.3348C87.2948 87.635 86.7798 87.25 85.7898 87.25C85.2798 87.25 84.8748 87.35 84.5748 87.55C84.2848 87.74 84.1398 88 84.1398 88.33C84.1398 88.83 84.6148 89.19 85.5648 89.41L86.7498 89.68C87.5198 89.86 88.0748 90.115 88.4148 90.445C88.7548 90.775 88.9248 91.225 88.9248 91.795C88.9248 92.525 88.6398 93.105 88.0698 93.535C87.4998 93.955 86.7298 94.165 85.7598 94.165C84.6998 94.165 83.8948 93.915 83.3448 93.415C82.8848 93.005 82.6398 92.46 82.6098 91.78H84.0048C84.0848 92.13 84.1948 92.385 84.3348 92.545C84.6048 92.865 85.1098 93.025 85.8498 93.025C86.3998 93.025 86.8348 92.925 87.1548 92.725C87.4848 92.515 87.6498 92.24 87.6498 91.9C87.6498 91.39 87.2548 91.04 86.4648 90.85L85.3098 90.58C84.4298 90.37 83.8148 90.12 83.4648 89.83C83.0648 89.5 82.8648 89.025 82.8648 88.405C82.8648 87.705 83.1298 87.15 83.6598 86.74C84.1998 86.33 84.9198 86.125 85.8198 86.125C86.7598 86.125 87.4898 86.36 88.0098 86.83C88.4598 87.24 88.6848 87.765 88.6848 88.405ZM96.638 94H95.423V92.785C94.873 93.705 94.053 94.165 92.963 94.165C92.213 94.165 91.613 93.98 91.163 93.61C90.723 93.23 90.503 92.725 90.503 92.095V86.29H91.718V91.6C91.718 92.05 91.863 92.41 92.153 92.68C92.443 92.95 92.833 93.085 93.323 93.085C93.963 93.085 94.473 92.855 94.853 92.395C95.233 91.925 95.423 91.295 95.423 90.505V86.29H96.638V94ZM105.276 90.505H99.5914C99.6014 91.165 99.7414 91.69 100.011 92.08C100.441 92.71 101.061 93.025 101.871 93.025C102.871 93.025 103.546 92.55 103.896 91.6H105.126C104.966 92.41 104.596 93.04 104.016 93.49C103.436 93.94 102.706 94.165 101.826 94.165C100.656 94.165 99.7614 93.765 99.1414 92.965C98.5914 92.265 98.3164 91.34 98.3164 90.19C98.3164 88.86 98.6764 87.825 99.3964 87.085C100.026 86.445 100.841 86.125 101.841 86.125C102.571 86.125 103.211 86.3 103.761 86.65C104.321 87 104.721 87.48 104.961 88.09C105.171 88.61 105.276 89.4 105.276 90.46V90.505ZM103.956 89.5C103.956 88.83 103.756 88.29 103.356 87.88C102.966 87.46 102.461 87.25 101.841 87.25C101.211 87.25 100.696 87.455 100.296 87.865C99.9064 88.265 99.6864 88.81 99.6364 89.5H103.956ZM112.43 88.405H111.08C111.04 87.635 110.525 87.25 109.535 87.25C109.025 87.25 108.62 87.35 108.32 87.55C108.03 87.74 107.885 88 107.885 88.33C107.885 88.83 108.36 89.19 109.31 89.41L110.495 89.68C111.265 89.86 111.82 90.115 112.16 90.445C112.5 90.775 112.67 91.225 112.67 91.795C112.67 92.525 112.385 93.105 111.815 93.535C111.245 93.955 110.475 94.165 109.505 94.165C108.445 94.165 107.64 93.915 107.09 93.415C106.63 93.005 106.385 92.46 106.355 91.78H107.75C107.83 92.13 107.94 92.385 108.08 92.545C108.35 92.865 108.855 93.025 109.595 93.025C110.145 93.025 110.58 92.925 110.9 92.725C111.23 92.515 111.395 92.24 111.395 91.9C111.395 91.39 111 91.04 110.21 90.85L109.055 90.58C108.175 90.37 107.56 90.12 107.21 89.83C106.81 89.5 106.61 89.025 106.61 88.405C106.61 87.705 106.875 87.15 107.405 86.74C107.945 86.33 108.665 86.125 109.565 86.125C110.505 86.125 111.235 86.36 111.755 86.83C112.205 87.24 112.43 87.765 112.43 88.405ZM114.323 83.26H115.538V87.37C115.908 86.91 116.278 86.59 116.648 86.41C117.018 86.22 117.478 86.125 118.028 86.125C118.778 86.125 119.368 86.315 119.798 86.695C120.228 87.065 120.443 87.575 120.443 88.225V94H119.228V88.72C119.228 88.18 119.063 87.785 118.733 87.535C118.423 87.305 118.058 87.19 117.638 87.19C117.008 87.19 116.498 87.425 116.108 87.895C115.728 88.365 115.538 88.99 115.538 89.77V94H114.323V83.26ZM129.352 92.965V93.955C129.012 94.075 128.747 94.135 128.557 94.135C127.757 94.135 127.322 93.77 127.252 93.04C126.702 93.79 125.827 94.165 124.627 94.165C123.797 94.165 123.152 93.935 122.692 93.475C122.292 93.075 122.092 92.56 122.092 91.93C122.092 91.21 122.347 90.655 122.857 90.265C123.147 90.045 123.752 89.83 124.672 89.62L127.192 89.05L127.207 88.405C127.207 87.635 126.627 87.25 125.467 87.25C124.357 87.25 123.762 87.7 123.682 88.6H122.437C122.467 87.92 122.637 87.4 122.947 87.04C123.477 86.43 124.337 86.125 125.527 86.125C127.457 86.125 128.422 86.825 128.422 88.225V92.53C128.422 92.91 128.587 93.1 128.917 93.1C128.957 93.1 129.062 93.07 129.232 93.01C129.292 92.99 129.332 92.975 129.352 92.965ZM127.207 90.055L125.227 90.565C124.517 90.745 124.027 90.93 123.757 91.12C123.497 91.31 123.367 91.575 123.367 91.915C123.367 92.705 123.877 93.1 124.897 93.1C125.617 93.1 126.227 92.865 126.727 92.395C127.047 92.105 127.207 91.775 127.207 91.405V90.055ZM130.46 97.21V86.29H131.6V87.475C132.17 86.575 132.99 86.125 134.06 86.125C135.15 86.125 135.99 86.545 136.58 87.385C137.1 88.115 137.36 89.075 137.36 90.265C137.36 91.535 137.02 92.525 136.34 93.235C135.75 93.855 134.985 94.165 134.045 94.165C133.095 94.165 132.31 93.82 131.69 93.13V97.21H130.46ZM133.85 87.265C133.2 87.265 132.675 87.53 132.275 88.06C131.885 88.59 131.69 89.3 131.69 90.19C131.69 91.11 131.915 91.83 132.365 92.35C132.745 92.79 133.24 93.01 133.85 93.01C134.53 93.01 135.07 92.755 135.47 92.245C135.88 91.725 136.085 91.04 136.085 90.19C136.085 89.25 135.855 88.51 135.395 87.97C134.985 87.5 134.47 87.265 133.85 87.265ZM138.649 97.21V86.29H139.789V87.475C140.359 86.575 141.179 86.125 142.249 86.125C143.339 86.125 144.179 86.545 144.769 87.385C145.289 88.115 145.549 89.075 145.549 90.265C145.549 91.535 145.209 92.525 144.529 93.235C143.939 93.855 143.174 94.165 142.234 94.165C141.284 94.165 140.499 93.82 139.879 93.13V97.21H138.649ZM142.039 87.265C141.389 87.265 140.864 87.53 140.464 88.06C140.074 88.59 139.879 89.3 139.879 90.19C139.879 91.11 140.104 91.83 140.554 92.35C140.934 92.79 141.429 93.01 142.039 93.01C142.719 93.01 143.259 92.755 143.659 92.245C144.069 91.725 144.274 91.04 144.274 90.19C144.274 89.25 144.044 88.51 143.584 87.97C143.174 87.5 142.659 87.265 142.039 87.265ZM153.587 90.505H147.902C147.912 91.165 148.052 91.69 148.322 92.08C148.752 92.71 149.372 93.025 150.182 93.025C151.182 93.025 151.857 92.55 152.207 91.6H153.437C153.277 92.41 152.907 93.04 152.327 93.49C151.747 93.94 151.017 94.165 150.137 94.165C148.967 94.165 148.072 93.765 147.452 92.965C146.902 92.265 146.627 91.34 146.627 90.19C146.627 88.86 146.987 87.825 147.707 87.085C148.337 86.445 149.152 86.125 150.152 86.125C150.882 86.125 151.522 86.3 152.072 86.65C152.632 87 153.032 87.48 153.272 88.09C153.482 88.61 153.587 89.4 153.587 90.46V90.505ZM152.267 89.5C152.267 88.83 152.067 88.29 151.667 87.88C151.277 87.46 150.772 87.25 150.152 87.25C149.522 87.25 149.007 87.455 148.607 87.865C148.217 88.265 147.997 88.81 147.947 89.5H152.267ZM155.265 86.29H156.405V87.595C157.025 86.615 157.875 86.125 158.955 86.125C159.705 86.125 160.3 86.315 160.74 86.695C161.18 87.065 161.4 87.565 161.4 88.195V94H160.185V88.69C160.185 88.23 160.04 87.865 159.75 87.595C159.47 87.325 159.085 87.19 158.595 87.19C157.955 87.19 157.445 87.425 157.065 87.895C156.685 88.365 156.495 88.99 156.495 89.77V94H155.265V86.29ZM173.048 92.965V93.955C172.708 94.075 172.443 94.135 172.253 94.135C171.453 94.135 171.018 93.77 170.948 93.04C170.398 93.79 169.523 94.165 168.323 94.165C167.493 94.165 166.848 93.935 166.388 93.475C165.988 93.075 165.788 92.56 165.788 91.93C165.788 91.21 166.043 90.655 166.553 90.265C166.843 90.045 167.448 89.83 168.368 89.62L170.888 89.05L170.903 88.405C170.903 87.635 170.323 87.25 169.163 87.25C168.053 87.25 167.458 87.7 167.378 88.6H166.133C166.163 87.92 166.333 87.4 166.643 87.04C167.173 86.43 168.033 86.125 169.223 86.125C171.153 86.125 172.118 86.825 172.118 88.225V92.53C172.118 92.91 172.283 93.1 172.613 93.1C172.653 93.1 172.758 93.07 172.928 93.01C172.988 92.99 173.028 92.975 173.048 92.965ZM170.903 90.055L168.923 90.565C168.213 90.745 167.723 90.93 167.453 91.12C167.193 91.31 167.063 91.575 167.063 91.915C167.063 92.705 167.573 93.1 168.593 93.1C169.313 93.1 169.923 92.865 170.423 92.395C170.743 92.105 170.903 91.775 170.903 91.405V90.055ZM174.396 86.29H175.536V87.595C176.156 86.615 177.006 86.125 178.086 86.125C178.836 86.125 179.431 86.315 179.871 86.695C180.311 87.065 180.531 87.565 180.531 88.195V94H179.316V88.69C179.316 88.23 179.171 87.865 178.881 87.595C178.601 87.325 178.216 87.19 177.726 87.19C177.086 87.19 176.576 87.425 176.196 87.895C175.816 88.365 175.626 88.99 175.626 89.77V94H174.396V86.29ZM188.855 83.26V94H187.625V92.935C187.135 93.765 186.375 94.18 185.345 94.18C184.215 94.18 183.345 93.77 182.735 92.95C182.205 92.23 181.94 91.28 181.94 90.1C181.94 88.81 182.285 87.8 182.975 87.07C183.565 86.44 184.33 86.125 185.27 86.125C186.31 86.125 187.095 86.515 187.625 87.295V83.26H188.855ZM185.48 87.265C184.8 87.265 184.25 87.535 183.83 88.075C183.42 88.605 183.215 89.31 183.215 90.19C183.215 91.1 183.455 91.815 183.935 92.335C184.345 92.795 184.865 93.025 185.495 93.025C186.145 93.025 186.66 92.77 187.04 92.26C187.43 91.75 187.625 91.06 187.625 90.19C187.625 89.24 187.405 88.5 186.965 87.97C186.575 87.5 186.08 87.265 185.48 87.265ZM193.527 83.26H194.742V87.37C195.112 86.91 195.482 86.59 195.852 86.41C196.222 86.22 196.682 86.125 197.232 86.125C197.982 86.125 198.572 86.315 199.002 86.695C199.432 87.065 199.647 87.575 199.647 88.225V94H198.432V88.72C198.432 88.18 198.267 87.785 197.937 87.535C197.627 87.305 197.262 87.19 196.842 87.19C196.212 87.19 195.702 87.425 195.312 87.895C194.932 88.365 194.742 88.99 194.742 89.77V94H193.527V83.26ZM204.731 86.125C205.891 86.125 206.776 86.53 207.386 87.34C207.926 88.04 208.196 88.99 208.196 90.19C208.196 91.53 207.846 92.55 207.146 93.25C206.546 93.86 205.736 94.165 204.716 94.165C203.536 94.165 202.636 93.77 202.016 92.98C201.476 92.29 201.206 91.36 201.206 90.19C201.206 88.83 201.561 87.785 202.271 87.055C202.881 86.435 203.701 86.125 204.731 86.125ZM204.731 87.25C204.031 87.25 203.481 87.515 203.081 88.045C202.681 88.565 202.481 89.28 202.481 90.19C202.481 91.14 202.706 91.865 203.156 92.365C203.546 92.805 204.066 93.025 204.716 93.025C205.406 93.025 205.941 92.775 206.321 92.275C206.711 91.775 206.906 91.08 206.906 90.19C206.906 89.21 206.686 88.46 206.246 87.94C205.866 87.48 205.361 87.25 204.731 87.25ZM217.029 94H215.634L214.059 87.94L212.574 94H211.194L208.959 86.29H210.309L211.899 92.29L213.369 86.29H214.869L216.384 92.29L217.914 86.29H219.294L217.029 94ZM226.308 86.29V87.28H224.733V92.41C224.733 92.59 224.793 92.745 224.913 92.875C225.043 92.995 225.208 93.055 225.408 93.055C225.598 93.055 225.888 93.01 226.278 92.92L226.413 94C225.793 94.11 225.323 94.165 225.003 94.165C224.013 94.165 223.518 93.76 223.518 92.95V87.28H222.468V86.29H223.518V84.715L224.733 84.16V86.29H226.308ZM230.761 86.125C231.921 86.125 232.806 86.53 233.416 87.34C233.956 88.04 234.226 88.99 234.226 90.19C234.226 91.53 233.876 92.55 233.176 93.25C232.576 93.86 231.766 94.165 230.746 94.165C229.566 94.165 228.666 93.77 228.046 92.98C227.506 92.29 227.236 91.36 227.236 90.19C227.236 88.83 227.591 87.785 228.301 87.055C228.911 86.435 229.731 86.125 230.761 86.125ZM230.761 87.25C230.061 87.25 229.511 87.515 229.111 88.045C228.711 88.565 228.511 89.28 228.511 90.19C228.511 91.14 228.736 91.865 229.186 92.365C229.576 92.805 230.096 93.025 230.746 93.025C231.436 93.025 231.971 92.775 232.351 92.275C232.741 91.775 232.936 91.08 232.936 90.19C232.936 89.21 232.716 88.46 232.276 87.94C231.896 87.48 231.391 87.25 230.761 87.25ZM241.448 86.29V87.28H240.173V94H238.958V87.28H237.923V86.29H238.958V84.97C238.958 84.42 239.113 83.99 239.423 83.68C239.743 83.37 240.188 83.215 240.758 83.215C240.978 83.215 241.208 83.24 241.448 83.29V84.31H241.313C241.203 84.3 241.108 84.295 241.028 84.295C240.458 84.295 240.173 84.555 240.173 85.075V86.29H241.448ZM243.945 86.29V94H242.73V86.29H243.945ZM243.36 83.275C243.57 83.275 243.745 83.35 243.885 83.5C244.035 83.64 244.11 83.81 244.11 84.01C244.11 84.22 244.035 84.4 243.885 84.55C243.745 84.69 243.57 84.76 243.36 84.76C243.16 84.76 242.985 84.69 242.835 84.55C242.695 84.4 242.625 84.22 242.625 84.01C242.625 83.81 242.695 83.64 242.835 83.5C242.985 83.35 243.16 83.275 243.36 83.275ZM249.326 90.01L251.996 94H250.571L248.636 91.03L246.671 94H245.276L248.006 90.07L245.411 86.29H246.821L248.681 89.08L250.541 86.29H251.921L249.326 90.01ZM259.194 86.29V87.28H257.619V92.41C257.619 92.59 257.679 92.745 257.799 92.875C257.929 92.995 258.094 93.055 258.294 93.055C258.484 93.055 258.774 93.01 259.164 92.92L259.299 94C258.679 94.11 258.209 94.165 257.889 94.165C256.899 94.165 256.404 93.76 256.404 92.95V87.28H255.354V86.29H256.404V84.715L257.619 84.16V86.29H259.194ZM260.632 83.26H261.847V87.37C262.217 86.91 262.587 86.59 262.957 86.41C263.327 86.22 263.787 86.125 264.337 86.125C265.087 86.125 265.677 86.315 266.107 86.695C266.537 87.065 266.752 87.575 266.752 88.225V94H265.537V88.72C265.537 88.18 265.372 87.785 265.042 87.535C264.732 87.305 264.367 87.19 263.947 87.19C263.317 87.19 262.807 87.425 262.417 87.895C262.037 88.365 261.847 88.99 261.847 89.77V94H260.632V83.26ZM275.33 90.505H269.645C269.655 91.165 269.795 91.69 270.065 92.08C270.495 92.71 271.115 93.025 271.925 93.025C272.925 93.025 273.6 92.55 273.95 91.6H275.18C275.02 92.41 274.65 93.04 274.07 93.49C273.49 93.94 272.76 94.165 271.88 94.165C270.71 94.165 269.815 93.765 269.195 92.965C268.645 92.265 268.37 91.34 268.37 90.19C268.37 88.86 268.73 87.825 269.45 87.085C270.08 86.445 270.895 86.125 271.895 86.125C272.625 86.125 273.265 86.3 273.815 86.65C274.375 87 274.775 87.48 275.015 88.09C275.225 88.61 275.33 89.4 275.33 90.46V90.505ZM274.01 89.5C274.01 88.83 273.81 88.29 273.41 87.88C273.02 87.46 272.515 87.25 271.895 87.25C271.265 87.25 270.75 87.455 270.35 87.865C269.96 88.265 269.74 88.81 269.69 89.5H274.01ZM277.009 86.29H278.149V87.4C278.749 86.55 279.539 86.125 280.519 86.125C281.469 86.125 282.159 86.505 282.589 87.265C282.959 86.835 283.314 86.54 283.654 86.38C284.004 86.21 284.434 86.125 284.944 86.125C286.444 86.125 287.194 86.83 287.194 88.24V94H285.964V88.72C285.964 87.7 285.484 87.19 284.524 87.19C284.024 87.19 283.599 87.385 283.249 87.775C282.899 88.165 282.724 88.63 282.724 89.17V94H281.494V88.72C281.494 87.7 281.019 87.19 280.069 87.19C279.559 87.19 279.124 87.385 278.764 87.775C278.414 88.155 278.239 88.62 278.239 89.17V94H277.009V86.29ZM289.749 92.605C289.959 92.605 290.134 92.675 290.274 92.815C290.414 92.955 290.484 93.13 290.484 93.34C290.484 93.54 290.414 93.715 290.274 93.865C290.134 94.005 289.959 94.075 289.749 94.075C289.549 94.075 289.374 94.005 289.224 93.865C289.084 93.715 289.014 93.54 289.014 93.34C289.014 93.13 289.084 92.955 289.224 92.815C289.374 92.675 289.549 92.605 289.749 92.605ZM296.856 83.26V94H295.461V83.26H296.856ZM299.128 86.29H300.268V87.595C300.888 86.615 301.738 86.125 302.818 86.125C303.568 86.125 304.163 86.315 304.603 86.695C305.043 87.065 305.263 87.565 305.263 88.195V94H304.048V88.69C304.048 88.23 303.903 87.865 303.613 87.595C303.333 87.325 302.948 87.19 302.458 87.19C301.818 87.19 301.308 87.425 300.928 87.895C300.548 88.365 300.358 88.99 300.358 89.77V94H299.128V86.29ZM312.791 88.405H311.441C311.401 87.635 310.886 87.25 309.896 87.25C309.386 87.25 308.981 87.35 308.681 87.55C308.391 87.74 308.246 88 308.246 88.33C308.246 88.83 308.721 89.19 309.671 89.41L310.856 89.68C311.626 89.86 312.181 90.115 312.521 90.445C312.861 90.775 313.031 91.225 313.031 91.795C313.031 92.525 312.746 93.105 312.176 93.535C311.606 93.955 310.836 94.165 309.866 94.165C308.806 94.165 308.001 93.915 307.451 93.415C306.991 93.005 306.746 92.46 306.716 91.78H308.111C308.191 92.13 308.301 92.385 308.441 92.545C308.711 92.865 309.216 93.025 309.956 93.025C310.506 93.025 310.941 92.925 311.261 92.725C311.591 92.515 311.756 92.24 311.756 91.9C311.756 91.39 311.361 91.04 310.571 90.85L309.416 90.58C308.536 90.37 307.921 90.12 307.571 89.83C307.171 89.5 306.971 89.025 306.971 88.405C306.971 87.705 307.236 87.15 307.766 86.74C308.306 86.33 309.026 86.125 309.926 86.125C310.866 86.125 311.596 86.36 312.116 86.83C312.566 87.24 312.791 87.765 312.791 88.405ZM315.839 86.29V94H314.624V86.29H315.839ZM315.254 83.275C315.464 83.275 315.639 83.35 315.779 83.5C315.929 83.64 316.004 83.81 316.004 84.01C316.004 84.22 315.929 84.4 315.779 84.55C315.639 84.69 315.464 84.76 315.254 84.76C315.054 84.76 314.879 84.69 314.729 84.55C314.589 84.4 314.519 84.22 314.519 84.01C314.519 83.81 314.589 83.64 314.729 83.5C314.879 83.35 315.054 83.275 315.254 83.275ZM322.976 86.29H324.116V92.74C324.116 94.41 323.846 95.57 323.306 96.22C322.766 96.88 321.881 97.21 320.651 97.21C319.691 97.21 318.941 96.98 318.401 96.52C317.921 96.11 317.651 95.565 317.591 94.885H318.851C318.911 95.285 319.061 95.58 319.301 95.77C319.651 96.04 320.121 96.175 320.711 96.175C321.511 96.175 322.081 95.935 322.421 95.455C322.711 95.045 322.856 94.345 322.856 93.355V92.86C322.216 93.73 321.446 94.165 320.546 94.165C319.666 94.165 318.921 93.835 318.311 93.175C317.661 92.465 317.336 91.495 317.336 90.265C317.336 88.945 317.676 87.895 318.356 87.115C318.956 86.455 319.711 86.125 320.621 86.125C321.601 86.125 322.386 86.565 322.976 87.445V86.29ZM320.756 87.25C320.096 87.25 319.571 87.515 319.181 88.045C318.801 88.565 318.611 89.28 318.611 90.19C318.611 91.14 318.831 91.865 319.271 92.365C319.641 92.805 320.141 93.025 320.771 93.025C321.431 93.025 321.941 92.775 322.301 92.275C322.671 91.775 322.856 91.08 322.856 90.19C322.856 89.21 322.646 88.46 322.226 87.94C321.856 87.48 321.366 87.25 320.756 87.25ZM326.139 83.26H327.354V87.37C327.724 86.91 328.094 86.59 328.464 86.41C328.834 86.22 329.294 86.125 329.844 86.125C330.594 86.125 331.184 86.315 331.614 86.695C332.044 87.065 332.259 87.575 332.259 88.225V94H331.044V88.72C331.044 88.18 330.879 87.785 330.549 87.535C330.239 87.305 329.874 87.19 329.454 87.19C328.824 87.19 328.314 87.425 327.924 87.895C327.544 88.365 327.354 88.99 327.354 89.77V94H326.139V83.26ZM337.343 86.29V87.28H335.768V92.41C335.768 92.59 335.828 92.745 335.948 92.875C336.078 92.995 336.243 93.055 336.443 93.055C336.633 93.055 336.923 93.01 337.313 92.92L337.448 94C336.828 94.11 336.358 94.165 336.038 94.165C335.048 94.165 334.553 93.76 334.553 92.95V87.28H333.503V86.29H334.553V84.715L335.768 84.16V86.29H337.343ZM344.256 88.405H342.906C342.866 87.635 342.351 87.25 341.361 87.25C340.851 87.25 340.446 87.35 340.146 87.55C339.856 87.74 339.711 88 339.711 88.33C339.711 88.83 340.186 89.19 341.136 89.41L342.321 89.68C343.091 89.86 343.646 90.115 343.986 90.445C344.326 90.775 344.496 91.225 344.496 91.795C344.496 92.525 344.211 93.105 343.641 93.535C343.071 93.955 342.301 94.165 341.331 94.165C340.271 94.165 339.466 93.915 338.916 93.415C338.456 93.005 338.211 92.46 338.181 91.78H339.576C339.656 92.13 339.766 92.385 339.906 92.545C340.176 92.865 340.681 93.025 341.421 93.025C341.971 93.025 342.406 92.925 342.726 92.725C343.056 92.515 343.221 92.24 343.221 91.9C343.221 91.39 342.826 91.04 342.036 90.85L340.881 90.58C340.001 90.37 339.386 90.12 339.036 89.83C338.636 89.5 338.436 89.025 338.436 88.405C338.436 87.705 338.701 87.15 339.231 86.74C339.771 86.33 340.491 86.125 341.391 86.125C342.331 86.125 343.061 86.36 343.581 86.83C344.031 87.24 344.256 87.765 344.256 88.405ZM9.93 105.87H8.7C8.55 104.79 7.94 104.25 6.87 104.25C6.2 104.25 5.675 104.515 5.295 105.045C4.915 105.575 4.725 106.31 4.725 107.25C4.725 108.18 4.95 108.89 5.4 109.38C5.78 109.81 6.29 110.025 6.93 110.025C7.96 110.025 8.575 109.465 8.775 108.345H10.02C9.94 109.305 9.595 110.03 8.985 110.52C8.455 110.95 7.76 111.165 6.9 111.165C5.77 111.165 4.89 110.765 4.26 109.965C3.72 109.275 3.45 108.37 3.45 107.25C3.45 105.91 3.805 104.86 4.515 104.1C5.125 103.45 5.915 103.125 6.885 103.125C8.005 103.125 8.845 103.5 9.405 104.25C9.695 104.64 9.87 105.18 9.93 105.87ZM12.6032 100.26V111H11.3732V100.26H12.6032ZM20.7298 111H19.5148V109.785C18.9648 110.705 18.1448 111.165 17.0548 111.165C16.3048 111.165 15.7048 110.98 15.2548 110.61C14.8148 110.23 14.5948 109.725 14.5948 109.095V103.29H15.8098V108.6C15.8098 109.05 15.9548 109.41 16.2448 109.68C16.5348 109.95 16.9248 110.085 17.4148 110.085C18.0548 110.085 18.5648 109.855 18.9448 109.395C19.3248 108.925 19.5148 108.295 19.5148 107.505V103.29H20.7298V111ZM28.3332 105.405H26.9832C26.9432 104.635 26.4282 104.25 25.4382 104.25C24.9282 104.25 24.5232 104.35 24.2232 104.55C23.9332 104.74 23.7882 105 23.7882 105.33C23.7882 105.83 24.2632 106.19 25.2132 106.41L26.3982 106.68C27.1682 106.86 27.7232 107.115 28.0632 107.445C28.4032 107.775 28.5732 108.225 28.5732 108.795C28.5732 109.525 28.2882 110.105 27.7182 110.535C27.1482 110.955 26.3782 111.165 25.4082 111.165C24.3482 111.165 23.5432 110.915 22.9932 110.415C22.5332 110.005 22.2882 109.46 22.2582 108.78H23.6532C23.7332 109.13 23.8432 109.385 23.9832 109.545C24.2532 109.865 24.7582 110.025 25.4982 110.025C26.0482 110.025 26.4832 109.925 26.8032 109.725C27.1332 109.515 27.2982 109.24 27.2982 108.9C27.2982 108.39 26.9032 108.04 26.1132 107.85L24.9582 107.58C24.0782 107.37 23.4632 107.12 23.1132 106.83C22.7132 106.5 22.5132 106.025 22.5132 105.405C22.5132 104.705 22.7782 104.15 23.3082 103.74C23.8482 103.33 24.5682 103.125 25.4682 103.125C26.4082 103.125 27.1382 103.36 27.6582 103.83C28.1082 104.24 28.3332 104.765 28.3332 105.405ZM33.2414 103.29V104.28H31.6664V109.41C31.6664 109.59 31.7264 109.745 31.8464 109.875C31.9764 109.995 32.1414 110.055 32.3414 110.055C32.5314 110.055 32.8214 110.01 33.2114 109.92L33.3464 111C32.7264 111.11 32.2564 111.165 31.9364 111.165C30.9464 111.165 30.4514 110.76 30.4514 109.95V104.28H29.4014V103.29H30.4514V101.715L31.6664 101.16V103.29H33.2414ZM41.1895 107.505H35.5045C35.5145 108.165 35.6545 108.69 35.9245 109.08C36.3545 109.71 36.9745 110.025 37.7845 110.025C38.7845 110.025 39.4595 109.55 39.8095 108.6H41.0395C40.8795 109.41 40.5095 110.04 39.9295 110.49C39.3495 110.94 38.6195 111.165 37.7395 111.165C36.5695 111.165 35.6745 110.765 35.0545 109.965C34.5045 109.265 34.2295 108.34 34.2295 107.19C34.2295 105.86 34.5895 104.825 35.3095 104.085C35.9395 103.445 36.7545 103.125 37.7545 103.125C38.4845 103.125 39.1245 103.3 39.6745 103.65C40.2345 104 40.6345 104.48 40.8745 105.09C41.0845 105.61 41.1895 106.4 41.1895 107.46V107.505ZM39.8695 106.5C39.8695 105.83 39.6695 105.29 39.2695 104.88C38.8795 104.46 38.3745 104.25 37.7545 104.25C37.1245 104.25 36.6095 104.455 36.2095 104.865C35.8195 105.265 35.5995 105.81 35.5495 106.5H39.8695ZM42.853 103.29H43.993V104.7C44.443 103.64 45.153 103.11 46.123 103.11C46.243 103.11 46.388 103.125 46.558 103.155V104.415C45.758 104.425 45.208 104.54 44.908 104.76C44.358 105.16 44.083 105.905 44.083 106.995V111H42.853V103.29ZM51.6841 103.29V111H50.4691V103.29H51.6841ZM51.0991 100.275C51.3091 100.275 51.4841 100.35 51.6241 100.5C51.7741 100.64 51.8491 100.81 51.8491 101.01C51.8491 101.22 51.7741 101.4 51.6241 101.55C51.4841 101.69 51.3091 101.76 51.0991 101.76C50.8991 101.76 50.7241 101.69 50.5741 101.55C50.4341 101.4 50.3641 101.22 50.3641 101.01C50.3641 100.81 50.4341 100.64 50.5741 100.5C50.7241 100.35 50.8991 100.275 51.0991 100.275ZM53.7957 103.29H54.9357V104.595C55.5557 103.615 56.4057 103.125 57.4857 103.125C58.2357 103.125 58.8307 103.315 59.2707 103.695C59.7107 104.065 59.9307 104.565 59.9307 105.195V111H58.7157V105.69C58.7157 105.23 58.5707 104.865 58.2807 104.595C58.0007 104.325 57.6157 104.19 57.1257 104.19C56.4857 104.19 55.9757 104.425 55.5957 104.895C55.2157 105.365 55.0257 105.99 55.0257 106.77V111H53.7957V103.29ZM64.7231 103.29H65.8631V104.7C66.3131 103.64 67.0231 103.11 67.9931 103.11C68.1131 103.11 68.2581 103.125 68.4281 103.155V104.415C67.6281 104.425 67.0781 104.54 66.7781 104.76C66.2281 105.16 65.9531 105.905 65.9531 106.995V111H64.7231V103.29ZM76.1554 107.505H70.4704C70.4804 108.165 70.6204 108.69 70.8904 109.08C71.3204 109.71 71.9404 110.025 72.7504 110.025C73.7504 110.025 74.4254 109.55 74.7754 108.6H76.0054C75.8454 109.41 75.4754 110.04 74.8954 110.49C74.3154 110.94 73.5854 111.165 72.7054 111.165C71.5354 111.165 70.6404 110.765 70.0204 109.965C69.4704 109.265 69.1954 108.34 69.1954 107.19C69.1954 105.86 69.5554 104.825 70.2754 104.085C70.9054 103.445 71.7204 103.125 72.7204 103.125C73.4504 103.125 74.0904 103.3 74.6404 103.65C75.2004 104 75.6004 104.48 75.8404 105.09C76.0504 105.61 76.1554 106.4 76.1554 107.46V107.505ZM74.8354 106.5C74.8354 105.83 74.6354 105.29 74.2354 104.88C73.8454 104.46 73.3404 104.25 72.7204 104.25C72.0904 104.25 71.5754 104.455 71.1754 104.865C70.7854 105.265 70.5654 105.81 70.5154 106.5H74.8354ZM84.6738 109.965V110.955C84.3338 111.075 84.0688 111.135 83.8788 111.135C83.0788 111.135 82.6438 110.77 82.5738 110.04C82.0238 110.79 81.1488 111.165 79.9488 111.165C79.1188 111.165 78.4738 110.935 78.0138 110.475C77.6138 110.075 77.4138 109.56 77.4138 108.93C77.4138 108.21 77.6688 107.655 78.1788 107.265C78.4688 107.045 79.0738 106.83 79.9938 106.62L82.5138 106.05L82.5288 105.405C82.5288 104.635 81.9488 104.25 80.7888 104.25C79.6788 104.25 79.0838 104.7 79.0038 105.6H77.7588C77.7888 104.92 77.9588 104.4 78.2688 104.04C78.7988 103.43 79.6588 103.125 80.8488 103.125C82.7788 103.125 83.7438 103.825 83.7438 105.225V109.53C83.7438 109.91 83.9088 110.1 84.2388 110.1C84.2788 110.1 84.3838 110.07 84.5538 110.01C84.6138 109.99 84.6538 109.975 84.6738 109.965ZM82.5288 107.055L80.5488 107.565C79.8388 107.745 79.3488 107.93 79.0788 108.12C78.8188 108.31 78.6888 108.575 78.6888 108.915C78.6888 109.705 79.1988 110.1 80.2188 110.1C80.9388 110.1 81.5488 109.865 82.0488 109.395C82.3688 109.105 82.5288 108.775 82.5288 108.405V107.055ZM87.2223 100.26V111H85.9923V100.26H87.2223ZM95.0578 103.29V104.28H93.4828V109.41C93.4828 109.59 93.5428 109.745 93.6628 109.875C93.7928 109.995 93.9578 110.055 94.1578 110.055C94.3478 110.055 94.6378 110.01 95.0278 109.92L95.1628 111C94.5428 111.11 94.0728 111.165 93.7528 111.165C92.7628 111.165 92.2678 110.76 92.2678 109.95V104.28H91.2178V103.29H92.2678V101.715L93.4828 101.16V103.29H95.0578ZM97.6509 103.29V111H96.4359V103.29H97.6509ZM97.0659 100.275C97.2759 100.275 97.4509 100.35 97.5909 100.5C97.7409 100.64 97.8159 100.81 97.8159 101.01C97.8159 101.22 97.7409 101.4 97.5909 101.55C97.4509 101.69 97.2759 101.76 97.0659 101.76C96.8659 101.76 96.6909 101.69 96.5409 101.55C96.4009 101.4 96.3309 101.22 96.3309 101.01C96.3309 100.81 96.4009 100.64 96.5409 100.5C96.6909 100.35 96.8659 100.275 97.0659 100.275ZM99.7625 103.29H100.903V104.4C101.503 103.55 102.293 103.125 103.273 103.125C104.223 103.125 104.913 103.505 105.343 104.265C105.713 103.835 106.068 103.54 106.408 103.38C106.758 103.21 107.188 103.125 107.698 103.125C109.198 103.125 109.948 103.83 109.948 105.24V111H108.718V105.72C108.718 104.7 108.238 104.19 107.278 104.19C106.778 104.19 106.353 104.385 106.003 104.775C105.653 105.165 105.478 105.63 105.478 106.17V111H104.248V105.72C104.248 104.7 103.773 104.19 102.823 104.19C102.313 104.19 101.878 104.385 101.518 104.775C101.168 105.155 100.993 105.62 100.993 106.17V111H99.7625V103.29ZM118.548 107.505H112.863C112.873 108.165 113.013 108.69 113.283 109.08C113.713 109.71 114.333 110.025 115.143 110.025C116.143 110.025 116.818 109.55 117.168 108.6H118.398C118.238 109.41 117.868 110.04 117.288 110.49C116.708 110.94 115.978 111.165 115.098 111.165C113.928 111.165 113.033 110.765 112.413 109.965C111.863 109.265 111.588 108.34 111.588 107.19C111.588 105.86 111.948 104.825 112.668 104.085C113.298 103.445 114.113 103.125 115.113 103.125C115.843 103.125 116.483 103.3 117.033 103.65C117.593 104 117.993 104.48 118.233 105.09C118.443 105.61 118.548 106.4 118.548 107.46V107.505ZM117.228 106.5C117.228 105.83 117.028 105.29 116.628 104.88C116.238 104.46 115.733 104.25 115.113 104.25C114.483 104.25 113.968 104.455 113.568 104.865C113.178 105.265 112.958 105.81 112.908 106.5H117.228ZM128.455 105.405H127.105C127.065 104.635 126.55 104.25 125.56 104.25C125.05 104.25 124.645 104.35 124.345 104.55C124.055 104.74 123.91 105 123.91 105.33C123.91 105.83 124.385 106.19 125.335 106.41L126.52 106.68C127.29 106.86 127.845 107.115 128.185 107.445C128.525 107.775 128.695 108.225 128.695 108.795C128.695 109.525 128.41 110.105 127.84 110.535C127.27 110.955 126.5 111.165 125.53 111.165C124.47 111.165 123.665 110.915 123.115 110.415C122.655 110.005 122.41 109.46 122.38 108.78H123.775C123.855 109.13 123.965 109.385 124.105 109.545C124.375 109.865 124.88 110.025 125.62 110.025C126.17 110.025 126.605 109.925 126.925 109.725C127.255 109.515 127.42 109.24 127.42 108.9C127.42 108.39 127.025 108.04 126.235 107.85L125.08 107.58C124.2 107.37 123.585 107.12 123.235 106.83C122.835 106.5 122.635 106.025 122.635 105.405C122.635 104.705 122.9 104.15 123.43 103.74C123.97 103.33 124.69 103.125 125.59 103.125C126.53 103.125 127.26 103.36 127.78 103.83C128.23 104.24 128.455 104.765 128.455 105.405ZM133.363 103.125C134.523 103.125 135.408 103.53 136.018 104.34C136.558 105.04 136.828 105.99 136.828 107.19C136.828 108.53 136.478 109.55 135.778 110.25C135.178 110.86 134.368 111.165 133.348 111.165C132.168 111.165 131.268 110.77 130.648 109.98C130.108 109.29 129.838 108.36 129.838 107.19C129.838 105.83 130.193 104.785 130.903 104.055C131.513 103.435 132.333 103.125 133.363 103.125ZM133.363 104.25C132.663 104.25 132.113 104.515 131.713 105.045C131.313 105.565 131.113 106.28 131.113 107.19C131.113 108.14 131.338 108.865 131.788 109.365C132.178 109.805 132.698 110.025 133.348 110.025C134.038 110.025 134.573 109.775 134.953 109.275C135.343 108.775 135.538 108.08 135.538 107.19C135.538 106.21 135.318 105.46 134.878 104.94C134.498 104.48 133.993 104.25 133.363 104.25ZM147.561 100.26V111H146.331V109.935C145.841 110.765 145.081 111.18 144.051 111.18C142.921 111.18 142.051 110.77 141.441 109.95C140.911 109.23 140.646 108.28 140.646 107.1C140.646 105.81 140.991 104.8 141.681 104.07C142.271 103.44 143.036 103.125 143.976 103.125C145.016 103.125 145.801 103.515 146.331 104.295V100.26H147.561ZM144.186 104.265C143.506 104.265 142.956 104.535 142.536 105.075C142.126 105.605 141.921 106.31 141.921 107.19C141.921 108.1 142.161 108.815 142.641 109.335C143.051 109.795 143.571 110.025 144.201 110.025C144.851 110.025 145.366 109.77 145.746 109.26C146.136 108.75 146.331 108.06 146.331 107.19C146.331 106.24 146.111 105.5 145.671 104.97C145.281 104.5 144.786 104.265 144.186 104.265ZM155.989 107.505H150.304C150.314 108.165 150.454 108.69 150.724 109.08C151.154 109.71 151.774 110.025 152.584 110.025C153.584 110.025 154.259 109.55 154.609 108.6H155.839C155.679 109.41 155.309 110.04 154.729 110.49C154.149 110.94 153.419 111.165 152.539 111.165C151.369 111.165 150.474 110.765 149.854 109.965C149.304 109.265 149.029 108.34 149.029 107.19C149.029 105.86 149.389 104.825 150.109 104.085C150.739 103.445 151.554 103.125 152.554 103.125C153.284 103.125 153.924 103.3 154.474 103.65C155.034 104 155.434 104.48 155.674 105.09C155.884 105.61 155.989 106.4 155.989 107.46V107.505ZM154.669 106.5C154.669 105.83 154.469 105.29 154.069 104.88C153.679 104.46 153.174 104.25 152.554 104.25C151.924 104.25 151.409 104.455 151.009 104.865C150.619 105.265 150.399 105.81 150.349 106.5H154.669ZM163.563 105.87H162.333C162.183 104.79 161.573 104.25 160.503 104.25C159.833 104.25 159.308 104.515 158.928 105.045C158.548 105.575 158.358 106.31 158.358 107.25C158.358 108.18 158.583 108.89 159.033 109.38C159.413 109.81 159.923 110.025 160.563 110.025C161.593 110.025 162.208 109.465 162.408 108.345H163.653C163.573 109.305 163.228 110.03 162.618 110.52C162.088 110.95 161.393 111.165 160.533 111.165C159.403 111.165 158.523 110.765 157.893 109.965C157.353 109.275 157.083 108.37 157.083 107.25C157.083 105.91 157.438 104.86 158.148 104.1C158.758 103.45 159.548 103.125 160.518 103.125C161.638 103.125 162.478 103.5 163.038 104.25C163.328 104.64 163.503 105.18 163.563 105.87ZM166.191 103.29V111H164.976V103.29H166.191ZM165.606 100.275C165.816 100.275 165.991 100.35 166.131 100.5C166.281 100.64 166.356 100.81 166.356 101.01C166.356 101.22 166.281 101.4 166.131 101.55C165.991 101.69 165.816 101.76 165.606 101.76C165.406 101.76 165.231 101.69 165.081 101.55C164.941 101.4 164.871 101.22 164.871 101.01C164.871 100.81 164.941 100.64 165.081 100.5C165.231 100.35 165.406 100.275 165.606 100.275ZM173.778 105.405H172.428C172.388 104.635 171.873 104.25 170.883 104.25C170.373 104.25 169.968 104.35 169.668 104.55C169.378 104.74 169.233 105 169.233 105.33C169.233 105.83 169.708 106.19 170.658 106.41L171.843 106.68C172.613 106.86 173.168 107.115 173.508 107.445C173.848 107.775 174.018 108.225 174.018 108.795C174.018 109.525 173.733 110.105 173.163 110.535C172.593 110.955 171.823 111.165 170.853 111.165C169.793 111.165 168.988 110.915 168.438 110.415C167.978 110.005 167.733 109.46 167.703 108.78H169.098C169.178 109.13 169.288 109.385 169.428 109.545C169.698 109.865 170.203 110.025 170.943 110.025C171.493 110.025 171.928 109.925 172.248 109.725C172.578 109.515 172.743 109.24 172.743 108.9C172.743 108.39 172.348 108.04 171.558 107.85L170.403 107.58C169.523 107.37 168.908 107.12 168.558 106.83C168.158 106.5 167.958 106.025 167.958 105.405C167.958 104.705 168.223 104.15 168.753 103.74C169.293 103.33 170.013 103.125 170.913 103.125C171.853 103.125 172.583 103.36 173.103 103.83C173.553 104.24 173.778 104.765 173.778 105.405ZM176.826 103.29V111H175.611V103.29H176.826ZM176.241 100.275C176.451 100.275 176.626 100.35 176.766 100.5C176.916 100.64 176.991 100.81 176.991 101.01C176.991 101.22 176.916 101.4 176.766 101.55C176.626 101.69 176.451 101.76 176.241 101.76C176.041 101.76 175.866 101.69 175.716 101.55C175.576 101.4 175.506 101.22 175.506 101.01C175.506 100.81 175.576 100.64 175.716 100.5C175.866 100.35 176.041 100.275 176.241 100.275ZM181.952 103.125C183.112 103.125 183.997 103.53 184.607 104.34C185.147 105.04 185.417 105.99 185.417 107.19C185.417 108.53 185.067 109.55 184.367 110.25C183.767 110.86 182.957 111.165 181.937 111.165C180.757 111.165 179.857 110.77 179.237 109.98C178.697 109.29 178.427 108.36 178.427 107.19C178.427 105.83 178.782 104.785 179.492 104.055C180.102 103.435 180.922 103.125 181.952 103.125ZM181.952 104.25C181.252 104.25 180.702 104.515 180.302 105.045C179.902 105.565 179.702 106.28 179.702 107.19C179.702 108.14 179.927 108.865 180.377 109.365C180.767 109.805 181.287 110.025 181.937 110.025C182.627 110.025 183.162 109.775 183.542 109.275C183.932 108.775 184.127 108.08 184.127 107.19C184.127 106.21 183.907 105.46 183.467 104.94C183.087 104.48 182.582 104.25 181.952 104.25ZM187.126 103.29H188.266V104.595C188.886 103.615 189.736 103.125 190.816 103.125C191.566 103.125 192.161 103.315 192.601 103.695C193.041 104.065 193.261 104.565 193.261 105.195V111H192.046V105.69C192.046 105.23 191.901 104.865 191.611 104.595C191.331 104.325 190.946 104.19 190.456 104.19C189.816 104.19 189.306 104.425 188.926 104.895C188.546 105.365 188.356 105.99 188.356 106.77V111H187.126V103.29ZM198.539 107.055V108.135H194.834V107.055H198.539ZM200.134 103.29H201.274V104.4C201.874 103.55 202.664 103.125 203.644 103.125C204.594 103.125 205.284 103.505 205.714 104.265C206.084 103.835 206.439 103.54 206.779 103.38C207.129 103.21 207.559 103.125 208.069 103.125C209.569 103.125 210.319 103.83 210.319 105.24V111H209.089V105.72C209.089 104.7 208.609 104.19 207.649 104.19C207.149 104.19 206.724 104.385 206.374 104.775C206.024 105.165 205.849 105.63 205.849 106.17V111H204.619V105.72C204.619 104.7 204.144 104.19 203.194 104.19C202.684 104.19 202.249 104.385 201.889 104.775C201.539 105.155 201.364 105.62 201.364 106.17V111H200.134V103.29ZM219.249 109.965V110.955C218.909 111.075 218.644 111.135 218.454 111.135C217.654 111.135 217.219 110.77 217.149 110.04C216.599 110.79 215.724 111.165 214.524 111.165C213.694 111.165 213.049 110.935 212.589 110.475C212.189 110.075 211.989 109.56 211.989 108.93C211.989 108.21 212.244 107.655 212.754 107.265C213.044 107.045 213.649 106.83 214.569 106.62L217.089 106.05L217.104 105.405C217.104 104.635 216.524 104.25 215.364 104.25C214.254 104.25 213.659 104.7 213.579 105.6H212.334C212.364 104.92 212.534 104.4 212.844 104.04C213.374 103.43 214.234 103.125 215.424 103.125C217.354 103.125 218.319 103.825 218.319 105.225V109.53C218.319 109.91 218.484 110.1 218.814 110.1C218.854 110.1 218.959 110.07 219.129 110.01C219.189 109.99 219.229 109.975 219.249 109.965ZM217.104 107.055L215.124 107.565C214.414 107.745 213.924 107.93 213.654 108.12C213.394 108.31 213.264 108.575 213.264 108.915C213.264 109.705 213.774 110.1 214.794 110.1C215.514 110.1 216.124 109.865 216.624 109.395C216.944 109.105 217.104 108.775 217.104 108.405V107.055ZM221.633 100.26V106.56L224.903 103.29H226.493L223.808 105.945L226.958 111H225.443L222.833 106.815L221.633 107.985V111H220.418V100.26H221.633ZM234.476 107.505H228.791C228.801 108.165 228.941 108.69 229.211 109.08C229.641 109.71 230.261 110.025 231.071 110.025C232.071 110.025 232.746 109.55 233.096 108.6H234.326C234.166 109.41 233.796 110.04 233.216 110.49C232.636 110.94 231.906 111.165 231.026 111.165C229.856 111.165 228.961 110.765 228.341 109.965C227.791 109.265 227.516 108.34 227.516 107.19C227.516 105.86 227.876 104.825 228.596 104.085C229.226 103.445 230.041 103.125 231.041 103.125C231.771 103.125 232.411 103.3 232.961 103.65C233.521 104 233.921 104.48 234.161 105.09C234.371 105.61 234.476 106.4 234.476 107.46V107.505ZM233.156 106.5C233.156 105.83 232.956 105.29 232.556 104.88C232.166 104.46 231.661 104.25 231.041 104.25C230.411 104.25 229.896 104.455 229.496 104.865C229.106 105.265 228.886 105.81 228.836 106.5H233.156ZM236.139 103.29H237.279V104.7C237.729 103.64 238.439 103.11 239.409 103.11C239.529 103.11 239.674 103.125 239.844 103.155V104.415C239.044 104.425 238.494 104.54 238.194 104.76C237.644 105.16 237.369 105.905 237.369 106.995V111H236.139V103.29ZM246.536 105.405H245.186C245.146 104.635 244.631 104.25 243.641 104.25C243.131 104.25 242.726 104.35 242.426 104.55C242.136 104.74 241.991 105 241.991 105.33C241.991 105.83 242.466 106.19 243.416 106.41L244.601 106.68C245.371 106.86 245.926 107.115 246.266 107.445C246.606 107.775 246.776 108.225 246.776 108.795C246.776 109.525 246.491 110.105 245.921 110.535C245.351 110.955 244.581 111.165 243.611 111.165C242.551 111.165 241.746 110.915 241.196 110.415C240.736 110.005 240.491 109.46 240.461 108.78H241.856C241.936 109.13 242.046 109.385 242.186 109.545C242.456 109.865 242.961 110.025 243.701 110.025C244.251 110.025 244.686 109.925 245.006 109.725C245.336 109.515 245.501 109.24 245.501 108.9C245.501 108.39 245.106 108.04 244.316 107.85L243.161 107.58C242.281 107.37 241.666 107.12 241.316 106.83C240.916 106.5 240.716 106.025 240.716 105.405C240.716 104.705 240.981 104.15 241.511 103.74C242.051 103.33 242.771 103.125 243.671 103.125C244.611 103.125 245.341 103.36 245.861 103.83C246.311 104.24 246.536 104.765 246.536 105.405ZM257.078 105.87H255.848C255.698 104.79 255.088 104.25 254.018 104.25C253.348 104.25 252.823 104.515 252.443 105.045C252.063 105.575 251.873 106.31 251.873 107.25C251.873 108.18 252.098 108.89 252.548 109.38C252.928 109.81 253.438 110.025 254.078 110.025C255.108 110.025 255.723 109.465 255.923 108.345H257.168C257.088 109.305 256.743 110.03 256.133 110.52C255.603 110.95 254.908 111.165 254.048 111.165C252.918 111.165 252.038 110.765 251.408 109.965C250.868 109.275 250.598 108.37 250.598 107.25C250.598 105.91 250.953 104.86 251.663 104.1C252.273 103.45 253.063 103.125 254.033 103.125C255.153 103.125 255.993 103.5 256.553 104.25C256.843 104.64 257.018 105.18 257.078 105.87ZM265.392 109.965V110.955C265.052 111.075 264.787 111.135 264.597 111.135C263.797 111.135 263.362 110.77 263.292 110.04C262.742 110.79 261.867 111.165 260.667 111.165C259.837 111.165 259.192 110.935 258.732 110.475C258.332 110.075 258.132 109.56 258.132 108.93C258.132 108.21 258.387 107.655 258.897 107.265C259.187 107.045 259.792 106.83 260.712 106.62L263.232 106.05L263.247 105.405C263.247 104.635 262.667 104.25 261.507 104.25C260.397 104.25 259.802 104.7 259.722 105.6H258.477C258.507 104.92 258.677 104.4 258.987 104.04C259.517 103.43 260.377 103.125 261.567 103.125C263.497 103.125 264.462 103.825 264.462 105.225V109.53C264.462 109.91 264.627 110.1 264.957 110.1C264.997 110.1 265.102 110.07 265.272 110.01C265.332 109.99 265.372 109.975 265.392 109.965ZM263.247 107.055L261.267 107.565C260.557 107.745 260.067 107.93 259.797 108.12C259.537 108.31 259.407 108.575 259.407 108.915C259.407 109.705 259.917 110.1 260.937 110.1C261.657 110.1 262.267 109.865 262.767 109.395C263.087 109.105 263.247 108.775 263.247 108.405V107.055ZM266.74 103.29H267.88V104.595C268.5 103.615 269.35 103.125 270.43 103.125C271.18 103.125 271.775 103.315 272.215 103.695C272.655 104.065 272.875 104.565 272.875 105.195V111H271.66V105.69C271.66 105.23 271.515 104.865 271.225 104.595C270.945 104.325 270.56 104.19 270.07 104.19C269.43 104.19 268.92 104.425 268.54 104.895C268.16 105.365 267.97 105.99 267.97 106.77V111H266.74V103.29ZM284.522 109.965V110.955C284.182 111.075 283.917 111.135 283.727 111.135C282.927 111.135 282.492 110.77 282.422 110.04C281.872 110.79 280.997 111.165 279.797 111.165C278.967 111.165 278.322 110.935 277.862 110.475C277.462 110.075 277.262 109.56 277.262 108.93C277.262 108.21 277.517 107.655 278.027 107.265C278.317 107.045 278.922 106.83 279.842 106.62L282.362 106.05L282.377 105.405C282.377 104.635 281.797 104.25 280.637 104.25C279.527 104.25 278.932 104.7 278.852 105.6H277.607C277.637 104.92 277.807 104.4 278.117 104.04C278.647 103.43 279.507 103.125 280.697 103.125C282.627 103.125 283.592 103.825 283.592 105.225V109.53C283.592 109.91 283.757 110.1 284.087 110.1C284.127 110.1 284.232 110.07 284.402 110.01C284.462 109.99 284.502 109.975 284.522 109.965ZM282.377 107.055L280.397 107.565C279.687 107.745 279.197 107.93 278.927 108.12C278.667 108.31 278.537 108.575 278.537 108.915C278.537 109.705 279.047 110.1 280.067 110.1C280.787 110.1 281.397 109.865 281.897 109.395C282.217 109.105 282.377 108.775 282.377 108.405V107.055ZM291.766 105.87H290.536C290.386 104.79 289.776 104.25 288.706 104.25C288.036 104.25 287.511 104.515 287.131 105.045C286.751 105.575 286.561 106.31 286.561 107.25C286.561 108.18 286.786 108.89 287.236 109.38C287.616 109.81 288.126 110.025 288.766 110.025C289.796 110.025 290.411 109.465 290.611 108.345H291.856C291.776 109.305 291.431 110.03 290.821 110.52C290.291 110.95 289.596 111.165 288.736 111.165C287.606 111.165 286.726 110.765 286.096 109.965C285.556 109.275 285.286 108.37 285.286 107.25C285.286 105.91 285.641 104.86 286.351 104.1C286.961 103.45 287.751 103.125 288.721 103.125C289.841 103.125 290.681 103.5 291.241 104.25C291.531 104.64 291.706 105.18 291.766 105.87ZM296.254 103.29V104.28H294.679V109.41C294.679 109.59 294.739 109.745 294.859 109.875C294.989 109.995 295.154 110.055 295.354 110.055C295.544 110.055 295.834 110.01 296.224 109.92L296.359 111C295.739 111.11 295.269 111.165 294.949 111.165C293.959 111.165 293.464 110.76 293.464 109.95V104.28H292.414V103.29H293.464V101.715L294.679 101.16V103.29H296.254ZM298.157 109.605C298.367 109.605 298.542 109.675 298.682 109.815C298.822 109.955 298.892 110.13 298.892 110.34C298.892 110.54 298.822 110.715 298.682 110.865C298.542 111.005 298.367 111.075 298.157 111.075C297.957 111.075 297.782 111.005 297.632 110.865C297.492 110.715 297.422 110.54 297.422 110.34C297.422 110.13 297.492 109.955 297.632 109.815C297.782 109.675 297.957 109.605 298.157 109.605Z" fill="black"/>
</svg>
