<svg width="177" height="23" viewBox="0 0 177 23" fill="none" xmlns="http://www.w3.org/2000/svg">
<rect opacity="0.76" y="12" width="176" height="11" fill="#FFE071"/>
<path d="M0.828125 13.9062C0.927083 13.7708 1.01823 13.4948 1.10156 13.0781C1.1849 12.6562 1.22656 12.0833 1.22656 11.3594C1.22656 11.0312 1.18229 10.7812 1.09375 10.6094C1.00521 10.4323 0.877604 10.3151 0.710938 10.2578C0.804688 10.2318 0.885417 10.1719 0.953125 10.0781C1.02083 9.98438 1.07812 9.86979 1.125 9.73438C1.17188 9.59896 1.20573 9.45052 1.22656 9.28906C1.2474 9.1224 1.25781 8.95312 1.25781 8.78125C1.25781 8.33333 1.21875 7.9375 1.14062 7.59375C1.06771 7.24479 0.963542 6.99479 0.828125 6.84375H0.890625C1.0625 6.84375 1.25521 6.80469 1.46875 6.72656C1.68229 6.64844 1.89844 6.54688 2.11719 6.42188C2.33594 6.29167 2.54688 6.14844 2.75 5.99219C2.95833 5.83073 3.14323 5.66667 3.30469 5.5C3.47135 5.33333 3.60677 5.17188 3.71094 5.01562C3.8151 4.85417 3.8724 4.71354 3.88281 4.59375C4.05469 4.6875 4.35417 4.78385 4.78125 4.88281C5.21354 4.97656 5.78125 5.02344 6.48438 5.02344C6.65104 5.02344 6.82812 5.01302 7.01562 4.99219C7.20833 4.97135 7.39323 4.94271 7.57031 4.90625C7.7526 4.86458 7.92188 4.81771 8.07812 4.76562C8.23438 4.71354 8.36198 4.65625 8.46094 4.59375C8.51302 4.75521 8.59115 4.92188 8.69531 5.09375C8.79948 5.26042 8.92708 5.40365 9.07812 5.52344C9.22396 5.40885 9.32812 5.27865 9.39062 5.13281C9.45833 4.98698 9.50521 4.85938 9.53125 4.75C9.57812 4.77604 9.65104 4.79948 9.75 4.82031C9.84896 4.83594 9.96354 4.85156 10.0938 4.86719C10.224 4.8776 10.3646 4.88802 10.5156 4.89844C10.6667 4.90365 10.8203 4.90625 10.9766 4.90625C11.0703 4.90625 11.1797 4.90365 11.3047 4.89844C11.4297 4.88802 11.5547 4.8776 11.6797 4.86719C11.8099 4.85156 11.9349 4.83594 12.0547 4.82031C12.1745 4.79948 12.2786 4.77604 12.3672 4.75C12.3568 4.79167 12.3385 4.8724 12.3125 4.99219C12.2917 5.11198 12.2708 5.25 12.25 5.40625C12.2292 5.5625 12.2109 5.72917 12.1953 5.90625C12.1797 6.08333 12.1719 6.2526 12.1719 6.41406C12.1719 6.7474 12.1797 7.0625 12.1953 7.35938C12.2109 7.65625 12.2266 7.92448 12.2422 8.16406C12.263 8.40365 12.2839 8.60938 12.3047 8.78125C12.3307 8.95312 12.3516 9.08073 12.3672 9.16406C12.2422 9.14323 12.1068 9.1276 11.9609 9.11719C11.8203 9.10156 11.6745 9.08854 11.5234 9.07812C11.3776 9.06771 11.2344 9.0599 11.0938 9.05469C10.9531 9.04948 10.8281 9.04688 10.7188 9.04688C10.0833 9.04688 9.51302 9.08594 9.00781 9.16406C9.00781 8.8099 8.96094 8.47396 8.86719 8.15625C8.77344 7.83854 8.63802 7.5625 8.46094 7.32812C8.28385 7.08854 8.0651 6.89844 7.80469 6.75781C7.54427 6.61719 7.2474 6.54688 6.91406 6.54688C6.73177 6.54688 6.54948 6.5625 6.36719 6.59375C6.1849 6.625 6.00781 6.6901 5.83594 6.78906C5.66927 6.88281 5.51302 7.01823 5.36719 7.19531C5.22656 7.3724 5.10156 7.60938 4.99219 7.90625C4.88802 8.19792 4.80469 8.55729 4.74219 8.98438C4.6849 9.41146 4.65625 9.92188 4.65625 10.5156C4.65625 11.2708 4.71354 11.8932 4.82812 12.3828C4.94792 12.8672 5.10938 13.25 5.3125 13.5312C5.51562 13.8125 5.7526 14.0078 6.02344 14.1172C6.29948 14.2266 6.59635 14.2812 6.91406 14.2812C7.23177 14.2812 7.51042 14.2161 7.75 14.0859C7.99479 13.9505 8.19792 13.7656 8.35938 13.5312C8.52604 13.2969 8.65104 13.0182 8.73438 12.6953C8.81771 12.3724 8.85938 12.0182 8.85938 11.6328C8.85938 11.5859 8.85677 11.5391 8.85156 11.4922C8.85156 11.4453 8.85156 11.3984 8.85156 11.3516C9.02865 11.388 9.1901 11.4193 9.33594 11.4453C9.48177 11.4714 9.625 11.4922 9.76562 11.5078C9.90625 11.5234 10.0521 11.5339 10.2031 11.5391C10.3594 11.5443 10.5339 11.5469 10.7266 11.5469C11.0599 11.5469 11.3698 11.5286 11.6562 11.4922C11.9427 11.4557 12.1797 11.4089 12.3672 11.3516C12.3359 11.4141 12.3073 11.5078 12.2812 11.6328C12.2604 11.7578 12.2396 11.901 12.2188 12.0625C12.2031 12.224 12.1901 12.3958 12.1797 12.5781C12.1745 12.7552 12.1719 12.9297 12.1719 13.1016C12.1719 13.3099 12.1901 13.5286 12.2266 13.7578C12.2682 13.987 12.3151 14.2057 12.3672 14.4141C11.9089 14.4193 11.5052 14.4922 11.1562 14.6328C10.8073 14.7682 10.5104 14.9297 10.2656 15.1172C10.026 15.2995 9.83594 15.4818 9.69531 15.6641C9.5599 15.8464 9.47396 15.9844 9.4375 16.0781C9.32812 16.0365 9.20052 16 9.05469 15.9688C8.90885 15.9323 8.73698 15.9036 8.53906 15.8828C8.34635 15.8568 8.1224 15.8385 7.86719 15.8281C7.61198 15.8125 7.32031 15.8047 6.99219 15.8047C6.64323 15.8047 6.29688 15.8151 5.95312 15.8359C5.61458 15.8516 5.30208 15.8776 5.01562 15.9141C4.72917 15.9453 4.48177 15.9818 4.27344 16.0234C4.0651 16.0651 3.91927 16.1094 3.83594 16.1562C3.77344 15.9167 3.63281 15.6693 3.41406 15.4141C3.20052 15.1589 2.94792 14.9245 2.65625 14.7109C2.36979 14.4974 2.0625 14.3177 1.73438 14.1719C1.41146 14.026 1.10938 13.9375 0.828125 13.9062ZM14.2344 14.7031C14.2917 14.6198 14.3464 14.513 14.3984 14.3828C14.4505 14.2526 14.4948 14.0833 14.5312 13.875C14.5729 13.6615 14.6042 13.401 14.625 13.0938C14.651 12.7812 14.6641 12.401 14.6641 11.9531C14.6641 11.4844 14.651 11.1042 14.625 10.8125C14.6042 10.5208 14.5729 10.2839 14.5312 10.1016C14.4948 9.91406 14.4505 9.76302 14.3984 9.64844C14.3464 9.53385 14.2943 9.42188 14.2422 9.3125C14.4505 9.29167 14.6875 9.23177 14.9531 9.13281C15.2188 9.02865 15.474 8.89844 15.7188 8.74219C15.9688 8.58594 16.1901 8.40625 16.3828 8.20312C16.5755 8 16.7031 7.78646 16.7656 7.5625C16.8594 7.60417 16.9948 7.64323 17.1719 7.67969C17.349 7.71094 17.5547 7.73958 17.7891 7.76562C18.0234 7.78646 18.2786 7.80469 18.5547 7.82031C18.8307 7.83073 19.1172 7.83594 19.4141 7.83594C19.6849 7.83594 19.9479 7.82812 20.2031 7.8125C20.4583 7.79167 20.6927 7.76823 20.9062 7.74219C21.1198 7.71615 21.3047 7.6875 21.4609 7.65625C21.6172 7.625 21.7344 7.59375 21.8125 7.5625C21.875 7.78646 22.0052 8 22.2031 8.20312C22.401 8.40625 22.625 8.58594 22.875 8.74219C23.1302 8.89844 23.388 9.02865 23.6484 9.13281C23.9141 9.23177 24.1432 9.29167 24.3359 9.3125C24.2839 9.41667 24.2318 9.52604 24.1797 9.64062C24.1328 9.75 24.0885 9.89844 24.0469 10.0859C24.0104 10.2682 23.9792 10.5052 23.9531 10.7969C23.9323 11.0833 23.9219 11.4557 23.9219 11.9141C23.9219 12.3672 23.9297 12.7526 23.9453 13.0703C23.9609 13.3828 23.9844 13.6458 24.0156 13.8594C24.0469 14.0729 24.0885 14.2448 24.1406 14.375C24.1979 14.5052 24.2656 14.6146 24.3438 14.7031C24.2135 14.7031 24.0651 14.724 23.8984 14.7656C23.7318 14.8021 23.5573 14.8542 23.375 14.9219C23.1979 14.9844 23.0208 15.0599 22.8438 15.1484C22.6719 15.237 22.513 15.3333 22.3672 15.4375C22.2214 15.5365 22.0964 15.6406 21.9922 15.75C21.888 15.8594 21.8177 15.9688 21.7812 16.0781C21.6823 16.0417 21.5495 16.0078 21.3828 15.9766C21.2161 15.9453 21.0234 15.9167 20.8047 15.8906C20.5859 15.8646 20.3464 15.8438 20.0859 15.8281C19.8255 15.8125 19.5521 15.8047 19.2656 15.8047C18.9844 15.8047 18.7135 15.8125 18.4531 15.8281C18.1979 15.8438 17.9609 15.8646 17.7422 15.8906C17.5286 15.9115 17.3385 15.9401 17.1719 15.9766C17.0104 16.0078 16.8854 16.0417 16.7969 16.0781C16.7083 15.8854 16.5599 15.7057 16.3516 15.5391C16.1432 15.3724 15.9141 15.2266 15.6641 15.1016C15.4141 14.9766 15.1589 14.8802 14.8984 14.8125C14.6432 14.7396 14.4219 14.7031 14.2344 14.7031ZM17.7891 11.9219C17.7891 12.3646 17.8151 12.7448 17.8672 13.0625C17.9245 13.3802 18.0156 13.6406 18.1406 13.8438C18.2656 14.0469 18.4271 14.1979 18.625 14.2969C18.8229 14.3906 19.0651 14.4375 19.3516 14.4375C19.6536 14.4375 19.901 14.375 20.0938 14.25C20.2865 14.1198 20.4375 13.9427 20.5469 13.7188C20.6562 13.4948 20.7318 13.2292 20.7734 12.9219C20.8151 12.6146 20.8359 12.2812 20.8359 11.9219C20.8359 11.5625 20.8151 11.2318 20.7734 10.9297C20.7318 10.6224 20.6562 10.3594 20.5469 10.1406C20.4375 9.91667 20.2865 9.74479 20.0938 9.625C19.901 9.5 19.6536 9.4375 19.3516 9.4375C19.0651 9.4375 18.8229 9.48438 18.625 9.57812C18.4271 9.67188 18.2656 9.82031 18.1406 10.0234C18.0156 10.2214 17.9245 10.4766 17.8672 10.7891C17.8151 11.1016 17.7891 11.4792 17.7891 11.9219ZM26.125 16C26.1562 15.8698 26.1823 15.7135 26.2031 15.5312C26.2292 15.3438 26.2422 15.151 26.2422 14.9531C26.2422 14.7708 26.2292 14.5938 26.2031 14.4219C26.1771 14.2448 26.151 14.0938 26.125 13.9688C26.3594 13.9688 26.5651 13.9505 26.7422 13.9141C26.9193 13.8776 27.0677 13.8177 27.1875 13.7344C27.3073 13.6458 27.3958 13.5286 27.4531 13.3828C27.5156 13.2318 27.5469 13.0443 27.5469 12.8203C27.5469 12.3828 27.5339 12.0078 27.5078 11.6953C27.487 11.3828 27.4531 11.125 27.4062 10.9219C27.3646 10.7188 27.3099 10.5651 27.2422 10.4609C27.1745 10.3516 27.0964 10.2839 27.0078 10.2578C27.1016 10.2266 27.1823 10.1719 27.25 10.0938C27.3177 10.0156 27.3724 9.89062 27.4141 9.71875C27.4609 9.54688 27.4948 9.31771 27.5156 9.03125C27.5365 8.74479 27.5469 8.3776 27.5469 7.92969C27.5469 7.70573 27.5156 7.52083 27.4531 7.375C27.3958 7.22396 27.3073 7.10677 27.1875 7.02344C27.0677 6.9349 26.9193 6.8724 26.7422 6.83594C26.5651 6.79948 26.3594 6.78125 26.125 6.78125C26.151 6.65625 26.1771 6.50781 26.2031 6.33594C26.2292 6.15885 26.2422 5.97917 26.2422 5.79688C26.2422 5.59896 26.2292 5.40885 26.2031 5.22656C26.1823 5.03906 26.1562 4.88021 26.125 4.75C26.1927 4.77604 26.3255 4.80208 26.5234 4.82812C26.7214 4.85417 26.9531 4.8776 27.2188 4.89844C27.4896 4.91406 27.7812 4.92969 28.0938 4.94531C28.4062 4.96094 28.7135 4.97656 29.0156 4.99219C29.3177 5.0026 29.599 5.01042 29.8594 5.01562C30.125 5.02083 30.3438 5.02344 30.5156 5.02344C30.9688 5.02344 31.4271 5.02083 31.8906 5.01562C32.3594 5.00521 32.7943 4.98958 33.1953 4.96875C33.5964 4.94792 33.9479 4.91927 34.25 4.88281C34.5521 4.84635 34.7656 4.80208 34.8906 4.75C34.8958 4.85938 34.9427 4.97656 35.0312 5.10156C35.125 5.22135 35.2422 5.34375 35.3828 5.46875C35.5234 5.58854 35.6849 5.70573 35.8672 5.82031C36.0495 5.9349 36.2318 6.03906 36.4141 6.13281C36.5964 6.22135 36.7734 6.29427 36.9453 6.35156C37.1224 6.40365 37.276 6.43229 37.4062 6.4375C37.3802 6.59375 37.3594 6.7526 37.3438 6.91406C37.3333 7.07552 37.3281 7.23698 37.3281 7.39844C37.3281 7.7474 37.3542 8.08594 37.4062 8.41406C37.4635 8.73698 37.5365 9.03125 37.625 9.29688C37.7188 9.55729 37.8255 9.77344 37.9453 9.94531C38.0651 10.1172 38.1927 10.2214 38.3281 10.2578C38.1875 10.2891 38.0547 10.388 37.9297 10.5547C37.8099 10.7214 37.7031 10.9375 37.6094 11.2031C37.5208 11.4635 37.4505 11.7656 37.3984 12.1094C37.3516 12.4531 37.3281 12.8151 37.3281 13.1953C37.3281 13.3776 37.3333 13.5625 37.3438 13.75C37.3594 13.9375 37.3802 14.125 37.4062 14.3125C37.2708 14.3177 37.1172 14.3464 36.9453 14.3984C36.7786 14.4505 36.6042 14.5208 36.4219 14.6094C36.2448 14.6927 36.0677 14.7891 35.8906 14.8984C35.7188 15.0078 35.5625 15.125 35.4219 15.25C35.2812 15.375 35.1615 15.5026 35.0625 15.6328C34.9688 15.7578 34.9115 15.8802 34.8906 16C34.7656 15.9635 34.5521 15.9323 34.25 15.9062C33.9479 15.8802 33.5964 15.8594 33.1953 15.8438C32.7943 15.8281 32.3594 15.8177 31.8906 15.8125C31.4271 15.8073 30.9688 15.8047 30.5156 15.8047C30.3438 15.8047 30.125 15.8073 29.8594 15.8125C29.599 15.8125 29.3177 15.8177 29.0156 15.8281C28.7135 15.8333 28.4062 15.8438 28.0938 15.8594C27.7812 15.8698 27.4896 15.8828 27.2188 15.8984C26.9479 15.9089 26.7135 15.9245 26.5156 15.9453C26.3229 15.9609 26.1927 15.9792 26.125 16ZM30.7109 14.1094C30.9297 14.1667 31.1641 14.2109 31.4141 14.2422C31.6693 14.2682 31.9219 14.2812 32.1719 14.2812C32.5156 14.2812 32.8307 14.2031 33.1172 14.0469C33.4089 13.8906 33.6615 13.6432 33.875 13.3047C34.0885 12.9661 34.2552 12.5312 34.375 12C34.4948 11.4635 34.5547 10.8203 34.5547 10.0703C34.5547 8.91927 34.362 8.04427 33.9766 7.44531C33.5964 6.84635 33.0208 6.54688 32.25 6.54688C32.1354 6.54688 32.0104 6.55208 31.875 6.5625C31.7396 6.56771 31.6042 6.58073 31.4688 6.60156C31.3333 6.61719 31.1979 6.64062 31.0625 6.67188C30.9323 6.69792 30.8125 6.73177 30.7031 6.77344C30.6719 7.02344 30.6484 7.38021 30.6328 7.84375C30.6224 8.30208 30.6172 8.8125 30.6172 9.375C30.6172 9.8125 30.6198 10.263 30.625 10.7266C30.6302 11.1849 30.638 11.6276 30.6484 12.0547C30.6589 12.4766 30.6693 12.8672 30.6797 13.2266C30.6901 13.5807 30.7005 13.875 30.7109 14.1094ZM39.5078 14.7031C39.612 14.5781 39.6927 14.4036 39.75 14.1797C39.8073 13.9557 39.849 13.7135 39.875 13.4531C39.9062 13.1875 39.9245 12.9219 39.9297 12.6562C39.9401 12.3906 39.9453 12.1562 39.9453 11.9531C39.9453 11.7396 39.9375 11.4974 39.9219 11.2266C39.9062 10.9557 39.8802 10.6927 39.8438 10.4375C39.8125 10.1771 39.7682 9.94271 39.7109 9.73438C39.6589 9.52604 39.5938 9.375 39.5156 9.28125C39.7448 9.28125 39.9974 9.22396 40.2734 9.10938C40.5495 8.98958 40.8099 8.84375 41.0547 8.67188C41.3047 8.49479 41.5208 8.30729 41.7031 8.10938C41.8854 7.91146 42 7.72917 42.0469 7.5625C42.3333 7.66146 42.6719 7.73177 43.0625 7.77344C43.4531 7.8151 43.9375 7.83594 44.5156 7.83594C44.9219 7.83594 45.2578 7.8125 45.5234 7.76562C45.7891 7.71875 46.0052 7.65104 46.1719 7.5625C46.2604 7.74479 46.4062 7.90885 46.6094 8.05469C46.8177 8.20052 47.0417 8.32552 47.2812 8.42969C47.526 8.53385 47.7682 8.61719 48.0078 8.67969C48.2526 8.73698 48.4531 8.76823 48.6094 8.77344C48.5677 8.86198 48.5286 8.95833 48.4922 9.0625C48.4609 9.16667 48.4323 9.28906 48.4062 9.42969C48.3854 9.57031 48.3672 9.73698 48.3516 9.92969C48.3411 10.1172 48.3359 10.3385 48.3359 10.5938C48.3359 10.7708 48.3385 10.9427 48.3438 11.1094C48.3542 11.276 48.3672 11.4297 48.3828 11.5703C48.3984 11.7109 48.4141 11.8359 48.4297 11.9453C48.4505 12.0495 48.4714 12.1276 48.4922 12.1797C48.362 12.1693 48.1875 12.1615 47.9688 12.1562C47.75 12.1458 47.5104 12.138 47.25 12.1328C46.9896 12.1224 46.7161 12.1172 46.4297 12.1172C46.1484 12.112 45.8802 12.1094 45.625 12.1094C45.3229 12.1094 45.0208 12.112 44.7188 12.1172C44.4219 12.1172 44.1146 12.1172 43.7969 12.1172C43.5312 12.1172 43.3203 12.1406 43.1641 12.1875C43.0078 12.2344 42.888 12.2995 42.8047 12.3828C42.7266 12.4609 42.6745 12.5573 42.6484 12.6719C42.6276 12.7865 42.6172 12.9115 42.6172 13.0469C42.6172 13.25 42.6667 13.4349 42.7656 13.6016C42.8646 13.7682 43 13.9115 43.1719 14.0312C43.3438 14.1458 43.5469 14.237 43.7812 14.3047C44.0156 14.3672 44.2656 14.3984 44.5312 14.3984C44.75 14.3984 44.9245 14.3672 45.0547 14.3047C45.1849 14.237 45.2839 14.1484 45.3516 14.0391C45.4245 13.9297 45.4714 13.8021 45.4922 13.6562C45.513 13.5104 45.5234 13.3542 45.5234 13.1875C45.5859 13.2083 45.6797 13.2266 45.8047 13.2422C45.9297 13.2578 46.0651 13.2708 46.2109 13.2812C46.3568 13.2865 46.5026 13.2917 46.6484 13.2969C46.7995 13.3021 46.9297 13.3047 47.0391 13.3047C47.1484 13.3047 47.2734 13.3021 47.4141 13.2969C47.5547 13.2917 47.6927 13.2865 47.8281 13.2812C47.9688 13.2708 48.099 13.2578 48.2188 13.2422C48.3385 13.2266 48.4349 13.2083 48.5078 13.1875C48.4974 13.2448 48.4844 13.3229 48.4688 13.4219C48.4583 13.5156 48.4479 13.6172 48.4375 13.7266C48.4323 13.8359 48.4271 13.9453 48.4219 14.0547C48.4167 14.1641 48.4141 14.2552 48.4141 14.3281C48.4141 14.5833 48.4219 14.7891 48.4375 14.9453C48.4583 15.0964 48.4896 15.2318 48.5312 15.3516H48.3906C48.1771 15.3516 47.9583 15.3724 47.7344 15.4141C47.5104 15.4505 47.2943 15.5026 47.0859 15.5703C46.8776 15.6328 46.6823 15.7083 46.5 15.7969C46.3177 15.8854 46.1615 15.9792 46.0312 16.0781C45.9583 16.0312 45.8568 15.9922 45.7266 15.9609C45.6016 15.9245 45.4609 15.8958 45.3047 15.875C45.1536 15.849 44.9922 15.8307 44.8203 15.8203C44.6536 15.8099 44.4922 15.8047 44.3359 15.8047C44.1484 15.8047 43.9531 15.8125 43.75 15.8281C43.5469 15.8438 43.3516 15.8672 43.1641 15.8984C42.9818 15.9245 42.8151 15.9531 42.6641 15.9844C42.513 16.0156 42.3958 16.0469 42.3125 16.0781C42.2656 15.9427 42.1432 15.7943 41.9453 15.6328C41.7526 15.4714 41.526 15.3229 41.2656 15.1875C41.0052 15.0469 40.7292 14.9297 40.4375 14.8359C40.1458 14.7422 39.8802 14.6953 39.6406 14.6953C39.6146 14.6953 39.5911 14.6979 39.5703 14.7031C39.5495 14.7031 39.5286 14.7031 39.5078 14.7031ZM44.7031 10.7031C44.9115 10.7031 45.0755 10.6953 45.1953 10.6797C45.3203 10.6641 45.4141 10.6328 45.4766 10.5859C45.5443 10.5391 45.5859 10.4766 45.6016 10.3984C45.6224 10.3151 45.6328 10.2057 45.6328 10.0703C45.6328 9.82031 45.526 9.61719 45.3125 9.46094C45.099 9.30469 44.7656 9.22656 44.3125 9.22656C44.0312 9.22656 43.7891 9.25 43.5859 9.29688C43.3828 9.34375 43.2109 9.42448 43.0703 9.53906C42.9349 9.65365 42.8307 9.80469 42.7578 9.99219C42.6849 10.1797 42.6406 10.4167 42.625 10.7031H44.7031ZM50.2266 15.8281C50.2682 15.7188 50.2995 15.5547 50.3203 15.3359C50.3464 15.112 50.3594 14.8646 50.3594 14.5938C50.3594 14.375 50.3464 14.1536 50.3203 13.9297C50.2943 13.7057 50.263 13.5234 50.2266 13.3828C50.2891 13.4141 50.3776 13.4427 50.4922 13.4688C50.612 13.4896 50.7422 13.5104 50.8828 13.5312C51.0286 13.5469 51.1797 13.5599 51.3359 13.5703C51.4974 13.5755 51.651 13.5781 51.7969 13.5781C52.0781 13.5781 52.3385 13.5625 52.5781 13.5312C52.8229 13.4948 53.0182 13.4453 53.1641 13.3828C53.1641 13.5339 53.1849 13.6771 53.2266 13.8125C53.2734 13.9427 53.3438 14.0599 53.4375 14.1641C53.5365 14.263 53.6615 14.3438 53.8125 14.4062C53.9688 14.4635 54.1536 14.4922 54.3672 14.4922C54.6484 14.4922 54.8724 14.4375 55.0391 14.3281C55.2109 14.2188 55.2969 14.0391 55.2969 13.7891C55.2969 13.5911 55.2292 13.4193 55.0938 13.2734C54.9635 13.1276 54.7786 13.0078 54.5391 12.9141C54.3047 12.8151 54.0234 12.7422 53.6953 12.6953C53.3672 12.6484 53.0104 12.625 52.625 12.625C52.5052 12.625 52.3724 12.6276 52.2266 12.6328C52.0859 12.6328 51.9479 12.638 51.8125 12.6484C51.6771 12.6589 51.5521 12.6745 51.4375 12.6953C51.3281 12.7109 51.2474 12.7318 51.1953 12.7578C51.1953 12.6224 51.1458 12.4792 51.0469 12.3281C50.9531 12.1771 50.8385 12.0365 50.7031 11.9062C50.5677 11.776 50.4245 11.6641 50.2734 11.5703C50.1276 11.4766 50.0026 11.4193 49.8984 11.3984C49.9401 11.3516 49.9766 11.2865 50.0078 11.2031C50.0391 11.1198 50.0651 11.026 50.0859 10.9219C50.1068 10.8125 50.1224 10.7005 50.1328 10.5859C50.1432 10.4661 50.1484 10.3516 50.1484 10.2422C50.1484 10.0078 50.1276 9.77865 50.0859 9.55469C50.0495 9.32552 49.987 9.14323 49.8984 9.00781C50.0859 8.97135 50.2734 8.90885 50.4609 8.82031C50.6484 8.72656 50.8229 8.61719 50.9844 8.49219C51.151 8.36198 51.2969 8.21875 51.4219 8.0625C51.5521 7.90104 51.6484 7.73438 51.7109 7.5625C51.763 7.59375 51.8672 7.625 52.0234 7.65625C52.1797 7.6875 52.3646 7.71615 52.5781 7.74219C52.7917 7.76823 53.0208 7.78906 53.2656 7.80469C53.5104 7.82031 53.7474 7.82812 53.9766 7.82812C54.3984 7.82812 54.7344 7.79167 54.9844 7.71875C55.2344 7.64583 55.3932 7.54167 55.4609 7.40625C55.5339 7.50521 55.6432 7.59375 55.7891 7.67188C55.9401 7.74479 56.1042 7.80729 56.2812 7.85938C56.4635 7.90625 56.651 7.94271 56.8438 7.96875C57.0365 7.98958 57.2188 8 57.3906 8C57.4948 8 57.5885 7.99479 57.6719 7.98438C57.7604 7.97396 57.8385 7.96094 57.9062 7.94531C57.8906 8.05469 57.875 8.15625 57.8594 8.25C57.849 8.33854 57.8385 8.42708 57.8281 8.51562C57.8229 8.59896 57.8177 8.6849 57.8125 8.77344C57.8073 8.86198 57.8047 8.95833 57.8047 9.0625C57.8047 9.26042 57.8099 9.45573 57.8203 9.64844C57.8359 9.84115 57.8646 10.013 57.9062 10.1641C57.8177 10.1068 57.6667 10.0677 57.4531 10.0469C57.2448 10.0208 57.0078 10.0078 56.7422 10.0078C56.5964 10.0078 56.4453 10.013 56.2891 10.0234C56.138 10.0286 55.9948 10.0391 55.8594 10.0547C55.7292 10.0651 55.612 10.0807 55.5078 10.1016C55.4089 10.1172 55.3385 10.138 55.2969 10.1641C55.2969 9.82031 55.1771 9.55208 54.9375 9.35938C54.6979 9.16146 54.3802 9.0625 53.9844 9.0625C53.6562 9.0625 53.4245 9.1224 53.2891 9.24219C53.1589 9.35677 53.0938 9.5026 53.0938 9.67969C53.0938 9.85156 53.1797 10.0156 53.3516 10.1719C53.5286 10.3281 53.7604 10.4661 54.0469 10.5859C54.3333 10.7005 54.6562 10.7917 55.0156 10.8594C55.375 10.9271 55.7422 10.9609 56.1172 10.9609C56.2109 10.9609 56.3047 10.9583 56.3984 10.9531C56.4974 10.9479 56.5911 10.9401 56.6797 10.9297C56.7682 10.9193 56.849 10.9062 56.9219 10.8906C57 10.8698 57.0625 10.8464 57.1094 10.8203C57.125 10.9766 57.1823 11.1302 57.2812 11.2812C57.3854 11.4323 57.5052 11.5729 57.6406 11.7031C57.7812 11.8333 57.9219 11.9479 58.0625 12.0469C58.2083 12.1406 58.3333 12.2083 58.4375 12.25C58.3698 12.3542 58.3151 12.513 58.2734 12.7266C58.237 12.9349 58.2188 13.1589 58.2188 13.3984C58.2188 13.6172 58.2344 13.8281 58.2656 14.0312C58.2969 14.2292 58.3542 14.3854 58.4375 14.5C58.25 14.5521 58.0651 14.6224 57.8828 14.7109C57.7057 14.7995 57.5391 14.9036 57.3828 15.0234C57.2266 15.1432 57.0833 15.2786 56.9531 15.4297C56.8281 15.5755 56.7266 15.7344 56.6484 15.9062C56.4401 15.8333 56.1484 15.7708 55.7734 15.7188C55.3984 15.6667 54.9661 15.6406 54.4766 15.6406C54.2578 15.6406 54.0703 15.6484 53.9141 15.6641C53.7578 15.6797 53.625 15.7031 53.5156 15.7344C53.4062 15.7604 53.3151 15.7943 53.2422 15.8359C53.1693 15.8776 53.1094 15.9271 53.0625 15.9844C52.9844 15.9375 52.8854 15.8984 52.7656 15.8672C52.651 15.8307 52.5208 15.8021 52.375 15.7812C52.2344 15.7604 52.0859 15.7448 51.9297 15.7344C51.7786 15.724 51.6302 15.7188 51.4844 15.7188C51.2188 15.7188 50.9766 15.724 50.7578 15.7344C50.5391 15.7448 50.362 15.776 50.2266 15.8281ZM59.6641 6.74219C59.6953 6.6849 59.724 6.59896 59.75 6.48438C59.7812 6.36979 59.8047 6.23698 59.8203 6.08594C59.8411 5.9349 59.8568 5.77344 59.8672 5.60156C59.8828 5.42448 59.8906 5.24479 59.8906 5.0625C59.8906 4.89583 59.8828 4.73438 59.8672 4.57812C59.8568 4.41667 59.8411 4.26823 59.8203 4.13281C59.7995 3.99219 59.7734 3.86719 59.7422 3.75781C59.7161 3.64844 59.6875 3.5625 59.6562 3.5C59.75 3.53125 59.8724 3.5625 60.0234 3.59375C60.1797 3.61979 60.3516 3.64323 60.5391 3.66406C60.7318 3.6849 60.9323 3.70312 61.1406 3.71875C61.3542 3.72917 61.5625 3.73438 61.7656 3.73438C61.9531 3.73438 62.1562 3.73177 62.375 3.72656C62.599 3.71615 62.8125 3.70052 63.0156 3.67969C63.224 3.65885 63.4115 3.63542 63.5781 3.60938C63.7448 3.57812 63.8698 3.54167 63.9531 3.5C63.9219 3.56771 63.8932 3.65625 63.8672 3.76562C63.8464 3.875 63.8255 4 63.8047 4.14062C63.7891 4.27604 63.776 4.42448 63.7656 4.58594C63.7604 4.74219 63.7578 4.90104 63.7578 5.0625C63.7578 5.22917 63.7604 5.39323 63.7656 5.55469C63.776 5.71615 63.7891 5.8724 63.8047 6.02344C63.8255 6.16927 63.8464 6.30469 63.8672 6.42969C63.8932 6.55469 63.9219 6.65885 63.9531 6.74219C63.8698 6.71615 63.7474 6.69531 63.5859 6.67969C63.4297 6.65885 63.25 6.64323 63.0469 6.63281C62.849 6.61719 62.6406 6.60677 62.4219 6.60156C62.2031 6.59115 61.9922 6.58594 61.7891 6.58594C61.5859 6.58594 61.3776 6.59115 61.1641 6.60156C60.9505 6.60677 60.7448 6.61719 60.5469 6.63281C60.3542 6.64323 60.1797 6.65885 60.0234 6.67969C59.8672 6.69531 59.7474 6.71615 59.6641 6.74219ZM59.0391 16C59.0807 15.8646 59.1094 15.7031 59.125 15.5156C59.1406 15.3281 59.1484 15.1432 59.1484 14.9609C59.1484 14.7943 59.138 14.6276 59.1172 14.4609C59.0964 14.2943 59.0703 14.1302 59.0391 13.9688C59.3307 13.9688 59.5859 13.9557 59.8047 13.9297C60.0286 13.9036 60.2135 13.8594 60.3594 13.7969C60.5104 13.7292 60.6224 13.6354 60.6953 13.5156C60.7734 13.3958 60.8125 13.2422 60.8125 13.0547V10.8828C60.8073 10.6589 60.7656 10.4818 60.6875 10.3516C60.6146 10.2161 60.5156 10.1146 60.3906 10.0469C60.2656 9.97396 60.1198 9.92708 59.9531 9.90625C59.7917 9.88021 59.6198 9.86719 59.4375 9.86719H59.1875C59.2292 9.76302 59.2656 9.61979 59.2969 9.4375C59.3281 9.25 59.3438 9.05469 59.3438 8.85156C59.3438 8.65365 59.3281 8.46354 59.2969 8.28125C59.2708 8.09375 59.2344 7.94531 59.1875 7.83594C59.6302 7.85677 60.0417 7.8724 60.4219 7.88281C60.8073 7.89323 61.1693 7.89844 61.5078 7.89844C62.138 7.89844 62.6823 7.875 63.1406 7.82812C63.599 7.77604 63.9922 7.6875 64.3203 7.5625C64.2161 7.76562 64.125 7.96094 64.0469 8.14844C63.9688 8.33073 63.901 8.52604 63.8438 8.73438C63.7917 8.9375 63.75 9.16146 63.7188 9.40625C63.6927 9.65104 63.6797 9.93229 63.6797 10.25L63.6719 13.0547C63.6719 13.2422 63.7109 13.3958 63.7891 13.5156C63.8724 13.6354 63.9844 13.7292 64.125 13.7969C64.2656 13.8594 64.4323 13.9036 64.625 13.9297C64.8177 13.9557 65.026 13.9688 65.25 13.9688C65.2188 14.0781 65.1927 14.2135 65.1719 14.375C65.1562 14.5365 65.1484 14.7083 65.1484 14.8906C65.1484 15.0885 65.1536 15.2891 65.1641 15.4922C65.1797 15.6901 65.2083 15.8594 65.25 16C65.1094 15.974 64.9167 15.9505 64.6719 15.9297C64.4271 15.9036 64.1589 15.8828 63.8672 15.8672C63.5807 15.8464 63.2786 15.8307 62.9609 15.8203C62.6484 15.8099 62.3516 15.8047 62.0703 15.8047C61.8203 15.8047 61.5469 15.8099 61.25 15.8203C60.9583 15.8255 60.6693 15.8385 60.3828 15.8594C60.1016 15.875 59.8411 15.8958 59.6016 15.9219C59.362 15.9427 59.1745 15.9688 59.0391 16ZM66.3516 15.9531C66.4922 15.9375 66.6484 15.9141 66.8203 15.8828C66.9922 15.8464 67.1667 15.8021 67.3438 15.75C67.526 15.6927 67.7005 15.625 67.8672 15.5469C68.0339 15.4635 68.1823 15.3672 68.3125 15.2578C68.4479 15.1432 68.5547 15.0156 68.6328 14.875C68.7109 14.7292 68.75 14.5651 68.75 14.3828C68.75 14.2109 68.7083 14.0495 68.625 13.8984C68.5417 13.7422 68.4323 13.6016 68.2969 13.4766C68.1667 13.3464 68.0156 13.2318 67.8438 13.1328C67.6719 13.0339 67.4948 12.9505 67.3125 12.8828C67.1354 12.8151 66.9635 12.763 66.7969 12.7266C66.6302 12.6901 66.4818 12.6719 66.3516 12.6719C66.4141 12.6094 66.4688 12.5234 66.5156 12.4141C66.5625 12.2995 66.599 12.1719 66.625 12.0312C66.651 11.8854 66.6693 11.7292 66.6797 11.5625C66.6953 11.3906 66.7031 11.2161 66.7031 11.0391C66.7031 10.8516 66.6953 10.6693 66.6797 10.4922C66.6641 10.3099 66.6406 10.1406 66.6094 9.98438C66.5833 9.82812 66.5469 9.69271 66.5 9.57812C66.4583 9.45833 66.4089 9.36979 66.3516 9.3125C66.5651 9.27083 66.7995 9.19271 67.0547 9.07812C67.3099 8.95833 67.5521 8.81771 67.7812 8.65625C68.0156 8.49479 68.2188 8.32031 68.3906 8.13281C68.5625 7.9401 68.6719 7.75 68.7188 7.5625C68.8333 7.60938 68.9844 7.65104 69.1719 7.6875C69.3646 7.71875 69.5781 7.7474 69.8125 7.77344C70.0469 7.79427 70.2917 7.8099 70.5469 7.82031C70.8073 7.83073 71.0651 7.83594 71.3203 7.83594C71.5182 7.83594 71.7161 7.83333 71.9141 7.82812C72.112 7.82292 72.3021 7.8125 72.4844 7.79688C72.6771 7.59375 72.8021 7.33333 72.8594 7.01562C72.9167 6.69792 72.9453 6.34375 72.9453 5.95312C72.9453 5.83333 72.9427 5.72656 72.9375 5.63281C72.9375 5.53385 72.9323 5.4401 72.9219 5.35156C72.9167 5.26302 72.9062 5.17448 72.8906 5.08594C72.875 4.9974 72.8568 4.89844 72.8359 4.78906C72.8828 4.8151 72.9661 4.84115 73.0859 4.86719C73.2057 4.88802 73.3516 4.90885 73.5234 4.92969C73.6953 4.94531 73.8854 4.95833 74.0938 4.96875C74.3073 4.97917 74.5312 4.98438 74.7656 4.98438C74.8854 4.98438 75.0286 4.98177 75.1953 4.97656C75.3672 4.96615 75.5417 4.95312 75.7188 4.9375C75.8958 4.91667 76.0625 4.89583 76.2188 4.875C76.375 4.84896 76.4974 4.82031 76.5859 4.78906C76.5547 4.84635 76.5234 4.92708 76.4922 5.03125C76.4661 5.13542 76.4427 5.2526 76.4219 5.38281C76.401 5.50781 76.3828 5.64062 76.3672 5.78125C76.3568 5.91667 76.3516 6.04167 76.3516 6.15625C76.3516 6.35938 76.3568 6.52865 76.3672 6.66406C76.3776 6.79427 76.3906 6.90885 76.4062 7.00781C76.4219 7.10677 76.4375 7.19531 76.4531 7.27344C76.474 7.35156 76.4922 7.4349 76.5078 7.52344C76.4297 7.50781 76.3359 7.49479 76.2266 7.48438C76.1172 7.46875 76.0052 7.45573 75.8906 7.44531C75.776 7.42969 75.6641 7.41927 75.5547 7.41406C75.4505 7.40885 75.3646 7.40625 75.2969 7.40625C74.9167 7.40625 74.6094 7.47656 74.375 7.61719C74.1458 7.7526 74.0156 7.96875 73.9844 8.26562C74.1094 8.40625 74.2526 8.53906 74.4141 8.66406C74.5807 8.78385 74.7526 8.89062 74.9297 8.98438C75.1068 9.07292 75.2865 9.14583 75.4688 9.20312C75.651 9.26042 75.8281 9.29688 76 9.3125C75.9427 9.375 75.8906 9.46615 75.8438 9.58594C75.8021 9.70573 75.7656 9.84375 75.7344 10C75.7083 10.151 75.6875 10.3177 75.6719 10.5C75.6562 10.6771 75.6484 10.8568 75.6484 11.0391C75.6484 11.2161 75.6562 11.3906 75.6719 11.5625C75.6875 11.7292 75.7083 11.8854 75.7344 12.0312C75.7656 12.1719 75.8047 12.2995 75.8516 12.4141C75.8984 12.5234 75.9531 12.6094 76.0156 12.6719C75.9688 12.6615 75.9167 12.6562 75.8594 12.6562C75.8021 12.651 75.75 12.6484 75.7031 12.6484C75.4583 12.6484 75.2109 12.7005 74.9609 12.8047C74.7109 12.9036 74.4844 13.0286 74.2812 13.1797C74.0833 13.3307 73.9193 13.4948 73.7891 13.6719C73.6589 13.849 73.5885 14.013 73.5781 14.1641C73.5104 14.0911 73.4062 14.0286 73.2656 13.9766C73.125 13.9245 72.9635 13.8828 72.7812 13.8516C72.599 13.8203 72.3984 13.7995 72.1797 13.7891C71.9661 13.7734 71.75 13.7656 71.5312 13.7656C71.3385 13.7656 71.1823 13.7812 71.0625 13.8125C70.9427 13.8385 70.849 13.8776 70.7812 13.9297C70.7135 13.9766 70.6667 14.0312 70.6406 14.0938C70.6198 14.1562 70.6094 14.2214 70.6094 14.2891C70.6094 14.388 70.6276 14.474 70.6641 14.5469C70.7057 14.6198 70.7708 14.6797 70.8594 14.7266C70.9479 14.7734 71.0677 14.8099 71.2188 14.8359C71.3698 14.8568 71.5573 14.8672 71.7812 14.8672C72.0312 14.8672 72.2917 14.8594 72.5625 14.8438C72.8385 14.8281 73.0964 14.8047 73.3359 14.7734C73.5807 14.7422 73.7969 14.7031 73.9844 14.6562C74.1719 14.6042 74.3073 14.5443 74.3906 14.4766C74.4531 14.6589 74.5755 14.8411 74.7578 15.0234C74.9401 15.2057 75.1458 15.3724 75.375 15.5234C75.6094 15.6745 75.849 15.7969 76.0938 15.8906C76.3438 15.9844 76.5651 16.0312 76.7578 16.0312C76.7005 16.0833 76.651 16.1615 76.6094 16.2656C76.5677 16.375 76.5339 16.4974 76.5078 16.6328C76.4818 16.7734 76.4609 16.9193 76.4453 17.0703C76.4349 17.2266 76.4297 17.3776 76.4297 17.5234C76.4297 17.6745 76.4375 17.8229 76.4531 17.9688C76.4688 18.1198 76.4896 18.2578 76.5156 18.3828C76.5469 18.513 76.5833 18.625 76.625 18.7188C76.6667 18.8125 76.7135 18.8802 76.7656 18.9219C76.5312 18.9219 76.2865 18.9609 76.0312 19.0391C75.7812 19.1224 75.5417 19.2292 75.3125 19.3594C75.0885 19.4948 74.8906 19.6432 74.7188 19.8047C74.5469 19.9714 74.4271 20.1354 74.3594 20.2969C74.2865 20.2656 74.1615 20.2318 73.9844 20.1953C73.8073 20.1641 73.5964 20.1328 73.3516 20.1016C73.1068 20.0703 72.8385 20.0443 72.5469 20.0234C72.2604 20.0078 71.9688 20 71.6719 20C71.3594 20 71.0469 20.0052 70.7344 20.0156C70.4219 20.0312 70.1302 20.0521 69.8594 20.0781C69.5938 20.1042 69.362 20.1354 69.1641 20.1719C68.9661 20.2083 68.8281 20.25 68.75 20.2969C68.7188 20.151 68.612 19.9974 68.4297 19.8359C68.2474 19.6745 68.0339 19.526 67.7891 19.3906C67.5443 19.2552 67.2891 19.1432 67.0234 19.0547C66.763 18.9661 66.5365 18.9219 66.3438 18.9219C66.401 18.8802 66.4505 18.8073 66.4922 18.7031C66.5391 18.599 66.5781 18.4766 66.6094 18.3359C66.6406 18.1953 66.6641 18.0469 66.6797 17.8906C66.6953 17.7344 66.7031 17.5859 66.7031 17.4453C66.7031 17.3099 66.6953 17.1641 66.6797 17.0078C66.6641 16.8516 66.6406 16.7031 66.6094 16.5625C66.5833 16.4219 66.5469 16.2969 66.5 16.1875C66.4583 16.0781 66.4089 16 66.3516 15.9531ZM69.7188 10.8281C69.7188 11.125 69.7552 11.3724 69.8281 11.5703C69.901 11.7682 70 11.9271 70.125 12.0469C70.2552 12.1615 70.4062 12.2448 70.5781 12.2969C70.7552 12.3438 70.9427 12.3672 71.1406 12.3672C71.3385 12.3672 71.5234 12.3438 71.6953 12.2969C71.8724 12.2448 72.0234 12.1615 72.1484 12.0469C72.2786 11.9271 72.3802 11.7682 72.4531 11.5703C72.526 11.3724 72.5625 11.125 72.5625 10.8281C72.5625 10.5312 72.526 10.2839 72.4531 10.0859C72.3802 9.88802 72.2786 9.73177 72.1484 9.61719C72.0234 9.4974 71.8724 9.41406 71.6953 9.36719C71.5234 9.3151 71.3385 9.28906 71.1406 9.28906C70.9427 9.28906 70.7552 9.3151 70.5781 9.36719C70.4062 9.41406 70.2552 9.4974 70.125 9.61719C70 9.73177 69.901 9.88802 69.8281 10.0859C69.7552 10.2839 69.7188 10.5312 69.7188 10.8281ZM69.8594 17.4219C69.8594 17.8125 69.9948 18.1146 70.2656 18.3281C70.5417 18.5417 70.9479 18.6484 71.4844 18.6484C72.0208 18.6484 72.4245 18.5417 72.6953 18.3281C72.9714 18.1146 73.1094 17.8125 73.1094 17.4219C73.1094 17.0312 72.9714 16.7292 72.6953 16.5156C72.4245 16.3021 72.0208 16.1953 71.4844 16.1953C70.9479 16.1953 70.5417 16.3021 70.2656 16.5156C69.9948 16.7292 69.8594 17.0312 69.8594 17.4219ZM78.3984 16C78.4401 15.8646 78.4688 15.7031 78.4844 15.5156C78.5 15.3281 78.5078 15.1432 78.5078 14.9609C78.5078 14.7943 78.4974 14.6276 78.4766 14.4609C78.4557 14.2943 78.4297 14.1302 78.3984 13.9688C78.6901 13.9688 78.9297 13.9557 79.1172 13.9297C79.3099 13.9036 79.4635 13.8594 79.5781 13.7969C79.6927 13.7292 79.7708 13.6354 79.8125 13.5156C79.8594 13.3958 79.8828 13.2422 79.8828 13.0547V10.8828C79.8776 10.6589 79.849 10.4818 79.7969 10.3516C79.7448 10.2161 79.6719 10.1146 79.5781 10.0469C79.4896 9.97396 79.3776 9.92708 79.2422 9.90625C79.112 9.88021 78.9635 9.86719 78.7969 9.86719H78.5547C78.5964 9.76302 78.6328 9.61979 78.6641 9.4375C78.6953 9.25 78.7109 9.05469 78.7109 8.85156C78.7109 8.65365 78.6953 8.46615 78.6641 8.28906C78.638 8.10677 78.6016 7.96094 78.5547 7.85156C78.7474 7.8776 78.9844 7.89844 79.2656 7.91406C79.5469 7.92969 79.8438 7.9375 80.1562 7.9375C80.3854 7.9375 80.6146 7.93229 80.8438 7.92188C81.0781 7.91146 81.3047 7.89583 81.5234 7.875C81.7422 7.84896 81.9479 7.81771 82.1406 7.78125C82.3333 7.74479 82.5052 7.69792 82.6562 7.64062C82.6198 7.74479 82.5938 7.85156 82.5781 7.96094C82.5677 8.0651 82.5625 8.17188 82.5625 8.28125C82.5625 8.43229 82.5729 8.58073 82.5938 8.72656C82.6146 8.8724 82.638 9.01562 82.6641 9.15625C82.8932 9.08333 83.0807 8.98177 83.2266 8.85156C83.3776 8.71615 83.4974 8.57292 83.5859 8.42188C83.6797 8.27083 83.75 8.11979 83.7969 7.96875C83.849 7.8125 83.8906 7.67708 83.9219 7.5625C83.9896 7.60417 84.0911 7.64323 84.2266 7.67969C84.3672 7.71094 84.526 7.73958 84.7031 7.76562C84.8854 7.78646 85.0781 7.80469 85.2812 7.82031C85.4844 7.83073 85.6823 7.83594 85.875 7.83594C86.0469 7.83594 86.2214 7.83073 86.3984 7.82031C86.5755 7.8099 86.7422 7.79427 86.8984 7.77344C87.0547 7.7474 87.1953 7.71875 87.3203 7.6875C87.4453 7.65104 87.5391 7.60938 87.6016 7.5625C87.7682 8.00521 87.9766 8.38021 88.2266 8.6875C88.4818 8.99479 88.8203 9.21094 89.2422 9.33594C89.1589 9.4401 89.0859 9.55208 89.0234 9.67188C88.9609 9.79167 88.9062 9.92969 88.8594 10.0859C88.8177 10.237 88.7865 10.4115 88.7656 10.6094C88.7448 10.8073 88.7344 11.0365 88.7344 11.2969V13.0547C88.7344 13.2422 88.7604 13.3958 88.8125 13.5156C88.8698 13.6354 88.9531 13.7292 89.0625 13.7969C89.1771 13.8594 89.3229 13.9036 89.5 13.9297C89.6823 13.9557 89.8984 13.9688 90.1484 13.9688C90.1328 14.0312 90.1172 14.0964 90.1016 14.1641C90.0859 14.2318 90.0729 14.3099 90.0625 14.3984C90.0521 14.4818 90.0417 14.5807 90.0312 14.6953C90.026 14.8047 90.0234 14.9349 90.0234 15.0859C90.0234 15.237 90.0312 15.401 90.0469 15.5781C90.0677 15.7552 90.1016 15.8958 90.1484 16C89.987 15.974 89.7943 15.9505 89.5703 15.9297C89.3516 15.9036 89.1146 15.8828 88.8594 15.8672C88.6094 15.8464 88.3464 15.8307 88.0703 15.8203C87.7995 15.8099 87.5312 15.8047 87.2656 15.8047C87.0521 15.8047 86.8307 15.8099 86.6016 15.8203C86.3776 15.8255 86.1589 15.8385 85.9453 15.8594C85.7318 15.875 85.5312 15.8958 85.3438 15.9219C85.1615 15.9427 85.0078 15.9688 84.8828 16C84.8984 15.9375 84.9115 15.8646 84.9219 15.7812C84.9375 15.6979 84.9479 15.6068 84.9531 15.5078C84.9635 15.4089 84.9714 15.3073 84.9766 15.2031C84.9818 15.099 84.9844 15 84.9844 14.9062C84.9844 14.8542 84.9818 14.7839 84.9766 14.6953C84.9714 14.6068 84.9635 14.5182 84.9531 14.4297C84.9479 14.3359 84.9375 14.2474 84.9219 14.1641C84.9115 14.0807 84.8984 14.0156 84.8828 13.9688C85.0599 13.9688 85.2057 13.9609 85.3203 13.9453C85.4401 13.9245 85.5365 13.8828 85.6094 13.8203C85.6823 13.7578 85.7344 13.6667 85.7656 13.5469C85.7969 13.4219 85.8125 13.2578 85.8125 13.0547V11.4297C85.8125 11.2266 85.7917 11.0339 85.75 10.8516C85.7083 10.6693 85.6432 10.5104 85.5547 10.375C85.4714 10.2344 85.362 10.125 85.2266 10.0469C85.0911 9.96354 84.9271 9.92188 84.7344 9.92188C84.6042 9.92188 84.4297 9.94531 84.2109 9.99219C83.9974 10.0339 83.7839 10.1094 83.5703 10.2188C83.362 10.3229 83.1797 10.4661 83.0234 10.6484C82.8724 10.8255 82.7969 11.0469 82.7969 11.3125H82.7891L82.7969 13.0547C82.7969 13.3932 82.901 13.6302 83.1094 13.7656C83.3177 13.901 83.6094 13.9688 83.9844 13.9688C83.9531 14.0781 83.9271 14.2135 83.9062 14.375C83.8906 14.5365 83.8828 14.7083 83.8828 14.8906C83.8828 15.0885 83.8906 15.2891 83.9062 15.4922C83.9219 15.6901 83.9479 15.8594 83.9844 16C83.651 15.9479 83.2552 15.9036 82.7969 15.8672C82.3385 15.8255 81.7786 15.8047 81.1172 15.8047C80.8672 15.8047 80.6094 15.8099 80.3438 15.8203C80.0833 15.8255 79.8307 15.8385 79.5859 15.8594C79.3464 15.875 79.1224 15.8958 78.9141 15.9219C78.7057 15.9427 78.5339 15.9688 78.3984 16ZM91.4531 13.9062C91.5521 13.7708 91.6432 13.4948 91.7266 13.0781C91.8099 12.6562 91.8516 12.0833 91.8516 11.3594C91.8516 11.0312 91.8073 10.7812 91.7188 10.6094C91.6302 10.4323 91.5026 10.3151 91.3359 10.2578C91.4297 10.2318 91.5104 10.1719 91.5781 10.0781C91.6458 9.98438 91.7031 9.86979 91.75 9.73438C91.7969 9.59896 91.8307 9.45052 91.8516 9.28906C91.8724 9.1224 91.8828 8.95312 91.8828 8.78125C91.8828 8.33333 91.8438 7.9375 91.7656 7.59375C91.6927 7.24479 91.5885 6.99479 91.4531 6.84375H91.5156C91.6875 6.84375 91.8802 6.80469 92.0938 6.72656C92.3073 6.64844 92.5234 6.54688 92.7422 6.42188C92.9609 6.29167 93.1719 6.14844 93.375 5.99219C93.5833 5.83073 93.7682 5.66667 93.9297 5.5C94.0964 5.33333 94.2318 5.17188 94.3359 5.01562C94.4401 4.85417 94.4974 4.71354 94.5078 4.59375C94.6797 4.6875 94.9792 4.78385 95.4062 4.88281C95.8385 4.97656 96.4062 5.02344 97.1094 5.02344C97.276 5.02344 97.4531 5.01302 97.6406 4.99219C97.8333 4.97135 98.0182 4.94271 98.1953 4.90625C98.3776 4.86458 98.5469 4.81771 98.7031 4.76562C98.8594 4.71354 98.987 4.65625 99.0859 4.59375C99.138 4.75521 99.2161 4.92188 99.3203 5.09375C99.4245 5.26042 99.5521 5.40365 99.7031 5.52344C99.849 5.40885 99.9531 5.27865 100.016 5.13281C100.083 4.98698 100.13 4.85938 100.156 4.75C100.203 4.77604 100.276 4.79948 100.375 4.82031C100.474 4.83594 100.589 4.85156 100.719 4.86719C100.849 4.8776 100.99 4.88802 101.141 4.89844C101.292 4.90365 101.445 4.90625 101.602 4.90625C101.695 4.90625 101.805 4.90365 101.93 4.89844C102.055 4.88802 102.18 4.8776 102.305 4.86719C102.435 4.85156 102.56 4.83594 102.68 4.82031C102.799 4.79948 102.904 4.77604 102.992 4.75C102.982 4.79167 102.964 4.8724 102.938 4.99219C102.917 5.11198 102.896 5.25 102.875 5.40625C102.854 5.5625 102.836 5.72917 102.82 5.90625C102.805 6.08333 102.797 6.2526 102.797 6.41406C102.797 6.7474 102.805 7.0625 102.82 7.35938C102.836 7.65625 102.852 7.92448 102.867 8.16406C102.888 8.40365 102.909 8.60938 102.93 8.78125C102.956 8.95312 102.977 9.08073 102.992 9.16406C102.867 9.14323 102.732 9.1276 102.586 9.11719C102.445 9.10156 102.299 9.08854 102.148 9.07812C102.003 9.06771 101.859 9.0599 101.719 9.05469C101.578 9.04948 101.453 9.04688 101.344 9.04688C100.708 9.04688 100.138 9.08594 99.6328 9.16406C99.6328 8.8099 99.5859 8.47396 99.4922 8.15625C99.3984 7.83854 99.263 7.5625 99.0859 7.32812C98.9089 7.08854 98.6901 6.89844 98.4297 6.75781C98.1693 6.61719 97.8724 6.54688 97.5391 6.54688C97.3568 6.54688 97.1745 6.5625 96.9922 6.59375C96.8099 6.625 96.6328 6.6901 96.4609 6.78906C96.2943 6.88281 96.138 7.01823 95.9922 7.19531C95.8516 7.3724 95.7266 7.60938 95.6172 7.90625C95.513 8.19792 95.4297 8.55729 95.3672 8.98438C95.3099 9.41146 95.2812 9.92188 95.2812 10.5156C95.2812 11.2708 95.3385 11.8932 95.4531 12.3828C95.5729 12.8672 95.7344 13.25 95.9375 13.5312C96.1406 13.8125 96.3776 14.0078 96.6484 14.1172C96.9245 14.2266 97.2214 14.2812 97.5391 14.2812C97.8568 14.2812 98.1354 14.2161 98.375 14.0859C98.6198 13.9505 98.8229 13.7656 98.9844 13.5312C99.151 13.2969 99.276 13.0182 99.3594 12.6953C99.4427 12.3724 99.4844 12.0182 99.4844 11.6328C99.4844 11.5859 99.4818 11.5391 99.4766 11.4922C99.4766 11.4453 99.4766 11.3984 99.4766 11.3516C99.6536 11.388 99.8151 11.4193 99.9609 11.4453C100.107 11.4714 100.25 11.4922 100.391 11.5078C100.531 11.5234 100.677 11.5339 100.828 11.5391C100.984 11.5443 101.159 11.5469 101.352 11.5469C101.685 11.5469 101.995 11.5286 102.281 11.4922C102.568 11.4557 102.805 11.4089 102.992 11.3516C102.961 11.4141 102.932 11.5078 102.906 11.6328C102.885 11.7578 102.865 11.901 102.844 12.0625C102.828 12.224 102.815 12.3958 102.805 12.5781C102.799 12.7552 102.797 12.9297 102.797 13.1016C102.797 13.3099 102.815 13.5286 102.852 13.7578C102.893 13.987 102.94 14.2057 102.992 14.4141C102.534 14.4193 102.13 14.4922 101.781 14.6328C101.432 14.7682 101.135 14.9297 100.891 15.1172C100.651 15.2995 100.461 15.4818 100.32 15.6641C100.185 15.8464 100.099 15.9844 100.062 16.0781C99.9531 16.0365 99.8255 16 99.6797 15.9688C99.5339 15.9323 99.362 15.9036 99.1641 15.8828C98.9714 15.8568 98.7474 15.8385 98.4922 15.8281C98.237 15.8125 97.9453 15.8047 97.6172 15.8047C97.2682 15.8047 96.9219 15.8151 96.5781 15.8359C96.2396 15.8516 95.9271 15.8776 95.6406 15.9141C95.3542 15.9453 95.1068 15.9818 94.8984 16.0234C94.6901 16.0651 94.5443 16.1094 94.4609 16.1562C94.3984 15.9167 94.2578 15.6693 94.0391 15.4141C93.8255 15.1589 93.5729 14.9245 93.2812 14.7109C92.9948 14.4974 92.6875 14.3177 92.3594 14.1719C92.0365 14.026 91.7344 13.9375 91.4531 13.9062ZM104.859 14.7031C104.917 14.6198 104.971 14.513 105.023 14.3828C105.076 14.2526 105.12 14.0833 105.156 13.875C105.198 13.6615 105.229 13.401 105.25 13.0938C105.276 12.7812 105.289 12.401 105.289 11.9531C105.289 11.4844 105.276 11.1042 105.25 10.8125C105.229 10.5208 105.198 10.2839 105.156 10.1016C105.12 9.91406 105.076 9.76302 105.023 9.64844C104.971 9.53385 104.919 9.42188 104.867 9.3125C105.076 9.29167 105.312 9.23177 105.578 9.13281C105.844 9.02865 106.099 8.89844 106.344 8.74219C106.594 8.58594 106.815 8.40625 107.008 8.20312C107.201 8 107.328 7.78646 107.391 7.5625C107.484 7.60417 107.62 7.64323 107.797 7.67969C107.974 7.71094 108.18 7.73958 108.414 7.76562C108.648 7.78646 108.904 7.80469 109.18 7.82031C109.456 7.83073 109.742 7.83594 110.039 7.83594C110.31 7.83594 110.573 7.82812 110.828 7.8125C111.083 7.79167 111.318 7.76823 111.531 7.74219C111.745 7.71615 111.93 7.6875 112.086 7.65625C112.242 7.625 112.359 7.59375 112.438 7.5625C112.5 7.78646 112.63 8 112.828 8.20312C113.026 8.40625 113.25 8.58594 113.5 8.74219C113.755 8.89844 114.013 9.02865 114.273 9.13281C114.539 9.23177 114.768 9.29167 114.961 9.3125C114.909 9.41667 114.857 9.52604 114.805 9.64062C114.758 9.75 114.714 9.89844 114.672 10.0859C114.635 10.2682 114.604 10.5052 114.578 10.7969C114.557 11.0833 114.547 11.4557 114.547 11.9141C114.547 12.3672 114.555 12.7526 114.57 13.0703C114.586 13.3828 114.609 13.6458 114.641 13.8594C114.672 14.0729 114.714 14.2448 114.766 14.375C114.823 14.5052 114.891 14.6146 114.969 14.7031C114.839 14.7031 114.69 14.724 114.523 14.7656C114.357 14.8021 114.182 14.8542 114 14.9219C113.823 14.9844 113.646 15.0599 113.469 15.1484C113.297 15.237 113.138 15.3333 112.992 15.4375C112.846 15.5365 112.721 15.6406 112.617 15.75C112.513 15.8594 112.443 15.9688 112.406 16.0781C112.307 16.0417 112.174 16.0078 112.008 15.9766C111.841 15.9453 111.648 15.9167 111.43 15.8906C111.211 15.8646 110.971 15.8438 110.711 15.8281C110.451 15.8125 110.177 15.8047 109.891 15.8047C109.609 15.8047 109.339 15.8125 109.078 15.8281C108.823 15.8438 108.586 15.8646 108.367 15.8906C108.154 15.9115 107.964 15.9401 107.797 15.9766C107.635 16.0078 107.51 16.0417 107.422 16.0781C107.333 15.8854 107.185 15.7057 106.977 15.5391C106.768 15.3724 106.539 15.2266 106.289 15.1016C106.039 14.9766 105.784 14.8802 105.523 14.8125C105.268 14.7396 105.047 14.7031 104.859 14.7031ZM108.414 11.9219C108.414 12.3646 108.44 12.7448 108.492 13.0625C108.549 13.3802 108.641 13.6406 108.766 13.8438C108.891 14.0469 109.052 14.1979 109.25 14.2969C109.448 14.3906 109.69 14.4375 109.977 14.4375C110.279 14.4375 110.526 14.375 110.719 14.25C110.911 14.1198 111.062 13.9427 111.172 13.7188C111.281 13.4948 111.357 13.2292 111.398 12.9219C111.44 12.6146 111.461 12.2812 111.461 11.9219C111.461 11.5625 111.44 11.2318 111.398 10.9297C111.357 10.6224 111.281 10.3594 111.172 10.1406C111.062 9.91667 110.911 9.74479 110.719 9.625C110.526 9.5 110.279 9.4375 109.977 9.4375C109.69 9.4375 109.448 9.48438 109.25 9.57812C109.052 9.67188 108.891 9.82031 108.766 10.0234C108.641 10.2214 108.549 10.4766 108.492 10.7891C108.44 11.1016 108.414 11.4792 108.414 11.9219ZM116.961 16C117.003 15.8646 117.031 15.7031 117.047 15.5156C117.062 15.3281 117.07 15.1432 117.07 14.9609C117.07 14.7943 117.06 14.6276 117.039 14.4609C117.018 14.2943 116.992 14.1302 116.961 13.9688C117.253 13.9688 117.492 13.9557 117.68 13.9297C117.872 13.9036 118.026 13.8594 118.141 13.7969C118.255 13.7292 118.333 13.6354 118.375 13.5156C118.422 13.3958 118.445 13.2422 118.445 13.0547V10.8828C118.44 10.6589 118.411 10.4818 118.359 10.3516C118.307 10.2161 118.234 10.1146 118.141 10.0469C118.052 9.97396 117.94 9.92708 117.805 9.90625C117.674 9.88021 117.526 9.86719 117.359 9.86719H117.117C117.159 9.76302 117.195 9.61979 117.227 9.4375C117.258 9.25 117.273 9.05469 117.273 8.85156C117.273 8.65365 117.258 8.46615 117.227 8.28906C117.201 8.10677 117.164 7.96094 117.117 7.85156C117.31 7.8776 117.547 7.89844 117.828 7.91406C118.109 7.92969 118.406 7.9375 118.719 7.9375C118.948 7.9375 119.177 7.93229 119.406 7.92188C119.641 7.91146 119.867 7.89583 120.086 7.875C120.305 7.84896 120.51 7.81771 120.703 7.78125C120.896 7.74479 121.068 7.69792 121.219 7.64062C121.182 7.74479 121.156 7.85156 121.141 7.96094C121.13 8.0651 121.125 8.17188 121.125 8.28125C121.125 8.42708 121.133 8.57292 121.148 8.71875C121.169 8.85938 121.193 8.9974 121.219 9.13281C121.432 9.05469 121.607 8.95052 121.742 8.82031C121.883 8.6849 121.997 8.54427 122.086 8.39844C122.174 8.2474 122.242 8.09896 122.289 7.95312C122.336 7.80208 122.375 7.67188 122.406 7.5625C122.474 7.60417 122.576 7.64323 122.711 7.67969C122.852 7.71094 123.01 7.73958 123.188 7.76562C123.37 7.78646 123.562 7.80469 123.766 7.82031C123.969 7.83073 124.167 7.83594 124.359 7.83594C124.531 7.83594 124.706 7.83073 124.883 7.82031C125.06 7.8099 125.227 7.79427 125.383 7.77344C125.539 7.7474 125.68 7.71875 125.805 7.6875C125.93 7.65104 126.023 7.60938 126.086 7.5625C126.211 7.90625 126.359 8.20573 126.531 8.46094C126.703 8.71615 126.917 8.92708 127.172 9.09375C127.365 9.01042 127.523 8.90365 127.648 8.77344C127.779 8.64323 127.885 8.50781 127.969 8.36719C128.052 8.22135 128.115 8.07812 128.156 7.9375C128.203 7.79688 128.24 7.67188 128.266 7.5625C128.333 7.60417 128.435 7.64323 128.57 7.67969C128.711 7.71094 128.87 7.73958 129.047 7.76562C129.229 7.78646 129.422 7.80469 129.625 7.82031C129.828 7.83073 130.026 7.83594 130.219 7.83594C130.391 7.83594 130.565 7.83073 130.742 7.82031C130.919 7.8099 131.086 7.79427 131.242 7.77344C131.398 7.7474 131.539 7.71875 131.664 7.6875C131.789 7.65104 131.883 7.60938 131.945 7.5625C132.112 8.00521 132.32 8.38021 132.57 8.6875C132.826 8.99479 133.164 9.21094 133.586 9.33594C133.503 9.4401 133.43 9.55208 133.367 9.67188C133.305 9.79167 133.25 9.92969 133.203 10.0859C133.161 10.237 133.13 10.4115 133.109 10.6094C133.089 10.8073 133.078 11.0365 133.078 11.2969V13.0547C133.078 13.2422 133.099 13.3958 133.141 13.5156C133.188 13.6354 133.263 13.7292 133.367 13.7969C133.477 13.8594 133.615 13.9036 133.781 13.9297C133.953 13.9557 134.164 13.9688 134.414 13.9688C134.398 14.0312 134.383 14.0964 134.367 14.1641C134.352 14.2318 134.339 14.3099 134.328 14.3984C134.318 14.4818 134.307 14.5807 134.297 14.6953C134.292 14.8047 134.289 14.9349 134.289 15.0859C134.289 15.237 134.297 15.401 134.312 15.5781C134.333 15.7552 134.367 15.8958 134.414 16C134.253 15.974 134.065 15.9505 133.852 15.9297C133.638 15.9036 133.409 15.8828 133.164 15.8672C132.924 15.8464 132.672 15.8307 132.406 15.8203C132.141 15.8099 131.875 15.8047 131.609 15.8047C131.396 15.8047 131.174 15.8099 130.945 15.8203C130.721 15.8255 130.503 15.8385 130.289 15.8594C130.076 15.875 129.875 15.8958 129.688 15.9219C129.505 15.9427 129.352 15.9688 129.227 16C129.242 15.9375 129.255 15.8646 129.266 15.7812C129.281 15.6979 129.292 15.6068 129.297 15.5078C129.307 15.4089 129.315 15.3073 129.32 15.2031C129.326 15.099 129.328 15 129.328 14.9062C129.328 14.8542 129.326 14.7839 129.32 14.6953C129.315 14.6068 129.307 14.5182 129.297 14.4297C129.292 14.3359 129.281 14.2474 129.266 14.1641C129.255 14.0807 129.242 14.0156 129.227 13.9688C129.404 13.9688 129.549 13.9609 129.664 13.9453C129.784 13.9245 129.88 13.8828 129.953 13.8203C130.026 13.7578 130.078 13.6667 130.109 13.5469C130.141 13.4219 130.156 13.2578 130.156 13.0547V11.4297C130.156 11.2266 130.135 11.0339 130.094 10.8516C130.052 10.6693 129.987 10.5104 129.898 10.375C129.815 10.2344 129.706 10.125 129.57 10.0469C129.435 9.96354 129.271 9.92188 129.078 9.92188C128.969 9.92188 128.826 9.9375 128.648 9.96875C128.471 10 128.289 10.0547 128.102 10.1328C127.919 10.2057 127.747 10.3047 127.586 10.4297C127.424 10.5495 127.305 10.7005 127.227 10.8828C127.221 10.9505 127.219 11.0182 127.219 11.0859C127.219 11.1536 127.219 11.224 127.219 11.2969V13.0547C127.219 13.2422 127.24 13.3958 127.281 13.5156C127.328 13.6354 127.404 13.7292 127.508 13.7969C127.617 13.8594 127.755 13.9036 127.922 13.9297C128.094 13.9557 128.305 13.9688 128.555 13.9688C128.539 14.0312 128.523 14.0964 128.508 14.1641C128.492 14.2318 128.479 14.3099 128.469 14.3984C128.458 14.4818 128.448 14.5807 128.438 14.6953C128.432 14.8047 128.43 14.9349 128.43 15.0859C128.43 15.237 128.438 15.401 128.453 15.5781C128.474 15.7552 128.508 15.8958 128.555 16C128.393 15.974 128.206 15.9505 127.992 15.9297C127.779 15.9036 127.549 15.8828 127.305 15.8672C127.065 15.8464 126.812 15.8307 126.547 15.8203C126.281 15.8099 126.016 15.8047 125.75 15.8047C125.536 15.8047 125.315 15.8099 125.086 15.8203C124.862 15.8255 124.643 15.8385 124.43 15.8594C124.216 15.875 124.016 15.8958 123.828 15.9219C123.646 15.9427 123.492 15.9688 123.367 16C123.383 15.9375 123.396 15.8646 123.406 15.7812C123.422 15.6979 123.432 15.6068 123.438 15.5078C123.448 15.4089 123.456 15.3073 123.461 15.2031C123.466 15.099 123.469 15 123.469 14.9062C123.469 14.8542 123.466 14.7839 123.461 14.6953C123.456 14.6068 123.448 14.5182 123.438 14.4297C123.432 14.3359 123.422 14.2474 123.406 14.1641C123.396 14.0807 123.383 14.0156 123.367 13.9688C123.544 13.9688 123.69 13.9609 123.805 13.9453C123.924 13.9245 124.021 13.8828 124.094 13.8203C124.167 13.7578 124.219 13.6667 124.25 13.5469C124.281 13.4219 124.297 13.2578 124.297 13.0547V11.4297C124.297 11.2266 124.276 11.0339 124.234 10.8516C124.193 10.6693 124.128 10.5104 124.039 10.375C123.956 10.2344 123.846 10.125 123.711 10.0469C123.576 9.96354 123.411 9.92188 123.219 9.92188C123.109 9.92188 122.964 9.9401 122.781 9.97656C122.599 10.0078 122.414 10.0625 122.227 10.1406C122.039 10.2188 121.865 10.3229 121.703 10.4531C121.542 10.5781 121.424 10.7344 121.352 10.9219L121.359 13.0547C121.359 13.3932 121.464 13.6302 121.672 13.7656C121.88 13.901 122.172 13.9688 122.547 13.9688C122.516 14.0781 122.49 14.2135 122.469 14.375C122.453 14.5365 122.445 14.7083 122.445 14.8906C122.445 15.0885 122.453 15.2891 122.469 15.4922C122.484 15.6901 122.51 15.8594 122.547 16C122.214 15.9479 121.818 15.9036 121.359 15.8672C120.901 15.8255 120.341 15.8047 119.68 15.8047C119.43 15.8047 119.172 15.8099 118.906 15.8203C118.646 15.8255 118.393 15.8385 118.148 15.8594C117.909 15.875 117.685 15.8958 117.477 15.9219C117.268 15.9427 117.096 15.9688 116.961 16ZM137.008 16.7266C137.008 16.362 137 16.026 136.984 15.7188C136.974 15.4062 136.951 15.1354 136.914 14.9062C136.878 14.6771 136.826 14.4922 136.758 14.3516C136.695 14.2057 136.609 14.1146 136.5 14.0781C136.604 14.026 136.688 13.9401 136.75 13.8203C136.818 13.7005 136.87 13.5208 136.906 13.2812C136.948 13.0417 136.974 12.7292 136.984 12.3438C137 11.9583 137.008 11.4714 137.008 10.8828C137.003 10.6589 136.974 10.4818 136.922 10.3516C136.87 10.2161 136.797 10.1146 136.703 10.0469C136.615 9.97396 136.503 9.92708 136.367 9.90625C136.237 9.88021 136.089 9.86719 135.922 9.86719H135.68C135.721 9.76302 135.758 9.61979 135.789 9.4375C135.82 9.25 135.836 9.05469 135.836 8.85156C135.836 8.65365 135.82 8.46615 135.789 8.28906C135.763 8.10677 135.727 7.96094 135.68 7.85156C135.831 7.8724 135.99 7.88802 136.156 7.89844C136.328 7.90885 136.505 7.91406 136.688 7.91406C137.062 7.91406 137.443 7.88802 137.828 7.83594C138.214 7.78385 138.573 7.69271 138.906 7.5625C138.922 7.79688 138.984 8.02604 139.094 8.25C139.203 8.47396 139.344 8.67969 139.516 8.86719C139.641 8.8151 139.768 8.7474 139.898 8.66406C140.029 8.58073 140.151 8.48438 140.266 8.375C140.385 8.26042 140.492 8.13542 140.586 8C140.68 7.86458 140.75 7.71875 140.797 7.5625C140.854 7.59896 140.938 7.63281 141.047 7.66406C141.161 7.69531 141.292 7.72396 141.438 7.75C141.589 7.77604 141.747 7.79688 141.914 7.8125C142.086 7.82812 142.258 7.83594 142.43 7.83594C142.758 7.83594 143.057 7.8125 143.328 7.76562C143.599 7.71875 143.799 7.65104 143.93 7.5625C144.018 7.75 144.141 7.9375 144.297 8.125C144.453 8.30729 144.635 8.47656 144.844 8.63281C145.057 8.78385 145.292 8.91146 145.547 9.01562C145.807 9.11979 146.083 9.18229 146.375 9.20312C146.312 9.33854 146.24 9.61458 146.156 10.0312C146.078 10.4479 146.039 11.0234 146.039 11.7578C146.039 12.4974 146.078 13.0755 146.156 13.4922C146.24 13.9089 146.312 14.1849 146.375 14.3203C146.083 14.3411 145.807 14.4115 145.547 14.5312C145.292 14.6458 145.057 14.7891 144.844 14.9609C144.635 15.1276 144.453 15.3099 144.297 15.5078C144.141 15.7057 144.018 15.8958 143.93 16.0781C143.815 16.0052 143.638 15.9427 143.398 15.8906C143.164 15.8333 142.888 15.8047 142.57 15.8047C142.242 15.8047 141.948 15.8333 141.688 15.8906C141.427 15.9427 141.234 16.0052 141.109 16.0781C141.047 15.8958 140.909 15.7109 140.695 15.5234C140.482 15.3307 140.193 15.1589 139.828 15.0078V17.3438C139.828 17.5312 139.888 17.6849 140.008 17.8047C140.133 17.9245 140.299 18.0156 140.508 18.0781C140.721 18.1458 140.964 18.1927 141.234 18.2188C141.51 18.2448 141.802 18.2578 142.109 18.2578C142.078 18.3672 142.052 18.5026 142.031 18.6641C142.016 18.8255 142.008 18.9974 142.008 19.1797C142.008 19.3776 142.016 19.5781 142.031 19.7812C142.047 19.9844 142.073 20.1562 142.109 20.2969C141.943 20.2708 141.721 20.2448 141.445 20.2188C141.169 20.1979 140.865 20.1771 140.531 20.1562C140.198 20.1354 139.852 20.1198 139.492 20.1094C139.133 20.099 138.789 20.0938 138.461 20.0938C138.211 20.0938 137.951 20.099 137.68 20.1094C137.409 20.1198 137.146 20.1328 136.891 20.1484C136.641 20.1641 136.406 20.1849 136.188 20.2109C135.974 20.237 135.799 20.2656 135.664 20.2969C135.706 20.1615 135.734 19.9974 135.75 19.8047C135.766 19.6172 135.773 19.4323 135.773 19.25C135.773 19.0833 135.763 18.9167 135.742 18.75C135.721 18.5833 135.695 18.4193 135.664 18.2578C135.898 18.2578 136.099 18.2448 136.266 18.2188C136.432 18.1927 136.57 18.1458 136.68 18.0781C136.789 18.0156 136.867 17.9245 136.914 17.8047C136.966 17.6849 136.992 17.5312 136.992 17.3438L137.008 16.7266ZM139.938 11.7656C139.938 12.0938 139.961 12.3984 140.008 12.6797C140.055 12.9557 140.135 13.1953 140.25 13.3984C140.365 13.6016 140.518 13.7604 140.711 13.875C140.909 13.9896 141.159 14.0469 141.461 14.0469C141.747 14.0469 141.99 14.0026 142.188 13.9141C142.385 13.8255 142.547 13.6901 142.672 13.5078C142.797 13.3203 142.885 13.0833 142.938 12.7969C142.995 12.5104 143.023 12.1667 143.023 11.7656C143.023 11.3646 142.995 11.0234 142.938 10.7422C142.885 10.4557 142.797 10.2214 142.672 10.0391C142.547 9.85677 142.385 9.72396 142.188 9.64062C141.99 9.55729 141.747 9.51562 141.461 9.51562C141.159 9.51562 140.909 9.57292 140.711 9.6875C140.518 9.79688 140.365 9.95312 140.25 10.1562C140.135 10.3542 140.055 10.5911 140.008 10.8672C139.961 11.138 139.938 11.4375 139.938 11.7656ZM147.234 14.8516C147.302 14.7318 147.352 14.5938 147.383 14.4375C147.414 14.2812 147.43 14.1224 147.43 13.9609C147.43 13.7943 147.411 13.6276 147.375 13.4609C147.339 13.2943 147.292 13.1589 147.234 13.0547C147.375 13.0078 147.5 12.9323 147.609 12.8281C147.724 12.724 147.82 12.6068 147.898 12.4766C147.982 12.3464 148.049 12.2135 148.102 12.0781C148.154 11.9427 148.188 11.8177 148.203 11.7031C148.229 11.7135 148.258 11.7188 148.289 11.7188C148.32 11.7188 148.354 11.7188 148.391 11.7188C148.776 11.7188 149.242 11.6823 149.789 11.6094C150.336 11.5365 150.927 11.4401 151.562 11.3203C151.859 11.263 152.104 11.1927 152.297 11.1094C152.49 11.026 152.643 10.9323 152.758 10.8281C152.872 10.7188 152.951 10.6016 152.992 10.4766C153.039 10.3516 153.062 10.2188 153.062 10.0781C153.062 9.82292 152.997 9.6276 152.867 9.49219C152.742 9.35156 152.523 9.28125 152.211 9.28125C151.799 9.28125 151.495 9.38542 151.297 9.59375C151.104 9.79688 151.008 10.1328 151.008 10.6016C150.836 10.5599 150.628 10.5312 150.383 10.5156C150.138 10.4948 149.867 10.4844 149.57 10.4844C149.419 10.4844 149.266 10.487 149.109 10.4922C148.958 10.4974 148.81 10.5052 148.664 10.5156C148.518 10.5208 148.383 10.5312 148.258 10.5469C148.133 10.5625 148.026 10.5807 147.938 10.6016C147.969 10.4401 147.995 10.2578 148.016 10.0547C148.042 9.85156 148.055 9.61458 148.055 9.34375C148.055 9.25521 148.052 9.17448 148.047 9.10156C148.047 9.02344 148.042 8.94792 148.031 8.875C148.026 8.80208 148.016 8.72656 148 8.64844C147.984 8.5651 147.964 8.47396 147.938 8.375C148.156 8.375 148.396 8.35417 148.656 8.3125C148.917 8.26562 149.169 8.20573 149.414 8.13281C149.664 8.0599 149.891 7.97396 150.094 7.875C150.297 7.77604 150.453 7.67188 150.562 7.5625C150.656 7.60938 150.747 7.65104 150.836 7.6875C150.924 7.71875 151.026 7.7474 151.141 7.77344C151.255 7.79427 151.388 7.8099 151.539 7.82031C151.69 7.83073 151.872 7.83594 152.086 7.83594C152.576 7.83594 152.992 7.8125 153.336 7.76562C153.685 7.71354 153.935 7.64583 154.086 7.5625C154.169 7.71875 154.289 7.86719 154.445 8.00781C154.602 8.14844 154.771 8.27083 154.953 8.375C155.141 8.47396 155.328 8.55469 155.516 8.61719C155.708 8.67448 155.883 8.70312 156.039 8.70312H156.109C156.062 8.81771 156.023 8.97656 155.992 9.17969C155.961 9.38281 155.935 9.61198 155.914 9.86719C155.893 10.1172 155.878 10.3828 155.867 10.6641C155.857 10.9453 155.846 11.224 155.836 11.5C155.831 11.7708 155.828 12.026 155.828 12.2656C155.828 12.5052 155.828 12.7083 155.828 12.875C155.828 13.0885 155.846 13.263 155.883 13.3984C155.919 13.5286 155.99 13.6302 156.094 13.7031C156.203 13.776 156.354 13.8255 156.547 13.8516C156.745 13.8776 157 13.8906 157.312 13.8906C157.292 13.9531 157.271 14.0312 157.25 14.125C157.234 14.2135 157.219 14.3099 157.203 14.4141C157.188 14.5182 157.174 14.6224 157.164 14.7266C157.159 14.8307 157.156 14.9271 157.156 15.0156C157.156 15.4219 157.208 15.75 157.312 16C157.188 15.9427 156.984 15.8958 156.703 15.8594C156.422 15.8229 156.115 15.8047 155.781 15.8047C155.406 15.8047 155.073 15.8229 154.781 15.8594C154.495 15.8958 154.268 15.9427 154.102 16C154.06 15.7135 153.979 15.4844 153.859 15.3125C153.745 15.1406 153.628 15.0052 153.508 14.9062C153.326 14.9635 153.159 15.0417 153.008 15.1406C152.857 15.2344 152.721 15.3385 152.602 15.4531C152.487 15.5625 152.393 15.6745 152.32 15.7891C152.247 15.8984 152.201 15.9948 152.18 16.0781C152.06 16.0469 151.951 16.0156 151.852 15.9844C151.758 15.9531 151.661 15.9245 151.562 15.8984C151.464 15.8672 151.357 15.8438 151.242 15.8281C151.128 15.8125 150.992 15.8047 150.836 15.8047C150.674 15.8047 150.503 15.8125 150.32 15.8281C150.143 15.8438 149.966 15.8672 149.789 15.8984C149.612 15.9245 149.445 15.9531 149.289 15.9844C149.138 16.0156 149.008 16.0469 148.898 16.0781C148.81 15.9323 148.701 15.7891 148.57 15.6484C148.44 15.5026 148.299 15.3724 148.148 15.2578C148.003 15.138 147.849 15.0417 147.688 14.9688C147.531 14.8958 147.38 14.8568 147.234 14.8516ZM150.594 13.3984C150.594 13.5234 150.62 13.6354 150.672 13.7344C150.724 13.8281 150.789 13.9089 150.867 13.9766C150.951 14.0391 151.042 14.0885 151.141 14.125C151.24 14.1562 151.336 14.1719 151.43 14.1719C151.602 14.1719 151.776 14.138 151.953 14.0703C152.135 14.0026 152.302 13.8958 152.453 13.75C152.604 13.599 152.732 13.4036 152.836 13.1641C152.94 12.9245 153.003 12.6328 153.023 12.2891C152.576 12.2995 152.195 12.3307 151.883 12.3828C151.576 12.4297 151.326 12.5 151.133 12.5938C150.94 12.6823 150.802 12.7943 150.719 12.9297C150.635 13.0651 150.594 13.2214 150.594 13.3984ZM158.227 15.8281C158.268 15.7188 158.299 15.5547 158.32 15.3359C158.346 15.112 158.359 14.8646 158.359 14.5938C158.359 14.375 158.346 14.1536 158.32 13.9297C158.294 13.7057 158.263 13.5234 158.227 13.3828C158.289 13.4141 158.378 13.4427 158.492 13.4688C158.612 13.4896 158.742 13.5104 158.883 13.5312C159.029 13.5469 159.18 13.5599 159.336 13.5703C159.497 13.5755 159.651 13.5781 159.797 13.5781C160.078 13.5781 160.339 13.5625 160.578 13.5312C160.823 13.4948 161.018 13.4453 161.164 13.3828C161.164 13.5339 161.185 13.6771 161.227 13.8125C161.273 13.9427 161.344 14.0599 161.438 14.1641C161.536 14.263 161.661 14.3438 161.812 14.4062C161.969 14.4635 162.154 14.4922 162.367 14.4922C162.648 14.4922 162.872 14.4375 163.039 14.3281C163.211 14.2188 163.297 14.0391 163.297 13.7891C163.297 13.5911 163.229 13.4193 163.094 13.2734C162.964 13.1276 162.779 13.0078 162.539 12.9141C162.305 12.8151 162.023 12.7422 161.695 12.6953C161.367 12.6484 161.01 12.625 160.625 12.625C160.505 12.625 160.372 12.6276 160.227 12.6328C160.086 12.6328 159.948 12.638 159.812 12.6484C159.677 12.6589 159.552 12.6745 159.438 12.6953C159.328 12.7109 159.247 12.7318 159.195 12.7578C159.195 12.6224 159.146 12.4792 159.047 12.3281C158.953 12.1771 158.839 12.0365 158.703 11.9062C158.568 11.776 158.424 11.6641 158.273 11.5703C158.128 11.4766 158.003 11.4193 157.898 11.3984C157.94 11.3516 157.977 11.2865 158.008 11.2031C158.039 11.1198 158.065 11.026 158.086 10.9219C158.107 10.8125 158.122 10.7005 158.133 10.5859C158.143 10.4661 158.148 10.3516 158.148 10.2422C158.148 10.0078 158.128 9.77865 158.086 9.55469C158.049 9.32552 157.987 9.14323 157.898 9.00781C158.086 8.97135 158.273 8.90885 158.461 8.82031C158.648 8.72656 158.823 8.61719 158.984 8.49219C159.151 8.36198 159.297 8.21875 159.422 8.0625C159.552 7.90104 159.648 7.73438 159.711 7.5625C159.763 7.59375 159.867 7.625 160.023 7.65625C160.18 7.6875 160.365 7.71615 160.578 7.74219C160.792 7.76823 161.021 7.78906 161.266 7.80469C161.51 7.82031 161.747 7.82812 161.977 7.82812C162.398 7.82812 162.734 7.79167 162.984 7.71875C163.234 7.64583 163.393 7.54167 163.461 7.40625C163.534 7.50521 163.643 7.59375 163.789 7.67188C163.94 7.74479 164.104 7.80729 164.281 7.85938C164.464 7.90625 164.651 7.94271 164.844 7.96875C165.036 7.98958 165.219 8 165.391 8C165.495 8 165.589 7.99479 165.672 7.98438C165.76 7.97396 165.839 7.96094 165.906 7.94531C165.891 8.05469 165.875 8.15625 165.859 8.25C165.849 8.33854 165.839 8.42708 165.828 8.51562C165.823 8.59896 165.818 8.6849 165.812 8.77344C165.807 8.86198 165.805 8.95833 165.805 9.0625C165.805 9.26042 165.81 9.45573 165.82 9.64844C165.836 9.84115 165.865 10.013 165.906 10.1641C165.818 10.1068 165.667 10.0677 165.453 10.0469C165.245 10.0208 165.008 10.0078 164.742 10.0078C164.596 10.0078 164.445 10.013 164.289 10.0234C164.138 10.0286 163.995 10.0391 163.859 10.0547C163.729 10.0651 163.612 10.0807 163.508 10.1016C163.409 10.1172 163.339 10.138 163.297 10.1641C163.297 9.82031 163.177 9.55208 162.938 9.35938C162.698 9.16146 162.38 9.0625 161.984 9.0625C161.656 9.0625 161.424 9.1224 161.289 9.24219C161.159 9.35677 161.094 9.5026 161.094 9.67969C161.094 9.85156 161.18 10.0156 161.352 10.1719C161.529 10.3281 161.76 10.4661 162.047 10.5859C162.333 10.7005 162.656 10.7917 163.016 10.8594C163.375 10.9271 163.742 10.9609 164.117 10.9609C164.211 10.9609 164.305 10.9583 164.398 10.9531C164.497 10.9479 164.591 10.9401 164.68 10.9297C164.768 10.9193 164.849 10.9062 164.922 10.8906C165 10.8698 165.062 10.8464 165.109 10.8203C165.125 10.9766 165.182 11.1302 165.281 11.2812C165.385 11.4323 165.505 11.5729 165.641 11.7031C165.781 11.8333 165.922 11.9479 166.062 12.0469C166.208 12.1406 166.333 12.2083 166.438 12.25C166.37 12.3542 166.315 12.513 166.273 12.7266C166.237 12.9349 166.219 13.1589 166.219 13.3984C166.219 13.6172 166.234 13.8281 166.266 14.0312C166.297 14.2292 166.354 14.3854 166.438 14.5C166.25 14.5521 166.065 14.6224 165.883 14.7109C165.706 14.7995 165.539 14.9036 165.383 15.0234C165.227 15.1432 165.083 15.2786 164.953 15.4297C164.828 15.5755 164.727 15.7344 164.648 15.9062C164.44 15.8333 164.148 15.7708 163.773 15.7188C163.398 15.6667 162.966 15.6406 162.477 15.6406C162.258 15.6406 162.07 15.6484 161.914 15.6641C161.758 15.6797 161.625 15.7031 161.516 15.7344C161.406 15.7604 161.315 15.7943 161.242 15.8359C161.169 15.8776 161.109 15.9271 161.062 15.9844C160.984 15.9375 160.885 15.8984 160.766 15.8672C160.651 15.8307 160.521 15.8021 160.375 15.7812C160.234 15.7604 160.086 15.7448 159.93 15.7344C159.779 15.724 159.63 15.7188 159.484 15.7188C159.219 15.7188 158.977 15.724 158.758 15.7344C158.539 15.7448 158.362 15.776 158.227 15.8281ZM167.57 15.8281C167.612 15.7188 167.643 15.5547 167.664 15.3359C167.69 15.112 167.703 14.8646 167.703 14.5938C167.703 14.375 167.69 14.1536 167.664 13.9297C167.638 13.7057 167.607 13.5234 167.57 13.3828C167.633 13.4141 167.721 13.4427 167.836 13.4688C167.956 13.4896 168.086 13.5104 168.227 13.5312C168.372 13.5469 168.523 13.5599 168.68 13.5703C168.841 13.5755 168.995 13.5781 169.141 13.5781C169.422 13.5781 169.682 13.5625 169.922 13.5312C170.167 13.4948 170.362 13.4453 170.508 13.3828C170.508 13.5339 170.529 13.6771 170.57 13.8125C170.617 13.9427 170.688 14.0599 170.781 14.1641C170.88 14.263 171.005 14.3438 171.156 14.4062C171.312 14.4635 171.497 14.4922 171.711 14.4922C171.992 14.4922 172.216 14.4375 172.383 14.3281C172.555 14.2188 172.641 14.0391 172.641 13.7891C172.641 13.5911 172.573 13.4193 172.438 13.2734C172.307 13.1276 172.122 13.0078 171.883 12.9141C171.648 12.8151 171.367 12.7422 171.039 12.6953C170.711 12.6484 170.354 12.625 169.969 12.625C169.849 12.625 169.716 12.6276 169.57 12.6328C169.43 12.6328 169.292 12.638 169.156 12.6484C169.021 12.6589 168.896 12.6745 168.781 12.6953C168.672 12.7109 168.591 12.7318 168.539 12.7578C168.539 12.6224 168.49 12.4792 168.391 12.3281C168.297 12.1771 168.182 12.0365 168.047 11.9062C167.911 11.776 167.768 11.6641 167.617 11.5703C167.471 11.4766 167.346 11.4193 167.242 11.3984C167.284 11.3516 167.32 11.2865 167.352 11.2031C167.383 11.1198 167.409 11.026 167.43 10.9219C167.451 10.8125 167.466 10.7005 167.477 10.5859C167.487 10.4661 167.492 10.3516 167.492 10.2422C167.492 10.0078 167.471 9.77865 167.43 9.55469C167.393 9.32552 167.331 9.14323 167.242 9.00781C167.43 8.97135 167.617 8.90885 167.805 8.82031C167.992 8.72656 168.167 8.61719 168.328 8.49219C168.495 8.36198 168.641 8.21875 168.766 8.0625C168.896 7.90104 168.992 7.73438 169.055 7.5625C169.107 7.59375 169.211 7.625 169.367 7.65625C169.523 7.6875 169.708 7.71615 169.922 7.74219C170.135 7.76823 170.365 7.78906 170.609 7.80469C170.854 7.82031 171.091 7.82812 171.32 7.82812C171.742 7.82812 172.078 7.79167 172.328 7.71875C172.578 7.64583 172.737 7.54167 172.805 7.40625C172.878 7.50521 172.987 7.59375 173.133 7.67188C173.284 7.74479 173.448 7.80729 173.625 7.85938C173.807 7.90625 173.995 7.94271 174.188 7.96875C174.38 7.98958 174.562 8 174.734 8C174.839 8 174.932 7.99479 175.016 7.98438C175.104 7.97396 175.182 7.96094 175.25 7.94531C175.234 8.05469 175.219 8.15625 175.203 8.25C175.193 8.33854 175.182 8.42708 175.172 8.51562C175.167 8.59896 175.161 8.6849 175.156 8.77344C175.151 8.86198 175.148 8.95833 175.148 9.0625C175.148 9.26042 175.154 9.45573 175.164 9.64844C175.18 9.84115 175.208 10.013 175.25 10.1641C175.161 10.1068 175.01 10.0677 174.797 10.0469C174.589 10.0208 174.352 10.0078 174.086 10.0078C173.94 10.0078 173.789 10.013 173.633 10.0234C173.482 10.0286 173.339 10.0391 173.203 10.0547C173.073 10.0651 172.956 10.0807 172.852 10.1016C172.753 10.1172 172.682 10.138 172.641 10.1641C172.641 9.82031 172.521 9.55208 172.281 9.35938C172.042 9.16146 171.724 9.0625 171.328 9.0625C171 9.0625 170.768 9.1224 170.633 9.24219C170.503 9.35677 170.438 9.5026 170.438 9.67969C170.438 9.85156 170.523 10.0156 170.695 10.1719C170.872 10.3281 171.104 10.4661 171.391 10.5859C171.677 10.7005 172 10.7917 172.359 10.8594C172.719 10.9271 173.086 10.9609 173.461 10.9609C173.555 10.9609 173.648 10.9583 173.742 10.9531C173.841 10.9479 173.935 10.9401 174.023 10.9297C174.112 10.9193 174.193 10.9062 174.266 10.8906C174.344 10.8698 174.406 10.8464 174.453 10.8203C174.469 10.9766 174.526 11.1302 174.625 11.2812C174.729 11.4323 174.849 11.5729 174.984 11.7031C175.125 11.8333 175.266 11.9479 175.406 12.0469C175.552 12.1406 175.677 12.2083 175.781 12.25C175.714 12.3542 175.659 12.513 175.617 12.7266C175.581 12.9349 175.562 13.1589 175.562 13.3984C175.562 13.6172 175.578 13.8281 175.609 14.0312C175.641 14.2292 175.698 14.3854 175.781 14.5C175.594 14.5521 175.409 14.6224 175.227 14.7109C175.049 14.7995 174.883 14.9036 174.727 15.0234C174.57 15.1432 174.427 15.2786 174.297 15.4297C174.172 15.5755 174.07 15.7344 173.992 15.9062C173.784 15.8333 173.492 15.7708 173.117 15.7188C172.742 15.6667 172.31 15.6406 171.82 15.6406C171.602 15.6406 171.414 15.6484 171.258 15.6641C171.102 15.6797 170.969 15.7031 170.859 15.7344C170.75 15.7604 170.659 15.7943 170.586 15.8359C170.513 15.8776 170.453 15.9271 170.406 15.9844C170.328 15.9375 170.229 15.8984 170.109 15.8672C169.995 15.8307 169.865 15.8021 169.719 15.7812C169.578 15.7604 169.43 15.7448 169.273 15.7344C169.122 15.724 168.974 15.7188 168.828 15.7188C168.562 15.7188 168.32 15.724 168.102 15.7344C167.883 15.7448 167.706 15.776 167.57 15.8281Z" fill="white"/>
</svg>
