<svg width="85" height="34" viewBox="0 0 85 34" fill="none" xmlns="http://www.w3.org/2000/svg">
<rect width="85" height="34" rx="10" fill="black"/>
<path d="M22.705 18.27C22.4363 17.9493 22.1547 17.672 21.86 17.438C21.574 17.1953 21.2707 16.996 20.95 16.84V16.281C21.5913 15.9517 22.1763 15.4707 22.705 14.838H23.706C23.6107 15.0893 23.498 15.3277 23.368 15.553C23.2467 15.7697 23.1167 15.9777 22.978 16.177V16.944C23.1167 17.126 23.2467 17.3297 23.368 17.555C23.498 17.7717 23.6107 18.01 23.706 18.27H22.705ZM22.9 17.087L22.913 16.021H30.05V17.087H22.9ZM35.3617 21V11.692H39.5087C40.4534 11.692 41.1857 11.9217 41.7057 12.381C42.2691 12.8663 42.5507 13.4557 42.5507 14.149C42.5507 14.5477 42.4511 14.8943 42.2517 15.189C42.0611 15.475 41.7361 15.7653 41.2767 16.06C42.2994 16.6667 42.8107 17.4207 42.8107 18.322C42.8107 19.1367 42.5031 19.804 41.8877 20.324C41.3504 20.7747 40.5704 21 39.5477 21H35.3617ZM37.2727 13.291V15.397H39.3657C40.2584 15.397 40.7047 15.046 40.7047 14.344C40.7047 13.642 40.2584 13.291 39.3657 13.291H37.2727ZM37.2727 16.996V19.401H39.5607C40.5054 19.401 40.9777 19.0023 40.9777 18.205C40.9777 17.399 40.5054 16.996 39.5607 16.996H37.2727ZM50.1462 20.545V21H48.1962C48.0662 20.8353 47.9968 20.6013 47.9882 20.298C47.5115 20.8613 46.8182 21.143 45.9082 21.143C45.2408 21.143 44.7035 20.9393 44.2962 20.532C43.9668 20.2027 43.8022 19.7477 43.8022 19.167C43.8022 18.3003 44.1488 17.685 44.8422 17.321C45.1368 17.165 45.7218 17.009 46.5972 16.853L48.0012 16.593L47.9882 16.099C47.9795 15.6397 47.6328 15.41 46.9482 15.41C46.5062 15.41 46.1942 15.4793 46.0122 15.618C45.8388 15.748 45.7305 15.9907 45.6872 16.346H43.9712C44.0752 14.76 45.0545 13.967 46.9092 13.967C47.9318 13.967 48.6685 14.149 49.1192 14.513C49.5265 14.8597 49.7302 15.384 49.7302 16.086V19.934C49.7302 20.246 49.8688 20.4497 50.1462 20.545ZM48.0012 17.672L46.6882 17.971C46.3155 18.0577 46.0382 18.1833 45.8562 18.348C45.6828 18.5127 45.5962 18.7163 45.5962 18.959C45.5962 19.453 45.9168 19.7 46.5582 19.7C47.4855 19.7 47.9622 19.193 47.9882 18.179L48.0012 17.672ZM57.1779 16.632H55.4749C55.3709 16.1813 55.2192 15.865 55.0199 15.683C54.8292 15.501 54.5562 15.41 54.2009 15.41C53.6635 15.41 53.2909 15.6007 53.0829 15.982C52.8575 16.424 52.7449 16.9657 52.7449 17.607C52.7449 18.257 52.8705 18.7727 53.1219 19.154C53.3819 19.5267 53.7372 19.713 54.1879 19.713C54.5432 19.713 54.8162 19.622 55.0069 19.44C55.2062 19.2493 55.3622 18.9373 55.4749 18.504H57.1779C57.0912 19.3707 56.7445 20.0423 56.1379 20.519C55.6092 20.9437 54.9549 21.156 54.1749 21.156C53.0829 21.156 52.2552 20.805 51.6919 20.103C51.1979 19.4963 50.9509 18.6773 50.9509 17.646C50.9509 16.398 51.2759 15.4533 51.9259 14.812C52.4892 14.2487 53.2519 13.967 54.2139 13.967C55.1325 13.967 55.8605 14.2313 56.3979 14.76C56.8572 15.228 57.1172 15.852 57.1779 16.632ZM60.2191 16.788L62.4681 14.11H64.5091L62.1561 16.71L64.6651 21H62.5721L60.9211 17.958L60.2191 18.738V21H58.4251V11.692H60.2191V16.788Z" fill="white"/>
</svg>
