<svg width="148" height="62" viewBox="0 0 148 62" fill="none" xmlns="http://www.w3.org/2000/svg">
<g filter="url(#filter0_d_511_1334)">
<path d="M33.25 46.75C27.9167 46.75 23.75 45.1667 20.75 42C17.75 38.8333 16.25 34.3333 16.25 28.5C16.25 24.6667 16.9 21.3833 18.2 18.65C19.5333 15.8833 21.3833 13.8 23.75 12.4C26.15 10.9667 28.9167 10.25 32.05 10.25C33.95 10.25 35.8667 10.8 37.8 11.9C38.5333 12.3 39.2667 12.8333 40 13.5C40.5667 12.6333 41.15 11.95 41.75 11.45C42.35 11.0167 42.6833 10.7833 42.75 10.75H44V20.25H42C41.5667 18.65 40.9167 17.2 40.05 15.9C39.25 14.6333 38.25 13.5833 37.05 12.75C35.8833 11.9167 34.5333 11.5 33 11.5C30.7 11.5 28.7833 12.8333 27.25 15.5C25.75 18.1667 25 22.5 25 28.5C25 34.6 25.8167 38.9667 27.45 41.6C29.1167 44.2 31.3833 45.5 34.25 45.5C35.8167 45.5 37.3 45.0667 38.7 44.2C40.1333 43.3 41.2833 42.1167 42.15 40.65C43.05 39.1833 43.5 37.6333 43.5 36H44.75C44.75 37.9 44.2333 39.6833 43.2 41.35C42.2 42.9833 40.8167 44.3 39.05 45.3C37.3167 46.2667 35.3833 46.75 33.25 46.75ZM49.0195 45.25L52.0195 44.5V12.5L49.0195 11.75V11H62.5195C67.5862 11 71.3029 11.8167 73.6695 13.45C76.0695 15.05 77.2695 17.15 77.2695 19.75C77.2695 21.55 76.7529 23 75.7195 24.1C74.6862 25.2 73.3695 26.0167 71.7695 26.55C70.0695 27.15 68.2362 27.4667 66.2695 27.5V27.75C68.7029 27.85 70.8195 28.2167 72.6195 28.85C74.4529 29.45 75.9695 30.3833 77.1695 31.65C78.4029 32.9167 79.0195 34.5333 79.0195 36.5C79.0195 39.4667 77.8029 41.8 75.3695 43.5C72.9362 45.1667 68.9862 46 63.5195 46H49.0195V45.25ZM62.5195 27C63.6195 27 64.6362 26.7 65.5695 26.1C66.5362 25.4667 67.3029 24.6 67.8695 23.5C68.4695 22.3667 68.7695 21.1167 68.7695 19.75C68.7695 18.2833 68.4695 16.9833 67.8695 15.85C67.3029 14.7167 66.5362 13.8333 65.5695 13.2C64.6362 12.5667 63.6195 12.25 62.5195 12.25H60.2695V27H62.5195ZM63.5195 44.75C65.5862 44.75 67.2695 44.0167 68.5695 42.55C69.8695 41.0833 70.5195 39.0667 70.5195 36.5C70.5195 33.9333 69.8695 31.9167 68.5695 30.45C67.2695 28.9833 65.5862 28.25 63.5195 28.25H60.2695V44.75H63.5195ZM83.0039 45.25L86.0039 44.5V12.5L83.0039 11.75V11H96.2539C101.921 11 106.004 11.8667 108.504 13.6C111.004 15.3 112.254 17.6833 112.254 20.75C112.254 22.8167 111.704 24.5 110.604 25.8C109.504 27.0667 108.087 28.0167 106.354 28.65C104.521 29.35 102.571 29.7167 100.504 29.75V30C101.737 30.0667 102.821 30.25 103.754 30.55C106.087 31.2833 107.671 32.6 108.504 34.5L113.004 44.5L115.504 45.25V46H108.504C105.771 46 103.771 44.5833 102.504 41.75L97.5039 30.5H94.2539V44.5L97.7539 45.25V46H83.0039V45.25ZM96.2539 29.25C98.5872 29.25 100.421 28.5167 101.754 27.05C103.087 25.5833 103.754 23.4833 103.754 20.75C103.754 18.0167 103.087 15.9167 101.754 14.45C100.421 12.9833 98.5872 12.25 96.2539 12.25H94.2539V29.25H96.2539Z" fill="#303030"/>
<path d="M14 51H115.504V53.5H14V51Z" fill="#303030"/>
</g>
<rect y="14" width="126" height="28" rx="3" fill="#FFE071" fill-opacity="0.85"/>
<g filter="url(#filter1_d_511_1334)">
<mask id="path-3-inside-1_511_1334" fill="white">
<path d="M38.7962 20.07C38.7962 20.65 38.5962 21.1333 38.1962 21.52C37.8029 21.9 37.1995 22.09 36.3862 22.09H35.0462V25H34.1362V18.03H36.3862C37.1729 18.03 37.7695 18.22 38.1762 18.6C38.5895 18.98 38.7962 19.47 38.7962 20.07ZM36.3862 21.34C36.8929 21.34 37.2662 21.23 37.5062 21.01C37.7462 20.79 37.8662 20.4767 37.8662 20.07C37.8662 19.21 37.3729 18.78 36.3862 18.78H35.0462V21.34H36.3862ZM43.4832 18.03V22.44C43.4832 23.06 43.6332 23.52 43.9332 23.82C44.2399 24.12 44.6632 24.27 45.2032 24.27C45.7366 24.27 46.1532 24.12 46.4532 23.82C46.7599 23.52 46.9132 23.06 46.9132 22.44V18.03H47.8232V22.43C47.8232 23.01 47.7066 23.5 47.4732 23.9C47.2399 24.2933 46.9232 24.5867 46.5232 24.78C46.1299 24.9733 45.6866 25.07 45.1932 25.07C44.6999 25.07 44.2532 24.9733 43.8532 24.78C43.4599 24.5867 43.1466 24.2933 42.9132 23.9C42.6866 23.5 42.5732 23.01 42.5732 22.43V18.03H43.4832ZM55.6773 25L54.0173 22.15H52.9173V25H52.0073V18.03H54.2573C54.784 18.03 55.2273 18.12 55.5873 18.3C55.954 18.48 56.2273 18.7233 56.4073 19.03C56.5873 19.3367 56.6773 19.6867 56.6773 20.08C56.6773 20.56 56.5373 20.9833 56.2573 21.35C55.984 21.7167 55.5706 21.96 55.0173 22.08L56.7673 25H55.6773ZM52.9173 21.42H54.2573C54.7506 21.42 55.1206 21.3 55.3673 21.06C55.614 20.8133 55.7373 20.4867 55.7373 20.08C55.7373 19.6667 55.614 19.3467 55.3673 19.12C55.1273 18.8933 54.7573 18.78 54.2573 18.78H52.9173V21.42ZM65.4173 20.07C65.4173 20.65 65.2173 21.1333 64.8173 21.52C64.424 21.9 63.8206 22.09 63.0073 22.09H61.6673V25H60.7573V18.03H63.0073C63.794 18.03 64.3906 18.22 64.7973 18.6C65.2106 18.98 65.4173 19.47 65.4173 20.07ZM63.0073 21.34C63.514 21.34 63.8873 21.23 64.1273 21.01C64.3673 20.79 64.4873 20.4767 64.4873 20.07C64.4873 19.21 63.994 18.78 63.0073 18.78H61.6673V21.34H63.0073ZM72.3743 25.07C71.7277 25.07 71.1377 24.92 70.6043 24.62C70.071 24.3133 69.6477 23.89 69.3343 23.35C69.0277 22.8033 68.8743 22.19 68.8743 21.51C68.8743 20.83 69.0277 20.22 69.3343 19.68C69.6477 19.1333 70.071 18.71 70.6043 18.41C71.1377 18.1033 71.7277 17.95 72.3743 17.95C73.0277 17.95 73.621 18.1033 74.1543 18.41C74.6877 18.71 75.1077 19.13 75.4143 19.67C75.721 20.21 75.8743 20.8233 75.8743 21.51C75.8743 22.1967 75.721 22.81 75.4143 23.35C75.1077 23.89 74.6877 24.3133 74.1543 24.62C73.621 24.92 73.0277 25.07 72.3743 25.07ZM72.3743 24.28C72.861 24.28 73.2977 24.1667 73.6843 23.94C74.0777 23.7133 74.3843 23.39 74.6043 22.97C74.831 22.55 74.9443 22.0633 74.9443 21.51C74.9443 20.95 74.831 20.4633 74.6043 20.05C74.3843 19.63 74.081 19.3067 73.6943 19.08C73.3077 18.8533 72.8677 18.74 72.3743 18.74C71.881 18.74 71.441 18.8533 71.0543 19.08C70.6677 19.3067 70.361 19.63 70.1343 20.05C69.9143 20.4633 69.8043 20.95 69.8043 21.51C69.8043 22.0633 69.9143 22.55 70.1343 22.97C70.361 23.39 70.6677 23.7133 71.0543 23.94C71.4477 24.1667 71.8877 24.28 72.3743 24.28ZM81.9517 25.07C81.4917 25.07 81.0783 24.99 80.7117 24.83C80.3517 24.6633 80.0683 24.4367 79.8617 24.15C79.655 23.8567 79.5483 23.52 79.5417 23.14H80.5117C80.545 23.4667 80.6783 23.7433 80.9117 23.97C81.1517 24.19 81.4983 24.3 81.9517 24.3C82.385 24.3 82.725 24.1933 82.9717 23.98C83.225 23.76 83.3517 23.48 83.3517 23.14C83.3517 22.8733 83.2783 22.6567 83.1317 22.49C82.985 22.3233 82.8017 22.1967 82.5817 22.11C82.3617 22.0233 82.065 21.93 81.6917 21.83C81.2317 21.71 80.8617 21.59 80.5817 21.47C80.3083 21.35 80.0717 21.1633 79.8717 20.91C79.6783 20.65 79.5817 20.3033 79.5817 19.87C79.5817 19.49 79.6783 19.1533 79.8717 18.86C80.065 18.5667 80.335 18.34 80.6817 18.18C81.035 18.02 81.4383 17.94 81.8917 17.94C82.545 17.94 83.0783 18.1033 83.4917 18.43C83.9117 18.7567 84.1483 19.19 84.2017 19.73H83.2017C83.1683 19.4633 83.0283 19.23 82.7817 19.03C82.535 18.8233 82.2083 18.72 81.8017 18.72C81.4217 18.72 81.1117 18.82 80.8717 19.02C80.6317 19.2133 80.5117 19.4867 80.5117 19.84C80.5117 20.0933 80.5817 20.3 80.7217 20.46C80.8683 20.62 81.045 20.7433 81.2517 20.83C81.465 20.91 81.7617 21.0033 82.1417 21.11C82.6017 21.2367 82.9717 21.3633 83.2517 21.49C83.5317 21.61 83.7717 21.8 83.9717 22.06C84.1717 22.3133 84.2717 22.66 84.2717 23.1C84.2717 23.44 84.1817 23.76 84.0017 24.06C83.8217 24.36 83.555 24.6033 83.2017 24.79C82.8483 24.9767 82.4317 25.07 81.9517 25.07ZM89.1868 18.77V21.1H91.7268V21.85H89.1868V24.25H92.0268V25H88.2768V18.02H92.0268V18.77H89.1868ZM50.5031 33.08V40H49.5931V34.84L47.2931 40H46.6531L44.3431 34.83V40H43.4331V33.08H44.4131L46.9731 38.8L49.5331 33.08H50.5031ZM55.6224 33.77V36.1H58.1624V36.85H55.6224V39.25H58.4624V40H54.7124V33.02H58.4624V33.77H55.6224ZM64.6754 33.03C65.4354 33.03 66.092 33.1733 66.6454 33.46C67.2054 33.74 67.632 34.1433 67.9254 34.67C68.2254 35.1967 68.3754 35.8167 68.3754 36.53C68.3754 37.2433 68.2254 37.8633 67.9254 38.39C67.632 38.91 67.2054 39.31 66.6454 39.59C66.092 39.8633 65.4354 40 64.6754 40H62.5054V33.03H64.6754ZM64.6754 39.25C65.5754 39.25 66.262 39.0133 66.7354 38.54C67.2087 38.06 67.4454 37.39 67.4454 36.53C67.4454 35.6633 67.2054 34.9867 66.7254 34.5C66.252 34.0133 65.5687 33.77 64.6754 33.77H63.4154V39.25H64.6754ZM73.1517 33.03V40H72.2417V33.03H73.1517ZM81.4886 38.45H78.4486L77.8886 40H76.9286L79.4486 33.07H80.4986L83.0086 40H82.0486L81.4886 38.45ZM81.2286 37.71L79.9686 34.19L78.7086 37.71H81.2286Z"/>
</mask>
<path d="M38.7962 20.07C38.7962 20.65 38.5962 21.1333 38.1962 21.52C37.8029 21.9 37.1995 22.09 36.3862 22.09H35.0462V25H34.1362V18.03H36.3862C37.1729 18.03 37.7695 18.22 38.1762 18.6C38.5895 18.98 38.7962 19.47 38.7962 20.07ZM36.3862 21.34C36.8929 21.34 37.2662 21.23 37.5062 21.01C37.7462 20.79 37.8662 20.4767 37.8662 20.07C37.8662 19.21 37.3729 18.78 36.3862 18.78H35.0462V21.34H36.3862ZM43.4832 18.03V22.44C43.4832 23.06 43.6332 23.52 43.9332 23.82C44.2399 24.12 44.6632 24.27 45.2032 24.27C45.7366 24.27 46.1532 24.12 46.4532 23.82C46.7599 23.52 46.9132 23.06 46.9132 22.44V18.03H47.8232V22.43C47.8232 23.01 47.7066 23.5 47.4732 23.9C47.2399 24.2933 46.9232 24.5867 46.5232 24.78C46.1299 24.9733 45.6866 25.07 45.1932 25.07C44.6999 25.07 44.2532 24.9733 43.8532 24.78C43.4599 24.5867 43.1466 24.2933 42.9132 23.9C42.6866 23.5 42.5732 23.01 42.5732 22.43V18.03H43.4832ZM55.6773 25L54.0173 22.15H52.9173V25H52.0073V18.03H54.2573C54.784 18.03 55.2273 18.12 55.5873 18.3C55.954 18.48 56.2273 18.7233 56.4073 19.03C56.5873 19.3367 56.6773 19.6867 56.6773 20.08C56.6773 20.56 56.5373 20.9833 56.2573 21.35C55.984 21.7167 55.5706 21.96 55.0173 22.08L56.7673 25H55.6773ZM52.9173 21.42H54.2573C54.7506 21.42 55.1206 21.3 55.3673 21.06C55.614 20.8133 55.7373 20.4867 55.7373 20.08C55.7373 19.6667 55.614 19.3467 55.3673 19.12C55.1273 18.8933 54.7573 18.78 54.2573 18.78H52.9173V21.42ZM65.4173 20.07C65.4173 20.65 65.2173 21.1333 64.8173 21.52C64.424 21.9 63.8206 22.09 63.0073 22.09H61.6673V25H60.7573V18.03H63.0073C63.794 18.03 64.3906 18.22 64.7973 18.6C65.2106 18.98 65.4173 19.47 65.4173 20.07ZM63.0073 21.34C63.514 21.34 63.8873 21.23 64.1273 21.01C64.3673 20.79 64.4873 20.4767 64.4873 20.07C64.4873 19.21 63.994 18.78 63.0073 18.78H61.6673V21.34H63.0073ZM72.3743 25.07C71.7277 25.07 71.1377 24.92 70.6043 24.62C70.071 24.3133 69.6477 23.89 69.3343 23.35C69.0277 22.8033 68.8743 22.19 68.8743 21.51C68.8743 20.83 69.0277 20.22 69.3343 19.68C69.6477 19.1333 70.071 18.71 70.6043 18.41C71.1377 18.1033 71.7277 17.95 72.3743 17.95C73.0277 17.95 73.621 18.1033 74.1543 18.41C74.6877 18.71 75.1077 19.13 75.4143 19.67C75.721 20.21 75.8743 20.8233 75.8743 21.51C75.8743 22.1967 75.721 22.81 75.4143 23.35C75.1077 23.89 74.6877 24.3133 74.1543 24.62C73.621 24.92 73.0277 25.07 72.3743 25.07ZM72.3743 24.28C72.861 24.28 73.2977 24.1667 73.6843 23.94C74.0777 23.7133 74.3843 23.39 74.6043 22.97C74.831 22.55 74.9443 22.0633 74.9443 21.51C74.9443 20.95 74.831 20.4633 74.6043 20.05C74.3843 19.63 74.081 19.3067 73.6943 19.08C73.3077 18.8533 72.8677 18.74 72.3743 18.74C71.881 18.74 71.441 18.8533 71.0543 19.08C70.6677 19.3067 70.361 19.63 70.1343 20.05C69.9143 20.4633 69.8043 20.95 69.8043 21.51C69.8043 22.0633 69.9143 22.55 70.1343 22.97C70.361 23.39 70.6677 23.7133 71.0543 23.94C71.4477 24.1667 71.8877 24.28 72.3743 24.28ZM81.9517 25.07C81.4917 25.07 81.0783 24.99 80.7117 24.83C80.3517 24.6633 80.0683 24.4367 79.8617 24.15C79.655 23.8567 79.5483 23.52 79.5417 23.14H80.5117C80.545 23.4667 80.6783 23.7433 80.9117 23.97C81.1517 24.19 81.4983 24.3 81.9517 24.3C82.385 24.3 82.725 24.1933 82.9717 23.98C83.225 23.76 83.3517 23.48 83.3517 23.14C83.3517 22.8733 83.2783 22.6567 83.1317 22.49C82.985 22.3233 82.8017 22.1967 82.5817 22.11C82.3617 22.0233 82.065 21.93 81.6917 21.83C81.2317 21.71 80.8617 21.59 80.5817 21.47C80.3083 21.35 80.0717 21.1633 79.8717 20.91C79.6783 20.65 79.5817 20.3033 79.5817 19.87C79.5817 19.49 79.6783 19.1533 79.8717 18.86C80.065 18.5667 80.335 18.34 80.6817 18.18C81.035 18.02 81.4383 17.94 81.8917 17.94C82.545 17.94 83.0783 18.1033 83.4917 18.43C83.9117 18.7567 84.1483 19.19 84.2017 19.73H83.2017C83.1683 19.4633 83.0283 19.23 82.7817 19.03C82.535 18.8233 82.2083 18.72 81.8017 18.72C81.4217 18.72 81.1117 18.82 80.8717 19.02C80.6317 19.2133 80.5117 19.4867 80.5117 19.84C80.5117 20.0933 80.5817 20.3 80.7217 20.46C80.8683 20.62 81.045 20.7433 81.2517 20.83C81.465 20.91 81.7617 21.0033 82.1417 21.11C82.6017 21.2367 82.9717 21.3633 83.2517 21.49C83.5317 21.61 83.7717 21.8 83.9717 22.06C84.1717 22.3133 84.2717 22.66 84.2717 23.1C84.2717 23.44 84.1817 23.76 84.0017 24.06C83.8217 24.36 83.555 24.6033 83.2017 24.79C82.8483 24.9767 82.4317 25.07 81.9517 25.07ZM89.1868 18.77V21.1H91.7268V21.85H89.1868V24.25H92.0268V25H88.2768V18.02H92.0268V18.77H89.1868ZM50.5031 33.08V40H49.5931V34.84L47.2931 40H46.6531L44.3431 34.83V40H43.4331V33.08H44.4131L46.9731 38.8L49.5331 33.08H50.5031ZM55.6224 33.77V36.1H58.1624V36.85H55.6224V39.25H58.4624V40H54.7124V33.02H58.4624V33.77H55.6224ZM64.6754 33.03C65.4354 33.03 66.092 33.1733 66.6454 33.46C67.2054 33.74 67.632 34.1433 67.9254 34.67C68.2254 35.1967 68.3754 35.8167 68.3754 36.53C68.3754 37.2433 68.2254 37.8633 67.9254 38.39C67.632 38.91 67.2054 39.31 66.6454 39.59C66.092 39.8633 65.4354 40 64.6754 40H62.5054V33.03H64.6754ZM64.6754 39.25C65.5754 39.25 66.262 39.0133 66.7354 38.54C67.2087 38.06 67.4454 37.39 67.4454 36.53C67.4454 35.6633 67.2054 34.9867 66.7254 34.5C66.252 34.0133 65.5687 33.77 64.6754 33.77H63.4154V39.25H64.6754ZM73.1517 33.03V40H72.2417V33.03H73.1517ZM81.4886 38.45H78.4486L77.8886 40H76.9286L79.4486 33.07H80.4986L83.0086 40H82.0486L81.4886 38.45ZM81.2286 37.71L79.9686 34.19L78.7086 37.71H81.2286Z" fill="black"/>
<path d="M38.1962 21.52L38.891 22.2392L38.8912 22.239L38.1962 21.52ZM35.0462 22.09V21.09H34.0462V22.09H35.0462ZM35.0462 25V26H36.0462V25H35.0462ZM34.1362 25H33.1362V26H34.1362V25ZM34.1362 18.03V17.03H33.1362V18.03H34.1362ZM38.1762 18.6L37.4934 19.3307L37.4994 19.3362L38.1762 18.6ZM37.5062 21.01L38.1819 21.7472L38.1819 21.7472L37.5062 21.01ZM35.0462 18.78V17.78H34.0462V18.78H35.0462ZM35.0462 21.34H34.0462V22.34H35.0462V21.34ZM38.7962 20.07H37.7962C37.7962 20.3918 37.6972 20.6116 37.5012 20.801L38.1962 21.52L38.8912 22.239C39.4952 21.6551 39.7962 20.9082 39.7962 20.07H38.7962ZM38.1962 21.52L37.5014 20.8008C37.3682 20.9295 37.0649 21.09 36.3862 21.09V22.09V23.09C37.3342 23.09 38.2376 22.8705 38.891 22.2392L38.1962 21.52ZM36.3862 22.09V21.09H35.0462V22.09V23.09H36.3862V22.09ZM35.0462 22.09H34.0462V25H35.0462H36.0462V22.09H35.0462ZM35.0462 25V24H34.1362V25V26H35.0462V25ZM34.1362 25H35.1362V18.03H34.1362H33.1362V25H34.1362ZM34.1362 18.03V19.03H36.3862V18.03V17.03H34.1362V18.03ZM36.3862 18.03V19.03C37.0243 19.03 37.3366 19.1841 37.4935 19.3307L38.1762 18.6L38.859 17.8693C38.2025 17.2559 37.3215 17.03 36.3862 17.03V18.03ZM38.1762 18.6L37.4994 19.3362C37.6914 19.5127 37.7962 19.7282 37.7962 20.07H38.7962H39.7962C39.7962 19.2118 39.4877 18.4473 38.853 17.8638L38.1762 18.6ZM36.3862 21.34V22.34C37.0093 22.34 37.6782 22.2089 38.1819 21.7472L37.5062 21.01L36.8305 20.2728C36.8542 20.2511 36.7764 20.34 36.3862 20.34V21.34ZM37.5062 21.01L38.1819 21.7472C38.6779 21.2925 38.8662 20.6822 38.8662 20.07H37.8662H36.8662C36.8662 20.1763 36.8504 20.2312 36.8424 20.2524C36.8361 20.2688 36.8326 20.2709 36.8305 20.2728L37.5062 21.01ZM37.8662 20.07H38.8662C38.8662 19.4474 38.6813 18.8089 38.1533 18.3487C37.6515 17.9113 37.0025 17.78 36.3862 17.78V18.78V19.78C36.7565 19.78 36.8476 19.8637 36.8392 19.8563C36.8322 19.8503 36.8332 19.8458 36.8397 19.8628C36.8485 19.8859 36.8662 19.9482 36.8662 20.07H37.8662ZM36.3862 18.78V17.78H35.0462V18.78V19.78H36.3862V18.78ZM35.0462 18.78H34.0462V21.34H35.0462H36.0462V18.78H35.0462ZM35.0462 21.34V22.34H36.3862V21.34V20.34H35.0462V21.34ZM43.4832 18.03H44.4832V17.03H43.4832V18.03ZM43.9332 23.82L43.2261 24.5271L43.2339 24.5348L43.9332 23.82ZM46.4532 23.82L45.7539 23.1051L45.7461 23.1129L46.4532 23.82ZM46.9132 18.03V17.03H45.9132V18.03H46.9132ZM47.8232 18.03H48.8232V17.03H47.8232V18.03ZM47.4732 23.9L48.3333 24.4102L48.337 24.4039L47.4732 23.9ZM46.5232 24.78L46.0881 23.8796L46.0821 23.8826L46.5232 24.78ZM43.8532 24.78L43.4121 25.6775L43.4181 25.6803L43.8532 24.78ZM42.9132 23.9L42.0432 24.393L42.0481 24.4017L42.0532 24.4102L42.9132 23.9ZM42.5732 18.03V17.03H41.5732V18.03H42.5732ZM43.4832 18.03H42.4832V22.44H43.4832H44.4832V18.03H43.4832ZM43.4832 22.44H42.4832C42.4832 23.203 42.667 23.968 43.2261 24.5271L43.9332 23.82L44.6403 23.1129C44.5995 23.072 44.4832 22.917 44.4832 22.44H43.4832ZM43.9332 23.82L43.2339 24.5348C43.7728 25.0619 44.4729 25.27 45.2032 25.27V24.27V23.27C44.8536 23.27 44.7071 23.1781 44.6325 23.1052L43.9332 23.82ZM45.2032 24.27V25.27C45.9299 25.27 46.6275 25.06 47.1603 24.5271L46.4532 23.82L45.7461 23.1129C45.679 23.18 45.5432 23.27 45.2032 23.27V24.27ZM46.4532 23.82L47.1525 24.5348C47.7233 23.9765 47.9132 23.2085 47.9132 22.44H46.9132H45.9132C45.9132 22.9115 45.7965 23.0635 45.7539 23.1052L46.4532 23.82ZM46.9132 22.44H47.9132V18.03H46.9132H45.9132V22.44H46.9132ZM46.9132 18.03V19.03H47.8232V18.03V17.03H46.9132V18.03ZM47.8232 18.03H46.8232V22.43H47.8232H48.8232V18.03H47.8232ZM47.8232 22.43H46.8232C46.8232 22.8771 46.7337 23.1832 46.6095 23.3961L47.4732 23.9L48.337 24.4039C48.6795 23.8168 48.8232 23.1429 48.8232 22.43H47.8232ZM47.4732 23.9L46.6132 23.3898C46.477 23.6194 46.3058 23.7744 46.0881 23.8797L46.5232 24.78L46.9584 25.6803C47.5407 25.3989 48.0029 24.9672 48.3333 24.4102L47.4732 23.9ZM46.5232 24.78L46.0821 23.8826C45.8424 24.0004 45.553 24.07 45.1932 24.07V25.07V26.07C45.8202 26.07 46.4174 25.9463 46.9644 25.6774L46.5232 24.78ZM45.1932 25.07V24.07C44.8338 24.07 44.5383 24.0005 44.2884 23.8797L43.8532 24.78L43.4181 25.6803C43.9681 25.9462 44.566 26.07 45.1932 26.07V25.07ZM43.8532 24.78L44.2944 23.8826C44.0831 23.7787 43.9121 23.6238 43.7733 23.3898L42.9132 23.9L42.0532 24.4102C42.3811 24.9629 42.8367 25.3946 43.4121 25.6774L43.8532 24.78ZM42.9132 23.9L43.7833 23.407C43.6613 23.1918 43.5732 22.8816 43.5732 22.43H42.5732H41.5732C41.5732 23.1384 41.7118 23.8082 42.0432 24.393L42.9132 23.9ZM42.5732 22.43H43.5732V18.03H42.5732H41.5732V22.43H42.5732ZM42.5732 18.03V19.03H43.4832V18.03V17.03H42.5732V18.03ZM55.6773 25L54.8132 25.5033L55.1025 26H55.6773V25ZM54.0173 22.15L54.8814 21.6467L54.5921 21.15H54.0173V22.15ZM52.9173 22.15V21.15H51.9173V22.15H52.9173ZM52.9173 25V26H53.9173V25H52.9173ZM52.0073 25H51.0073V26H52.0073V25ZM52.0073 18.03V17.03H51.0073V18.03H52.0073ZM55.5873 18.3L55.1401 19.1945L55.1466 19.1977L55.5873 18.3ZM56.2573 21.35L55.4625 20.743L55.4556 20.7523L56.2573 21.35ZM55.0173 22.08L54.8054 21.1027L53.4429 21.3982L54.1596 22.5941L55.0173 22.08ZM56.7673 25V26H58.5325L57.6251 24.4859L56.7673 25ZM52.9173 21.42H51.9173V22.42H52.9173V21.42ZM55.3673 21.06L56.0647 21.7768L56.0744 21.7671L55.3673 21.06ZM55.3673 19.12L54.6806 19.8471L54.6907 19.8563L55.3673 19.12ZM52.9173 18.78V17.78H51.9173V18.78H52.9173ZM55.6773 25L56.5414 24.4967L54.8814 21.6467L54.0173 22.15L53.1532 22.6533L54.8132 25.5033L55.6773 25ZM54.0173 22.15V21.15H52.9173V22.15V23.15H54.0173V22.15ZM52.9173 22.15H51.9173V25H52.9173H53.9173V22.15H52.9173ZM52.9173 25V24H52.0073V25V26H52.9173V25ZM52.0073 25H53.0073V18.03H52.0073H51.0073V25H52.0073ZM52.0073 18.03V19.03H54.2573V18.03V17.03H52.0073V18.03ZM54.2573 18.03V19.03C54.6748 19.03 54.955 19.1019 55.1401 19.1944L55.5873 18.3L56.0345 17.4056C55.4996 17.1381 54.8931 17.03 54.2573 17.03V18.03ZM55.5873 18.3L55.1466 19.1977C55.3643 19.3045 55.4782 19.4226 55.5449 19.5362L56.4073 19.03L57.2697 18.5238C56.9764 18.024 56.5437 17.6555 56.028 17.4023L55.5873 18.3ZM56.4073 19.03L55.5449 19.5362C55.6255 19.6735 55.6773 19.8452 55.6773 20.08H56.6773H57.6773C57.6773 19.5281 57.5491 18.9999 57.2697 18.5238L56.4073 19.03ZM56.6773 20.08H55.6773C55.6773 20.3502 55.6038 20.5582 55.4625 20.7431L56.2573 21.35L57.0521 21.9569C57.4709 21.4085 57.6773 20.7698 57.6773 20.08H56.6773ZM56.2573 21.35L55.4556 20.7523C55.3586 20.8824 55.181 21.0212 54.8054 21.1027L55.0173 22.08L55.2292 23.0573C55.9602 22.8988 56.6093 22.5509 57.0591 21.9477L56.2573 21.35ZM55.0173 22.08L54.1596 22.5941L55.9096 25.5141L56.7673 25L57.6251 24.4859L55.8751 21.5659L55.0173 22.08ZM56.7673 25V24H55.6773V25V26H56.7673V25ZM52.9173 21.42V22.42H54.2573V21.42V20.42H52.9173V21.42ZM54.2573 21.42V22.42C54.898 22.42 55.5635 22.2644 56.0647 21.7767L55.3673 21.06L54.6699 20.3433C54.6686 20.3446 54.6646 20.3483 54.655 20.3539C54.6451 20.3597 54.6266 20.3689 54.5963 20.3788C54.5335 20.3991 54.4259 20.42 54.2573 20.42V21.42ZM55.3673 21.06L56.0744 21.7671C56.5397 21.3018 56.7373 20.7044 56.7373 20.08H55.7373H54.7373C54.7373 20.2689 54.6882 20.3249 54.6602 20.3529L55.3673 21.06ZM55.7373 20.08H56.7373C56.7373 19.4572 56.5433 18.8426 56.0439 18.3837L55.3673 19.12L54.6907 19.8563C54.6979 19.863 54.704 19.8697 54.7117 19.8896C54.7211 19.914 54.7373 19.9717 54.7373 20.08H55.7373ZM55.3673 19.12L56.0539 18.393C55.5523 17.9193 54.8844 17.78 54.2573 17.78V18.78V19.78C54.6302 19.78 54.7023 19.8674 54.6807 19.847L55.3673 19.12ZM54.2573 18.78V17.78H52.9173V18.78V19.78H54.2573V18.78ZM52.9173 18.78H51.9173V21.42H52.9173H53.9173V18.78H52.9173ZM64.8173 21.52L65.5121 22.2392L65.5123 22.239L64.8173 21.52ZM61.6673 22.09V21.09H60.6673V22.09H61.6673ZM61.6673 25V26H62.6673V25H61.6673ZM60.7573 25H59.7573V26H60.7573V25ZM60.7573 18.03V17.03H59.7573V18.03H60.7573ZM64.7973 18.6L64.1145 19.3307L64.1205 19.3362L64.7973 18.6ZM64.1273 21.01L64.803 21.7472L64.803 21.7472L64.1273 21.01ZM61.6673 18.78V17.78H60.6673V18.78H61.6673ZM61.6673 21.34H60.6673V22.34H61.6673V21.34ZM65.4173 20.07H64.4173C64.4173 20.3918 64.3183 20.6116 64.1223 20.801L64.8173 21.52L65.5123 22.239C66.1163 21.6551 66.4173 20.9082 66.4173 20.07H65.4173ZM64.8173 21.52L64.1225 20.8008C63.9892 20.9295 63.686 21.09 63.0073 21.09V22.09V23.09C63.9553 23.09 64.8587 22.8705 65.5121 22.2392L64.8173 21.52ZM63.0073 22.09V21.09H61.6673V22.09V23.09H63.0073V22.09ZM61.6673 22.09H60.6673V25H61.6673H62.6673V22.09H61.6673ZM61.6673 25V24H60.7573V25V26H61.6673V25ZM60.7573 25H61.7573V18.03H60.7573H59.7573V25H60.7573ZM60.7573 18.03V19.03H63.0073V18.03V17.03H60.7573V18.03ZM63.0073 18.03V19.03C63.6454 19.03 63.9577 19.1841 64.1146 19.3307L64.7973 18.6L65.48 17.8693C64.8236 17.2559 63.9426 17.03 63.0073 17.03V18.03ZM64.7973 18.6L64.1205 19.3362C64.3125 19.5127 64.4173 19.7282 64.4173 20.07H65.4173H66.4173C66.4173 19.2118 66.1088 18.4473 65.4741 17.8638L64.7973 18.6ZM63.0073 21.34V22.34C63.6304 22.34 64.2993 22.2089 64.803 21.7472L64.1273 21.01L63.4516 20.2728C63.4753 20.2511 63.3975 20.34 63.0073 20.34V21.34ZM64.1273 21.01L64.803 21.7472C65.299 21.2925 65.4873 20.6822 65.4873 20.07H64.4873H63.4873C63.4873 20.1763 63.4715 20.2312 63.4634 20.2524C63.4572 20.2688 63.4537 20.2709 63.4516 20.2728L64.1273 21.01ZM64.4873 20.07H65.4873C65.4873 19.4474 65.3024 18.8089 64.7744 18.3487C64.2726 17.9113 63.6236 17.78 63.0073 17.78V18.78V19.78C63.3776 19.78 63.4686 19.8637 63.4602 19.8563C63.4533 19.8503 63.4542 19.8458 63.4608 19.8628C63.4696 19.8859 63.4873 19.9482 63.4873 20.07H64.4873ZM63.0073 18.78V17.78H61.6673V18.78V19.78H63.0073V18.78ZM61.6673 18.78H60.6673V21.34H61.6673H62.6673V18.78H61.6673ZM61.6673 21.34V22.34H63.0073V21.34V20.34H61.6673V21.34ZM70.6043 24.62L70.1058 25.4869L70.1141 25.4916L70.6043 24.62ZM69.3343 23.35L68.4622 23.8393L68.4657 23.8456L68.4694 23.8519L69.3343 23.35ZM69.3343 19.68L68.4667 19.1827L68.4648 19.1862L69.3343 19.68ZM70.6043 18.41L71.0946 19.2816L71.1028 19.2769L70.6043 18.41ZM74.1543 18.41L73.6558 19.2769L73.6641 19.2816L74.1543 18.41ZM75.4143 19.67L76.2839 19.1762L76.2839 19.1762L75.4143 19.67ZM75.4143 23.35L74.5448 22.8562L75.4143 23.35ZM74.1543 24.62L74.6446 25.4916L74.6528 25.4869L74.1543 24.62ZM73.6843 23.94L73.185 23.0735L73.1786 23.0773L73.6843 23.94ZM74.6043 22.97L73.7242 22.495L73.7185 22.506L74.6043 22.97ZM74.6043 20.05L73.7185 20.514L73.7229 20.5225L73.7275 20.5308L74.6043 20.05ZM73.6943 19.08L73.1886 19.9427L73.1886 19.9427L73.6943 19.08ZM71.0543 19.08L71.5601 19.9427L71.5601 19.9427L71.0543 19.08ZM70.1343 20.05L69.2543 19.5751L69.2516 19.5802L70.1343 20.05ZM70.1343 22.97L69.2484 23.434L69.2543 23.4449L70.1343 22.97ZM71.0543 23.94L70.5486 24.8027L70.555 24.8064L71.0543 23.94ZM72.3743 25.07V24.07C71.8893 24.07 71.4697 23.9594 71.0946 23.7484L70.6043 24.62L70.1141 25.4916C70.8057 25.8806 71.566 26.07 72.3743 26.07V25.07ZM70.6043 24.62L71.1028 23.7531C70.7239 23.5352 70.4259 23.2388 70.1993 22.8481L69.3343 23.35L68.4694 23.8519C68.8694 24.5412 69.4181 25.0915 70.1059 25.4869L70.6043 24.62ZM69.3343 23.35L70.2065 22.8607C69.9907 22.476 69.8743 22.0336 69.8743 21.51H68.8743H67.8743C67.8743 22.3464 68.0647 23.1306 68.4622 23.8393L69.3343 23.35ZM68.8743 21.51H69.8743C69.8743 20.9862 69.9907 20.5492 70.2039 20.1738L69.3343 19.68L68.4648 19.1862C68.0646 19.8908 67.8743 20.6738 67.8743 21.51H68.8743ZM69.3343 19.68L70.2019 20.1773C70.4283 19.7823 70.7233 19.4904 71.0946 19.2816L70.6043 18.41L70.1141 17.5384C69.4187 17.9296 68.867 18.4844 68.4667 19.1827L69.3343 19.68ZM70.6043 18.41L71.1028 19.2769C71.4766 19.062 71.8933 18.95 72.3743 18.95V17.95V16.95C71.562 16.95 70.7987 17.1447 70.1059 17.5431L70.6043 18.41ZM72.3743 17.95V18.95C72.864 18.95 73.2836 19.0629 73.6559 19.2769L74.1543 18.41L74.6528 17.5431C73.9584 17.1438 73.1914 16.95 72.3743 16.95V17.95ZM74.1543 18.41L73.6641 19.2816C74.0365 19.4911 74.3265 19.7794 74.5448 20.1638L75.4143 19.67L76.2839 19.1762C75.8889 18.4806 75.3388 17.9289 74.6446 17.5384L74.1543 18.41ZM75.4143 19.67L74.5448 20.1638C74.7571 20.5378 74.8743 20.9777 74.8743 21.51H75.8743H76.8743C76.8743 20.669 76.6849 19.8822 76.2839 19.1762L75.4143 19.67ZM75.8743 21.51H74.8743C74.8743 22.0423 74.7571 22.4822 74.5448 22.8562L75.4143 23.35L76.2839 23.8438C76.6849 23.1378 76.8743 22.351 76.8743 21.51H75.8743ZM75.4143 23.35L74.5448 22.8562C74.3254 23.2425 74.0329 23.5363 73.6559 23.7531L74.1543 24.62L74.6528 25.4869C75.3425 25.0904 75.8899 24.5375 76.2839 23.8438L75.4143 23.35ZM74.1543 24.62L73.6641 23.7484C73.2906 23.9585 72.8679 24.07 72.3743 24.07V25.07V26.07C73.1874 26.07 73.9515 25.8815 74.6446 25.4916L74.1543 24.62ZM72.3743 24.28V25.28C73.023 25.28 73.637 25.1269 74.1901 24.8027L73.6843 23.94L73.1786 23.0773C72.9584 23.2064 72.699 23.28 72.3743 23.28V24.28ZM73.6843 23.94L74.1836 24.8064C74.7489 24.4807 75.1862 24.0143 75.4902 23.434L74.6043 22.97L73.7185 22.506C73.5824 22.7657 73.4064 22.946 73.185 23.0736L73.6843 23.94ZM74.6043 22.97L75.4844 23.4449C75.8015 22.8573 75.9443 22.2026 75.9443 21.51H74.9443H73.9443C73.9443 21.9241 73.8605 22.2427 73.7243 22.4951L74.6043 22.97ZM74.9443 21.51H75.9443C75.9443 20.8135 75.8026 20.1553 75.4811 19.5692L74.6043 20.05L73.7275 20.5308C73.8594 20.7714 73.9443 21.0865 73.9443 21.51H74.9443ZM74.6043 20.05L75.4902 19.586C75.1885 19.0102 74.7578 18.5442 74.2001 18.2173L73.6943 19.08L73.1886 19.9427C73.4043 20.0691 73.5801 20.2498 73.7185 20.514L74.6043 20.05ZM73.6943 19.08L74.2001 18.2173C73.6449 17.8919 73.027 17.74 72.3743 17.74V18.74V19.74C72.7083 19.74 72.9705 19.8148 73.1886 19.9427L73.6943 19.08ZM72.3743 18.74V17.74C71.7216 17.74 71.1038 17.8919 70.5486 18.2173L71.0543 19.08L71.5601 19.9427C71.7782 19.8148 72.0404 19.74 72.3743 19.74V18.74ZM71.0543 19.08L70.5486 18.2173C69.9937 18.5426 69.562 19.0049 69.2543 19.5751L70.1343 20.05L71.0144 20.5249C71.16 20.2551 71.3416 20.0707 71.5601 19.9427L71.0543 19.08ZM70.1343 20.05L69.2516 19.5802C68.9409 20.1639 68.8043 20.8181 68.8043 21.51H69.8043H70.8043C70.8043 21.0819 70.8878 20.7627 71.0171 20.5198L70.1343 20.05ZM69.8043 21.51H68.8043C68.8043 22.1979 68.9419 22.8487 69.2485 23.434L70.1343 22.97L71.0202 22.506C70.8868 22.2513 70.8043 21.9288 70.8043 21.51H69.8043ZM70.1343 22.97L69.2543 23.4449C69.562 24.0151 69.9937 24.4774 70.5486 24.8027L71.0543 23.94L71.5601 23.0773C71.3416 22.9493 71.16 22.7649 71.0144 22.4951L70.1343 22.97ZM71.0543 23.94L70.555 24.8064C71.1111 25.1269 71.7255 25.28 72.3743 25.28V24.28V23.28C72.0499 23.28 71.7842 23.2064 71.5536 23.0736L71.0543 23.94ZM80.7117 24.83L80.2916 25.7375L80.3016 25.7421L80.3117 25.7465L80.7117 24.83ZM79.8617 24.15L79.0441 24.726L79.0505 24.7348L79.8617 24.15ZM79.5417 23.14V22.14H78.524L78.5418 23.1575L79.5417 23.14ZM80.5117 23.14L81.5065 23.0385L81.4148 22.14H80.5117V23.14ZM80.9117 23.97L80.2149 24.6873L80.2253 24.6974L80.236 24.7072L80.9117 23.97ZM82.9717 23.98L83.6258 24.7364L83.6274 24.735L82.9717 23.98ZM83.1317 22.49L82.381 23.1506L82.381 23.1506L83.1317 22.49ZM82.5817 22.11L82.2152 23.0404L82.2152 23.0404L82.5817 22.11ZM81.6917 21.83L81.9504 20.864L81.9441 20.8624L81.6917 21.83ZM80.5817 21.47L80.1797 22.3857L80.1878 22.3891L80.5817 21.47ZM79.8717 20.91L79.0692 21.5067L79.0778 21.5183L79.0868 21.5296L79.8717 20.91ZM79.8717 18.86L80.7066 19.4103L80.7066 19.4103L79.8717 18.86ZM80.6817 18.18L80.2692 17.269L80.2626 17.272L80.6817 18.18ZM83.4917 18.43L82.8716 19.2146L82.8777 19.2194L83.4917 18.43ZM84.2017 19.73V20.73H85.3053L85.1968 19.6317L84.2017 19.73ZM83.2017 19.73L82.2094 19.854L82.3189 20.73H83.2017V19.73ZM82.7817 19.03L82.1395 19.7965L82.1456 19.8017L82.1519 19.8068L82.7817 19.03ZM80.8717 19.02L81.499 19.7988L81.5055 19.7935L81.5119 19.7882L80.8717 19.02ZM80.7217 20.46L79.9691 21.1185L79.9767 21.1272L79.9845 21.1357L80.7217 20.46ZM81.2517 20.83L80.865 21.7522L80.8826 21.7596L80.9006 21.7663L81.2517 20.83ZM82.1417 21.11L81.8714 22.0728L81.8762 22.0741L82.1417 21.11ZM83.2517 21.49L82.8395 22.4011L82.8486 22.4052L82.8578 22.4091L83.2517 21.49ZM83.9717 22.06L83.179 22.6698L83.1868 22.6796L83.9717 22.06ZM84.0017 24.06L84.8592 24.5745L84.8592 24.5745L84.0017 24.06ZM83.2017 24.79L82.7346 23.9058L83.2017 24.79ZM81.9517 25.07V24.07C81.6088 24.07 81.3346 24.0108 81.1116 23.9135L80.7117 24.83L80.3117 25.7465C80.8221 25.9692 81.3745 26.07 81.9517 26.07V25.07ZM80.7117 24.83L81.1318 23.9225C80.9082 23.819 80.7672 23.6961 80.6729 23.5652L79.8617 24.15L79.0505 24.7348C79.3695 25.1773 79.7951 25.5076 80.2916 25.7375L80.7117 24.83ZM79.8617 24.15L80.6792 23.574C80.5948 23.4543 80.5449 23.3148 80.5415 23.1225L79.5417 23.14L78.5418 23.1575C78.5518 23.7252 78.7152 24.259 79.0442 24.726L79.8617 24.15ZM79.5417 23.14V24.14H80.5117V23.14V22.14H79.5417V23.14ZM80.5117 23.14L79.5168 23.2415C79.5738 23.7997 79.8112 24.2951 80.2149 24.6873L80.9117 23.97L81.6085 23.2527C81.5455 23.1916 81.5162 23.1337 81.5065 23.0385L80.5117 23.14ZM80.9117 23.97L80.236 24.7072C80.722 25.1527 81.3467 25.3 81.9517 25.3V24.3V23.3C81.8035 23.3 81.709 23.2817 81.6541 23.2643C81.6031 23.2481 81.5882 23.2336 81.5874 23.2328L80.9117 23.97ZM81.9517 24.3V25.3C82.5453 25.3 83.1449 25.1523 83.6258 24.7364L82.9717 23.98L82.3175 23.2236C82.3051 23.2344 82.2248 23.3 81.9517 23.3V24.3ZM82.9717 23.98L83.6274 24.735C84.1027 24.3222 84.3517 23.7652 84.3517 23.14H83.3517H82.3517C82.3517 23.1627 82.3496 23.1766 82.3482 23.1836C82.3468 23.1902 82.3456 23.1927 82.3456 23.1928C82.3455 23.1929 82.3448 23.1946 82.3418 23.1987C82.3385 23.2029 82.331 23.2119 82.316 23.225L82.9717 23.98ZM83.3517 23.14H84.3517C84.3517 22.6815 84.2207 22.2138 83.8824 21.8294L83.1317 22.49L82.381 23.1506C82.3736 23.1423 82.3666 23.1325 82.3606 23.1221C82.3547 23.1118 82.3512 23.1033 82.3495 23.0981C82.3459 23.0876 82.3517 23.098 82.3517 23.14H83.3517ZM83.1317 22.49L83.8824 21.8294C83.6241 21.5359 83.306 21.3205 82.9482 21.1796L82.5817 22.11L82.2152 23.0404C82.2974 23.0728 82.3459 23.1108 82.381 23.1506L83.1317 22.49ZM82.5817 22.11L82.9482 21.1796C82.678 21.0732 82.3405 20.9685 81.9504 20.8641L81.6917 21.83L81.4329 22.7959C81.7895 22.8915 82.0453 22.9735 82.2152 23.0404L82.5817 22.11ZM81.6917 21.83L81.9441 20.8624C81.5088 20.7488 81.1917 20.6435 80.9756 20.5509L80.5817 21.47L80.1878 22.3891C80.5316 22.5365 80.9545 22.6712 81.4393 22.7976L81.6917 21.83ZM80.5817 21.47L80.9837 20.5544C80.8723 20.5055 80.7635 20.4259 80.6566 20.2904L79.8717 20.91L79.0868 21.5296C79.3798 21.9008 79.7444 22.1945 80.1797 22.3856L80.5817 21.47ZM79.8717 20.91L80.6741 20.3133C80.6462 20.2757 80.5817 20.1603 80.5817 19.87H79.5817H78.5817C78.5817 20.4464 78.7105 21.0243 79.0692 21.5067L79.8717 20.91ZM79.5817 19.87H80.5817C80.5817 19.6689 80.6298 19.5269 80.7066 19.4103L79.8717 18.86L79.0367 18.3097C78.7269 18.7798 78.5817 19.3111 78.5817 19.87H79.5817ZM79.8717 18.86L80.7066 19.4103C80.7885 19.2861 80.9081 19.1769 81.1007 19.088L80.6817 18.18L80.2626 17.272C79.7619 17.5031 79.3415 17.8473 79.0367 18.3097L79.8717 18.86ZM80.6817 18.18L81.0942 19.091C81.2979 18.9987 81.5568 18.94 81.8917 18.94V17.94V16.94C81.3199 16.94 80.7722 17.0413 80.2692 17.269L80.6817 18.18ZM81.8917 17.94V18.94C82.3753 18.94 82.6739 19.0583 82.8716 19.2146L83.4917 18.43L84.1117 17.6454C83.4828 17.1484 82.7147 16.94 81.8917 16.94V17.94ZM83.4917 18.43L82.8777 19.2194C83.0765 19.3739 83.1795 19.555 83.2065 19.8283L84.2017 19.73L85.1968 19.6317C85.1172 18.8249 84.7469 18.1394 84.1056 17.6406L83.4917 18.43ZM84.2017 19.73V18.73H83.2017V19.73V20.73H84.2017V19.73ZM83.2017 19.73L84.194 19.606C84.1229 19.0373 83.8198 18.5843 83.4115 18.2532L82.7817 19.03L82.1519 19.8068C82.1994 19.8453 82.2133 19.868 82.2142 19.8695C82.2147 19.8704 82.2134 19.8683 82.2118 19.8638C82.2103 19.8593 82.2096 19.8556 82.2094 19.854L83.2017 19.73ZM82.7817 19.03L83.4239 18.2635C82.9539 17.8697 82.3797 17.72 81.8017 17.72V18.72V19.72C82.037 19.72 82.1161 19.777 82.1395 19.7965L82.7817 19.03ZM81.8017 18.72V17.72C81.2403 17.72 80.6878 17.8715 80.2315 18.2518L80.8717 19.02L81.5119 19.7882C81.5356 19.7685 81.6031 19.72 81.8017 19.72V18.72ZM80.8717 19.02L80.2443 18.2412C79.7324 18.6536 79.5117 19.234 79.5117 19.84H80.5117H81.5117C81.5117 19.7767 81.5222 19.7609 81.5173 19.772C81.5151 19.7771 81.5112 19.784 81.506 19.7908C81.5008 19.7975 81.4974 19.8 81.499 19.7988L80.8717 19.02ZM80.5117 19.84H79.5117C79.5117 20.2868 79.6402 20.7426 79.9691 21.1185L80.7217 20.46L81.4743 19.8015C81.4826 19.8111 81.4907 19.8222 81.4976 19.8343C81.5044 19.8463 81.5088 19.8567 81.5113 19.8642C81.5164 19.8793 81.5117 19.8748 81.5117 19.84H80.5117ZM80.7217 20.46L79.9845 21.1357C80.232 21.4057 80.5295 21.6115 80.865 21.7522L81.2517 20.83L81.6384 19.9078C81.5605 19.8751 81.5047 19.8343 81.4588 19.7843L80.7217 20.46ZM81.2517 20.83L80.9006 21.7663C81.1528 21.8609 81.4807 21.9631 81.8714 22.0728L82.1417 21.11L82.4119 20.1472C82.0426 20.0435 81.7772 19.9591 81.6028 19.8937L81.2517 20.83ZM82.1417 21.11L81.8762 22.0741C82.3102 22.1936 82.6254 22.3042 82.8395 22.4011L83.2517 21.49L83.6638 20.5789C83.318 20.4224 82.8932 20.2797 82.4072 20.1459L82.1417 21.11ZM83.2517 21.49L82.8578 22.4091C82.9686 22.4566 83.0751 22.5345 83.1791 22.6697L83.9717 22.06L84.7643 21.4503C84.4683 21.0655 84.0948 20.7634 83.6456 20.5709L83.2517 21.49ZM83.9717 22.06L83.1868 22.6796C83.2044 22.702 83.2717 22.8039 83.2717 23.1H84.2717H85.2717C85.2717 22.5161 85.1389 21.9247 84.7566 21.4404L83.9717 22.06ZM84.2717 23.1H83.2717C83.2717 23.2533 83.2338 23.3962 83.1442 23.5455L84.0017 24.06L84.8592 24.5745C85.1296 24.1238 85.2717 23.6267 85.2717 23.1H84.2717ZM84.0017 24.06L83.1442 23.5455C83.0709 23.6677 82.9499 23.792 82.7346 23.9058L83.2017 24.79L83.6688 25.6742C84.1601 25.4146 84.5725 25.0523 84.8592 24.5745L84.0017 24.06ZM83.2017 24.79L82.7346 23.9058C82.5514 24.0025 82.3014 24.07 81.9517 24.07V25.07V26.07C82.562 26.07 83.1453 25.9508 83.6688 25.6742L83.2017 24.79ZM89.1868 18.77V17.77H88.1868V18.77H89.1868ZM89.1868 21.1H88.1868V22.1H89.1868V21.1ZM91.7268 21.1H92.7268V20.1H91.7268V21.1ZM91.7268 21.85V22.85H92.7268V21.85H91.7268ZM89.1868 21.85V20.85H88.1868V21.85H89.1868ZM89.1868 24.25H88.1868V25.25H89.1868V24.25ZM92.0268 24.25H93.0268V23.25H92.0268V24.25ZM92.0268 25V26H93.0268V25H92.0268ZM88.2768 25H87.2768V26H88.2768V25ZM88.2768 18.02V17.02H87.2768V18.02H88.2768ZM92.0268 18.02H93.0268V17.02H92.0268V18.02ZM92.0268 18.77V19.77H93.0268V18.77H92.0268ZM89.1868 18.77H88.1868V21.1H89.1868H90.1868V18.77H89.1868ZM89.1868 21.1V22.1H91.7268V21.1V20.1H89.1868V21.1ZM91.7268 21.1H90.7268V21.85H91.7268H92.7268V21.1H91.7268ZM91.7268 21.85V20.85H89.1868V21.85V22.85H91.7268V21.85ZM89.1868 21.85H88.1868V24.25H89.1868H90.1868V21.85H89.1868ZM89.1868 24.25V25.25H92.0268V24.25V23.25H89.1868V24.25ZM92.0268 24.25H91.0268V25H92.0268H93.0268V24.25H92.0268ZM92.0268 25V24H88.2768V25V26H92.0268V25ZM88.2768 25H89.2768V18.02H88.2768H87.2768V25H88.2768ZM88.2768 18.02V19.02H92.0268V18.02V17.02H88.2768V18.02ZM92.0268 18.02H91.0268V18.77H92.0268H93.0268V18.02H92.0268ZM92.0268 18.77V17.77H89.1868V18.77V19.77H92.0268V18.77ZM50.5031 33.08H51.5031V32.08H50.5031V33.08ZM50.5031 40V41H51.5031V40H50.5031ZM49.5931 40H48.5931V41H49.5931V40ZM49.5931 34.84H50.5931L48.6797 34.4329L49.5931 34.84ZM47.2931 40V41H47.9422L48.2065 40.4071L47.2931 40ZM46.6531 40L45.7401 40.4079L46.0046 41H46.6531V40ZM44.3431 34.83L45.2561 34.4221L43.3431 34.83H44.3431ZM44.3431 40V41H45.3431V40H44.3431ZM43.4331 40H42.4331V41H43.4331V40ZM43.4331 33.08V32.08H42.4331V33.08H43.4331ZM44.4131 33.08L45.3258 32.6715L45.0611 32.08H44.4131V33.08ZM46.9731 38.8L46.0603 39.2085L46.9731 41.2479L47.8858 39.2085L46.9731 38.8ZM49.5331 33.08V32.08H48.8851L48.6203 32.6715L49.5331 33.08ZM50.5031 33.08H49.5031V40H50.5031H51.5031V33.08H50.5031ZM50.5031 40V39H49.5931V40V41H50.5031V40ZM49.5931 40H50.5931V34.84H49.5931H48.5931V40H49.5931ZM49.5931 34.84L48.6797 34.4329L46.3797 39.5929L47.2931 40L48.2065 40.4071L50.5065 35.2471L49.5931 34.84ZM47.2931 40V39H46.6531V40V41H47.2931V40ZM46.6531 40L47.5661 39.5921L45.2561 34.4221L44.3431 34.83L43.4301 35.2379L45.7401 40.4079L46.6531 40ZM44.3431 34.83H43.3431V40H44.3431H45.3431V34.83H44.3431ZM44.3431 40V39H43.4331V40V41H44.3431V40ZM43.4331 40H44.4331V33.08H43.4331H42.4331V40H43.4331ZM43.4331 33.08V34.08H44.4131V33.08V32.08H43.4331V33.08ZM44.4131 33.08L43.5003 33.4885L46.0603 39.2085L46.9731 38.8L47.8858 38.3915L45.3258 32.6715L44.4131 33.08ZM46.9731 38.8L47.8858 39.2085L50.4458 33.4885L49.5331 33.08L48.6203 32.6715L46.0603 38.3915L46.9731 38.8ZM49.5331 33.08V34.08H50.5031V33.08V32.08H49.5331V33.08ZM55.6224 33.77V32.77H54.6224V33.77H55.6224ZM55.6224 36.1H54.6224V37.1H55.6224V36.1ZM58.1624 36.1H59.1624V35.1H58.1624V36.1ZM58.1624 36.85V37.85H59.1624V36.85H58.1624ZM55.6224 36.85V35.85H54.6224V36.85H55.6224ZM55.6224 39.25H54.6224V40.25H55.6224V39.25ZM58.4624 39.25H59.4624V38.25H58.4624V39.25ZM58.4624 40V41H59.4624V40H58.4624ZM54.7124 40H53.7124V41H54.7124V40ZM54.7124 33.02V32.02H53.7124V33.02H54.7124ZM58.4624 33.02H59.4624V32.02H58.4624V33.02ZM58.4624 33.77V34.77H59.4624V33.77H58.4624ZM55.6224 33.77H54.6224V36.1H55.6224H56.6224V33.77H55.6224ZM55.6224 36.1V37.1H58.1624V36.1V35.1H55.6224V36.1ZM58.1624 36.1H57.1624V36.85H58.1624H59.1624V36.1H58.1624ZM58.1624 36.85V35.85H55.6224V36.85V37.85H58.1624V36.85ZM55.6224 36.85H54.6224V39.25H55.6224H56.6224V36.85H55.6224ZM55.6224 39.25V40.25H58.4624V39.25V38.25H55.6224V39.25ZM58.4624 39.25H57.4624V40H58.4624H59.4624V39.25H58.4624ZM58.4624 40V39H54.7124V40V41H58.4624V40ZM54.7124 40H55.7124V33.02H54.7124H53.7124V40H54.7124ZM54.7124 33.02V34.02H58.4624V33.02V32.02H54.7124V33.02ZM58.4624 33.02H57.4624V33.77H58.4624H59.4624V33.02H58.4624ZM58.4624 33.77V32.77H55.6224V33.77V34.77H58.4624V33.77ZM66.6454 33.46L66.1853 34.3479L66.1917 34.3512L66.1981 34.3544L66.6454 33.46ZM67.9254 34.67L67.0517 35.1566L67.0564 35.165L67.9254 34.67ZM67.9254 38.39L67.0564 37.895L67.0544 37.8987L67.9254 38.39ZM66.6454 39.59L67.0882 40.4866L67.0926 40.4844L66.6454 39.59ZM62.5054 40H61.5054V41H62.5054V40ZM62.5054 33.03V32.03H61.5054V33.03H62.5054ZM66.7354 38.54L67.4425 39.2471L67.4474 39.2421L66.7354 38.54ZM66.7254 34.5L66.0085 35.1972L66.0134 35.2022L66.7254 34.5ZM63.4154 33.77V32.77H62.4154V33.77H63.4154ZM63.4154 39.25H62.4154V40.25H63.4154V39.25ZM64.6754 33.03V34.03C65.31 34.03 65.8021 34.1494 66.1853 34.3479L66.6454 33.46L67.1054 32.5721C66.382 32.1973 65.5607 32.03 64.6754 32.03V33.03ZM66.6454 33.46L66.1981 34.3544C66.5856 34.5481 66.8602 34.8127 67.0517 35.1566L67.9254 34.67L68.799 34.1834C68.4038 33.474 67.8251 32.9319 67.0926 32.5656L66.6454 33.46ZM67.9254 34.67L67.0564 35.165C67.2564 35.5161 67.3754 35.9593 67.3754 36.53H68.3754H69.3754C69.3754 35.674 69.1943 34.8773 68.7943 34.175L67.9254 34.67ZM68.3754 36.53H67.3754C67.3754 37.1006 67.2564 37.5439 67.0564 37.895L67.9254 38.39L68.7943 38.885C69.1943 38.1827 69.3754 37.386 69.3754 36.53H68.3754ZM67.9254 38.39L67.0544 37.8987C66.8639 38.2364 66.589 38.5001 66.1981 38.6956L66.6454 39.59L67.0926 40.4844C67.8217 40.1199 68.4002 39.5836 68.7963 38.8813L67.9254 38.39ZM66.6454 39.59L66.2025 38.6934C65.815 38.8848 65.3166 39 64.6754 39V40V41C65.5541 41 66.369 40.8419 67.0882 40.4866L66.6454 39.59ZM64.6754 40V39H62.5054V40V41H64.6754V40ZM62.5054 40H63.5054V33.03H62.5054H61.5054V40H62.5054ZM62.5054 33.03V34.03H64.6754V33.03V32.03H62.5054V33.03ZM64.6754 39.25V40.25C65.7465 40.25 66.7241 39.9654 67.4425 39.2471L66.7354 38.54L66.0282 37.8329C65.7999 38.0612 65.4042 38.25 64.6754 38.25V39.25ZM66.7354 38.54L67.4474 39.2421C68.1524 38.5272 68.4454 37.5769 68.4454 36.53H67.4454H66.4454C66.4454 37.2031 66.265 37.5928 66.0233 37.8379L66.7354 38.54ZM67.4454 36.53H68.4454C68.4454 35.4744 68.148 34.5183 67.4373 33.7978L66.7254 34.5L66.0134 35.2022C66.2627 35.455 66.4454 35.8523 66.4454 36.53H67.4454ZM66.7254 34.5L67.4422 33.8028C66.7265 33.0669 65.7498 32.77 64.6754 32.77V33.77V34.77C65.3876 34.77 65.7775 34.9597 66.0085 35.1972L66.7254 34.5ZM64.6754 33.77V32.77H63.4154V33.77V34.77H64.6754V33.77ZM63.4154 33.77H62.4154V39.25H63.4154H64.4154V33.77H63.4154ZM63.4154 39.25V40.25H64.6754V39.25V38.25H63.4154V39.25ZM73.1517 33.03H74.1517V32.03H73.1517V33.03ZM73.1517 40V41H74.1517V40H73.1517ZM72.2417 40H71.2417V41H72.2417V40ZM72.2417 33.03V32.03H71.2417V33.03H72.2417ZM73.1517 33.03H72.1517V40H73.1517H74.1517V33.03H73.1517ZM73.1517 40V39H72.2417V40V41H73.1517V40ZM72.2417 40H73.2417V33.03H72.2417H71.2417V40H72.2417ZM72.2417 33.03V34.03H73.1517V33.03V32.03H72.2417V33.03ZM81.4886 38.45L82.4291 38.1102L82.1906 37.45H81.4886V38.45ZM78.4486 38.45V37.45H77.7467L77.5081 38.1102L78.4486 38.45ZM77.8886 40V41H78.5906L78.8291 40.3398L77.8886 40ZM76.9286 40L75.9888 39.6583L75.5009 41H76.9286V40ZM79.4486 33.07V32.07H78.7482L78.5088 32.7283L79.4486 33.07ZM80.4986 33.07L81.4389 32.7295L81.2 32.07H80.4986V33.07ZM83.0086 40V41H84.4344L83.9489 39.6595L83.0086 40ZM82.0486 40L81.1081 40.3398L81.3467 41H82.0486V40ZM81.2286 37.71V38.71H82.6487L82.1701 37.373L81.2286 37.71ZM79.9686 34.19L80.9101 33.853L79.9686 31.2228L79.0271 33.853L79.9686 34.19ZM78.7086 37.71L77.7671 37.373L77.2885 38.71H78.7086V37.71ZM81.4886 38.45V37.45H78.4486V38.45V39.45H81.4886V38.45ZM78.4486 38.45L77.5081 38.1102L76.9481 39.6602L77.8886 40L78.8291 40.3398L79.3891 38.7898L78.4486 38.45ZM77.8886 40V39H76.9286V40V41H77.8886V40ZM76.9286 40L77.8684 40.3417L80.3884 33.4117L79.4486 33.07L78.5088 32.7283L75.9888 39.6583L76.9286 40ZM79.4486 33.07V34.07H80.4986V33.07V32.07H79.4486V33.07ZM80.4986 33.07L79.5584 33.4105L82.0684 40.3405L83.0086 40L83.9489 39.6595L81.4389 32.7295L80.4986 33.07ZM83.0086 40V39H82.0486V40V41H83.0086V40ZM82.0486 40L82.9891 39.6602L82.4291 38.1102L81.4886 38.45L80.5481 38.7898L81.1081 40.3398L82.0486 40ZM81.2286 37.71L82.1701 37.373L80.9101 33.853L79.9686 34.19L79.0271 34.527L80.2871 38.047L81.2286 37.71ZM79.9686 34.19L79.0271 33.853L77.7671 37.373L78.7086 37.71L79.6501 38.047L80.9101 34.527L79.9686 34.19ZM78.7086 37.71V38.71H81.2286V37.71V36.71H78.7086V37.71Z" fill="black" mask="url(#path-3-inside-1_511_1334)"/>
</g>
<defs>
<filter id="filter0_d_511_1334" x="10" y="10.25" width="109.504" height="51.25" filterUnits="userSpaceOnUse" color-interpolation-filters="sRGB">
<feFlood flood-opacity="0" result="BackgroundImageFix"/>
<feColorMatrix in="SourceAlpha" type="matrix" values="0 0 0 0 0 0 0 0 0 0 0 0 0 0 0 0 0 0 127 0" result="hardAlpha"/>
<feOffset dy="4"/>
<feGaussianBlur stdDeviation="2"/>
<feComposite in2="hardAlpha" operator="out"/>
<feColorMatrix type="matrix" values="0 0 0 0 0 0 0 0 0 0 0 0 0 0 0 0 0 0 0.25 0"/>
<feBlend mode="normal" in2="BackgroundImageFix" result="effect1_dropShadow_511_1334"/>
<feBlend mode="normal" in="SourceGraphic" in2="effect1_dropShadow_511_1334" result="shape"/>
</filter>
<filter id="filter1_d_511_1334" x="30.1362" y="17.9404" width="65.8906" height="30.0596" filterUnits="userSpaceOnUse" color-interpolation-filters="sRGB">
<feFlood flood-opacity="0" result="BackgroundImageFix"/>
<feColorMatrix in="SourceAlpha" type="matrix" values="0 0 0 0 0 0 0 0 0 0 0 0 0 0 0 0 0 0 127 0" result="hardAlpha"/>
<feOffset dy="4"/>
<feGaussianBlur stdDeviation="2"/>
<feComposite in2="hardAlpha" operator="out"/>
<feColorMatrix type="matrix" values="0 0 0 0 0 0 0 0 0 0 0 0 0 0 0 0 0 0 0.25 0"/>
<feBlend mode="normal" in2="BackgroundImageFix" result="effect1_dropShadow_511_1334"/>
<feBlend mode="normal" in="SourceGraphic" in2="effect1_dropShadow_511_1334" result="shape"/>
</filter>
</defs>
</svg>
