<svg width="85" height="34" viewBox="0 0 85 34" fill="none" xmlns="http://www.w3.org/2000/svg">
<rect width="85" height="34" rx="10" fill="black"/>
<path d="M30.63 21L26.886 14.565V21H24.975V11.692H26.938L30.63 18.023V11.692H32.541V21H30.63ZM40.2697 18.023H35.6417C35.6677 18.5777 35.7544 18.972 35.9017 19.206C36.153 19.5873 36.5474 19.778 37.0847 19.778C37.752 19.778 38.1984 19.5007 38.4237 18.946H40.1917C39.9924 19.622 39.6024 20.1593 39.0217 20.558C38.4497 20.948 37.778 21.143 37.0067 21.143C35.958 21.143 35.152 20.792 34.5887 20.09C34.0947 19.4747 33.8477 18.6643 33.8477 17.659C33.8477 16.437 34.1684 15.4923 34.8097 14.825C35.373 14.253 36.114 13.967 37.0327 13.967C37.7347 13.967 38.35 14.1403 38.8787 14.487C39.4074 14.8337 39.7844 15.319 40.0097 15.943C40.1917 16.4283 40.2827 17.0133 40.2827 17.698C40.2827 17.7847 40.2784 17.893 40.2697 18.023ZM38.4107 16.84C38.324 15.8347 37.8604 15.332 37.0197 15.332C36.231 15.332 35.7804 15.8347 35.6677 16.84H38.4107ZM45.2304 17.529L47.5444 21H45.3994L44.2294 18.855L43.0594 21H40.9144L43.2154 17.529L40.9664 14.11H43.1114L44.2294 16.19L45.3474 14.11H47.4924L45.2304 17.529ZM51.8727 14.11V15.293H50.6637V19.128C50.6637 19.3793 50.707 19.5527 50.7937 19.648C50.889 19.7433 51.058 19.791 51.3007 19.791C51.5 19.791 51.7557 19.713 52.0677 19.557C52.0937 19.5397 52.1154 19.5267 52.1327 19.518L52.3407 20.74C51.7947 21.0087 51.2227 21.143 50.6247 21.143C49.4547 21.143 48.8697 20.6057 48.8697 19.531V15.293H47.9857V14.11H48.8697V12.966L50.6637 11.939V14.11H51.8727ZM63.3591 18.27C63.4458 18.0447 63.5411 17.8367 63.6451 17.646C63.7491 17.4467 63.8661 17.2603 63.9961 17.087H57.0281V16.021H63.9961C63.8748 15.8477 63.7621 15.6657 63.6581 15.475C63.5541 15.2757 63.4588 15.0633 63.3721 14.838H64.3601C64.8975 15.4707 65.4868 15.9517 66.1281 16.281V16.84C65.4868 17.152 64.8975 17.6287 64.3601 18.27H63.3591Z" fill="white"/>
</svg>
