<svg width="326" height="70" viewBox="0 0 326 70" fill="none" xmlns="http://www.w3.org/2000/svg">
<rect x="0.5" y="0.5" width="325" height="69" rx="7.5" fill="white"/>
<rect x="0.5" y="0.5" width="325" height="69" rx="7.5" stroke="#303030"/>
<path d="M63.8446 38.52H67.2046V40.5H61.2796V29.97H63.8446V38.52ZM69.718 31.26C69.268 31.26 68.898 31.13 68.608 30.87C68.328 30.6 68.188 30.27 68.188 29.88C68.188 29.48 68.328 29.15 68.608 28.89C68.898 28.62 69.268 28.485 69.718 28.485C70.158 28.485 70.518 28.62 70.798 28.89C71.088 29.15 71.233 29.48 71.233 29.88C71.233 30.27 71.088 30.6 70.798 30.87C70.518 31.13 70.158 31.26 69.718 31.26ZM70.993 32.13V40.5H68.428V32.13H70.993ZM76.6169 38.1L78.4319 32.13H81.1619L78.1919 40.5H75.0269L72.0569 32.13H74.8019L76.6169 38.1ZM90.1315 36.18C90.1315 36.42 90.1165 36.67 90.0865 36.93H84.2815C84.3215 37.45 84.4865 37.85 84.7765 38.13C85.0765 38.4 85.4415 38.535 85.8715 38.535C86.5115 38.535 86.9565 38.265 87.2065 37.725H89.9365C89.7965 38.275 89.5415 38.77 89.1715 39.21C88.8115 39.65 88.3565 39.995 87.8065 40.245C87.2565 40.495 86.6415 40.62 85.9615 40.62C85.1415 40.62 84.4115 40.445 83.7715 40.095C83.1315 39.745 82.6315 39.245 82.2715 38.595C81.9115 37.945 81.7315 37.185 81.7315 36.315C81.7315 35.445 81.9065 34.685 82.2565 34.035C82.6165 33.385 83.1165 32.885 83.7565 32.535C84.3965 32.185 85.1315 32.01 85.9615 32.01C86.7715 32.01 87.4915 32.18 88.1215 32.52C88.7515 32.86 89.2415 33.345 89.5915 33.975C89.9515 34.605 90.1315 35.34 90.1315 36.18ZM87.5065 35.505C87.5065 35.065 87.3565 34.715 87.0565 34.455C86.7565 34.195 86.3815 34.065 85.9315 34.065C85.5015 34.065 85.1365 34.19 84.8365 34.44C84.5465 34.69 84.3665 35.045 84.2965 35.505H87.5065ZM90.9747 36.3C90.9747 35.44 91.1347 34.685 91.4547 34.035C91.7847 33.385 92.2297 32.885 92.7897 32.535C93.3497 32.185 93.9747 32.01 94.6647 32.01C95.2147 32.01 95.7147 32.125 96.1647 32.355C96.6247 32.585 96.9847 32.895 97.2447 33.285V29.4H99.8097V40.5H97.2447V39.3C97.0047 39.7 96.6597 40.02 96.2097 40.26C95.7697 40.5 95.2547 40.62 94.6647 40.62C93.9747 40.62 93.3497 40.445 92.7897 40.095C92.2297 39.735 91.7847 39.23 91.4547 38.58C91.1347 37.92 90.9747 37.16 90.9747 36.3ZM97.2447 36.315C97.2447 35.675 97.0647 35.17 96.7047 34.8C96.3547 34.43 95.9247 34.245 95.4147 34.245C94.9047 34.245 94.4697 34.43 94.1097 34.8C93.7597 35.16 93.5847 35.66 93.5847 36.3C93.5847 36.94 93.7597 37.45 94.1097 37.83C94.4697 38.2 94.9047 38.385 95.4147 38.385C95.9247 38.385 96.3547 38.2 96.7047 37.83C97.0647 37.46 97.2447 36.955 97.2447 36.315ZM107.409 32.025V34.155H110.844V36.135H107.409V38.445H111.294V40.5H104.844V29.97H111.294V32.025H107.409ZM117.909 40.5L116.304 38.175L114.954 40.5H112.179L114.939 36.225L112.104 32.13H114.984L116.589 34.44L117.939 32.13H120.714L117.909 36.345L120.789 40.5H117.909ZM124.343 33.315C124.593 32.925 124.938 32.61 125.378 32.37C125.818 32.13 126.333 32.01 126.923 32.01C127.613 32.01 128.238 32.185 128.798 32.535C129.358 32.885 129.798 33.385 130.118 34.035C130.448 34.685 130.613 35.44 130.613 36.3C130.613 37.16 130.448 37.92 130.118 38.58C129.798 39.23 129.358 39.735 128.798 40.095C128.238 40.445 127.613 40.62 126.923 40.62C126.343 40.62 125.828 40.5 125.378 40.26C124.938 40.02 124.593 39.71 124.343 39.33V44.49H121.778V32.13H124.343V33.315ZM128.003 36.3C128.003 35.66 127.823 35.16 127.463 34.8C127.113 34.43 126.678 34.245 126.158 34.245C125.648 34.245 125.213 34.43 124.853 34.8C124.503 35.17 124.328 35.675 124.328 36.315C124.328 36.955 124.503 37.46 124.853 37.83C125.213 38.2 125.648 38.385 126.158 38.385C126.668 38.385 127.103 38.2 127.463 37.83C127.823 37.45 128.003 36.94 128.003 36.3ZM139.848 36.18C139.848 36.42 139.833 36.67 139.803 36.93H133.998C134.038 37.45 134.203 37.85 134.493 38.13C134.793 38.4 135.158 38.535 135.588 38.535C136.228 38.535 136.673 38.265 136.923 37.725H139.653C139.513 38.275 139.258 38.77 138.888 39.21C138.528 39.65 138.073 39.995 137.523 40.245C136.973 40.495 136.358 40.62 135.678 40.62C134.858 40.62 134.128 40.445 133.488 40.095C132.848 39.745 132.348 39.245 131.988 38.595C131.628 37.945 131.448 37.185 131.448 36.315C131.448 35.445 131.623 34.685 131.973 34.035C132.333 33.385 132.833 32.885 133.473 32.535C134.113 32.185 134.848 32.01 135.678 32.01C136.488 32.01 137.208 32.18 137.838 32.52C138.468 32.86 138.958 33.345 139.308 33.975C139.668 34.605 139.848 35.34 139.848 36.18ZM137.223 35.505C137.223 35.065 137.073 34.715 136.773 34.455C136.473 34.195 136.098 34.065 135.648 34.065C135.218 34.065 134.853 34.19 134.553 34.44C134.263 34.69 134.083 35.045 134.013 35.505H137.223ZM143.766 33.525C144.066 33.065 144.441 32.705 144.891 32.445C145.341 32.175 145.841 32.04 146.391 32.04V34.755H145.686C145.046 34.755 144.566 34.895 144.246 35.175C143.926 35.445 143.766 35.925 143.766 36.615V40.5H141.201V32.13H143.766V33.525ZM148.908 31.26C148.458 31.26 148.088 31.13 147.798 30.87C147.518 30.6 147.378 30.27 147.378 29.88C147.378 29.48 147.518 29.15 147.798 28.89C148.088 28.62 148.458 28.485 148.908 28.485C149.348 28.485 149.708 28.62 149.988 28.89C150.278 29.15 150.423 29.48 150.423 29.88C150.423 30.27 150.278 30.6 149.988 30.87C149.708 31.13 149.348 31.26 148.908 31.26ZM150.183 32.13V40.5H147.618V32.13H150.183ZM159.931 36.18C159.931 36.42 159.916 36.67 159.886 36.93H154.081C154.121 37.45 154.286 37.85 154.576 38.13C154.876 38.4 155.241 38.535 155.671 38.535C156.311 38.535 156.756 38.265 157.006 37.725H159.736C159.596 38.275 159.341 38.77 158.971 39.21C158.611 39.65 158.156 39.995 157.606 40.245C157.056 40.495 156.441 40.62 155.761 40.62C154.941 40.62 154.211 40.445 153.571 40.095C152.931 39.745 152.431 39.245 152.071 38.595C151.711 37.945 151.531 37.185 151.531 36.315C151.531 35.445 151.706 34.685 152.056 34.035C152.416 33.385 152.916 32.885 153.556 32.535C154.196 32.185 154.931 32.01 155.761 32.01C156.571 32.01 157.291 32.18 157.921 32.52C158.551 32.86 159.041 33.345 159.391 33.975C159.751 34.605 159.931 35.34 159.931 36.18ZM157.306 35.505C157.306 35.065 157.156 34.715 156.856 34.455C156.556 34.195 156.181 34.065 155.731 34.065C155.301 34.065 154.936 34.19 154.636 34.44C154.346 34.69 154.166 35.045 154.096 35.505H157.306ZM166.384 32.04C167.364 32.04 168.144 32.36 168.724 33C169.314 33.63 169.609 34.5 169.609 35.61V40.5H167.059V35.955C167.059 35.395 166.914 34.96 166.624 34.65C166.334 34.34 165.944 34.185 165.454 34.185C164.964 34.185 164.574 34.34 164.284 34.65C163.994 34.96 163.849 35.395 163.849 35.955V40.5H161.284V32.13H163.849V33.24C164.109 32.87 164.459 32.58 164.899 32.37C165.339 32.15 165.834 32.04 166.384 32.04ZM170.882 36.315C170.882 35.445 171.057 34.685 171.407 34.035C171.767 33.385 172.262 32.885 172.892 32.535C173.532 32.185 174.262 32.01 175.082 32.01C176.132 32.01 177.007 32.285 177.707 32.835C178.417 33.385 178.882 34.16 179.102 35.16H176.372C176.142 34.52 175.697 34.2 175.037 34.2C174.567 34.2 174.192 34.385 173.912 34.755C173.632 35.115 173.492 35.635 173.492 36.315C173.492 36.995 173.632 37.52 173.912 37.89C174.192 38.25 174.567 38.43 175.037 38.43C175.697 38.43 176.142 38.11 176.372 37.47H179.102C178.882 38.45 178.417 39.22 177.707 39.78C176.997 40.34 176.122 40.62 175.082 40.62C174.262 40.62 173.532 40.445 172.892 40.095C172.262 39.745 171.767 39.245 171.407 38.595C171.057 37.945 170.882 37.185 170.882 36.315ZM188.364 36.18C188.364 36.42 188.349 36.67 188.319 36.93H182.514C182.554 37.45 182.719 37.85 183.009 38.13C183.309 38.4 183.674 38.535 184.104 38.535C184.744 38.535 185.189 38.265 185.439 37.725H188.169C188.029 38.275 187.774 38.77 187.404 39.21C187.044 39.65 186.589 39.995 186.039 40.245C185.489 40.495 184.874 40.62 184.194 40.62C183.374 40.62 182.644 40.445 182.004 40.095C181.364 39.745 180.864 39.245 180.504 38.595C180.144 37.945 179.964 37.185 179.964 36.315C179.964 35.445 180.139 34.685 180.489 34.035C180.849 33.385 181.349 32.885 181.989 32.535C182.629 32.185 183.364 32.01 184.194 32.01C185.004 32.01 185.724 32.18 186.354 32.52C186.984 32.86 187.474 33.345 187.824 33.975C188.184 34.605 188.364 35.34 188.364 36.18ZM185.739 35.505C185.739 35.065 185.589 34.715 185.289 34.455C184.989 34.195 184.614 34.065 184.164 34.065C183.734 34.065 183.369 34.19 183.069 34.44C182.779 34.69 182.599 35.045 182.529 35.505H185.739ZM200.921 33.36C200.921 33.97 200.781 34.53 200.501 35.04C200.221 35.54 199.791 35.945 199.211 36.255C198.631 36.565 197.911 36.72 197.051 36.72H195.461V40.5H192.896V29.97H197.051C197.891 29.97 198.601 30.115 199.181 30.405C199.761 30.695 200.196 31.095 200.486 31.605C200.776 32.115 200.921 32.7 200.921 33.36ZM196.856 34.68C197.346 34.68 197.711 34.565 197.951 34.335C198.191 34.105 198.311 33.78 198.311 33.36C198.311 32.94 198.191 32.615 197.951 32.385C197.711 32.155 197.346 32.04 196.856 32.04H195.461V34.68H196.856ZM204.821 33.525C205.121 33.065 205.496 32.705 205.946 32.445C206.396 32.175 206.896 32.04 207.446 32.04V34.755H206.741C206.101 34.755 205.621 34.895 205.301 35.175C204.981 35.445 204.821 35.925 204.821 36.615V40.5H202.256V32.13H204.821V33.525ZM212.482 40.62C211.662 40.62 210.922 40.445 210.262 40.095C209.612 39.745 209.097 39.245 208.717 38.595C208.347 37.945 208.162 37.185 208.162 36.315C208.162 35.455 208.352 34.7 208.732 34.05C209.112 33.39 209.632 32.885 210.292 32.535C210.952 32.185 211.692 32.01 212.512 32.01C213.332 32.01 214.072 32.185 214.732 32.535C215.392 32.885 215.912 33.39 216.292 34.05C216.672 34.7 216.862 35.455 216.862 36.315C216.862 37.175 216.667 37.935 216.277 38.595C215.897 39.245 215.372 39.745 214.702 40.095C214.042 40.445 213.302 40.62 212.482 40.62ZM212.482 38.4C212.972 38.4 213.387 38.22 213.727 37.86C214.077 37.5 214.252 36.985 214.252 36.315C214.252 35.645 214.082 35.13 213.742 34.77C213.412 34.41 213.002 34.23 212.512 34.23C212.012 34.23 211.597 34.41 211.267 34.77C210.937 35.12 210.772 35.635 210.772 36.315C210.772 36.985 210.932 37.5 211.252 37.86C211.582 38.22 211.992 38.4 212.482 38.4ZM222.423 34.26H221.043V40.5H218.478V34.26H217.548V32.13H218.478V31.89C218.478 30.86 218.773 30.08 219.363 29.55C219.953 29.01 220.818 28.74 221.958 28.74C222.148 28.74 222.288 28.745 222.378 28.755V30.93C221.888 30.9 221.543 30.97 221.343 31.14C221.143 31.31 221.043 31.615 221.043 32.055V32.13H222.423V34.26ZM224.918 31.26C224.468 31.26 224.098 31.13 223.808 30.87C223.528 30.6 223.388 30.27 223.388 29.88C223.388 29.48 223.528 29.15 223.808 28.89C224.098 28.62 224.468 28.485 224.918 28.485C225.358 28.485 225.718 28.62 225.998 28.89C226.288 29.15 226.433 29.48 226.433 29.88C226.433 30.27 226.288 30.6 225.998 30.87C225.718 31.13 225.358 31.26 224.918 31.26ZM226.193 32.13V40.5H223.628V32.13H226.193ZM230.617 29.4V40.5H228.052V29.4H230.617ZM240.366 36.18C240.366 36.42 240.351 36.67 240.321 36.93H234.516C234.556 37.45 234.721 37.85 235.011 38.13C235.311 38.4 235.676 38.535 236.106 38.535C236.746 38.535 237.191 38.265 237.441 37.725H240.171C240.031 38.275 239.776 38.77 239.406 39.21C239.046 39.65 238.591 39.995 238.041 40.245C237.491 40.495 236.876 40.62 236.196 40.62C235.376 40.62 234.646 40.445 234.006 40.095C233.366 39.745 232.866 39.245 232.506 38.595C232.146 37.945 231.966 37.185 231.966 36.315C231.966 35.445 232.141 34.685 232.491 34.035C232.851 33.385 233.351 32.885 233.991 32.535C234.631 32.185 235.366 32.01 236.196 32.01C237.006 32.01 237.726 32.18 238.356 32.52C238.986 32.86 239.476 33.345 239.826 33.975C240.186 34.605 240.366 35.34 240.366 36.18ZM237.741 35.505C237.741 35.065 237.591 34.715 237.291 34.455C236.991 34.195 236.616 34.065 236.166 34.065C235.736 34.065 235.371 34.19 235.071 34.44C234.781 34.69 234.601 35.045 234.531 35.505H237.741ZM251.273 35.1C251.883 35.23 252.373 35.535 252.743 36.015C253.113 36.485 253.298 37.025 253.298 37.635C253.298 38.515 252.988 39.215 252.368 39.735C251.758 40.245 250.903 40.5 249.803 40.5H244.898V29.97H249.638C250.708 29.97 251.543 30.215 252.143 30.705C252.753 31.195 253.058 31.86 253.058 32.7C253.058 33.32 252.893 33.835 252.563 34.245C252.243 34.655 251.813 34.94 251.273 35.1ZM247.463 34.23H249.143C249.563 34.23 249.883 34.14 250.103 33.96C250.333 33.77 250.448 33.495 250.448 33.135C250.448 32.775 250.333 32.5 250.103 32.31C249.883 32.12 249.563 32.025 249.143 32.025H247.463V34.23ZM249.353 38.43C249.783 38.43 250.113 38.335 250.343 38.145C250.583 37.945 250.703 37.66 250.703 37.29C250.703 36.92 250.578 36.63 250.328 36.42C250.088 36.21 249.753 36.105 249.323 36.105H247.463V38.43H249.353ZM263.05 32.13V40.5H260.485V39.36C260.225 39.73 259.87 40.03 259.42 40.26C258.98 40.48 258.49 40.59 257.95 40.59C257.31 40.59 256.745 40.45 256.255 40.17C255.765 39.88 255.385 39.465 255.115 38.925C254.845 38.385 254.71 37.75 254.71 37.02V32.13H257.26V36.675C257.26 37.235 257.405 37.67 257.695 37.98C257.985 38.29 258.375 38.445 258.865 38.445C259.365 38.445 259.76 38.29 260.05 37.98C260.34 37.67 260.485 37.235 260.485 36.675V32.13H263.05ZM266.183 31.26C265.733 31.26 265.363 31.13 265.073 30.87C264.793 30.6 264.653 30.27 264.653 29.88C264.653 29.48 264.793 29.15 265.073 28.89C265.363 28.62 265.733 28.485 266.183 28.485C266.623 28.485 266.983 28.62 267.263 28.89C267.553 29.15 267.698 29.48 267.698 29.88C267.698 30.27 267.553 30.6 267.263 30.87C266.983 31.13 266.623 31.26 266.183 31.26ZM267.458 32.13V40.5H264.893V32.13H267.458ZM271.882 29.4V40.5H269.317V29.4H271.882ZM273.231 36.3C273.231 35.44 273.391 34.685 273.711 34.035C274.041 33.385 274.486 32.885 275.046 32.535C275.606 32.185 276.231 32.01 276.921 32.01C277.471 32.01 277.971 32.125 278.421 32.355C278.881 32.585 279.241 32.895 279.501 33.285V29.4H282.066V40.5H279.501V39.3C279.261 39.7 278.916 40.02 278.466 40.26C278.026 40.5 277.511 40.62 276.921 40.62C276.231 40.62 275.606 40.445 275.046 40.095C274.486 39.735 274.041 39.23 273.711 38.58C273.391 37.92 273.231 37.16 273.231 36.3ZM279.501 36.315C279.501 35.675 279.321 35.17 278.961 34.8C278.611 34.43 278.181 34.245 277.671 34.245C277.161 34.245 276.726 34.43 276.366 34.8C276.016 35.16 275.841 35.66 275.841 36.3C275.841 36.94 276.016 37.45 276.366 37.83C276.726 38.2 277.161 38.385 277.671 38.385C278.181 38.385 278.611 38.2 278.961 37.83C279.321 37.46 279.501 36.955 279.501 36.315ZM291.811 36.18C291.811 36.42 291.796 36.67 291.766 36.93H285.961C286.001 37.45 286.166 37.85 286.456 38.13C286.756 38.4 287.121 38.535 287.551 38.535C288.191 38.535 288.636 38.265 288.886 37.725H291.616C291.476 38.275 291.221 38.77 290.851 39.21C290.491 39.65 290.036 39.995 289.486 40.245C288.936 40.495 288.321 40.62 287.641 40.62C286.821 40.62 286.091 40.445 285.451 40.095C284.811 39.745 284.311 39.245 283.951 38.595C283.591 37.945 283.411 37.185 283.411 36.315C283.411 35.445 283.586 34.685 283.936 34.035C284.296 33.385 284.796 32.885 285.436 32.535C286.076 32.185 286.811 32.01 287.641 32.01C288.451 32.01 289.171 32.18 289.801 32.52C290.431 32.86 290.921 33.345 291.271 33.975C291.631 34.605 291.811 35.34 291.811 36.18ZM289.186 35.505C289.186 35.065 289.036 34.715 288.736 34.455C288.436 34.195 288.061 34.065 287.611 34.065C287.181 34.065 286.816 34.19 286.516 34.44C286.226 34.69 286.046 35.045 285.976 35.505H289.186ZM295.729 33.525C296.029 33.065 296.404 32.705 296.854 32.445C297.304 32.175 297.804 32.04 298.354 32.04V34.755H297.649C297.009 34.755 296.529 34.895 296.209 35.175C295.889 35.445 295.729 35.925 295.729 36.615V40.5H293.164V32.13H295.729V33.525Z" fill="#FFE071"/>
</svg>
